<svg width="579" height="181" viewBox="0 0 579 181" fill="none" xmlns="http://www.w3.org/2000/svg">
<path d="M7.95614 68.0146H4.89673V18.7625H7.95614V27.7357C12.9171 21.1425 18.5615 17.8459 24.8854 17.8459V21.5164C24.2743 21.448 23.4582 21.4118 22.4371 21.4118C19.9204 21.4118 17.1665 22.433 14.1795 24.4713C11.1884 26.5095 9.11397 28.7207 7.96016 31.1006V68.0146H7.95614Z" fill="white"/>
<path d="M37.4245 10.2999C36.6767 10.2999 35.9973 10.0104 35.3862 9.43148C34.7751 8.85257 34.4696 8.15706 34.4696 7.34095C34.4696 6.52484 34.7751 5.82934 35.3862 5.25043C35.9973 4.67553 36.6767 4.38205 37.4245 4.38205C38.2406 4.38205 38.9361 4.67151 39.515 5.25043C40.0939 5.82934 40.3834 6.52484 40.3834 7.34095C40.3834 8.15706 40.0939 8.85257 39.515 9.43148C38.9361 10.0104 38.2406 10.2999 37.4245 10.2999ZM38.9562 68.0186H35.8968V18.7625H38.9562V68.0145V68.0186Z" fill="white"/>
<path d="M77.0924 69.2407C70.1614 69.2407 64.5492 66.7441 60.2676 61.747C55.9861 56.7498 53.8433 50.6149 53.8433 43.3423C53.8433 36.0697 55.982 29.9508 60.2676 24.9858C64.5492 20.0249 70.1614 17.5403 77.0924 17.5403C80.8995 17.5403 84.0916 18.2198 86.6766 19.5786C89.2616 20.9415 91.6738 23.0119 93.9171 25.7979L91.6738 27.6352C88.0676 22.7385 83.2755 20.2942 77.2934 20.2942C71.3112 20.2942 66.2095 22.4852 62.6074 26.8713C59.0053 31.2574 57.2042 36.7491 57.2042 43.3383C57.2042 49.9275 59.0213 55.5236 62.6597 59.9097C66.298 64.2958 71.1745 66.4869 77.2934 66.4869C83.4122 66.4869 87.9993 64.0064 91.6738 59.0414L93.9171 60.9791C91.6738 63.7692 89.2616 65.8396 86.6766 67.1984C84.0916 68.5573 80.8995 69.2367 77.0924 69.2367V69.2407Z" fill="white"/>
<path d="M141.641 68.0146H138.582V61.9962C134.164 66.8246 128.487 69.2367 121.552 69.2367C116.929 69.2367 112.901 67.7573 109.467 64.8024C106.034 61.8435 104.317 57.8514 104.317 52.822C104.317 47.7927 106.014 43.7966 109.415 40.8417C112.812 37.8828 116.861 36.4074 121.552 36.4074C128.487 36.4074 134.16 38.8195 138.582 43.6478V32.5318C138.582 28.7247 137.255 25.7336 134.606 23.5587C131.953 21.3837 128.656 20.2942 124.716 20.2942C118.461 20.2942 113.194 22.8792 108.908 28.0453L106.565 26.007C109.081 23.0843 111.731 20.9455 114.517 19.5826C117.303 18.2238 120.704 17.5444 124.716 17.5444C129.745 17.5444 133.826 18.8188 136.954 21.3676C140.077 23.9165 141.645 27.607 141.645 32.4313V68.0186L141.641 68.0146ZM122.368 66.4869C129.368 66.4869 134.775 63.9742 138.582 58.9408V46.7032C134.775 41.6739 129.372 39.1572 122.368 39.1572C117.95 39.1572 114.396 40.4678 111.711 43.081C109.025 45.6982 107.682 48.9425 107.682 52.818C107.682 56.6935 109.025 59.9419 111.711 62.5551C114.396 65.1722 117.946 66.4828 122.368 66.4828V66.4869Z" fill="white"/>
<path d="M162.237 68.0146H159.178V18.7625H162.237V27.7357C167.198 21.1425 172.843 17.8459 179.166 17.8459V21.5164C178.555 21.448 177.739 21.4118 176.718 21.4118C174.201 21.4118 171.448 22.433 168.46 24.4713C165.469 26.5095 163.395 28.7207 162.241 31.1006V68.0146H162.237Z" fill="white"/>
<path d="M230.352 68.0145H227.293V59.757C225.524 62.4746 223.043 64.738 219.847 66.5391C216.651 68.3402 213.218 69.2407 209.547 69.2407C202.882 69.2407 197.547 66.8969 193.539 62.2053C189.527 57.5137 187.52 51.2622 187.52 43.4428C187.52 35.6234 189.543 29.4403 193.587 24.6803C197.631 19.9203 202.95 17.5403 209.547 17.5403C213.15 17.5403 216.498 18.4047 219.59 20.1414C222.682 21.8742 225.25 24.2381 227.289 27.2291V0H230.348V68.0145H230.352ZM209.551 66.4868C213.222 66.4868 216.691 65.534 219.952 63.6325C223.216 61.7309 225.661 59.4193 227.297 56.6975V30.2885C225.665 27.5709 223.216 25.223 219.952 23.2531C216.691 21.2832 213.222 20.2942 209.551 20.2942C203.702 20.2942 199.131 22.4692 195.834 26.8191C192.538 31.169 190.889 36.7089 190.889 43.4388C190.889 50.1687 192.538 55.6925 195.834 60.0102C199.131 64.328 203.702 66.4868 209.551 66.4868Z" fill="white"/>
<path d="M268.187 69.2407C261.388 69.2407 255.861 66.7763 251.615 61.8475C247.366 56.9187 245.243 50.7516 245.243 43.3383C245.243 35.9249 247.366 29.8624 251.615 24.9336C255.861 20.0048 261.388 17.5403 268.187 17.5403C274.985 17.5403 280.593 19.9887 284.806 24.8813C289.02 29.778 291.13 35.929 291.13 43.3383C291.13 50.7476 289.024 56.9187 284.806 61.8475C280.593 66.7763 275.049 69.2407 268.187 69.2407ZM268.187 66.4869C274.237 66.4869 279.013 64.2275 282.515 59.7047C286.016 55.1859 287.765 49.7305 287.765 43.3383C287.765 36.9461 286.012 31.5951 282.515 27.0724C279.013 22.5536 274.237 20.2902 268.187 20.2902C262.136 20.2902 257.445 22.5496 253.911 27.0724C250.377 31.5951 248.608 37.0144 248.608 43.3383C248.608 49.6621 250.373 55.1859 253.911 59.7047C257.445 64.2275 262.205 66.4869 268.187 66.4869Z" fill="white"/>
<path d="M323.047 68.0145H319.477L298.371 18.7625H301.941L321.314 64.4445L340.587 18.7625H344.157L323.051 68.0145H323.047Z" fill="white"/>
<path d="M388.923 68.0146H385.863V61.9962C381.445 66.8246 375.769 69.2367 368.834 69.2367C364.21 69.2367 360.182 67.7573 356.749 64.8024C353.315 61.8435 351.599 57.8514 351.599 52.822C351.599 47.7927 353.295 43.7966 356.696 40.8417C360.094 37.8828 364.142 36.4074 368.834 36.4074C375.769 36.4074 381.441 38.8195 385.863 43.6478V32.5318C385.863 28.7247 384.537 25.7336 381.887 23.5587C379.234 21.3837 375.937 20.2942 371.998 20.2942C365.742 20.2942 360.475 22.8792 356.19 28.0453L353.846 26.007C356.363 23.0843 359.012 20.9455 361.798 19.5826C364.584 18.2238 367.985 17.5444 371.998 17.5444C377.027 17.5444 381.107 18.8188 384.235 21.3676C387.359 23.9165 388.927 27.607 388.927 32.4313V68.0186L388.923 68.0146ZM369.65 66.4869C376.649 66.4869 382.056 63.9742 385.863 58.9408V46.7032C382.056 41.6739 376.653 39.1572 369.65 39.1572C365.231 39.1572 361.678 40.4678 358.992 43.081C356.306 45.6982 354.964 48.9425 354.964 52.818C354.964 56.6935 356.306 59.9419 358.992 62.5551C361.678 65.1722 365.227 66.4828 369.65 66.4828V66.4869Z" fill="white"/>
<path d="M409.518 68.0146H406.459V18.7625H409.518V27.7357C414.479 21.1425 420.124 17.8459 426.448 17.8459V21.5164C425.837 21.448 425.02 21.4118 423.999 21.4118C421.483 21.4118 418.729 22.433 415.742 24.4713C412.751 26.5095 410.676 28.7207 409.522 31.1006V68.0146H409.518Z" fill="white"/>
<path d="M456.833 88.0032C452.551 88.0032 449.03 87.4926 446.28 86.4755C443.526 85.4544 440.756 83.4844 437.97 80.5617L440.213 78.0129C442.32 80.6663 444.647 82.5316 447.196 83.6211C449.745 84.7066 452.957 85.2534 456.833 85.2534C462.067 85.2534 466.333 83.8422 469.629 81.02C472.926 78.1978 474.574 73.9685 474.574 68.3241V59.757C472.737 62.4746 470.24 64.7702 467.076 66.6396C463.916 68.509 460.499 69.4417 456.829 69.4417C450.163 69.4417 444.828 67.0818 440.82 62.354C436.808 57.6302 434.802 51.3587 434.802 43.5393C434.802 35.7199 436.824 29.5167 440.868 24.7245C444.913 19.9324 450.232 17.5363 456.829 17.5363C460.431 17.5363 463.78 18.4007 466.871 20.1374C469.963 21.8701 472.532 24.234 474.57 27.2251V18.7625H477.63V68.3201C477.63 75.05 475.744 80.011 471.969 83.2071C468.198 86.4031 463.149 87.9992 456.829 87.9992L456.833 88.0032ZM456.833 66.6919C460.503 66.6919 463.973 65.7069 467.233 63.733C470.498 61.7631 472.942 59.4152 474.578 56.6975V30.2885C472.946 27.5709 470.498 25.223 467.233 23.2531C463.973 21.2832 460.503 20.2942 456.833 20.2942C450.983 20.2942 446.412 22.4852 443.116 26.8713C439.819 31.2574 438.171 36.8134 438.171 43.5433C438.171 50.2732 439.819 55.8171 443.116 60.163C446.412 64.5129 450.983 66.6879 456.833 66.6879V66.6919Z" fill="white"/>
<path d="M530.05 68.0146H526.99V61.9962C522.572 66.8246 516.895 69.2367 509.96 69.2367C505.337 69.2367 501.309 67.7573 497.875 64.8024C494.442 61.8435 492.726 57.8514 492.726 52.822C492.726 47.7927 494.422 43.7966 497.823 40.8417C501.22 37.8828 505.269 36.4074 509.96 36.4074C516.895 36.4074 522.568 38.8195 526.99 43.6478V32.5318C526.99 28.7247 525.663 25.7336 523.014 23.5587C520.361 21.3837 517.064 20.2942 513.124 20.2942C506.869 20.2942 501.602 22.8792 497.317 28.0453L494.973 26.007C497.49 23.0843 500.139 20.9455 502.925 19.5826C505.711 18.2238 509.112 17.5444 513.124 17.5444C518.154 17.5444 522.234 18.8188 525.362 21.3676C528.486 23.9165 530.054 27.607 530.054 32.4313V68.0186L530.05 68.0146ZM510.777 66.4869C517.776 66.4869 523.183 63.9742 526.99 58.9408V46.7032C523.183 41.6739 517.78 39.1572 510.777 39.1572C506.358 39.1572 502.804 40.4678 500.119 43.081C497.433 45.6982 496.091 48.9425 496.091 52.818C496.091 56.6935 497.433 59.9419 500.119 62.5551C502.804 65.1722 506.354 66.4828 510.777 66.4828V66.4869Z" fill="white"/>
<path d="M561.351 69.2407C553.874 69.2407 547.855 66.6235 543.3 61.3892L545.749 59.1459C549.419 64.0425 554.621 66.4868 561.351 66.4868C565.769 66.4868 569.307 65.4175 571.957 63.2747C574.61 61.1319 575.933 58.3981 575.933 55.0653C575.933 52.2793 574.847 50.0682 572.672 48.4359C570.497 46.8037 567.864 45.5976 564.768 44.8137C561.673 44.0338 558.581 43.2177 555.49 42.3654C552.394 41.5171 549.761 40.1381 547.586 38.2366C545.411 36.335 544.325 33.7862 544.325 30.5901C544.325 26.8512 545.821 23.7436 548.812 21.2591C551.803 18.7786 555.884 17.5363 561.05 17.5363C568.459 17.5363 574.103 20.0168 577.979 24.9818L575.736 27.0201C572.608 22.5335 567.715 20.2902 561.05 20.2902C556.832 20.2902 553.504 21.2591 551.055 23.1968C548.607 25.1346 547.385 27.599 547.385 30.5901C547.385 33.1067 548.47 35.0968 550.649 36.5561C552.824 38.0195 555.457 39.121 558.553 39.8688C561.645 40.6166 564.736 41.4327 567.832 42.3171C570.923 43.2016 573.557 44.681 575.736 46.7514C577.911 48.8259 579 51.5959 579 55.0613C579 59.1419 577.484 62.5229 574.461 65.2084C571.434 67.8939 567.068 69.2367 561.359 69.2367L561.351 69.2407Z" fill="white"/>
<path d="M48.44 160.81H37.734V154.08C33.6535 159.383 28.387 162.032 21.9264 162.032C15.4659 162.032 10.1994 159.72 6.11882 155.097C2.03827 150.474 0 144.186 0 136.234C0 128.282 2.03827 122.059 6.11882 117.367C10.1994 112.675 15.4659 110.332 21.9264 110.332C28.387 110.332 33.6535 113.017 37.734 118.388V92.7913H48.44V160.806V160.81ZM24.9858 152.552C27.5025 152.552 29.9468 151.941 32.3308 150.715C34.7108 149.493 36.5119 147.929 37.734 146.023V126.445C36.5119 124.543 34.7068 122.963 32.3308 121.705C29.9508 120.447 27.5025 119.819 24.9858 119.819C20.7686 119.819 17.4036 121.351 14.891 124.407C12.3743 127.466 11.12 131.41 11.12 136.234C11.12 141.058 12.3783 144.986 14.891 148.009C17.4077 151.037 20.7726 152.548 24.9858 152.548V152.552Z" fill="white"/>
<path d="M85.0484 162.036C77.5707 162.036 71.3996 159.64 66.5432 154.848C61.6827 150.056 59.2504 143.82 59.2504 136.134C59.2504 128.929 61.6143 122.827 66.3381 117.829C71.0619 112.832 77.028 110.336 84.2363 110.336C91.4446 110.336 97.3744 112.852 101.825 117.882C106.275 122.915 108.502 129.339 108.502 137.155V139.704H70.4669C70.877 143.579 72.473 146.807 75.2591 149.392C78.0451 151.977 81.6834 153.268 86.17 153.268C88.6867 153.268 91.2194 152.793 93.7683 151.841C96.3171 150.888 98.4398 149.565 100.144 147.865L105.041 154.9C100.076 159.66 93.4145 162.04 85.0524 162.04L85.0484 162.036ZM98.1021 132.158C97.9654 128.76 96.7231 125.733 94.3793 123.084C92.0355 120.43 88.6505 119.108 84.2322 119.108C79.814 119.108 76.7184 120.418 74.3424 123.036C71.9625 125.653 70.6358 128.696 70.3664 132.162H98.1021V132.158Z" fill="white"/>
<path d="M135.929 162.036C127.092 162.036 120.053 159.487 114.822 154.39L119.719 146.639C121.552 148.544 124.033 150.172 127.164 151.535C130.288 152.898 133.384 153.573 136.443 153.573C139.503 153.573 141.967 152.962 143.631 151.736C145.296 150.514 146.128 148.918 146.128 146.944C146.128 145.175 145.111 143.8 143.069 142.815C141.03 141.83 138.546 141.046 135.623 140.471C132.7 139.893 129.778 139.181 126.855 138.329C123.932 137.48 121.452 135.969 119.409 133.79C117.371 131.615 116.35 128.793 116.35 125.327C116.35 121.114 118.083 117.56 121.552 114.669C125.018 111.779 129.741 110.336 135.728 110.336C143.274 110.336 149.662 112.647 154.9 117.271L150.414 124.817C148.85 123.048 146.775 121.62 144.194 120.535C141.609 119.45 138.823 118.903 135.832 118.903C133.042 118.903 130.819 119.462 129.155 120.583C127.486 121.705 126.654 123.152 126.654 124.917C126.654 126.276 127.386 127.382 128.845 128.23C130.308 129.082 132.142 129.709 134.353 130.115C136.56 130.525 138.956 131.084 141.541 131.8C144.126 132.515 146.522 133.348 148.729 134.296C150.936 135.249 152.773 136.797 154.237 138.936C155.696 141.078 156.428 143.676 156.428 146.735C156.428 151.222 154.627 154.892 151.025 157.746C147.423 160.601 142.389 162.028 135.933 162.028L135.929 162.036Z" fill="white"/>
<path d="M172.537 105.544C170.768 105.544 169.224 104.896 167.898 103.606C166.571 102.315 165.908 100.751 165.908 98.9141C165.908 97.0769 166.571 95.517 167.898 94.2225C169.224 92.932 170.768 92.2848 172.537 92.2848C174.306 92.2848 175.934 92.932 177.229 94.2225C178.519 95.513 179.166 97.0769 179.166 98.9141C179.166 100.751 178.519 102.315 177.229 103.606C175.938 104.896 174.374 105.544 172.537 105.544ZM177.94 160.814H167.234V111.562H177.94V160.814Z" fill="white"/>
<path d="M211.795 180.799C203.433 180.799 196.566 178.35 191.195 173.458L196.192 165.707C199.863 169.92 205.065 172.03 211.795 172.03C215.875 172.03 219.325 170.961 222.143 168.818C224.965 166.675 226.376 163.294 226.376 158.671V152.757C222.159 158.197 216.892 160.914 210.569 160.914C204.245 160.914 198.858 158.671 194.813 154.185C190.769 149.698 188.747 143.511 188.747 135.627C188.747 127.743 190.769 121.641 194.813 117.118C198.858 112.599 204.108 110.336 210.569 110.336C217.029 110.336 222.296 113.021 226.376 118.392V111.562H237.082V158.265C237.082 162.478 236.35 166.133 234.891 169.228C233.428 172.32 231.442 174.668 228.925 176.264C226.408 177.86 223.739 179.018 220.921 179.729C218.098 180.445 215.059 180.799 211.795 180.799ZM213.732 151.431C216.181 151.431 218.593 150.783 220.973 149.493C223.353 148.202 225.154 146.639 226.376 144.801V126.445C225.154 124.608 223.349 123.048 220.973 121.753C218.593 120.463 216.181 119.815 213.732 119.815C209.515 119.815 206.15 121.263 203.638 124.149C201.121 127.04 199.867 130.863 199.867 135.623C199.867 140.383 201.125 144.206 203.638 147.097C206.154 149.987 209.519 151.431 213.732 151.431Z" fill="white"/>
<path d="M294.901 160.81H284.195V130.015C284.195 123.217 280.899 119.815 274.301 119.815C271.716 119.815 269.304 120.463 267.061 121.753C264.818 123.044 263.013 124.608 261.654 126.445V160.81H250.948V111.558H261.654V118.288C263.491 116.113 265.935 114.243 268.999 112.679C272.058 111.116 275.387 110.336 278.993 110.336C284.227 110.336 288.187 111.695 290.873 114.412C293.558 117.134 294.901 121.042 294.901 126.139V160.81Z" fill="white"/>
<path d="M325.596 162.036C316.759 162.036 309.72 159.487 304.49 154.39L309.386 146.639C311.219 148.544 313.7 150.172 316.832 151.535C319.955 152.898 323.051 153.573 326.11 153.573C329.17 153.573 331.634 152.962 333.299 151.736C334.963 150.514 335.795 148.918 335.795 146.944C335.795 145.175 334.778 143.8 332.736 142.815C330.697 141.83 328.213 141.046 325.29 140.471C322.368 139.893 319.445 139.181 316.522 138.329C313.599 137.48 311.119 135.969 309.077 133.79C307.038 131.615 306.017 128.793 306.017 125.327C306.017 121.114 307.75 117.56 311.219 114.669C314.685 111.779 319.409 110.336 325.395 110.336C332.941 110.336 339.329 112.647 344.567 117.271L340.081 124.817C338.517 123.048 336.442 121.62 333.861 120.535C331.276 119.45 328.49 118.903 325.499 118.903C322.709 118.903 320.486 119.462 318.822 120.583C317.153 121.705 316.321 123.152 316.321 124.917C316.321 126.276 317.053 127.382 318.512 128.23C319.975 129.082 321.809 129.709 324.02 130.115C326.227 130.525 328.623 131.084 331.208 131.8C333.793 132.515 336.189 133.348 338.396 134.296C340.603 135.249 342.441 136.797 343.904 138.936C345.363 141.078 346.095 143.676 346.095 146.735C346.095 151.222 344.294 154.892 340.692 157.746C337.09 160.601 332.056 162.028 325.6 162.028L325.596 162.036Z" fill="white"/>
<path d="M371.684 162.036C367.535 162.036 364.391 160.947 362.252 158.772C360.11 156.597 359.04 153.469 359.04 149.392V120.941H350.883V111.562H359.04V98.1021H369.746V111.562H379.74V120.941H369.746V146.739C369.746 148.508 370.152 149.919 370.968 150.972C371.784 152.026 372.938 152.552 374.434 152.552C376.609 152.552 378.205 151.973 379.226 150.82L381.775 158.876C379.531 160.983 376.167 162.036 371.68 162.036H371.684Z" fill="white"/>
<path d="M433.379 160.81H422.673V154.285C418.049 159.451 412.236 162.036 405.237 162.036C394.7 162.036 389.429 156.838 389.429 146.433V111.558H400.135V142.558C400.135 146.164 400.983 148.729 402.684 150.257C404.385 151.784 406.829 152.552 410.029 152.552C412.614 152.552 415.026 151.941 417.27 150.715C419.513 149.493 421.314 147.961 422.673 146.128V111.558H433.379V160.81Z" fill="white"/>
<path d="M492.621 160.81H481.915V154.08C477.835 159.383 472.568 162.032 466.107 162.032C459.647 162.032 454.38 159.72 450.3 155.097C446.219 150.474 444.181 144.186 444.181 136.234C444.181 128.282 446.219 122.059 450.3 117.367C454.38 112.675 459.647 110.332 466.107 110.332C472.568 110.332 477.835 113.017 481.915 118.388V92.7913H492.621V160.806V160.81ZM469.167 152.552C471.684 152.552 474.128 151.941 476.512 150.715C478.892 149.493 480.693 147.929 481.915 146.023V126.445C480.693 124.543 478.888 122.963 476.512 121.705C474.132 120.447 471.684 119.819 469.167 119.819C464.95 119.819 461.585 121.351 459.072 124.407C456.555 127.466 455.301 131.41 455.301 136.234C455.301 141.058 456.559 144.986 459.072 148.009C461.589 151.037 464.954 152.548 469.167 152.548V152.552Z" fill="white"/>
<path d="M511.793 105.544C510.025 105.544 508.481 104.896 507.154 103.606C505.827 102.315 505.164 100.751 505.164 98.9141C505.164 97.0769 505.827 95.517 507.154 94.2225C508.481 92.932 510.025 92.2848 511.793 92.2848C513.562 92.2848 515.191 92.932 516.485 94.2225C517.776 95.513 518.423 97.0769 518.423 98.9141C518.423 100.751 517.776 102.315 516.485 103.606C515.195 104.896 513.631 105.544 511.793 105.544ZM517.197 160.814H506.491V111.562H517.197V160.814Z" fill="white"/>
<path d="M553.295 162.036C545.68 162.036 539.561 159.539 534.938 154.542C530.315 149.545 528.003 143.41 528.003 136.138C528.003 128.865 530.315 122.746 534.938 117.781C539.561 112.82 545.68 110.336 553.295 110.336C560.909 110.336 567.128 112.816 571.751 117.781C576.375 122.746 578.682 128.861 578.682 136.138C578.682 143.414 576.371 149.634 571.751 154.595C567.128 159.56 560.977 162.04 553.295 162.04V162.036ZM553.295 152.552C557.713 152.552 561.198 150.972 563.747 147.812C566.296 144.652 567.57 140.761 567.57 136.138C567.57 131.514 566.296 127.723 563.747 124.563C561.198 121.403 557.713 119.823 553.295 119.823C548.876 119.823 545.495 121.403 542.946 124.563C540.398 127.723 539.123 131.583 539.123 136.138C539.123 140.693 540.398 144.652 542.946 147.812C545.495 150.972 548.945 152.552 553.295 152.552Z" fill="white"/>
</svg>
