<svg width="171" height="50" viewBox="0 0 171 50" fill="none" xmlns="http://www.w3.org/2000/svg">
<path d="M65.76 16.2197V48.6497H72.28C73.39 48.6497 74.3 47.7497 74.3 46.6297V30.9897C74.3 30.9897 74.14 25.0497 79.93 22.0397C82.12 20.8997 84.56 20.5497 86.97 21.0897V15.3597C86.97 14.1997 86 13.2797 84.84 13.3497C82.2 13.5097 77.62 14.7297 74.19 20.3997V14.1997H67.77C66.66 14.1997 65.75 15.0997 65.75 16.2197H65.76Z" fill="black"/>
<path d="M42.38 16.2197V48.6497H48.9C50.01 48.6497 50.92 47.7497 50.92 46.6297V30.9897C50.92 30.9897 50.76 25.0497 56.55 22.0397C58.74 20.8997 61.18 20.5497 63.59 21.0897V15.3597C63.59 14.1997 62.62 13.2797 61.46 13.3497C58.82 13.5097 54.24 14.7297 50.81 20.3997V14.1997H44.39C43.28 14.1997 42.37 15.0997 42.37 16.2197H42.38Z" fill="black"/>
<path d="M96.01 14.1997H97.69V41.7797C97.69 45.5697 94.62 48.6397 90.83 48.6397H89.15V21.0597C89.15 17.2697 92.22 14.1997 96.01 14.1997Z" fill="black"/>
<path d="M93.4201 10.9297C96.1705 10.9297 98.4001 8.70009 98.4001 5.94971C98.4001 3.19933 96.1705 0.969727 93.4201 0.969727C90.6697 0.969727 88.4401 3.19933 88.4401 5.94971C88.4401 8.70009 90.6697 10.9297 93.4201 10.9297Z" fill="black"/>
<path d="M99.8601 14.1997L114.01 47.4197C114.33 48.1597 115.06 48.6497 115.86 48.6497H121.74C122.55 48.6497 123.28 48.1697 123.59 47.4197L137.71 14.2697H130.53C129.72 14.2697 128.99 14.7497 128.68 15.4897L118.8 38.6297L108.91 15.4297C108.59 14.6897 107.86 14.1997 107.06 14.1997H99.8501H99.8601Z" fill="black"/>
<path d="M38.89 18.7498C36.91 16.1898 33.49 14.8498 30.51 14.1498C28.36 13.6498 26.45 13.4697 25.47 13.4197C25.36 13.4197 25.27 13.4098 25.18 13.4098C25.14 13.4098 24.56 13.3897 24.44 13.3897C12.81 13.1997 0.980026 18.7097 0.980026 33.7997C0.980026 33.7997 0.680004 49.5197 16.27 49.5197C21.86 49.5197 25.17 48.1197 27.11 46.3297V46.6598C27.11 47.7698 28.01 48.6697 29.13 48.6697H35.65V20.8798C38.56 21.2898 40.62 21.0098 38.88 18.7498H38.89ZM27.12 38.8897C24.97 41.3997 21.79 42.9797 18.23 42.9797C17.43 42.9797 15.54 42.8897 14.12 42.2297C8.53001 39.7097 9.39001 32.0098 9.46001 31.4698C9.46001 31.4598 9.46001 31.4497 9.46001 31.4497C10.15 25.5397 14.41 21.2897 19.13 20.0797C19.51 19.9797 23.76 19.0298 27.12 19.5998V38.8897Z" fill="black"/>
<path d="M152.91 13.3397C143.14 13.3397 135.22 21.4397 135.22 31.4297C135.22 41.4197 143.14 49.5197 152.91 49.5197C162.68 49.5197 170.61 41.4197 170.61 31.4297C170.61 21.4397 162.69 13.3397 152.91 13.3397ZM152.91 41.9997C147.24 41.9997 142.64 37.2697 142.64 31.4297C142.64 25.5897 147.24 20.8597 152.91 20.8597C158.58 20.8597 163.18 25.5897 163.18 31.4297C163.18 37.2697 158.58 41.9997 152.91 41.9997Z" fill="black"/>
<path d="M170.6 14.5897V20.2097C170.6 20.6897 169.98 20.8697 169.72 20.4597C168.15 17.9497 166.06 15.8197 163.6 14.2197C163.2 13.9597 163.39 13.3497 163.86 13.3497H169.36C170.05 13.3497 170.61 13.9097 170.61 14.5997L170.6 14.5897Z" fill="black"/>
</svg>
