<svg width="182" height="51" viewBox="0 0 182 51" fill="none" xmlns="http://www.w3.org/2000/svg">
<path d="M38.2499 9.09984C38.6899 9.09984 39.2299 9.13984 39.8699 9.21984C40.4999 9.29984 41.3399 9.46984 42.3899 9.71984V16.7098C41.7599 16.4198 41.0899 16.2698 40.3899 16.2298C40.2299 16.1998 40.0898 16.1798 39.9598 16.1798C39.4198 16.1798 38.8999 16.2598 38.3899 16.4198C37.8199 16.6398 37.3398 16.9798 36.9598 17.4198C36.5798 17.8598 36.3899 18.4198 36.3899 19.0898V34.2198H28.3499V18.7098C28.3499 17.0298 28.5999 15.5898 29.1099 14.3798C29.6199 13.1698 30.3199 12.1798 31.2299 11.3798C32.1299 10.5898 33.1799 10.0098 34.3699 9.63984C35.5599 9.27984 36.8499 9.08984 38.2499 9.08984" fill="black"/>
<path d="M13.5898 13.7098C14.6398 13.7098 15.4298 13.4098 15.9698 12.8098C16.5098 12.1398 16.7799 11.4298 16.7799 10.6698C16.7799 9.90985 16.5098 9.22985 15.9698 8.61985C15.4598 8.01985 14.6698 7.71984 13.5898 7.71984H8.63989V13.7098H13.5898ZM13.5898 26.7498C14.8598 26.7498 15.8098 26.3898 16.4398 25.6798C17.0698 24.9698 17.3899 24.1698 17.3899 23.2998C17.3899 22.4298 17.0698 21.6298 16.4398 20.9198C15.8098 20.2098 14.8498 19.8498 13.5898 19.8498H8.63989V26.7498H13.5898ZM25.9099 24.1298C25.9099 24.6398 25.8799 25.0998 25.8099 25.5098C25.3699 28.2398 24.1899 30.3698 22.2899 31.9098C20.3899 33.4498 17.5598 34.2198 13.8198 34.2198H0.0698242V0.529846H13.5798C15.1998 0.529846 16.6799 0.769845 18.0299 1.23985C19.3799 1.71985 20.5399 2.38985 21.5299 3.25985C22.5199 4.12985 23.2599 5.19984 23.7699 6.46984C24.2799 7.67984 24.5299 9.01985 24.5299 10.5098V10.7998C24.5299 11.1798 24.4598 11.6198 24.3198 12.1298C24.1798 12.6398 23.9599 13.1498 23.6799 13.6498C23.3899 14.1598 23.0399 14.6398 22.6099 15.0998C22.1799 15.5598 21.6699 15.9498 21.0599 16.2698C22.1999 16.8398 23.1099 17.5198 23.7999 18.3198C24.4799 19.1098 24.9898 19.9398 25.3198 20.7898C25.6498 21.6498 25.8399 22.4898 25.8699 23.3098C25.8999 23.5998 25.9199 23.8598 25.9199 24.1198L25.9099 24.1298Z" fill="black"/>
<path d="M164.26 43.6398C164.12 43.6398 163.99 43.6598 163.85 43.6898C163.71 43.7298 163.59 43.7798 163.48 43.8498C163.37 43.9198 163.28 44.0098 163.22 44.1198C163.15 44.2298 163.12 44.3498 163.12 44.4998V46.5998C163.12 46.7398 163.15 46.8698 163.22 46.9898C163.29 47.1098 163.38 47.1998 163.48 47.2798C163.59 47.3598 163.71 47.4198 163.85 47.4598C163.99 47.4998 164.12 47.5198 164.26 47.5198C164.39 47.5198 164.52 47.4998 164.65 47.4598C164.78 47.4198 164.9 47.3598 165.01 47.2798C165.12 47.1998 165.21 47.0998 165.27 46.9898C165.34 46.8698 165.37 46.7398 165.37 46.5998V44.4998C165.37 44.3598 165.34 44.2298 165.27 44.1198C165.2 44.0098 165.11 43.9198 165.01 43.8498C164.9 43.7798 164.78 43.7198 164.65 43.6898C164.52 43.6498 164.39 43.6398 164.26 43.6398ZM161.8 44.4998C161.8 44.1398 161.87 43.8298 162.01 43.5598C162.15 43.2998 162.34 43.0698 162.57 42.8898C162.8 42.7098 163.07 42.5698 163.36 42.4798C163.66 42.3898 163.96 42.3398 164.26 42.3398C164.56 42.3398 164.85 42.3898 165.14 42.4798C165.43 42.5698 165.69 42.7098 165.93 42.8898C166.16 43.0698 166.35 43.2898 166.49 43.5598C166.63 43.8198 166.7 44.1398 166.7 44.4998V46.6599C166.7 47.0199 166.63 47.3298 166.49 47.5998C166.35 47.8698 166.16 48.0898 165.93 48.2698C165.7 48.4498 165.44 48.5798 165.14 48.6698C164.85 48.7598 164.55 48.7999 164.26 48.7999C163.97 48.7999 163.66 48.7598 163.36 48.6698C163.06 48.5798 162.8 48.4498 162.57 48.2698C162.34 48.0898 162.15 47.8698 162.01 47.5998C161.87 47.3298 161.8 47.0199 161.8 46.6599V44.4998ZM159.95 42.4698H161.35L159.14 48.6898H157.78L155.58 42.4698H156.97L158.22 46.0998L158.42 47.3398H158.5L158.72 46.0998L159.93 42.4698H159.95ZM154.84 48.6898H153.48V42.4798H154.84V48.6898ZM153.33 40.9098C153.33 40.6598 153.41 40.4498 153.58 40.2898C153.74 40.1198 153.95 40.0398 154.2 40.0398C154.45 40.0398 154.66 40.1198 154.82 40.2898C154.99 40.4598 155.07 40.6698 155.07 40.9098C155.07 41.1498 154.99 41.3698 154.82 41.5298C154.65 41.6998 154.44 41.7798 154.2 41.7798C153.96 41.7798 153.75 41.6998 153.58 41.5298C153.42 41.3598 153.33 41.1498 153.33 40.9098ZM152.09 48.8098C151.79 48.8098 151.5 48.7698 151.23 48.6798C150.96 48.5998 150.73 48.4598 150.53 48.2798C150.33 48.0998 150.17 47.8698 150.06 47.5898C149.95 47.3098 149.89 46.9698 149.89 46.5798V40.9998H151.08L151.2 42.4598H152.39V43.6598H151.2V46.5698C151.2 46.8198 151.24 47.0098 151.31 47.1498C151.39 47.2898 151.49 47.3898 151.62 47.4598C151.75 47.5298 151.89 47.5698 152.06 47.5898C152.22 47.6098 152.4 47.6098 152.58 47.6098V48.7598C152.41 48.7798 152.25 48.7999 152.09 48.7999V48.8098ZM146.23 45.9798C145.85 45.9798 145.55 46.0698 145.34 46.2398C145.13 46.4098 145.03 46.6299 145.03 46.9099C145.03 47.0499 145.06 47.1798 145.13 47.2798C145.19 47.3798 145.28 47.4698 145.39 47.5298C145.5 47.5898 145.62 47.6398 145.76 47.6698C145.9 47.6998 146.04 47.7098 146.19 47.7098C146.41 47.7098 146.61 47.6998 146.8 47.6698C146.99 47.6498 147.16 47.6098 147.3 47.5698V46.1898C147.16 46.1298 147 46.0698 146.81 46.0298C146.62 45.9898 146.43 45.9698 146.23 45.9698V45.9798ZM147.3 44.4398C147.3 44.2898 147.26 44.1498 147.19 44.0398C147.12 43.9198 147.02 43.8298 146.9 43.7498C146.78 43.6698 146.64 43.6198 146.49 43.5798C146.33 43.5398 146.17 43.5298 146 43.5298C145.75 43.5298 145.51 43.5698 145.28 43.6598C145.05 43.7398 144.85 43.8698 144.69 44.0498L143.95 43.2798C144.29 42.8998 144.64 42.6598 145.01 42.5398C145.38 42.4198 145.77 42.3598 146.17 42.3598C146.47 42.3598 146.77 42.3998 147.06 42.4898C147.35 42.5698 147.61 42.6998 147.85 42.8698C148.08 43.0398 148.27 43.2498 148.41 43.5098C148.55 43.7698 148.62 44.0698 148.62 44.4198V48.4099C148.33 48.5199 147.98 48.6198 147.57 48.6998C147.16 48.7798 146.72 48.8298 146.27 48.8298C145.94 48.8298 145.63 48.7998 145.32 48.7398C145.02 48.6798 144.75 48.5798 144.52 48.4298C144.29 48.2898 144.1 48.0898 143.96 47.8498C143.82 47.6098 143.74 47.2998 143.74 46.9298C143.74 46.5898 143.81 46.2898 143.94 46.0398C144.07 45.7898 144.25 45.5898 144.46 45.4198C144.68 45.2598 144.92 45.1298 145.2 45.0498C145.48 44.9698 145.76 44.9298 146.05 44.9298C146.27 44.9298 146.49 44.9498 146.71 44.9898C146.93 45.0298 147.13 45.0898 147.31 45.1698V44.4498L147.3 44.4398ZM142.56 42.3498C142.66 42.3498 142.77 42.3498 142.89 42.3598C143.01 42.3598 143.13 42.3898 143.27 42.4198V43.5798C143.13 43.5398 142.97 43.5198 142.79 43.5198H142.71C142.5 43.5198 142.31 43.5698 142.13 43.6498C141.95 43.7298 141.8 43.8398 141.68 43.9798C141.56 44.1198 141.5 44.2998 141.5 44.5098V48.6898H140.18V44.4898C140.18 44.0398 140.29 43.6598 140.5 43.3498C140.72 43.0398 140.99 42.7898 141.33 42.6198C141.43 42.5698 141.54 42.5298 141.66 42.4898C141.78 42.4498 141.91 42.4298 142.03 42.4098C142.15 42.3898 142.26 42.3798 142.35 42.3698C142.45 42.3698 142.52 42.3598 142.57 42.3598L142.56 42.3498ZM136.57 43.6298C136.43 43.6298 136.3 43.6498 136.16 43.6798C136.02 43.7198 135.9 43.7698 135.79 43.8398C135.68 43.9098 135.59 43.9998 135.53 44.1098C135.46 44.2198 135.43 44.3398 135.43 44.4898V46.5898C135.43 46.7298 135.46 46.8599 135.53 46.9799C135.6 47.0999 135.69 47.1898 135.79 47.2698C135.9 47.3498 136.02 47.4098 136.16 47.4498C136.3 47.4898 136.43 47.5098 136.57 47.5098C136.7 47.5098 136.83 47.4898 136.96 47.4498C137.09 47.4098 137.21 47.3498 137.32 47.2698C137.43 47.1898 137.52 47.0899 137.58 46.9799C137.65 46.8599 137.68 46.7298 137.68 46.5898V44.4898C137.68 44.3498 137.65 44.2198 137.58 44.1098C137.51 43.9998 137.42 43.9098 137.32 43.8398C137.21 43.7698 137.09 43.7098 136.96 43.6798C136.83 43.6398 136.7 43.6298 136.57 43.6298ZM134.11 44.4898C134.11 44.1298 134.18 43.8198 134.32 43.5498C134.46 43.2898 134.65 43.0598 134.88 42.8798C135.11 42.6998 135.38 42.5598 135.67 42.4698C135.97 42.3798 136.27 42.3298 136.57 42.3298C136.87 42.3298 137.16 42.3798 137.45 42.4698C137.74 42.5598 138 42.6998 138.24 42.8798C138.47 43.0598 138.66 43.2798 138.8 43.5498C138.94 43.8098 139.01 44.1298 139.01 44.4898V46.6498C139.01 47.0098 138.94 47.3198 138.8 47.5898C138.66 47.8598 138.47 48.0798 138.24 48.2598C138.01 48.4398 137.75 48.5699 137.45 48.6599C137.16 48.7499 136.86 48.7898 136.57 48.7898C136.28 48.7898 135.97 48.7499 135.67 48.6599C135.37 48.5699 135.11 48.4398 134.88 48.2598C134.65 48.0798 134.46 47.8598 134.32 47.5898C134.18 47.3198 134.11 47.0098 134.11 46.6498V44.4898ZM130.32 47.6398H130.43C130.76 47.6398 131.05 47.5698 131.31 47.4298C131.57 47.2898 131.72 47.0498 131.75 46.7198V44.4998C131.75 44.3198 131.71 44.1698 131.64 44.0398C131.57 43.9098 131.47 43.8098 131.36 43.7298C131.24 43.6498 131.11 43.5898 130.96 43.5598C130.81 43.5198 130.65 43.5098 130.48 43.5098C130.11 43.5098 129.78 43.5798 129.48 43.7098V47.4998C129.62 47.5498 129.78 47.5798 129.95 47.6098C130.07 47.6298 130.19 47.6498 130.32 47.6498V47.6398ZM130.45 42.3498H130.55C130.88 42.3498 131.19 42.3898 131.5 42.4698C131.8 42.5498 132.07 42.6698 132.3 42.8398C132.53 43.0098 132.72 43.2298 132.86 43.5098C133 43.7898 133.07 44.1198 133.07 44.5198V46.7198C133.07 47.0598 133 47.3698 132.86 47.6298C132.72 47.8898 132.54 48.1098 132.31 48.2798C132.08 48.4598 131.82 48.5898 131.53 48.6798C131.24 48.7698 130.94 48.8098 130.65 48.8098H130.54C130.37 48.8098 130.21 48.7898 130.05 48.7598C129.86 48.7198 129.67 48.6598 129.49 48.5898V50.7198H128.17V42.8598C128.51 42.7098 128.89 42.5798 129.31 42.4898C129.69 42.3998 130.08 42.3598 130.46 42.3598L130.45 42.3498ZM126.61 42.3498C126.71 42.3498 126.82 42.3498 126.94 42.3598C127.06 42.3598 127.18 42.3898 127.32 42.4198V43.5798C127.18 43.5398 127.02 43.5198 126.84 43.5198H126.76C126.55 43.5198 126.36 43.5698 126.18 43.6498C126 43.7298 125.85 43.8398 125.73 43.9798C125.61 44.1198 125.55 44.2998 125.55 44.5098V48.6898H124.23V44.4898C124.23 44.0398 124.34 43.6598 124.55 43.3498C124.77 43.0398 125.04 42.7898 125.38 42.6198C125.48 42.5698 125.59 42.5298 125.71 42.4898C125.83 42.4498 125.96 42.4298 126.08 42.4098C126.2 42.3898 126.31 42.3798 126.4 42.3698C126.5 42.3698 126.57 42.3598 126.62 42.3598L126.61 42.3498ZM120.62 43.6298C120.48 43.6298 120.35 43.6498 120.21 43.6798C120.07 43.7198 119.95 43.7698 119.84 43.8398C119.73 43.9098 119.64 43.9998 119.58 44.1098C119.51 44.2198 119.48 44.3398 119.48 44.4898V46.5898C119.48 46.7298 119.51 46.8599 119.58 46.9799C119.65 47.0999 119.74 47.1898 119.84 47.2698C119.95 47.3498 120.07 47.4098 120.21 47.4498C120.35 47.4898 120.48 47.5098 120.62 47.5098C120.75 47.5098 120.88 47.4898 121.01 47.4498C121.14 47.4098 121.26 47.3498 121.37 47.2698C121.48 47.1898 121.57 47.0899 121.63 46.9799C121.7 46.8599 121.73 46.7298 121.73 46.5898V44.4898C121.73 44.3498 121.7 44.2198 121.63 44.1098C121.56 43.9998 121.47 43.9098 121.37 43.8398C121.26 43.7698 121.14 43.7098 121.01 43.6798C120.88 43.6398 120.75 43.6298 120.62 43.6298ZM118.16 44.4898C118.16 44.1298 118.23 43.8198 118.37 43.5498C118.51 43.2898 118.7 43.0598 118.93 42.8798C119.16 42.6998 119.43 42.5598 119.72 42.4698C120.02 42.3798 120.32 42.3298 120.62 42.3298C120.92 42.3298 121.21 42.3798 121.5 42.4698C121.79 42.5598 122.05 42.6998 122.29 42.8798C122.52 43.0598 122.71 43.2798 122.85 43.5498C122.99 43.8098 123.06 44.1298 123.06 44.4898V46.6498C123.06 47.0098 122.99 47.3198 122.85 47.5898C122.71 47.8598 122.52 48.0798 122.29 48.2598C122.06 48.4398 121.8 48.5699 121.5 48.6599C121.21 48.7499 120.91 48.7898 120.62 48.7898C120.33 48.7898 120.02 48.7499 119.72 48.6599C119.42 48.5699 119.16 48.4398 118.93 48.2598C118.7 48.0798 118.51 47.8598 118.37 47.5898C118.23 47.3198 118.16 47.0098 118.16 46.6498V44.4898ZM111 42.7998C111 42.3398 111.09 41.9498 111.28 41.6098C111.47 41.2698 111.72 40.9898 112.02 40.7598C112.33 40.5298 112.68 40.3598 113.07 40.2398C113.46 40.1198 113.87 40.0698 114.28 40.0698C114.59 40.0698 114.9 40.1098 115.2 40.1898C115.5 40.2698 115.79 40.3898 116.07 40.5498C116.35 40.7098 116.6 40.9098 116.83 41.1598C117.06 41.3998 117.25 41.6898 117.41 42.0198L116.17 42.6298C115.96 42.2498 115.68 41.9598 115.33 41.7598C114.98 41.5598 114.61 41.4698 114.24 41.4698C114.01 41.4698 113.78 41.4998 113.56 41.5498C113.34 41.6098 113.14 41.6898 112.96 41.7998C112.78 41.9098 112.64 42.0498 112.53 42.2198C112.42 42.3898 112.37 42.5798 112.37 42.8098V46.0798C112.37 46.2998 112.42 46.4998 112.53 46.6698C112.64 46.8398 112.78 46.9798 112.96 47.0898C113.14 47.1998 113.34 47.2898 113.56 47.3398C113.78 47.3998 114.01 47.4198 114.24 47.4198C114.62 47.4198 114.99 47.3198 115.34 47.1298C115.69 46.9398 115.97 46.6498 116.17 46.2698L117.41 46.8498C117.25 47.1798 117.05 47.4698 116.82 47.7098C116.59 47.9598 116.33 48.1598 116.06 48.3298C115.78 48.4898 115.49 48.6198 115.18 48.6998C114.87 48.7798 114.56 48.8198 114.24 48.8198C113.83 48.8198 113.43 48.7598 113.05 48.6498C112.66 48.5398 112.32 48.3698 112.01 48.1398C111.71 47.9098 111.46 47.6298 111.27 47.2798C111.08 46.9398 110.99 46.5398 110.99 46.0798V42.8098L111 42.7998ZM105.47 47.5798H105.51C105.73 47.5798 105.93 47.5199 106.09 47.4099C106.25 47.2899 106.34 47.1198 106.35 46.8898C106.35 46.7798 106.32 46.6798 106.26 46.6098C106.2 46.5298 106.12 46.4698 106.03 46.4198C105.93 46.3698 105.83 46.3298 105.71 46.2898C105.59 46.2598 105.48 46.2298 105.38 46.2098C105.16 46.1698 104.93 46.1098 104.67 46.0298C104.41 45.9498 104.17 45.8398 103.95 45.6898C103.73 45.5498 103.55 45.3598 103.4 45.1298C103.25 44.8998 103.18 44.6098 103.18 44.2498C103.18 43.8898 103.25 43.6098 103.4 43.3698C103.54 43.1298 103.73 42.9298 103.95 42.7798C104.17 42.6298 104.42 42.5198 104.69 42.4498C104.97 42.3798 105.24 42.3498 105.5 42.3498C105.84 42.3498 106.18 42.4198 106.54 42.5698C106.9 42.7098 107.23 42.9398 107.53 43.2398L106.74 44.0998C106.56 43.9198 106.35 43.7898 106.1 43.6998C105.85 43.6098 105.61 43.5698 105.37 43.5698C105.13 43.5698 104.94 43.6198 104.77 43.7098C104.6 43.7998 104.51 43.9398 104.49 44.1398C104.47 44.2798 104.49 44.3898 104.57 44.4898C104.64 44.5898 104.73 44.6698 104.84 44.7398C104.95 44.7998 105.08 44.8598 105.22 44.8998C105.36 44.9398 105.49 44.9698 105.62 44.9998C105.87 45.0398 106.11 45.0998 106.36 45.1698C106.6 45.2498 106.82 45.3598 107.01 45.4998C107.2 45.6398 107.36 45.8299 107.48 46.0499C107.6 46.2699 107.67 46.5399 107.67 46.8699C107.67 47.1999 107.61 47.4799 107.49 47.7299C107.37 47.9699 107.21 48.1798 107.01 48.3398C106.81 48.4998 106.58 48.6198 106.31 48.7098C106.05 48.7898 105.77 48.8398 105.49 48.8398C105.24 48.8398 105 48.8098 104.75 48.7498C104.51 48.6898 104.27 48.5998 104.05 48.4698C103.83 48.3498 103.63 48.1898 103.45 47.9998C103.27 47.8098 103.12 47.5898 103.01 47.3498L103.99 46.7098C104.16 47.0098 104.39 47.2298 104.67 47.3798C104.94 47.5198 105.21 47.5998 105.46 47.5998L105.47 47.5798ZM99.7299 43.6298C99.5899 43.6298 99.4598 43.6498 99.3198 43.6798C99.1798 43.7198 99.0598 43.7698 98.9498 43.8398C98.8398 43.9098 98.7498 43.9998 98.6898 44.1098C98.6198 44.2198 98.5898 44.3398 98.5898 44.4898V46.5898C98.5898 46.7298 98.6198 46.8599 98.6898 46.9799C98.7598 47.0999 98.8498 47.1898 98.9498 47.2698C99.0598 47.3498 99.1798 47.4098 99.3198 47.4498C99.4598 47.4898 99.5899 47.5098 99.7299 47.5098C99.8599 47.5098 99.9899 47.4898 100.12 47.4498C100.25 47.4098 100.37 47.3498 100.48 47.2698C100.59 47.1898 100.68 47.0899 100.74 46.9799C100.81 46.8599 100.84 46.7298 100.84 46.5898V44.4898C100.84 44.3498 100.81 44.2198 100.74 44.1098C100.67 43.9998 100.58 43.9098 100.48 43.8398C100.37 43.7698 100.25 43.7098 100.12 43.6798C99.9899 43.6398 99.8599 43.6298 99.7299 43.6298ZM97.2699 44.4898C97.2699 44.1298 97.3399 43.8198 97.4799 43.5498C97.6199 43.2898 97.8099 43.0598 98.0399 42.8798C98.2699 42.6998 98.5398 42.5598 98.8298 42.4698C99.1298 42.3798 99.4299 42.3298 99.7299 42.3298C100.03 42.3298 100.32 42.3798 100.61 42.4698C100.9 42.5598 101.16 42.6998 101.4 42.8798C101.63 43.0598 101.82 43.2798 101.96 43.5498C102.1 43.8098 102.17 44.1298 102.17 44.4898V46.6498C102.17 47.0098 102.1 47.3198 101.96 47.5898C101.82 47.8598 101.63 48.0798 101.4 48.2598C101.17 48.4398 100.91 48.5699 100.61 48.6599C100.32 48.7499 100.02 48.7898 99.7299 48.7898C99.4399 48.7898 99.1298 48.7499 98.8298 48.6599C98.5298 48.5699 98.2699 48.4398 98.0399 48.2598C97.8099 48.0798 97.6199 47.8598 97.4799 47.5898C97.3399 47.3198 97.2699 47.0098 97.2699 46.6498V44.4898ZM96.0199 48.7999C95.7199 48.7999 95.4299 48.7598 95.1599 48.6698C94.8899 48.5898 94.6598 48.4498 94.4598 48.2698C94.2598 48.0898 94.0999 47.8598 93.9899 47.5798C93.8799 47.2998 93.8198 46.9598 93.8198 46.5698V40.9898H95.0099L95.1299 42.4498H96.3198V43.6498H95.1299V46.5598C95.1299 46.8098 95.1699 46.9998 95.2399 47.1398C95.3199 47.2798 95.4199 47.3798 95.5499 47.4498C95.6799 47.5198 95.8199 47.5598 95.9899 47.5798C96.1499 47.5998 96.3299 47.5998 96.5099 47.5998V48.7498C96.3399 48.7698 96.1799 48.7898 96.0199 48.7898V48.7999ZM92.5099 44.5498V48.6798H91.1998V44.5598C91.1998 44.3798 91.1499 44.2298 91.0599 44.1098C90.9799 43.9898 90.8699 43.8798 90.7499 43.7998C90.6299 43.7198 90.4898 43.6598 90.3298 43.6298C90.1698 43.5898 90.0199 43.5798 89.8599 43.5798C89.6899 43.5798 89.5299 43.5998 89.3699 43.6298C89.2099 43.6698 89.0798 43.7198 88.9698 43.7898V48.6798H87.6499V42.8398C87.9499 42.6798 88.2899 42.5598 88.6599 42.4698C89.0299 42.3898 89.3999 42.3398 89.7799 42.3298C90.1299 42.3298 90.4699 42.3698 90.8099 42.4498C91.1399 42.5298 91.4298 42.6598 91.6898 42.8298C91.9398 43.0098 92.1399 43.2298 92.2999 43.5098C92.4499 43.7898 92.5299 44.1298 92.5299 44.5298L92.5099 44.5498ZM85.2599 44.4998C85.2599 44.3598 85.2299 44.2298 85.1599 44.1198C85.0999 44.0098 85.0099 43.9198 84.8999 43.8398C84.7899 43.7598 84.6699 43.7098 84.5299 43.6698C84.3899 43.6298 84.2499 43.6198 84.1099 43.6198C83.9699 43.6198 83.8199 43.6398 83.6799 43.6698C83.5399 43.7098 83.4199 43.7598 83.3099 43.8398C83.1999 43.9198 83.1199 44.0098 83.0499 44.1198C82.9899 44.2298 82.9598 44.3598 82.9698 44.5198V45.0798H85.2499V44.4898L85.2599 44.4998ZM84.1099 48.7999C83.8099 48.7999 83.5098 48.7598 83.2098 48.6698C82.9098 48.5798 82.6499 48.4498 82.4199 48.2698C82.1899 48.0898 81.9999 47.8698 81.8599 47.5998C81.7199 47.3398 81.6499 47.0199 81.6499 46.6599V44.4698C81.6499 44.1098 81.7199 43.7998 81.8599 43.5298C81.9999 43.2598 82.1899 43.0398 82.4199 42.8598C82.6499 42.6798 82.9198 42.5498 83.2098 42.4598C83.5098 42.3698 83.8099 42.3298 84.1099 42.3298C84.4099 42.3298 84.6999 42.3698 84.9899 42.4598C85.2799 42.5498 85.5399 42.6798 85.7699 42.8598C85.9999 43.0398 86.1798 43.2598 86.3198 43.5298C86.4598 43.7998 86.5299 44.1098 86.5299 44.4698V46.1698H82.9799V46.5998C82.9799 46.7398 83.0098 46.8699 83.0798 46.9799C83.1398 47.0899 83.2298 47.1798 83.3298 47.2598C83.4298 47.3398 83.5499 47.3998 83.6799 47.4398C83.8099 47.4798 83.9498 47.4998 84.0898 47.4998C84.3198 47.4998 84.5399 47.4498 84.7599 47.3598C84.9699 47.2698 85.1299 47.1099 85.2499 46.8699L86.3499 47.5098C86.2299 47.7298 86.0799 47.9098 85.9099 48.0698C85.7399 48.2298 85.5499 48.3598 85.3599 48.4698C85.1599 48.5798 84.9599 48.6598 84.7399 48.7098C84.5199 48.7598 84.3199 48.7898 84.1199 48.7898L84.1099 48.7999ZM80.4698 44.3898V48.6798H79.1599V44.4398C79.1599 44.1598 79.0599 43.9498 78.8499 43.8198C78.6499 43.6898 78.4199 43.6198 78.1599 43.6198C78.0299 43.6198 77.9099 43.6398 77.7799 43.6698C77.6599 43.7098 77.5398 43.7598 77.4398 43.8198C77.3398 43.8798 77.2598 43.9598 77.1998 44.0598C77.1398 44.1598 77.1099 44.2598 77.1099 44.3798V48.6698H75.8099V44.4098C75.8099 44.2698 75.7798 44.1398 75.7198 44.0398C75.6598 43.9398 75.5798 43.8598 75.4698 43.7898C75.3698 43.7298 75.2499 43.6798 75.1199 43.6498C74.9899 43.6198 74.8598 43.6098 74.7098 43.6098C74.5498 43.6098 74.3899 43.6298 74.2399 43.6698C74.0899 43.7098 73.9399 43.7698 73.8099 43.8598V48.6599H72.5099V42.9798C72.7799 42.7898 73.1099 42.6298 73.4799 42.5098C73.8599 42.3898 74.2399 42.3298 74.6199 42.3198C74.9999 42.3198 75.3499 42.3798 75.6699 42.4998C75.9899 42.6198 76.2499 42.8398 76.4299 43.1498C76.6099 42.8798 76.8599 42.6698 77.1599 42.5398C77.4599 42.3998 77.7899 42.3298 78.1299 42.3198C78.4099 42.3198 78.6898 42.3598 78.9598 42.4498C79.2398 42.5298 79.4798 42.6598 79.6998 42.8298C79.9198 42.9998 80.0899 43.2098 80.2299 43.4698C80.3699 43.7298 80.4299 44.0298 80.4299 44.3798L80.4698 44.3898ZM71.1499 48.6798H69.7899V42.4698H71.1499V48.6798ZM69.6399 40.8998C69.6399 40.6498 69.7199 40.4398 69.8899 40.2798C70.0499 40.1098 70.2599 40.0298 70.5099 40.0298C70.7599 40.0298 70.9699 40.1098 71.1299 40.2798C71.2999 40.4498 71.3799 40.6598 71.3799 40.8998C71.3799 41.1398 71.2999 41.3598 71.1299 41.5198C70.9599 41.6898 70.7499 41.7698 70.5099 41.7698C70.2699 41.7698 70.0599 41.6898 69.8899 41.5198C69.7299 41.3498 69.6399 41.1398 69.6399 40.8998ZM68.2699 42.3398C68.3699 42.3398 68.4799 42.3398 68.5999 42.3498C68.7199 42.3498 68.8399 42.3798 68.9799 42.4098V43.5698C68.8399 43.5298 68.6799 43.5098 68.4999 43.5098H68.4199C68.2099 43.5098 68.0198 43.5598 67.8398 43.6398C67.6598 43.7198 67.5099 43.8298 67.3899 43.9698C67.2699 44.1098 67.2098 44.2898 67.2098 44.4998V48.6798H65.8899V44.4798C65.8899 44.0298 65.9998 43.6498 66.2098 43.3398C66.4298 43.0298 66.6999 42.7798 67.0399 42.6098C67.1399 42.5598 67.2499 42.5198 67.3699 42.4798C67.4899 42.4398 67.6199 42.4198 67.7399 42.3998C67.8599 42.3798 67.9699 42.3698 68.0599 42.3598C68.1599 42.3598 68.2299 42.3498 68.2799 42.3498L68.2699 42.3398ZM61.9498 47.6298H62.0599C62.3899 47.6298 62.6798 47.5598 62.9398 47.4198C63.1998 47.2798 63.3499 47.0398 63.3799 46.7098V44.4898C63.3799 44.3098 63.3399 44.1598 63.2699 44.0298C63.1999 43.8998 63.0999 43.7998 62.9899 43.7198C62.8699 43.6398 62.7398 43.5798 62.5898 43.5498C62.4398 43.5098 62.2799 43.4998 62.1099 43.4998C61.7399 43.4998 61.4099 43.5698 61.1099 43.6998V47.4898C61.2499 47.5398 61.4098 47.5698 61.5798 47.5998C61.6998 47.6198 61.8198 47.6398 61.9498 47.6398V47.6298ZM62.0798 42.3398H62.1799C62.5099 42.3398 62.8199 42.3798 63.1299 42.4598C63.4299 42.5398 63.6999 42.6598 63.9299 42.8298C64.1599 42.9998 64.3499 43.2198 64.4899 43.4998C64.6299 43.7798 64.6998 44.1098 64.6998 44.5098V46.7098C64.6998 47.0498 64.6299 47.3599 64.4899 47.6199C64.3499 47.8799 64.1698 48.0998 63.9398 48.2698C63.7098 48.4498 63.4499 48.5798 63.1599 48.6698C62.8699 48.7598 62.5699 48.7999 62.2799 48.7999H62.1699C61.9999 48.7999 61.8399 48.7798 61.6799 48.7498C61.4899 48.7098 61.2999 48.6498 61.1199 48.5798V50.7098H59.7999V42.8498C60.1399 42.6998 60.5198 42.5698 60.9398 42.4798C61.3198 42.3898 61.7098 42.3498 62.0898 42.3498L62.0798 42.3398ZM56.0299 48.7999C55.6899 48.7999 55.3698 48.7598 55.0698 48.6798C54.7698 48.5998 54.4999 48.4699 54.2799 48.2999C54.0599 48.1199 53.8799 47.8998 53.7499 47.6298C53.6199 47.3598 53.5499 47.0298 53.5499 46.6498V42.4698H54.8699V46.6698C54.8699 46.8498 54.9199 46.9999 54.9999 47.1199C55.0799 47.2399 55.1799 47.3498 55.3099 47.4298C55.4299 47.5098 55.5699 47.5698 55.7299 47.6098C55.8899 47.6498 56.0498 47.6698 56.2198 47.6698C56.3898 47.6698 56.5398 47.6498 56.6898 47.6098C56.8498 47.5698 56.9899 47.5198 57.1199 47.4498V42.4698H58.4299V48.2898C58.0499 48.4498 57.6499 48.5798 57.2399 48.6698C56.8299 48.7598 56.4299 48.8098 56.0399 48.8098L56.0299 48.7999ZM47.6998 42.5598C47.6998 42.7298 47.7499 42.8698 47.8499 42.9898C47.9499 43.1098 48.0799 43.2098 48.2499 43.2898C48.4199 43.3698 48.6098 43.4398 48.8298 43.4898C49.0498 43.5398 49.2699 43.5898 49.4899 43.6298C49.8599 43.6998 50.2299 43.7898 50.6099 43.9098C50.9899 44.0198 51.3199 44.1798 51.6099 44.3898C51.8999 44.5998 52.1399 44.8698 52.3099 45.1898C52.4499 45.4698 52.5299 45.8098 52.5299 46.1998C52.5299 46.2698 52.5299 46.3498 52.5199 46.4298C52.4999 46.8398 52.3998 47.1898 52.2098 47.4898C52.0198 47.7898 51.7799 48.0299 51.4799 48.2299C51.1799 48.4299 50.8499 48.5698 50.4799 48.6698C50.1099 48.7698 49.7299 48.8098 49.3499 48.8098C49.0199 48.8098 48.6999 48.7698 48.3899 48.6798C48.0799 48.5898 47.7799 48.4598 47.4999 48.2898C47.2199 48.1198 46.9699 47.8998 46.7399 47.6498C46.5099 47.3898 46.3199 47.0998 46.1699 46.7598L47.4398 46.1798C47.6198 46.5898 47.8899 46.8998 48.2399 47.0998C48.5899 47.3098 48.9699 47.4099 49.3699 47.4099C49.5899 47.4099 49.7999 47.3898 49.9999 47.3398C50.1999 47.2998 50.3899 47.2298 50.5499 47.1398C50.7099 47.0498 50.8398 46.9399 50.9398 46.7999C51.0398 46.6599 51.0999 46.4998 51.1099 46.3098V46.2098C51.1099 46.0098 51.0699 45.8498 50.9899 45.7198C50.8899 45.5698 50.7399 45.4398 50.5599 45.3498C50.3799 45.2498 50.1698 45.1798 49.9398 45.1198C49.6998 45.0598 49.4498 45.0098 49.1898 44.9598C48.8398 44.8898 48.4899 44.7998 48.1499 44.6898C47.8099 44.5798 47.4999 44.4298 47.2299 44.2498C46.9599 44.0598 46.7399 43.8198 46.5599 43.5398C46.3899 43.2498 46.2999 42.8998 46.2999 42.4698C46.3199 42.0898 46.4299 41.7398 46.6099 41.4398C46.7899 41.1398 47.0199 40.8898 47.3099 40.6798C47.5899 40.4798 47.9099 40.3198 48.2599 40.2198C48.6099 40.1198 48.9799 40.0598 49.3499 40.0598C49.6699 40.0598 49.9799 40.0898 50.2899 40.1598C50.5899 40.2198 50.8799 40.3298 51.1399 40.4798C51.3999 40.6298 51.6499 40.8198 51.8699 41.0498C52.0899 41.2798 52.2699 41.5698 52.4199 41.8998L51.1599 42.4598C50.9799 42.0598 50.7299 41.7898 50.4199 41.6598C50.1099 41.5198 49.7599 41.4598 49.3599 41.4598C49.1499 41.4598 48.9499 41.4798 48.7499 41.5298C48.5499 41.5798 48.3798 41.6498 48.2198 41.7398C48.0598 41.8298 47.9398 41.9498 47.8398 42.0898C47.7398 42.2298 47.6998 42.3898 47.6998 42.5598Z" fill="black"/>
<path d="M170 47.5899H170.04C170.26 47.5899 170.46 47.5299 170.62 47.4199C170.78 47.2999 170.87 47.1299 170.88 46.8999C170.88 46.7899 170.85 46.6899 170.79 46.6199C170.73 46.5399 170.65 46.4799 170.56 46.4299C170.46 46.3799 170.36 46.3399 170.24 46.2999C170.12 46.2699 170.01 46.2399 169.91 46.2199C169.69 46.1799 169.46 46.1199 169.2 46.0399C168.94 45.9599 168.7 45.8499 168.48 45.6999C168.26 45.5599 168.08 45.3699 167.93 45.1399C167.78 44.9099 167.71 44.6199 167.71 44.2599C167.71 43.8999 167.78 43.6199 167.93 43.3799C168.07 43.1399 168.26 42.9399 168.48 42.7899C168.7 42.6399 168.95 42.5299 169.22 42.4599C169.5 42.3899 169.77 42.3599 170.03 42.3599C170.37 42.3599 170.71 42.4299 171.07 42.5799C171.43 42.7199 171.76 42.9499 172.06 43.2499L171.27 44.1099C171.09 43.9299 170.88 43.7999 170.63 43.7099C170.38 43.6199 170.14 43.5799 169.9 43.5799C169.66 43.5799 169.47 43.6299 169.3 43.7199C169.13 43.8099 169.04 43.9499 169.02 44.1499C169 44.2899 169.02 44.3999 169.1 44.4999C169.17 44.5999 169.26 44.6799 169.37 44.7499C169.48 44.8099 169.61 44.8699 169.75 44.9099C169.89 44.9499 170.02 44.9799 170.15 45.0099C170.4 45.0499 170.64 45.1099 170.89 45.1799C171.13 45.2599 171.35 45.3699 171.54 45.5099C171.73 45.6499 171.89 45.8399 172.01 46.0599C172.13 46.2799 172.2 46.5499 172.2 46.8799C172.2 47.2099 172.14 47.4899 172.02 47.7399C171.9 47.9799 171.74 48.1899 171.54 48.3499C171.34 48.5099 171.11 48.6299 170.84 48.7199C170.58 48.7999 170.3 48.8499 170.02 48.8499C169.77 48.8499 169.53 48.8199 169.28 48.7599C169.04 48.6999 168.8 48.6099 168.58 48.4799C168.36 48.3599 168.16 48.1999 167.98 48.0099C167.8 47.8199 167.65 47.5999 167.54 47.3599L168.52 46.7199C168.69 47.0199 168.92 47.2399 169.2 47.3899C169.47 47.5299 169.74 47.6099 169.99 47.6099" fill="black"/>
<path d="M46.3499 28.7098C49.4999 32.7698 53.7899 34.8198 57.8499 34.8198C64.0499 34.8198 70.9298 31.2398 71.2098 24.6998C71.5898 16.3998 65.5798 14.2998 59.5698 13.1998C56.9498 12.6298 55.1798 11.6698 55.0798 10.0498C55.2198 6.13982 61.2798 5.98982 64.8198 9.75982L70.3999 5.45982C66.9199 1.20982 62.9599 0.0698242 58.8499 0.0698242C52.6499 0.0698242 46.6299 3.54983 46.6299 10.1898C46.6299 16.8298 51.5899 20.0698 57.0299 20.9298C59.7999 21.3098 62.8999 22.4098 62.7999 24.3198C62.5599 27.9498 55.1199 27.7598 51.7299 23.6498L46.3398 28.7098H46.3499Z" fill="black"/>
<path d="M81.2397 25.3198C81.2397 25.4698 81.2398 25.6098 81.2698 25.7398C81.2898 25.8698 81.3097 25.9898 81.3497 26.1098C81.3797 26.2198 81.4297 26.3298 81.4797 26.4198C81.5297 26.5198 81.5898 26.6098 81.6598 26.6898C81.7298 26.7798 81.8098 26.8698 81.8998 26.9598C81.9898 27.0398 82.0698 27.1198 82.1698 27.1898C82.2598 27.2598 82.3597 27.3298 82.4697 27.3898C82.5697 27.4498 82.6798 27.4998 82.7998 27.5498C83.0298 27.6498 83.2798 27.7198 83.5298 27.7698C83.7798 27.8198 84.0497 27.8398 84.3297 27.8398C84.4697 27.8398 84.6097 27.8398 84.7397 27.8198C84.8697 27.8098 84.9998 27.7898 85.1198 27.7598C85.2498 27.7298 85.3697 27.6998 85.4897 27.6598C85.6097 27.6198 85.7297 27.5798 85.8497 27.5198C85.9597 27.4698 86.0798 27.4098 86.1798 27.3498C86.2898 27.2898 86.3897 27.2198 86.4897 27.1498C86.5797 27.0798 86.6798 26.9998 86.7598 26.9198C86.8498 26.8398 86.9298 26.7498 87.0098 26.6498C87.1498 26.4798 87.2597 26.2898 87.3297 26.0698C87.3997 25.8498 87.4397 25.5898 87.4397 25.3098V7.6098H95.1997V25.3098C95.1997 25.6998 95.1798 26.0898 95.1398 26.4598C95.0998 26.8298 95.0397 27.1998 94.9597 27.5498C94.8797 27.9098 94.7798 28.2498 94.6598 28.5798C94.5398 28.9098 94.3997 29.2298 94.2397 29.5398C94.0797 29.8398 93.9097 30.1298 93.7297 30.4098C93.5497 30.6898 93.3498 30.9498 93.1398 31.2098C92.9298 31.4598 92.7097 31.6998 92.4797 31.9298C92.2497 32.1598 91.9997 32.3698 91.7397 32.5698C91.4797 32.7698 91.2197 32.9598 90.9497 33.1298C90.7097 33.2798 90.4597 33.4298 90.1997 33.5598L90.0997 33.6098C89.8097 33.7598 89.5097 33.8998 89.2097 34.0198C88.9097 34.1398 88.5898 34.2498 88.2698 34.3498C87.9498 34.4498 87.6198 34.5398 87.2998 34.6098C86.9698 34.6798 86.6497 34.7498 86.3197 34.7898C85.9897 34.8398 85.6597 34.8798 85.3297 34.8998C84.9997 34.9198 84.6597 34.9398 84.3297 34.9398C83.6597 34.9398 82.9997 34.8898 82.3397 34.7898C81.6797 34.6898 81.0298 34.5398 80.3798 34.3498C80.0498 34.2498 79.7398 34.1398 79.4298 34.0198C79.1298 33.8998 78.8398 33.7698 78.5598 33.6198H78.5298C78.2398 33.4598 77.9598 33.2998 77.6798 33.1198C77.4098 32.9398 77.1398 32.7598 76.8898 32.5598C76.6398 32.3598 76.3898 32.1498 76.1598 31.9198C75.9298 31.6898 75.7098 31.4498 75.4998 31.1998C75.2998 30.9498 75.0998 30.6798 74.9198 30.4098C74.7398 30.1298 74.5698 29.8398 74.4198 29.5398C74.2598 29.2298 74.1198 28.9098 74.0098 28.5798C73.8898 28.2498 73.7897 27.9098 73.7197 27.5598C73.6397 27.2098 73.5898 26.8498 73.5498 26.4698C73.5098 26.0898 73.4897 25.7098 73.4897 25.3198V7.6198H81.2498V25.3198H81.2397Z" fill="black"/>
<path d="M108.4 20.0398C108.54 20.0398 108.67 20.0398 108.79 20.0198C108.91 19.9998 109.03 19.9798 109.13 19.9498C109.23 19.9198 109.33 19.8798 109.42 19.8398C109.51 19.7998 109.6 19.7398 109.68 19.6898C109.77 19.6298 109.85 19.5598 109.93 19.4898C110.01 19.4198 110.08 19.3398 110.14 19.2598C110.2 19.1798 110.26 19.0998 110.32 19.0098C110.37 18.9198 110.42 18.8298 110.47 18.7398C110.52 18.6398 110.56 18.5398 110.59 18.4398C110.62 18.3398 110.65 18.2398 110.67 18.1298C110.69 18.0198 110.71 17.9198 110.72 17.8098C110.73 17.6998 110.74 17.5898 110.74 17.4698C110.74 17.3498 110.74 17.2398 110.72 17.1298C110.71 17.0198 110.69 16.9098 110.67 16.8098C110.65 16.6998 110.62 16.5998 110.59 16.4998C110.56 16.3998 110.52 16.2998 110.47 16.1998C110.43 16.0998 110.38 16.0098 110.32 15.9298C110.27 15.8398 110.21 15.7598 110.14 15.6798C110.07 15.5998 110 15.5298 109.93 15.4498C109.85 15.3798 109.77 15.3098 109.68 15.2498C109.6 15.1898 109.51 15.1398 109.42 15.0998C109.33 15.0598 109.23 15.0198 109.13 14.9898C109.02 14.9598 108.91 14.9398 108.79 14.9198C108.67 14.8998 108.54 14.8998 108.4 14.8998H105.22V20.0598H108.4V20.0398ZM98.1298 7.6198H108.4C109.22 7.6198 109.99 7.6898 110.72 7.8298C111.09 7.8998 111.44 7.9898 111.78 8.0898C112.12 8.1898 112.45 8.3198 112.76 8.4498C113.07 8.5898 113.37 8.7398 113.65 8.8998C113.93 9.0598 114.21 9.2298 114.47 9.4198C114.73 9.5998 114.98 9.7998 115.22 9.9998C115.46 10.2098 115.68 10.4198 115.89 10.6498C116.1 10.8798 116.3 11.1098 116.48 11.3498C116.66 11.5898 116.83 11.8398 116.99 12.1098C117.15 12.3698 117.29 12.6398 117.42 12.9098C117.55 13.1898 117.67 13.4698 117.77 13.7598C117.87 14.0498 117.96 14.3398 118.04 14.6298C118.12 14.9198 118.18 15.2198 118.23 15.5098C118.28 15.8098 118.32 16.0998 118.35 16.3998C118.38 16.6998 118.39 16.9998 118.39 17.2998C118.39 17.8998 118.34 18.4998 118.23 19.0898C118.12 19.6798 117.96 20.2698 117.75 20.8598C117.64 21.1498 117.52 21.4398 117.39 21.7198C117.26 21.9998 117.11 22.2698 116.96 22.5198C116.81 22.7798 116.64 23.0298 116.45 23.2698C116.27 23.5098 116.07 23.7498 115.86 23.9798C115.65 24.2098 115.43 24.4298 115.19 24.6298C114.95 24.8398 114.71 25.0298 114.45 25.2098C114.19 25.3898 113.92 25.5598 113.63 25.7198C113.34 25.8798 113.05 26.0298 112.74 26.1698C112.11 26.4498 111.44 26.6598 110.72 26.7898C110 26.9298 109.23 26.9998 108.42 26.9998H105.2V34.5098H97.5098V7.6098H98.1097L98.1298 7.6198Z" fill="black"/>
<path d="M131.59 20.0398C131.73 20.0398 131.86 20.0398 131.98 20.0198C132.1 19.9998 132.22 19.9798 132.32 19.9498C132.42 19.9198 132.52 19.8798 132.61 19.8398C132.7 19.7998 132.79 19.7398 132.87 19.6898C132.96 19.6298 133.04 19.5598 133.12 19.4898C133.2 19.4198 133.27 19.3398 133.33 19.2598C133.39 19.1798 133.45 19.0998 133.51 19.0098C133.56 18.9198 133.61 18.8298 133.66 18.7398C133.71 18.6398 133.75 18.5398 133.78 18.4398C133.81 18.3398 133.84 18.2398 133.86 18.1298C133.88 18.0198 133.9 17.9198 133.91 17.8098C133.92 17.6998 133.93 17.5898 133.93 17.4698C133.93 17.3498 133.93 17.2398 133.91 17.1298C133.9 17.0198 133.88 16.9098 133.86 16.8098C133.84 16.6998 133.81 16.5998 133.78 16.4998C133.75 16.3998 133.71 16.2998 133.66 16.1998C133.62 16.0998 133.57 16.0098 133.51 15.9298C133.46 15.8398 133.4 15.7598 133.33 15.6798C133.26 15.5998 133.19 15.5298 133.12 15.4498C133.04 15.3798 132.96 15.3098 132.87 15.2498C132.79 15.1898 132.7 15.1398 132.61 15.0998C132.52 15.0598 132.42 15.0198 132.32 14.9898C132.21 14.9598 132.1 14.9398 131.98 14.9198C131.86 14.8998 131.73 14.8998 131.59 14.8998H128.41V20.0598H131.59V20.0398ZM121.32 7.6198H131.59C132.41 7.6198 133.18 7.6898 133.91 7.8298C134.28 7.8998 134.63 7.9898 134.97 8.0898C135.31 8.1898 135.64 8.3198 135.95 8.4498C136.26 8.5898 136.56 8.7398 136.84 8.8998C137.12 9.0598 137.4 9.2298 137.66 9.4198C137.92 9.5998 138.17 9.7998 138.41 9.9998C138.65 10.2098 138.87 10.4198 139.08 10.6498C139.29 10.8798 139.49 11.1098 139.67 11.3498C139.85 11.5898 140.02 11.8398 140.18 12.1098C140.34 12.3698 140.48 12.6398 140.61 12.9098C140.74 13.1898 140.86 13.4698 140.96 13.7598C141.06 14.0498 141.15 14.3398 141.23 14.6298C141.31 14.9198 141.37 15.2198 141.42 15.5098C141.47 15.8098 141.51 16.0998 141.54 16.3998C141.57 16.6998 141.58 16.9998 141.58 17.2998C141.58 17.8998 141.53 18.4998 141.42 19.0898C141.31 19.6798 141.16 20.2698 140.94 20.8598C140.83 21.1498 140.71 21.4398 140.58 21.7198C140.45 21.9998 140.3 22.2698 140.15 22.5198C140 22.7798 139.83 23.0298 139.64 23.2698C139.46 23.5098 139.26 23.7498 139.05 23.9798C138.84 24.2098 138.62 24.4298 138.38 24.6298C138.14 24.8398 137.9 25.0298 137.64 25.2098C137.38 25.3898 137.11 25.5598 136.82 25.7198C136.53 25.8798 136.24 26.0298 135.93 26.1698C135.3 26.4498 134.63 26.6598 133.91 26.7898C133.19 26.9298 132.42 26.9998 131.61 26.9998H128.39V34.5098H120.7V7.6098H121.3L121.32 7.6198Z" fill="black"/>
<path d="M144.51 7.61981H151.04H151.53H151.64V7.72981V8.21981V26.8998H161.5H161.98H162.1V27.0098V27.4998V33.9198V34.4098V34.5198H161.98H161.5H144.51H144.02H143.91V34.4098V33.9198V8.21981V7.72981V7.61981H144.02H144.51Z" fill="black"/>
<path d="M164.44 23.9498L155.56 8.50981L155.14 7.78981L155.04 7.61981H155.24H156.07H163.62H163.93H163.99L164.02 7.67981L164.16 7.94981L168.27 16.3098L172.39 7.94981L172.52 7.67981L172.55 7.61981H172.62H172.92H180.54H181.38H181.57L181.48 7.78981L181.06 8.51981L172.14 23.9498V34.5198H164.44V23.9498Z" fill="black"/>
</svg>
