<svg width="230" height="74" viewBox="0 0 230 74" fill="none" xmlns="http://www.w3.org/2000/svg">
<path d="M122.73 21.8433H130.07C131.83 21.8433 133.37 22.1833 134.72 22.8533C136.07 23.5233 137.11 24.4633 137.86 25.6833C138.61 26.9033 138.98 28.3133 138.98 29.9333C138.98 31.5533 138.61 32.9633 137.86 34.1833C137.12 35.3933 136.07 36.3433 134.72 37.0133C133.37 37.6833 131.82 38.0133 130.07 38.0133H122.73V21.8533V21.8433ZM129.88 34.9333C131.5 34.9333 132.79 34.4833 133.75 33.5833C134.71 32.6833 135.19 31.4633 135.19 29.9233C135.19 28.3833 134.71 27.1633 133.75 26.2633C132.79 25.3633 131.5 24.9133 129.88 24.9133H126.46V34.9333H129.88Z" fill="black"/>
<path d="M154.75 35.0033V38.0033H142.24V21.8432H154.45V24.8432H145.95V28.3533H153.45V31.2632H145.95V35.0033H154.75ZM149.37 17.2032H153.25L149.07 20.5233H146.25L149.36 17.2032H149.37Z" fill="black"/>
<path d="M172.2 31.0733C172.72 31.7533 172.98 32.5933 172.98 33.6033C172.98 35.0233 172.43 36.1133 171.33 36.8733C170.23 37.6333 168.62 38.0133 166.52 38.0133H158.16V21.8533H166.05C168.02 21.8533 169.53 22.2333 170.59 22.9833C171.65 23.7333 172.17 24.7633 172.17 26.0533C172.17 26.8333 171.98 27.5333 171.61 28.1533C171.23 28.7733 170.7 29.2533 170.03 29.6133C170.95 29.9033 171.67 30.3933 172.2 31.0833V31.0733ZM161.88 24.6633V28.4733H165.6C166.52 28.4733 167.23 28.3133 167.7 27.9833C168.18 27.6633 168.42 27.1833 168.42 26.5533C168.42 25.9233 168.18 25.4533 167.7 25.1333C167.22 24.8233 166.52 24.6633 165.6 24.6633H161.88ZM168.47 34.7033C168.97 34.3733 169.22 33.8833 169.22 33.2033C169.22 31.8633 168.23 31.2033 166.24 31.2033H161.87V35.1933H166.24C167.22 35.1933 167.97 35.0333 168.47 34.7133V34.7033Z" fill="black"/>
<path d="M179.55 37.2032C178.2 36.4732 177.15 35.4833 176.39 34.2133C175.63 32.9433 175.25 31.5132 175.25 29.9332C175.25 28.3532 175.63 26.9232 176.39 25.6532C177.15 24.3832 178.21 23.3833 179.55 22.6633C180.89 21.9433 182.41 21.5833 184.09 21.5833C185.77 21.5833 187.27 21.9433 188.62 22.6633C189.96 23.3933 191.01 24.3832 191.78 25.6532C192.55 26.9232 192.94 28.3532 192.94 29.9332C192.94 31.5132 192.56 32.9433 191.78 34.2133C191.01 35.4833 189.96 36.4732 188.62 37.2032C187.28 37.9332 185.77 38.2932 184.09 38.2932C182.41 38.2932 180.9 37.9332 179.55 37.2032ZM186.67 34.4433C187.44 34.0033 188.04 33.3933 188.48 32.6133C188.92 31.8333 189.14 30.9332 189.14 29.9332C189.14 28.9332 188.92 28.0433 188.48 27.2533C188.04 26.4733 187.44 25.8532 186.67 25.4232C185.9 24.9832 185.04 24.7632 184.09 24.7632C183.14 24.7632 182.27 24.9832 181.51 25.4232C180.74 25.8632 180.13 26.4733 179.69 27.2533C179.25 28.0433 179.03 28.9332 179.03 29.9332C179.03 30.9332 179.25 31.8233 179.69 32.6133C180.13 33.3933 180.73 34.0133 181.51 34.4433C182.28 34.8833 183.14 35.1033 184.09 35.1033C185.04 35.1033 185.91 34.8833 186.67 34.4433Z" fill="black"/>
<path d="M206.47 38.0033L203.36 33.5033H199.92V38.0033H196.18V21.8433H203.17C204.6 21.8433 205.84 22.0833 206.9 22.5633C207.96 23.0433 208.77 23.7133 209.34 24.5933C209.91 25.4733 210.19 26.5133 210.19 27.7033C210.19 28.8933 209.9 29.9433 209.32 30.8033C208.75 31.6733 207.92 32.3433 206.86 32.8033L210.49 37.9933H206.47V38.0033ZM205.53 25.6233C204.95 25.1333 204.09 24.8933 202.97 24.8933H199.92V30.5233H202.97C204.09 30.5233 204.95 30.2833 205.53 29.7833C206.11 29.2933 206.41 28.6033 206.41 27.7033C206.41 26.8033 206.12 26.1033 205.53 25.6133V25.6233Z" fill="black"/>
<path d="M224.23 34.5433H216.73L215.3 38.0033H211.47L218.67 21.8433H222.36L229.59 38.0033H225.67L224.24 34.5433H224.23ZM223.05 31.7033L220.49 25.5133L217.93 31.7033H223.05Z" fill="black"/>
<path d="M136.76 52.6832C137.28 53.3632 137.54 54.2033 137.54 55.2133C137.54 56.6333 136.99 57.7232 135.89 58.4832C134.79 59.2432 133.18 59.6232 131.08 59.6232H122.72V43.4633H130.61C132.58 43.4633 134.09 43.8432 135.15 44.5932C136.21 45.3432 136.73 46.3733 136.73 47.6633C136.73 48.4433 136.54 49.1432 136.17 49.7632C135.79 50.3832 135.26 50.8633 134.59 51.2233C135.51 51.5133 136.23 52.0033 136.76 52.6933V52.6832ZM126.44 46.2733V50.0833H130.16C131.08 50.0833 131.79 49.9232 132.26 49.5932C132.74 49.2732 132.98 48.7933 132.98 48.1633C132.98 47.5333 132.74 47.0633 132.26 46.7433C131.78 46.4333 131.08 46.2733 130.16 46.2733H126.44ZM133.03 56.3132C133.53 55.9832 133.78 55.4932 133.78 54.8132C133.78 53.4732 132.79 52.8132 130.8 52.8132H126.43V56.8033H130.8C131.78 56.8033 132.53 56.6432 133.03 56.3232V56.3132Z" fill="black"/>
<path d="M151.12 59.6232L148.01 55.1232H144.57V59.6232H140.83V43.4633H147.82C149.25 43.4633 150.49 43.7032 151.55 44.1832C152.61 44.6632 153.42 45.3333 153.99 46.2133C154.56 47.0933 154.84 48.1332 154.84 49.3232C154.84 50.5132 154.55 51.5632 153.97 52.4232C153.4 53.2932 152.57 53.9632 151.51 54.4232L155.14 59.6133H151.12V59.6232ZM150.18 47.2433C149.6 46.7533 148.74 46.5132 147.62 46.5132H144.57V52.1432H147.62C148.74 52.1432 149.6 51.9032 150.18 51.4032C150.76 50.9132 151.06 50.2232 151.06 49.3232C151.06 48.4232 150.77 47.7232 150.18 47.2332V47.2433Z" fill="black"/>
<path d="M170.75 56.6133V59.6133H158.24V43.4532H170.45V46.4532H161.95V49.9633H169.45V52.8732H161.95V56.6133H170.75Z" fill="black"/>
<path d="M174.16 43.4532H177.9V59.6133H174.16V43.4532Z" fill="black"/>
<path d="M194.68 56.6133V59.6133H182.17V43.4532H194.38V46.4532H185.88V49.9633H193.38V52.8732H185.88V56.6133H194.68Z" fill="black"/>
<path d="M208.39 59.6232L205.28 55.1232H201.84V59.6232H198.1V43.4633H205.09C206.52 43.4633 207.76 43.7032 208.82 44.1832C209.88 44.6632 210.69 45.3333 211.26 46.2133C211.83 47.0933 212.11 48.1332 212.11 49.3232C212.11 50.5132 211.82 51.5632 211.24 52.4232C210.67 53.2932 209.84 53.9632 208.78 54.4232L212.41 59.6133H208.39V59.6232ZM207.45 47.2433C206.87 46.7533 206.01 46.5132 204.89 46.5132H201.84V52.1432H204.89C206.01 52.1432 206.87 51.9032 207.45 51.4032C208.03 50.9132 208.33 50.2232 208.33 49.3232C208.33 48.4232 208.04 47.7232 207.45 47.2332V47.2433Z" fill="black"/>
<path d="M50.21 7.88326C52.2976 7.88326 53.9899 6.19089 53.9899 4.10326C53.9899 2.01562 52.2976 0.323242 50.21 0.323242C48.1223 0.323242 46.4299 2.01562 46.4299 4.10326C46.4299 6.19089 48.1223 7.88326 50.21 7.88326Z" fill="black"/>
<path d="M15.5 17.4133C17.5876 17.4133 19.28 15.7209 19.28 13.6333C19.28 11.5456 17.5876 9.85327 15.5 9.85327C13.4124 9.85327 11.72 11.5456 11.72 13.6333C11.72 15.7209 13.4124 17.4133 15.5 17.4133Z" fill="black"/>
<path d="M84.91 17.4133C86.9976 17.4133 88.69 15.7209 88.69 13.6333C88.69 11.5456 86.9976 9.85327 84.91 9.85327C82.8223 9.85327 81.13 11.5456 81.13 13.6333C81.13 15.7209 82.8223 17.4133 84.91 17.4133Z" fill="black"/>
<path d="M80.16 21.8632L69.2 2.87323L50.22 13.8332L31.23 2.87323L20.27 21.8632H0.469971V47.8032C0.469971 62.1332 12.08 73.7432 26.41 73.7432H74.04C88.37 73.7432 99.98 62.1332 99.98 47.8032V21.8632H80.18H80.16ZM67.64 8.67323L75.26 21.8632H74.03C69.96 21.8632 66.1 22.8032 62.67 24.4732C60.64 21.2532 57.87 18.4332 54.44 16.2932L67.64 8.67323ZM32.78 8.67323L45.98 16.2932C42.55 18.4332 39.78 21.2532 37.76 24.4732C34.33 22.8032 30.48 21.8632 26.4 21.8632H25.17L32.78 8.67323ZM26.4 69.4932C14.44 69.4932 4.71002 59.7632 4.71002 47.8032V26.1132H17.83C11.28 38.3932 15.6 53.7632 27.75 60.7732L42.86 69.4932H26.4ZM29.87 57.0932C27.36 55.6432 25.21 53.7532 23.5 51.5232C21.79 49.2932 20.52 46.7232 19.77 43.9232C18.27 38.3232 19.04 32.4832 21.94 27.4632L22.72 26.1132H26.4C29.76 26.1132 32.95 26.8832 35.8 28.2532C32.77 35.4732 33.03 43.9732 37.25 51.2732L45.97 66.3832L29.88 57.0932H29.87ZM48.09 61.5732L40.92 49.1532C38.99 45.8132 38 42.1032 38 38.3432C38 36.4632 38.25 34.5632 38.75 32.6932C38.95 31.9432 39.19 31.2132 39.46 30.4932C44.7 34.4532 48.09 40.7432 48.09 47.7932V61.5632V61.5732ZM41.4 26.6432C43.25 23.7332 45.78 21.2932 48.85 19.5232L50.2 18.7432L51.55 19.5232C54.68 21.3232 57.18 23.7932 58.99 26.6532C55.15 29.3832 52.09 33.1332 50.19 37.5132C48.29 33.1332 45.22 29.3832 41.38 26.6532L41.4 26.6432ZM52.33 47.8032C52.33 40.7532 55.71 34.4732 60.94 30.5032C61.9 32.9932 62.4 35.6532 62.4 38.3432C62.4 42.0232 61.46 45.7432 59.5 49.1532L52.33 61.5732V47.8032ZM63.18 51.2732C67.4 43.9732 67.66 35.4732 64.63 28.2532C67.47 26.8832 70.66 26.1132 74.03 26.1132H77.71L78.49 27.4632C80.46 30.8732 81.39 34.5932 81.39 38.2732C81.39 45.7732 77.5 53.0832 70.55 57.0932L54.46 66.3832L63.18 51.2732ZM95.72 47.8032C95.72 59.7632 85.99 69.4932 74.03 69.4932H57.57L72.68 60.7732C84.83 53.7632 89.16 38.3932 82.6 26.1132H95.72V47.8032Z" fill="black"/>
</svg>
