<svg width="172" height="75" viewBox="0 0 172 75" fill="none" xmlns="http://www.w3.org/2000/svg">
<path fill-rule="evenodd" clip-rule="evenodd" d="M10.4357 50.5344C8.22568 48.8444 6.10568 46.0244 5.25568 43.2944C4.72568 41.5844 4.94568 40.6544 4.69568 38.9344C3.26568 41.8644 4.85568 46.0544 6.70568 48.4344C7.02568 48.8544 7.38568 49.2644 7.70568 49.6144C8.16568 50.0944 8.79568 50.6444 9.49568 51.0944C10.0557 51.4544 10.5657 51.7844 11.6557 51.5944C11.3157 51.0544 10.9257 50.9144 10.4357 50.5344ZM19.8357 49.8944L17.8657 60.1744C17.5157 62.0244 16.6957 63.6944 17.9257 64.9844C18.8357 65.9544 20.1957 66.9244 21.9257 67.1344C16.4957 63.5344 20.2957 53.9744 19.8357 49.8944ZM31.2157 44.4744C27.5857 45.6344 28.2057 45.5844 27.4857 49.3444C26.8457 52.6744 25.0357 60.9644 25.2157 64.0644C31.0457 63.6444 34.1157 61.3944 36.6557 58.3144C41.3757 52.5844 39.3157 41.8744 31.2157 44.4744ZM34.6157 56.6344C33.7957 58.1744 32.0257 60.2344 30.4657 60.7744C30.5757 59.3144 31.8657 51.7644 32.3557 50.8944C33.1557 50.5144 34.2757 50.2244 35.0557 50.7644C36.6957 51.8844 35.3157 55.3144 34.6157 56.6344ZM31.8757 17.7144C32.9557 19.8844 32.6857 20.6244 32.3557 23.3044C32.1057 25.2744 31.7757 27.2044 31.4357 29.1444C30.7857 32.8544 29.8157 36.7344 29.2857 40.3644C30.4357 40.2244 32.4157 39.3044 33.3957 38.7844C36.8857 36.9244 39.9957 33.5344 41.2757 29.3044C43.6757 21.4044 38.1157 15.0544 31.8757 17.7144ZM35.5457 34.2444C36.0257 31.0344 36.5157 27.8244 36.9957 24.6144C38.7557 25.7644 38.3457 31.2344 35.5457 34.2444ZM44.1157 49.3944C43.5957 47.6344 42.1857 45.2044 41.0957 44.6744C45.0557 50.9844 43.5457 57.8144 39.1957 63.2344C38.7357 63.8144 38.0357 64.5544 37.6657 65.1444C40.6157 63.9044 43.3557 60.1844 44.2657 56.2244C44.7657 54.0544 44.7457 51.4944 44.1157 49.3944ZM45.1357 17.2944C46.1157 19.9544 47.4957 21.4244 46.6957 25.9644C46.0957 29.3644 44.7757 31.0644 43.8957 33.7544C47.9557 30.9644 50.4757 19.4044 45.1357 17.2944ZM45.1357 17.2944C46.1157 19.9544 47.4957 21.4244 46.6957 25.9644C46.0957 29.3644 44.7757 31.0644 43.8957 33.7544C47.9557 30.9644 50.4757 19.4044 45.1357 17.2944ZM44.1157 49.3944C43.5957 47.6344 42.1857 45.2044 41.0957 44.6744C45.0557 50.9844 43.5457 57.8144 39.1957 63.2344C38.7357 63.8144 38.0357 64.5544 37.6657 65.1444C40.6157 63.9044 43.3557 60.1844 44.2657 56.2244C44.7657 54.0544 44.7457 51.4944 44.1157 49.3944ZM31.8757 17.7144C32.9557 19.8844 32.6857 20.6244 32.3557 23.3044C32.1057 25.2744 31.7757 27.2044 31.4357 29.1444C30.7857 32.8544 29.8157 36.7344 29.2857 40.3644C30.4357 40.2244 32.4157 39.3044 33.3957 38.7844C36.8857 36.9244 39.9957 33.5344 41.2757 29.3044C43.6757 21.4044 38.1157 15.0544 31.8757 17.7144ZM35.5457 34.2444C36.0257 31.0344 36.5157 27.8244 36.9957 24.6144C38.7557 25.7644 38.3457 31.2344 35.5457 34.2444ZM31.2157 44.4744C27.5857 45.6344 28.2057 45.5844 27.4857 49.3444C26.8457 52.6744 25.0357 60.9644 25.2157 64.0644C31.0457 63.6444 34.1157 61.3944 36.6557 58.3144C41.3757 52.5844 39.3157 41.8744 31.2157 44.4744ZM34.6157 56.6344C33.7957 58.1744 32.0257 60.2344 30.4657 60.7744C30.5757 59.3144 31.8657 51.7644 32.3557 50.8944C33.1557 50.5144 34.2757 50.2244 35.0557 50.7644C36.6957 51.8844 35.3157 55.3144 34.6157 56.6344ZM19.8357 49.8944L17.8657 60.1744C17.5157 62.0244 16.6957 63.6944 17.9257 64.9844C18.8357 65.9544 20.1957 66.9244 21.9257 67.1344C16.4957 63.5344 20.2957 53.9744 19.8357 49.8944ZM10.4357 50.5344C8.22568 48.8444 6.10568 46.0244 5.25568 43.2944C4.72568 41.5844 4.94568 40.6544 4.69568 38.9344C3.26568 41.8644 4.85568 46.0544 6.70568 48.4344C7.02568 48.8544 7.38568 49.2644 7.70568 49.6144C8.16568 50.0944 8.79568 50.6444 9.49568 51.0944C10.0557 51.4544 10.5657 51.7844 11.6557 51.5944C11.3157 51.0544 10.9257 50.9144 10.4357 50.5344ZM10.4357 50.5344C8.22568 48.8444 6.10568 46.0244 5.25568 43.2944C4.72568 41.5844 4.94568 40.6544 4.69568 38.9344C3.26568 41.8644 4.85568 46.0544 6.70568 48.4344C7.02568 48.8544 7.38568 49.2644 7.70568 49.6144C8.16568 50.0944 8.79568 50.6444 9.49568 51.0944C10.0557 51.4544 10.5657 51.7844 11.6557 51.5944C11.3157 51.0544 10.9257 50.9144 10.4357 50.5344ZM19.8357 49.8944L17.8657 60.1744C17.5157 62.0244 16.6957 63.6944 17.9257 64.9844C18.8357 65.9544 20.1957 66.9244 21.9257 67.1344C16.4957 63.5344 20.2957 53.9744 19.8357 49.8944ZM31.2157 44.4744C27.5857 45.6344 28.2057 45.5844 27.4857 49.3444C26.8457 52.6744 25.0357 60.9644 25.2157 64.0644C31.0457 63.6444 34.1157 61.3944 36.6557 58.3144C41.3757 52.5844 39.3157 41.8744 31.2157 44.4744ZM34.6157 56.6344C33.7957 58.1744 32.0257 60.2344 30.4657 60.7744C30.5757 59.3144 31.8657 51.7644 32.3557 50.8944C33.1557 50.5144 34.2757 50.2244 35.0557 50.7644C36.6957 51.8844 35.3157 55.3144 34.6157 56.6344ZM31.8757 17.7144C32.9557 19.8844 32.6857 20.6244 32.3557 23.3044C32.1057 25.2744 31.7757 27.2044 31.4357 29.1444C30.7857 32.8544 29.8157 36.7344 29.2857 40.3644C30.4357 40.2244 32.4157 39.3044 33.3957 38.7844C36.8857 36.9244 39.9957 33.5344 41.2757 29.3044C43.6757 21.4044 38.1157 15.0544 31.8757 17.7144ZM35.5457 34.2444C36.0257 31.0344 36.5157 27.8244 36.9957 24.6144C38.7557 25.7644 38.3457 31.2344 35.5457 34.2444ZM44.1157 49.3944C43.5957 47.6344 42.1857 45.2044 41.0957 44.6744C45.0557 50.9844 43.5457 57.8144 39.1957 63.2344C38.7357 63.8144 38.0357 64.5544 37.6657 65.1444C40.6157 63.9044 43.3557 60.1844 44.2657 56.2244C44.7657 54.0544 44.7457 51.4944 44.1157 49.3944ZM45.1357 17.2944C46.1157 19.9544 47.4957 21.4244 46.6957 25.9644C46.0957 29.3644 44.7757 31.0644 43.8957 33.7544C47.9557 30.9644 50.4757 19.4044 45.1357 17.2944ZM53.5757 35.0244C52.4657 37.2944 49.8557 44.3144 49.5357 46.3844C50.1357 45.4544 50.4957 43.9244 50.9457 42.8044C51.4557 41.5144 51.8857 40.3644 52.3957 39.1344C53.6557 36.0844 55.9357 32.4444 55.9357 32.4444C54.7157 32.4444 54.2757 33.5944 53.5757 35.0244ZM50.2357 58.6344C49.0257 57.0444 48.2457 54.9244 48.0357 52.5144C46.6857 55.1144 47.7757 62.2344 55.0657 61.7844C53.1957 61.7844 50.9557 59.5944 50.2357 58.6344ZM54.5657 20.8544C54.2557 19.3844 54.6457 17.9444 54.9857 16.7444C53.3357 18.0844 53.4657 22.5344 55.6057 23.4844C55.7857 23.5744 56.2457 23.5944 56.5557 23.5644C55.7557 23.2644 54.8157 22.0244 54.5657 20.8544ZM59.1257 39.3144C59.4557 38.3244 60.5057 37.1244 61.1057 36.7044C62.5057 35.7444 63.2957 36.0544 65.0057 36.0644C61.0957 33.6244 59.1557 37.5544 59.1257 39.3144ZM62.2457 36.7644C58.4957 37.6744 54.2757 57.1244 56.1257 58.9344C57.4857 58.6944 58.8457 55.6644 59.5157 54.3044C60.3957 52.5044 61.1757 50.7444 61.9557 48.8844C63.6357 44.8944 65.0557 41.6444 65.9457 37.0544C64.9357 36.6144 63.4057 36.4844 62.2457 36.7644ZM68.3357 6.51437C67.6757 9.02437 68.1057 11.7644 66.4157 17.2244C66.8257 16.4544 67.2657 16.2744 67.5457 15.1644C68.1757 12.6244 68.4957 9.08437 68.3357 6.51437ZM70.6257 2.69437C70.4457 2.57437 70.2257 2.46437 70.1257 2.47437C70.4757 3.00437 71.0557 3.59437 71.0957 5.48437C71.2957 5.26437 71.3457 5.05437 71.3957 4.83437C71.5157 4.06437 71.3357 3.12437 70.6257 2.69437ZM71.5257 57.9044C67.6357 59.1944 65.5657 57.4244 63.6657 54.7944C63.7457 57.5144 65.3057 59.1144 67.9957 59.3844C71.0257 59.6844 72.6557 58.5144 74.1457 56.6444C73.5157 56.8244 72.5057 57.5844 71.5257 57.9044ZM70.1657 31.0144C71.0557 31.8144 72.1057 32.2944 72.5557 33.5844C72.9357 34.6744 72.4257 36.7244 72.4157 38.0044C74.3257 34.8144 73.6957 31.8844 70.1657 31.0144ZM83.5457 21.3144C83.4857 18.2044 84.1457 16.7544 84.8157 14.1744C82.4757 16.2444 81.3557 27.0944 85.5757 27.5444C85.2557 26.7344 83.6257 25.7844 83.5457 21.3144ZM85.4857 32.8544C84.8057 32.4344 83.9957 32.2844 83.2157 31.9644L84.7457 33.0044L81.7957 40.2944C82.3957 39.7444 85.0657 33.9444 85.4857 32.8544ZM85.7757 14.3844C84.4757 15.4244 83.3857 21.6044 84.6157 24.7944C85.1757 26.2344 85.5357 26.4044 86.3857 27.2544C88.4857 21.8744 88.5857 12.1244 85.7757 14.3844ZM92.2357 30.9744C92.3857 31.1044 92.2957 31.0544 92.5857 31.2644C92.8057 31.4344 92.8557 31.4444 93.0357 31.5644C96.9857 34.1744 95.0957 35.9944 96.2157 37.6444C96.8857 33.8344 95.5557 31.6844 92.2357 30.9744ZM88.7457 53.9444C87.9957 53.2244 87.6857 52.5444 87.0357 51.8144C87.1757 57.4744 94.1557 57.5644 96.9757 54.4844C97.4157 54.0144 97.2157 54.3344 97.4557 53.7744C95.6557 54.5844 91.7857 56.8444 88.7457 53.9444ZM103.416 48.8544L103.716 49.1944C105.596 50.8444 111.016 52.8344 112.446 49.7544C106.906 51.4944 107.306 50.0744 103.416 48.8544ZM103.256 36.3244L103.726 35.4544C105.776 30.5244 106.526 27.3744 110.076 22.7944C110.556 22.1744 111.096 21.8644 111.546 21.3044C107.956 19.5944 103.676 33.7744 103.256 36.3244ZM113.046 29.3144C113.816 26.2344 115.496 25.2844 118.316 25.1144C115.146 23.4344 112.826 26.0844 113.046 29.3144ZM114.456 27.9044C112.226 32.3144 108.676 44.7344 110.216 47.9744C111.276 47.9144 111.776 46.9144 112.246 46.1644C113.536 44.1244 115.226 40.2544 116.166 38.0244C117.186 35.6044 120.256 28.7044 120.106 26.0544C117.666 25.1244 115.656 25.5244 114.456 27.9044ZM123.576 47.2844C120.846 47.4544 119.516 45.9844 118.276 44.7144C118.496 47.1844 120.716 48.7244 123.516 48.4744C126.096 48.2444 128.156 46.5944 128.826 44.7244C127.386 45.6644 126.266 47.1144 123.576 47.2844ZM124.376 20.0144C125.306 20.8344 126.376 20.9944 126.876 22.2044C127.376 23.4144 126.896 25.1844 127.126 26.5544C128.316 23.0644 128.346 20.4544 124.376 20.0144ZM138.016 23.6444L136.616 27.5944C136.096 28.8644 135.386 30.2744 135.016 31.6244L135.616 30.7844C135.786 30.4044 135.896 30.1544 136.066 29.7744L137.946 25.7944C138.396 24.8344 138.516 24.7144 138.016 23.6444ZM144.416 37.3844C143.706 37.1044 143.066 36.6844 142.406 36.4544C141.966 38.1844 140.936 40.0744 141.606 41.7944C143.786 42.2444 145.726 39.7444 146.426 38.1244C145.946 37.8144 145.006 37.6244 144.416 37.3844ZM141.996 23.1244C142.796 23.5944 144.196 23.6244 145.496 25.3444C145.896 25.8644 145.846 26.1644 146.186 26.6144C146.786 23.9244 144.476 23.0544 141.996 23.1244ZM140.856 43.8744C137.166 42.7644 136.456 40.9044 135.066 39.3644C136.636 44.8244 144.316 46.9244 148.466 43.0944L148.856 42.6644C146.476 43.6744 144.776 45.0544 140.856 43.8744ZM149.936 17.9644C149.056 14.2044 146.946 14.4544 144.416 16.5544C143.086 17.6644 140.946 20.2844 140.366 22.4444C142.946 22.4444 147.346 23.0944 146.736 25.9944C146.216 28.5244 144.306 31.2644 143.866 33.3644C144.696 33.9844 146.856 34.6244 148.066 34.6144C148.876 33.0544 149.796 28.9244 150.096 26.9644C150.586 23.6444 150.706 21.2144 149.936 17.9644ZM156.136 22.9444C155.916 19.1344 154.326 15.3944 151.716 14.2044C153.246 17.2044 154.466 18.4844 154.806 22.7744C155.206 27.9044 153.426 31.6344 153.486 33.0844C153.706 32.6444 154.236 31.9944 154.576 31.2844C155.796 28.7844 156.296 25.8244 156.136 22.9444ZM156.136 22.9444C155.916 19.1344 154.326 15.3944 151.716 14.2044C153.246 17.2044 154.466 18.4844 154.806 22.7744C155.206 27.9044 153.426 31.6344 153.486 33.0844C153.706 32.6444 154.236 31.9944 154.576 31.2844C155.796 28.7844 156.296 25.8244 156.136 22.9444ZM144.416 16.5544C143.086 17.6644 140.946 20.2844 140.366 22.4444C142.946 22.4444 147.346 23.0944 146.736 25.9944C146.216 28.5244 144.306 31.2644 143.866 33.3644C144.696 33.9844 146.856 34.6244 148.066 34.6144C148.876 33.0544 149.796 28.9244 150.096 26.9644C150.586 23.6444 150.706 21.2144 149.936 17.9644C149.056 14.2044 146.946 14.4544 144.416 16.5544ZM140.856 43.8744C137.166 42.7644 136.456 40.9044 135.066 39.3644C136.636 44.8244 144.316 46.9244 148.466 43.0944L148.856 42.6644C146.476 43.6744 144.776 45.0544 140.856 43.8744ZM145.496 25.3444C145.896 25.8644 145.846 26.1644 146.186 26.6144C146.786 23.9244 144.476 23.0544 141.996 23.1244C142.796 23.5944 144.196 23.6244 145.496 25.3444ZM141.606 41.7944C143.786 42.2444 145.726 39.7444 146.426 38.1244C145.946 37.8144 145.006 37.6244 144.416 37.3844C143.706 37.1044 143.066 36.6844 142.406 36.4544C141.966 38.1844 140.936 40.0744 141.606 41.7944ZM136.066 29.7744L137.946 25.7944C138.396 24.8344 138.516 24.7144 138.016 23.6444L136.616 27.5944C136.096 28.8644 135.386 30.2744 135.016 31.6244L135.616 30.7844C135.786 30.4044 135.896 30.1544 136.066 29.7744ZM126.876 22.2044C127.376 23.4144 126.896 25.1844 127.126 26.5544C128.316 23.0644 128.346 20.4544 124.376 20.0144C125.306 20.8344 126.376 20.9944 126.876 22.2044ZM118.276 44.7144C118.496 47.1844 120.716 48.7244 123.516 48.4744C126.096 48.2444 128.156 46.5944 128.826 44.7244C127.386 45.6644 126.266 47.1144 123.576 47.2844C120.846 47.4544 119.516 45.9844 118.276 44.7144ZM114.456 27.9044C112.226 32.3144 108.676 44.7344 110.216 47.9744C111.276 47.9144 111.776 46.9144 112.246 46.1644C113.536 44.1244 115.226 40.2544 116.166 38.0244C117.186 35.6044 120.256 28.7044 120.106 26.0544C117.666 25.1244 115.656 25.5244 114.456 27.9044ZM118.316 25.1144C115.146 23.4344 112.826 26.0844 113.046 29.3144C113.816 26.2344 115.496 25.2844 118.316 25.1144ZM110.076 22.7944C110.556 22.1744 111.096 21.8644 111.546 21.3044C107.956 19.5944 103.676 33.7744 103.256 36.3244L103.726 35.4544C105.776 30.5244 106.526 27.3744 110.076 22.7944ZM103.416 48.8544L103.716 49.1944C105.596 50.8444 111.016 52.8344 112.446 49.7544C106.906 51.4944 107.306 50.0744 103.416 48.8544ZM88.7457 53.9444C87.9957 53.2244 87.6857 52.5444 87.0357 51.8144C87.1757 57.4744 94.1557 57.5644 96.9757 54.4844C97.4157 54.0144 97.2157 54.3344 97.4557 53.7744C95.6557 54.5844 91.7857 56.8444 88.7457 53.9444ZM93.0357 31.5644C96.9857 34.1744 95.0957 35.9944 96.2157 37.6444C96.8857 33.8344 95.5557 31.6844 92.2357 30.9744C92.3857 31.1044 92.2957 31.0544 92.5857 31.2644C92.8057 31.4344 92.8557 31.4444 93.0357 31.5644ZM85.7757 14.3844C84.4757 15.4244 83.3857 21.6044 84.6157 24.7944C85.1757 26.2344 85.5357 26.4044 86.3857 27.2544C88.4857 21.8744 88.5857 12.1244 85.7757 14.3844ZM84.7457 33.0044L81.7957 40.2944C82.3957 39.7444 85.0657 33.9444 85.4857 32.8544C84.8057 32.4344 83.9957 32.2844 83.2157 31.9644L84.7457 33.0044ZM84.8157 14.1744C82.4757 16.2444 81.3557 27.0944 85.5757 27.5444C85.2557 26.7344 83.6257 25.7844 83.5457 21.3144C83.4857 18.2044 84.1457 16.7544 84.8157 14.1744ZM72.5557 33.5844C72.9357 34.6744 72.4257 36.7244 72.4157 38.0044C74.3257 34.8144 73.6957 31.8844 70.1657 31.0144C71.0557 31.8144 72.1057 32.2944 72.5557 33.5844ZM63.6657 54.7944C63.7457 57.5144 65.3057 59.1144 67.9957 59.3844C71.0257 59.6844 72.6557 58.5144 74.1457 56.6444C73.5157 56.8244 72.5057 57.5844 71.5257 57.9044C67.6357 59.1944 65.5657 57.4244 63.6657 54.7944ZM62.2457 36.7644C58.4957 37.6744 54.2757 57.1244 56.1257 58.9344C57.4857 58.6944 58.8457 55.6644 59.5157 54.3044C60.3957 52.5044 61.1757 50.7444 61.9557 48.8844C63.6357 44.8944 65.0557 41.6444 65.9457 37.0544C64.9357 36.6144 63.4057 36.4844 62.2457 36.7644ZM61.1057 36.7044C62.5057 35.7444 63.2957 36.0544 65.0057 36.0644C61.0957 33.6244 59.1557 37.5544 59.1257 39.3144C59.4557 38.3244 60.5057 37.1244 61.1057 36.7044ZM50.2357 58.6344C49.0257 57.0444 48.2457 54.9244 48.0357 52.5144C46.6857 55.1144 47.7757 62.2344 55.0657 61.7844C53.1957 61.7844 50.9557 59.5944 50.2357 58.6344ZM52.3957 39.1344C53.6557 36.0844 55.9357 32.4444 55.9357 32.4444C54.7157 32.4444 54.2757 33.5944 53.5757 35.0244C52.4657 37.2944 49.8557 44.3144 49.5357 46.3844C50.1357 45.4544 50.4957 43.9244 50.9457 42.8044C51.4557 41.5144 51.8857 40.3644 52.3957 39.1344ZM45.1357 17.2944C46.1157 19.9544 47.4957 21.4244 46.6957 25.9644C46.0957 29.3644 44.7757 31.0644 43.8957 33.7544C47.9557 30.9644 50.4757 19.4044 45.1357 17.2944ZM41.0957 44.6744C45.0557 50.9844 43.5457 57.8144 39.1957 63.2344C38.7357 63.8144 38.0357 64.5544 37.6657 65.1444C40.6157 63.9044 43.3557 60.1844 44.2657 56.2244C44.7657 54.0544 44.7457 51.4944 44.1157 49.3944C43.5957 47.6344 42.1857 45.2044 41.0957 44.6744ZM41.2757 29.3044C43.6757 21.4044 38.1157 15.0544 31.8757 17.7144C32.9557 19.8844 32.6857 20.6244 32.3557 23.3044C32.1057 25.2744 31.7757 27.2044 31.4357 29.1444C30.7857 32.8544 29.8157 36.7344 29.2857 40.3644C30.4357 40.2244 32.4157 39.3044 33.3957 38.7844C36.8857 36.9244 39.9957 33.5344 41.2757 29.3044ZM36.9957 24.6144C38.7557 25.7644 38.3457 31.2344 35.5457 34.2444C36.0257 31.0344 36.5157 27.8244 36.9957 24.6144ZM31.2157 44.4744C27.5857 45.6344 28.2057 45.5844 27.4857 49.3444C26.8457 52.6744 25.0357 60.9644 25.2157 64.0644C31.0457 63.6444 34.1157 61.3944 36.6557 58.3144C41.3757 52.5844 39.3157 41.8744 31.2157 44.4744ZM34.6157 56.6344C33.7957 58.1744 32.0257 60.2344 30.4657 60.7744C30.5757 59.3144 31.8657 51.7644 32.3557 50.8944C33.1557 50.5144 34.2757 50.2244 35.0557 50.7644C36.6957 51.8844 35.3157 55.3144 34.6157 56.6344ZM19.8357 49.8944L17.8657 60.1744C17.5157 62.0244 16.6957 63.6944 17.9257 64.9844C18.8357 65.9544 20.1957 66.9244 21.9257 67.1344C16.4957 63.5344 20.2957 53.9744 19.8357 49.8944ZM10.4357 50.5344C8.22568 48.8444 6.10568 46.0244 5.25568 43.2944C4.72568 41.5844 4.94568 40.6544 4.69568 38.9344C3.26568 41.8644 4.85568 46.0544 6.70568 48.4344C7.02568 48.8544 7.38568 49.2644 7.70568 49.6144C8.16568 50.0944 8.79568 50.6444 9.49568 51.0944C10.0557 51.4544 10.5657 51.7844 11.6557 51.5944C11.3157 51.0544 10.9257 50.9144 10.4357 50.5344ZM70.6257 2.69437C70.4457 2.57437 70.2257 2.46437 70.1257 2.47437C70.4757 3.00437 71.0557 3.59437 71.0957 5.48437C71.2957 5.26437 71.3457 5.05437 71.3957 4.83437C71.5157 4.06437 71.3357 3.12437 70.6257 2.69437ZM66.4157 17.2244C66.8257 16.4544 67.2657 16.2744 67.5457 15.1644C68.1757 12.6244 68.4957 9.08437 68.3357 6.51437C67.6757 9.02437 68.1057 11.7644 66.4157 17.2244ZM54.5657 20.8544C54.2557 19.3844 54.6457 17.9444 54.9857 16.7444C53.3357 18.0844 53.4657 22.5344 55.6057 23.4844C55.7857 23.5744 56.2457 23.5944 56.5557 23.5644C55.7557 23.2644 54.8157 22.0244 54.5657 20.8544ZM167.286 16.8944C163.626 16.0744 162.426 19.0044 161.546 20.8744C161.346 21.1544 161.156 21.4344 160.966 21.7244C159.606 15.1844 152.776 8.12437 144.516 11.3544C139.796 13.1944 136.026 18.1544 134.496 22.7244C133.916 24.4444 133.626 26.6644 132.756 28.0044C132.506 23.2344 134.426 21.2344 126.026 17.4144C127.966 15.2044 130.206 10.7544 127.986 6.83437C125.546 2.51437 120.056 3.85437 118.666 6.31437C116.006 5.92437 114.826 5.00437 111.646 5.73437C105.956 7.02437 103.696 13.7744 105.466 18.0244C105.916 19.1044 106.586 19.6344 106.936 20.3744C105.426 21.2344 103.886 24.0044 102.946 25.9044C101.796 28.2244 101.186 30.2944 100.266 32.6444C100.216 32.6144 100.166 32.5744 100.136 32.5544C99.6857 32.1344 99.2357 31.7044 98.7857 31.2844C97.6457 30.1144 95.2457 28.7944 93.6057 28.4244C93.9557 25.1844 94.7257 23.1644 94.4757 19.4844C94.2857 16.6744 93.5857 13.6844 92.0557 12.0544C90.5357 10.4344 88.2457 8.83437 84.8257 9.79437C81.7357 10.6544 80.4057 12.4644 78.8157 13.6144C77.6357 11.0044 76.9157 11.4744 75.7257 10.5244C76.1357 6.70437 77.4557 2.92437 72.2757 0.764365C70.2657 -0.0656345 68.2857 -0.395635 66.3957 0.684366C65.2157 1.37437 65.2057 0.794366 63.7257 0.554366C58.6857 -0.235634 54.6757 3.22437 52.4557 6.85437C51.5157 8.40437 50.8857 10.3844 50.9657 12.5344C51.0157 13.9444 51.2557 14.2644 51.6157 15.4244C51.9457 16.5044 51.1457 16.6844 50.8257 17.9044C49.8457 17.1944 49.6357 16.7444 48.7957 16.0244C43.8057 11.7644 36.6757 12.1544 30.7357 13.1044C29.6657 13.2844 29.0657 12.7644 28.0457 12.4644C24.9757 11.5444 21.6357 12.4044 20.8257 15.7944C20.6057 16.7244 20.9057 16.4944 20.1757 16.9844C18.1257 18.3444 17.4257 18.3844 14.5657 20.6944C11.1557 23.4644 9.96568 24.7744 7.14568 28.0844C4.07568 31.6944 0.355684 38.0244 0.0256844 43.0544C-0.264316 47.4044 1.95568 51.6544 3.94568 53.9244C6.65568 57.0444 9.63568 58.9644 13.8957 58.4044C13.2557 62.8044 11.2157 67.4744 14.4457 70.6644C19.6057 75.7444 31.6157 76.0644 38.3257 72.9744C40.1557 72.1244 41.7957 71.0344 43.0357 69.9944C44.7057 68.6044 46.0557 66.6544 46.6157 66.1344C48.1957 66.8144 50.0157 69.0244 55.3857 69.2244C57.9757 69.3244 60.2457 68.6744 61.7357 66.7644C61.9857 66.4444 62.7257 65.4644 63.0657 65.2444C65.3657 66.1244 66.8657 66.6844 69.8357 66.5144C72.5357 66.3544 74.2257 65.7444 75.8457 64.4244C78.5057 62.2344 80.7557 58.9844 82.6857 55.3344C83.1157 56.2844 83.0057 57.5044 83.7057 58.7944C86.3057 63.6144 94.5557 64.7744 99.2257 61.4844C100.326 60.7144 102.716 58.0844 103.226 56.7044C104.566 57.0744 105.476 57.6144 107.036 57.9344C109.856 58.5244 112.886 58.5944 115.076 56.6744C116.226 55.6744 116.916 54.5544 117.376 54.2544C120.216 55.6244 124.896 56.2044 127.996 54.7944C130.416 53.6944 133.106 50.7044 134.386 48.5344C135.996 49.3944 137.776 51.6944 142.286 52.0944C151.376 52.9044 155.496 43.9944 156.356 43.2944C156.776 42.9444 157.676 42.5844 158.236 42.2544C159.996 40.7244 161.756 39.2044 163.516 37.6744C166.096 34.9044 170.786 26.9844 171.366 24.1344C172.076 20.6944 169.986 17.4944 167.286 16.8944ZM112.306 7.48437C114.596 7.02437 116.126 7.93437 118.056 8.35437C119.066 8.57437 119.866 8.20437 120.436 7.74437C121.296 7.04437 121.086 6.64437 122.146 6.13437C125.336 4.57437 125.306 11.9344 120.636 13.4344C118.576 14.0944 116.836 13.1744 115.006 12.6844C112.236 11.9344 111.926 13.6644 110.726 14.6844C108.196 16.8444 107.426 8.47437 112.306 7.48437ZM55.2757 7.47437C56.1457 5.50437 57.7757 3.78437 59.6257 2.87437C64.0557 0.684366 66.6157 4.62437 64.2257 8.75437C63.8657 9.37437 63.0557 10.2244 62.4557 10.2844C60.7657 10.4744 62.4857 9.31437 63.1957 7.89437C63.7557 6.77437 63.9557 6.13437 63.5057 4.98437C61.2957 4.53437 59.4757 6.31437 58.6857 7.41437C57.2757 9.39437 57.3357 10.5844 58.6057 12.5344C60.2757 12.5944 62.1257 10.8944 63.8357 11.7544C64.4757 12.1144 64.7457 13.4444 64.1557 13.9844C63.7057 14.3844 63.7157 14.0444 62.9457 14.0944C61.3057 14.1844 58.8157 15.7344 57.9157 17.0644C55.1957 21.1144 57.5457 24.7444 62.0757 21.7744C64.3657 20.2744 66.5257 17.6544 67.1157 13.8344C67.3957 12.0144 67.6757 10.1244 67.8757 8.19437C67.9357 6.12437 67.9957 4.06437 68.0557 1.99437C68.3657 1.93437 69.1057 1.93437 69.6157 2.05437C70.8257 2.30437 71.5457 2.93437 71.6457 3.20437C71.9357 6.26437 69.5957 16.3044 69.5757 20.3244C71.6757 19.5744 73.2357 13.0744 74.2157 12.4144C75.4457 13.5444 72.3357 18.7244 71.7157 19.7144C70.3357 21.9244 67.5957 23.9044 66.2157 19.8744C65.5957 20.2644 65.6057 20.5144 65.1557 21.0144C64.7757 21.4544 64.5257 21.6144 64.0957 21.9644C62.4557 23.3044 60.6057 24.2344 58.3157 24.2744H58.0457C57.7857 24.2744 57.5157 24.2544 57.2557 24.2144C55.4457 24.0344 54.2357 22.9444 53.7757 21.2544C53.6957 20.9544 53.6357 20.6444 53.6257 20.3644C53.3957 16.8644 55.6857 15.1844 57.2057 13.6344C55.0357 12.7544 54.0257 10.2944 55.2857 7.47437H55.2757ZM73.8257 29.2144C73.0757 28.6444 72.1857 28.3044 71.1557 28.2144C71.4157 28.2144 73.3657 27.0244 73.4357 26.8044C73.3257 27.6544 73.4857 28.4544 73.8257 29.2144ZM65.0457 28.9944C64.4257 29.4744 63.8857 29.9344 63.7757 30.6044C63.3657 30.3044 62.8757 30.1144 62.2957 30.0744C63.7157 29.9044 64.4457 29.2744 65.0457 28.9944ZM53.1257 29.1444C53.3557 29.5844 54.0557 29.9344 54.8257 30.0544C53.8257 30.1344 53.1657 30.5544 52.6957 31.1644C52.9957 30.5744 53.2057 29.9344 53.1257 29.1444ZM15.8757 49.5944C15.6057 50.3344 15.8757 49.7244 15.4757 50.0344C15.0157 48.8544 14.9157 47.5244 15.0357 46.1844C15.0357 46.0544 15.0857 45.7244 15.1157 45.5844C15.1657 45.3744 15.1457 45.4744 15.2157 45.2644C15.2657 45.1644 15.3157 45.0644 15.3657 44.9644C15.3657 45.9244 15.3857 46.8344 15.6057 47.7444C15.7057 48.1244 15.9157 48.5644 15.9357 48.9144C15.9557 49.1244 15.9357 49.3844 15.8757 49.5944ZM15.9257 42.8144C16.0557 41.9844 16.5357 40.9144 16.8957 40.2144C17.1457 39.7244 17.3157 39.4044 17.5257 39.0044C17.7757 38.6144 18.0357 38.2144 18.2957 37.8244C17.8857 41.4544 17.6757 40.5844 16.6457 41.7844C16.3957 42.0744 16.1957 42.4744 15.9257 42.8144ZM44.9457 56.7344C41.3057 71.2844 21.4157 69.9944 17.0357 65.5044C15.9957 64.4344 16.6457 62.1144 16.9257 60.5344C17.5457 57.0944 18.2857 53.7744 19.0557 50.4144C19.3657 49.0644 20.2557 46.6244 19.7057 45.4844C17.9857 41.9144 20.4157 41.8844 20.9357 41.6444C21.7157 38.6944 22.3157 35.0544 22.9057 31.9544C23.5157 28.7244 24.1657 25.2044 24.4357 21.8844C21.0357 23.7644 15.5357 30.9044 13.6857 34.4344C12.3157 37.0544 11.0557 39.7744 10.6057 43.0644C9.65568 50.0944 13.0857 50.1744 12.6757 52.0344C11.6757 52.2444 10.3057 51.9444 9.42568 51.4044C9.03568 51.1644 8.22569 50.4844 7.80569 50.0844C6.86569 49.1944 5.80568 47.8244 5.22568 46.8044C1.98568 41.0244 5.12568 35.0944 8.44568 30.4844L10.9457 27.3144C12.7257 25.1844 15.4057 22.6444 17.7357 20.9344C19.4357 19.6844 22.7357 17.5644 24.6857 16.9344C24.6457 15.5844 23.2957 12.4544 27.9557 14.7444C29.5757 15.5444 29.1457 15.2944 31.0857 14.9244C33.5557 14.4444 36.1457 14.1344 38.7557 14.3744C43.5857 14.8244 47.3757 17.0844 48.5057 21.0644C50.4357 27.8344 45.5157 34.0944 41.4057 38.0244C39.1657 40.1744 38.2257 40.3144 36.8357 41.4944C40.3757 43.0144 42.0657 43.7244 43.6457 46.7544C45.0757 49.4844 45.7857 53.3344 44.9457 56.7344ZM45.7057 44.1744C45.3057 43.8744 45.2357 43.7344 44.7657 43.4544C45.7257 42.7144 46.2557 41.9644 46.7157 41.2944C46.3757 42.2544 46.0457 43.2144 45.7057 44.1744ZM165.196 24.7244C164.256 26.7544 163.166 28.4944 162.016 30.1344C160.476 32.3244 157.906 35.1744 155.586 36.5044C154.966 36.8644 153.176 37.5444 152.856 37.9644L151.176 40.6844C150.546 41.5544 149.866 42.3144 149.236 42.9444C143.846 48.3044 136.116 45.4044 134.056 38.2144C132.016 40.3944 129.246 51.4144 120.196 48.8144C117.456 48.0344 117.056 46.8144 116.976 43.7144C115.646 45.5944 113.416 51.0944 111.216 51.7144C109.476 52.1944 106.936 51.5844 105.446 50.9444C103.226 49.9944 103.066 49.4244 101.716 48.0744C100.546 49.7144 99.1657 53.9644 96.2657 55.9644C93.6257 57.7944 87.8957 57.0144 86.8457 54.1844C85.8857 51.5944 87.7557 45.4044 88.4257 42.8244C90.1657 36.0844 90.3957 36.1044 86.6657 33.7744C85.2757 35.1344 78.0057 57.8344 71.0957 59.8744C69.3257 60.3944 66.4957 60.1544 64.9857 59.4144C62.9457 58.4344 62.7657 57.4544 62.6857 54.7144C61.0157 56.5444 59.5357 62.6644 55.9457 62.8044C54.4857 62.8544 53.1157 62.6244 51.8257 62.1644C45.4757 59.8844 46.3757 55.4244 47.8957 48.7144C48.9357 44.1144 50.9157 37.7844 53.1257 34.3944C54.8157 31.7944 56.1857 30.8744 59.9657 31.7244C61.4557 32.0544 62.2857 32.4444 63.5357 33.0844C64.6057 33.6244 65.4757 34.4544 66.3357 34.9844C66.7057 33.3644 66.6857 31.7544 66.9857 30.3244C68.7757 28.8944 72.5957 30.9844 73.5957 32.1644C74.7657 33.5644 73.6657 38.1844 73.3657 40.1744C73.0257 42.3644 70.5957 54.9444 71.2957 55.9844C71.5557 56.1744 70.9957 56.1844 71.7957 56.1444C72.8457 56.0844 75.1057 52.2244 75.5257 51.4844C77.6257 47.8644 83.0257 36.7444 84.2357 33.0044C83.6257 32.3844 80.8957 31.5444 79.6057 29.9944C78.5457 28.7244 77.5957 27.0644 77.3057 24.7944C76.2657 16.6644 87.9057 5.32436 89.7157 15.4944C90.6557 20.7344 89.2057 24.1244 88.2757 28.6944C89.2557 29.0044 90.3357 29.5044 91.4257 29.8744C95.3557 31.1944 97.5757 32.5444 96.9957 37.3344C96.7057 39.8144 94.6157 51.3044 95.1357 52.8444C96.6357 53.3444 97.9757 50.1344 98.6157 48.8144C101.936 41.9044 100.766 43.7544 102.296 37.1444C103.306 32.7744 106.226 23.3844 109.346 21.1444C110.906 20.0244 114.056 20.6044 115.806 21.2144C117.706 21.8744 119.236 22.9144 120.466 24.0044C121.266 22.8944 120.936 20.8044 121.266 19.3444C123.106 17.9044 127.036 20.1644 127.886 21.2044C129.026 22.6144 127.936 27.2644 127.636 29.2044C127.376 30.8744 124.646 44.9044 125.696 45.1244L126.096 45.1844C128.556 44.9144 136.926 26.6444 137.386 24.3244C137.996 21.2244 139.126 18.9644 140.736 16.9044C148.136 7.47437 157.586 14.5244 156.776 24.6944C156.406 29.3944 155.496 30.3544 154.866 33.4944C158.346 31.5044 161.716 26.5644 163.686 22.8444C164.406 21.4844 165.356 18.9844 165.986 18.6744C168.176 19.8744 165.866 23.2544 165.196 24.7244ZM78.6457 36.6144C78.8357 36.8044 79.0757 36.9544 79.3557 37.0544C78.8257 37.7044 78.6557 38.3644 78.4357 39.0144C78.6457 38.2344 78.8457 37.4444 78.6457 36.6144ZM156.136 22.9444C155.916 19.1344 154.326 15.3944 151.716 14.2044C153.246 17.2044 154.466 18.4844 154.806 22.7744C155.206 27.9044 153.426 31.6344 153.486 33.0844C153.706 32.6444 154.236 31.9944 154.576 31.2844C155.796 28.7844 156.296 25.8244 156.136 22.9444ZM144.416 16.5544C143.086 17.6644 140.946 20.2844 140.366 22.4444C142.946 22.4444 147.346 23.0944 146.736 25.9944C146.216 28.5244 144.306 31.2644 143.866 33.3644C144.696 33.9844 146.856 34.6244 148.066 34.6144C148.876 33.0544 149.796 28.9244 150.096 26.9644C150.586 23.6444 150.706 21.2144 149.936 17.9644C149.056 14.2044 146.946 14.4544 144.416 16.5544ZM140.856 43.8744C137.166 42.7644 136.456 40.9044 135.066 39.3644C136.636 44.8244 144.316 46.9244 148.466 43.0944L148.856 42.6644C146.476 43.6744 144.776 45.0544 140.856 43.8744ZM145.496 25.3444C145.896 25.8644 145.846 26.1644 146.186 26.6144C146.786 23.9244 144.476 23.0544 141.996 23.1244C142.796 23.5944 144.196 23.6244 145.496 25.3444ZM141.606 41.7944C143.786 42.2444 145.726 39.7444 146.426 38.1244C145.946 37.8144 145.006 37.6244 144.416 37.3844C143.706 37.1044 143.066 36.6844 142.406 36.4544C141.966 38.1844 140.936 40.0744 141.606 41.7944ZM136.066 29.7744L137.946 25.7944C138.396 24.8344 138.516 24.7144 138.016 23.6444L136.616 27.5944C136.096 28.8644 135.386 30.2744 135.016 31.6244L135.616 30.7844C135.786 30.4044 135.896 30.1544 136.066 29.7744ZM126.876 22.2044C127.376 23.4144 126.896 25.1844 127.126 26.5544C128.316 23.0644 128.346 20.4544 124.376 20.0144C125.306 20.8344 126.376 20.9944 126.876 22.2044ZM118.276 44.7144C118.496 47.1844 120.716 48.7244 123.516 48.4744C126.096 48.2444 128.156 46.5944 128.826 44.7244C127.386 45.6644 126.266 47.1144 123.576 47.2844C120.846 47.4544 119.516 45.9844 118.276 44.7144ZM123.506 7.48437C123.886 8.18437 123.846 8.40437 124.066 9.07437C124.146 7.94437 123.896 5.72437 122.556 6.31437C123.076 6.97437 122.986 6.52437 123.506 7.48437ZM114.456 27.9044C112.226 32.3144 108.676 44.7344 110.216 47.9744C111.276 47.9144 111.776 46.9144 112.246 46.1644C113.536 44.1244 115.226 40.2544 116.166 38.0244C117.186 35.6044 120.256 28.7044 120.106 26.0544C117.666 25.1244 115.656 25.5244 114.456 27.9044ZM122.796 11.2344C119.976 12.7044 119.046 12.6744 115.486 12.3344L115.996 12.6244C118.126 13.5744 121.626 13.6944 122.796 11.2344ZM118.316 25.1144C115.146 23.4344 112.826 26.0844 113.046 29.3144C113.816 26.2344 115.496 25.2844 118.316 25.1144ZM114.186 8.09437C112.176 7.60437 110.646 8.73437 110.156 10.2044C110.776 9.95437 110.966 9.58437 111.966 8.97437C112.646 8.55437 113.546 8.43437 114.186 8.09437ZM110.076 22.7944C110.556 22.1744 111.096 21.8644 111.546 21.3044C107.956 19.5944 103.676 33.7744 103.256 36.3244L103.726 35.4544C105.776 30.5244 106.526 27.3744 110.076 22.7944ZM103.416 48.8544L103.716 49.1944C105.596 50.8444 111.016 52.8344 112.446 49.7544C106.906 51.4944 107.306 50.0744 103.416 48.8544ZM110.366 14.8344C109.566 13.5344 109.496 14.2844 109.036 12.0244C108.836 13.4844 108.866 14.5944 110.366 14.8344ZM88.7457 53.9444C87.9957 53.2244 87.6857 52.5444 87.0357 51.8144C87.1757 57.4744 94.1557 57.5644 96.9757 54.4844C97.4157 54.0144 97.2157 54.3344 97.4557 53.7744C95.6557 54.5844 91.7857 56.8444 88.7457 53.9444ZM93.0357 31.5644C96.9857 34.1744 95.0957 35.9944 96.2157 37.6444C96.8857 33.8344 95.5557 31.6844 92.2357 30.9744C92.3857 31.1044 92.2957 31.0544 92.5857 31.2644C92.8057 31.4344 92.8557 31.4444 93.0357 31.5644ZM85.7757 14.3844C84.4757 15.4244 83.3857 21.6044 84.6157 24.7944C85.1757 26.2344 85.5357 26.4044 86.3857 27.2544C88.4857 21.8744 88.5857 12.1244 85.7757 14.3844ZM84.7457 33.0044L81.7957 40.2944C82.3957 39.7444 85.0657 33.9444 85.4857 32.8544C84.8057 32.4344 83.9957 32.2844 83.2157 31.9644L84.7457 33.0044ZM84.8157 14.1744C82.4757 16.2444 81.3557 27.0944 85.5757 27.5444C85.2557 26.7344 83.6257 25.7844 83.5457 21.3144C83.4857 18.2044 84.1457 16.7544 84.8157 14.1744ZM72.5557 33.5844C72.9357 34.6744 72.4257 36.7244 72.4157 38.0044C74.3257 34.8144 73.6957 31.8844 70.1657 31.0144C71.0557 31.8144 72.1057 32.2944 72.5557 33.5844ZM63.6657 54.7944C63.7457 57.5144 65.3057 59.1144 67.9957 59.3844C71.0257 59.6844 72.6557 58.5144 74.1457 56.6444C73.5157 56.8244 72.5057 57.5844 71.5257 57.9044C67.6357 59.1944 65.5657 57.4244 63.6657 54.7944ZM71.3957 4.83437C71.5157 4.06437 71.3357 3.12437 70.6257 2.69437C70.4457 2.57437 70.2257 2.46437 70.1257 2.47437C70.4757 3.00437 71.0557 3.59437 71.0957 5.48437C71.2957 5.26437 71.3457 5.05437 71.3957 4.83437ZM68.3357 6.51437C67.6757 9.02437 68.1057 11.7644 66.4157 17.2244C66.8257 16.4544 67.2657 16.2744 67.5457 15.1644C68.1757 12.6244 68.4957 9.08437 68.3357 6.51437ZM62.2457 36.7644C58.4957 37.6744 54.2757 57.1244 56.1257 58.9344C57.4857 58.6944 58.8457 55.6644 59.5157 54.3044C60.3957 52.5044 61.1757 50.7444 61.9557 48.8844C63.6357 44.8944 65.0557 41.6444 65.9457 37.0544C64.9357 36.6144 63.4057 36.4844 62.2457 36.7644ZM61.1057 36.7044C62.5057 35.7444 63.2957 36.0544 65.0057 36.0644C61.0957 33.6244 59.1557 37.5544 59.1257 39.3144C59.4557 38.3244 60.5057 37.1244 61.1057 36.7044ZM54.5657 20.8544C54.2557 19.3844 54.6457 17.9444 54.9857 16.7444C53.3357 18.0844 53.4657 22.5344 55.6057 23.4844C55.7857 23.5744 56.2457 23.5944 56.5557 23.5644C55.7557 23.2644 54.8157 22.0244 54.5657 20.8544ZM50.2357 58.6344C49.0257 57.0444 48.2457 54.9244 48.0357 52.5144C46.6857 55.1144 47.7757 62.2344 55.0657 61.7844C53.1957 61.7844 50.9557 59.5944 50.2357 58.6344ZM52.3957 39.1344C53.6557 36.0844 55.9357 32.4444 55.9357 32.4444C54.7157 32.4444 54.2757 33.5944 53.5757 35.0244C52.4657 37.2944 49.8557 44.3144 49.5357 46.3844C50.1357 45.4544 50.4957 43.9244 50.9457 42.8044C51.4557 41.5144 51.8857 40.3644 52.3957 39.1344ZM43.8957 33.7544C47.9557 30.9644 50.4757 19.4044 45.1357 17.2944C46.1157 19.9544 47.4957 21.4244 46.6957 25.9644C46.0957 29.3644 44.7757 31.0644 43.8957 33.7544ZM41.0957 44.6744C45.0557 50.9844 43.5457 57.8144 39.1957 63.2344C38.7357 63.8144 38.0357 64.5544 37.6657 65.1444C40.6157 63.9044 43.3557 60.1844 44.2657 56.2244C44.7657 54.0544 44.7457 51.4944 44.1157 49.3944C43.5957 47.6344 42.1857 45.2044 41.0957 44.6744ZM41.2757 29.3044C43.6757 21.4044 38.1157 15.0544 31.8757 17.7144C32.9557 19.8844 32.6857 20.6244 32.3557 23.3044C32.1057 25.2744 31.7757 27.2044 31.4357 29.1444C30.7857 32.8544 29.8157 36.7344 29.2857 40.3644C30.4357 40.2244 32.4157 39.3044 33.3957 38.7844C36.8857 36.9244 39.9957 33.5344 41.2757 29.3044ZM36.9957 24.6144C38.7557 25.7644 38.3457 31.2344 35.5457 34.2444C36.0257 31.0344 36.5157 27.8244 36.9957 24.6144ZM31.2157 44.4744C27.5857 45.6344 28.2057 45.5844 27.4857 49.3444C26.8457 52.6744 25.0357 60.9644 25.2157 64.0644C31.0457 63.6444 34.1157 61.3944 36.6557 58.3144C41.3757 52.5844 39.3157 41.8744 31.2157 44.4744ZM34.6157 56.6344C33.7957 58.1744 32.0257 60.2344 30.4657 60.7744C30.5757 59.3144 31.8657 51.7644 32.3557 50.8944C33.1557 50.5144 34.2757 50.2244 35.0557 50.7644C36.6957 51.8844 35.3157 55.3144 34.6157 56.6344ZM19.8357 49.8944L17.8657 60.1744C17.5157 62.0244 16.6957 63.6944 17.9257 64.9844C18.8357 65.9544 20.1957 66.9244 21.9257 67.1344C16.4957 63.5344 20.2957 53.9744 19.8357 49.8944ZM5.25568 43.2944C4.72568 41.5844 4.94568 40.6544 4.69568 38.9344C3.26568 41.8644 4.85568 46.0544 6.70568 48.4344C7.02568 48.8544 7.38568 49.2644 7.70568 49.6144C8.16568 50.0944 8.79568 50.6444 9.49568 51.0944C10.0557 51.4544 10.5657 51.7844 11.6557 51.5944C11.3157 51.0544 10.9257 50.9144 10.4357 50.5344C8.22568 48.8444 6.10568 46.0244 5.25568 43.2944ZM54.5657 20.8544C54.2557 19.3844 54.6457 17.9444 54.9857 16.7444C53.3357 18.0844 53.4657 22.5344 55.6057 23.4844C55.7857 23.5744 56.2457 23.5944 56.5557 23.5644C55.7557 23.2644 54.8157 22.0244 54.5657 20.8544ZM68.3357 6.51437C67.6757 9.02437 68.1057 11.7644 66.4157 17.2244C66.8257 16.4544 67.2657 16.2744 67.5457 15.1644C68.1757 12.6244 68.4957 9.08437 68.3357 6.51437ZM70.6257 2.69437C70.4457 2.57437 70.2257 2.46437 70.1257 2.47437C70.4757 3.00437 71.0557 3.59437 71.0957 5.48437C71.2957 5.26437 71.3457 5.05437 71.3957 4.83437C71.5157 4.06437 71.3357 3.12437 70.6257 2.69437ZM10.4357 50.5344C8.22568 48.8444 6.10568 46.0244 5.25568 43.2944C4.72568 41.5844 4.94568 40.6544 4.69568 38.9344C3.26568 41.8644 4.85568 46.0544 6.70568 48.4344C7.02568 48.8544 7.38568 49.2644 7.70568 49.6144C8.16568 50.0944 8.79568 50.6444 9.49568 51.0944C10.0557 51.4544 10.5657 51.7844 11.6557 51.5944C11.3157 51.0544 10.9257 50.9144 10.4357 50.5344ZM19.8357 49.8944L17.8657 60.1744C17.5157 62.0244 16.6957 63.6944 17.9257 64.9844C18.8357 65.9544 20.1957 66.9244 21.9257 67.1344C16.4957 63.5344 20.2957 53.9744 19.8357 49.8944ZM31.2157 44.4744C27.5857 45.6344 28.2057 45.5844 27.4857 49.3444C26.8457 52.6744 25.0357 60.9644 25.2157 64.0644C31.0457 63.6444 34.1157 61.3944 36.6557 58.3144C41.3757 52.5844 39.3157 41.8744 31.2157 44.4744ZM34.6157 56.6344C33.7957 58.1744 32.0257 60.2344 30.4657 60.7744C30.5757 59.3144 31.8657 51.7644 32.3557 50.8944C33.1557 50.5144 34.2757 50.2244 35.0557 50.7644C36.6957 51.8844 35.3157 55.3144 34.6157 56.6344ZM31.8757 17.7144C32.9557 19.8844 32.6857 20.6244 32.3557 23.3044C32.1057 25.2744 31.7757 27.2044 31.4357 29.1444C30.7857 32.8544 29.8157 36.7344 29.2857 40.3644C30.4357 40.2244 32.4157 39.3044 33.3957 38.7844C36.8857 36.9244 39.9957 33.5344 41.2757 29.3044C43.6757 21.4044 38.1157 15.0544 31.8757 17.7144ZM35.5457 34.2444C36.0257 31.0344 36.5157 27.8244 36.9957 24.6144C38.7557 25.7644 38.3457 31.2344 35.5457 34.2444ZM44.1157 49.3944C43.5957 47.6344 42.1857 45.2044 41.0957 44.6744C45.0557 50.9844 43.5457 57.8144 39.1957 63.2344C38.7357 63.8144 38.0357 64.5544 37.6657 65.1444C40.6157 63.9044 43.3557 60.1844 44.2657 56.2244C44.7657 54.0544 44.7457 51.4944 44.1157 49.3944ZM45.1357 17.2944C46.1157 19.9544 47.4957 21.4244 46.6957 25.9644C46.0957 29.3644 44.7757 31.0644 43.8957 33.7544C47.9557 30.9644 50.4757 19.4044 45.1357 17.2944ZM70.6257 2.69437C70.4457 2.57437 70.2257 2.46437 70.1257 2.47437C70.4757 3.00437 71.0557 3.59437 71.0957 5.48437C71.2957 5.26437 71.3457 5.05437 71.3957 4.83437C71.5157 4.06437 71.3357 3.12437 70.6257 2.69437ZM68.3357 6.51437C67.6757 9.02437 68.1057 11.7644 66.4157 17.2244C66.8257 16.4544 67.2657 16.2744 67.5457 15.1644C68.1757 12.6244 68.4957 9.08437 68.3357 6.51437ZM54.5657 20.8544C54.2557 19.3844 54.6457 17.9444 54.9857 16.7444C53.3357 18.0844 53.4657 22.5344 55.6057 23.4844C55.7857 23.5744 56.2457 23.5944 56.5557 23.5644C55.7557 23.2644 54.8157 22.0244 54.5657 20.8544ZM45.1357 17.2944C46.1157 19.9544 47.4957 21.4244 46.6957 25.9644C46.0957 29.3644 44.7757 31.0644 43.8957 33.7544C47.9557 30.9644 50.4757 19.4044 45.1357 17.2944ZM44.1157 49.3944C43.5957 47.6344 42.1857 45.2044 41.0957 44.6744C45.0557 50.9844 43.5457 57.8144 39.1957 63.2344C38.7357 63.8144 38.0357 64.5544 37.6657 65.1444C40.6157 63.9044 43.3557 60.1844 44.2657 56.2244C44.7657 54.0544 44.7457 51.4944 44.1157 49.3944ZM31.8757 17.7144C32.9557 19.8844 32.6857 20.6244 32.3557 23.3044C32.1057 25.2744 31.7757 27.2044 31.4357 29.1444C30.7857 32.8544 29.8157 36.7344 29.2857 40.3644C30.4357 40.2244 32.4157 39.3044 33.3957 38.7844C36.8857 36.9244 39.9957 33.5344 41.2757 29.3044C43.6757 21.4044 38.1157 15.0544 31.8757 17.7144ZM35.5457 34.2444C36.0257 31.0344 36.5157 27.8244 36.9957 24.6144C38.7557 25.7644 38.3457 31.2344 35.5457 34.2444ZM31.2157 44.4744C27.5857 45.6344 28.2057 45.5844 27.4857 49.3444C26.8457 52.6744 25.0357 60.9644 25.2157 64.0644C31.0457 63.6444 34.1157 61.3944 36.6557 58.3144C41.3757 52.5844 39.3157 41.8744 31.2157 44.4744ZM34.6157 56.6344C33.7957 58.1744 32.0257 60.2344 30.4657 60.7744C30.5757 59.3144 31.8657 51.7644 32.3557 50.8944C33.1557 50.5144 34.2757 50.2244 35.0557 50.7644C36.6957 51.8844 35.3157 55.3144 34.6157 56.6344ZM19.8357 49.8944L17.8657 60.1744C17.5157 62.0244 16.6957 63.6944 17.9257 64.9844C18.8357 65.9544 20.1957 66.9244 21.9257 67.1344C16.4957 63.5344 20.2957 53.9744 19.8357 49.8944ZM10.4357 50.5344C8.22568 48.8444 6.10568 46.0244 5.25568 43.2944C4.72568 41.5844 4.94568 40.6544 4.69568 38.9344C3.26568 41.8644 4.85568 46.0544 6.70568 48.4344C7.02568 48.8544 7.38568 49.2644 7.70568 49.6144C8.16568 50.0944 8.79568 50.6444 9.49568 51.0944C10.0557 51.4544 10.5657 51.7844 11.6557 51.5944C11.3157 51.0544 10.9257 50.9144 10.4357 50.5344Z" fill="black"/>
<path fill-rule="evenodd" clip-rule="evenodd" d="M14.1257 7.48435V4.60435C14.3157 4.59435 14.5157 4.60435 14.7057 4.60435C14.9157 4.60435 15.0557 4.62435 15.1357 4.76435C15.2157 4.91435 15.1757 5.94435 15.1757 6.18435C15.1757 6.39435 15.2057 7.18435 15.1457 7.31435C15.0657 7.46435 14.9357 7.49435 14.7257 7.49435C14.5357 7.49435 14.3157 7.50435 14.1357 7.49435M14.1357 1.29435C14.3057 1.28435 14.5457 1.29435 14.7057 1.29435C14.8757 1.29435 14.9957 1.39435 15.0357 1.54435C15.0657 1.64435 15.0657 3.45435 15.0357 3.56435C15.0057 3.70435 14.8857 3.80435 14.7057 3.81435C14.5457 3.81435 14.2857 3.81435 14.1257 3.81435V1.30435L14.1357 1.29435ZM12.7157 0.544347V0.574348C12.8957 0.674348 12.9657 1.19435 12.9857 1.46435C13.0157 1.91435 13.0057 3.20435 12.9957 3.72435C12.9957 4.68435 12.9957 5.51435 12.9957 6.49435C12.9957 6.84435 13.0257 8.02435 12.7157 8.23435V8.25435C12.7657 8.30435 12.8257 8.30435 12.9157 8.30435H14.6657C15.2357 8.30435 15.7857 8.36435 16.1457 7.77435C16.3157 7.49435 16.3057 7.28435 16.3057 6.92435V5.92435C16.3057 5.37435 16.3757 4.93435 15.9157 4.55435C15.8757 4.51435 15.8157 4.48435 15.7757 4.44435C15.8057 4.39435 15.8457 4.36435 15.8857 4.32435C16.2457 3.95435 16.1657 3.39435 16.1657 2.91435V1.94435C16.1657 1.59435 16.1857 1.38435 16.0457 1.09435C15.9357 0.874346 15.7757 0.714347 15.5557 0.614347C15.2657 0.474347 15.0357 0.504348 14.6957 0.504348H12.7357L12.7057 0.564348L12.7157 0.544347Z" fill="black"/>
<path fill-rule="evenodd" clip-rule="evenodd" d="M18.6757 1.30435C18.6757 1.30435 18.6857 1.30435 18.7157 1.32435L19.1457 6.04435H18.2557L18.6857 1.30435H18.6757ZM16.9857 6.56435C16.9357 7.01435 16.8857 7.72435 16.6357 8.11435C16.5657 8.22435 16.5257 8.22435 16.5557 8.26435C16.5857 8.31435 17.2757 8.28435 17.3757 8.28435H18.1757C18.1757 8.28435 18.1757 8.28435 18.1857 8.27435C18.1857 8.27435 18.1857 8.27435 18.1957 8.27435C18.2957 8.22435 18.1557 8.20435 18.0957 7.88435C18.0657 7.71435 18.0657 7.51435 18.0657 7.33435C18.0757 6.98435 18.1257 7.21435 18.1557 6.85435C18.2757 6.82435 19.0457 6.84435 19.2257 6.84435C19.2557 7.33435 19.3757 7.36435 19.2957 7.84435C19.2857 7.92435 19.2657 8.00435 19.2357 8.07435C19.1457 8.31435 18.9257 8.28435 19.9857 8.28435C20.1657 8.28435 20.6957 8.30435 20.8257 8.28435C20.8557 8.15435 20.7857 8.24435 20.6557 7.94435C20.4357 7.43435 20.3557 6.19435 20.2957 5.58435C20.1657 4.27435 19.9357 2.79435 19.8757 1.51435C19.8657 1.28435 19.8657 0.90435 19.9557 0.69435C20.0057 0.58435 20.0557 0.594351 20.0157 0.494351C19.8757 0.464351 18.0557 0.494351 17.6957 0.494351C17.5257 0.494351 17.2857 0.45435 17.3757 0.60435C17.6757 1.09435 17.4157 2.49435 17.3557 3.11435C17.2257 4.31435 17.1157 5.34435 16.9957 6.58435" fill="black"/>
<path fill-rule="evenodd" clip-rule="evenodd" d="M28.8356 1.88434V5.59434C28.8356 6.11434 28.8656 7.23434 28.7756 7.70434C28.6756 8.20434 28.4456 8.28434 28.6356 8.28434C29.6156 8.28434 30.6956 8.29434 31.6656 8.28434L31.5256 7.27434C31.4556 7.11434 31.4656 7.34434 30.9256 7.43434C30.6556 7.47434 30.2656 7.49434 29.9756 7.48434V4.68434C30.2056 4.67434 30.8656 4.73434 31.0556 4.89434C31.1156 4.94434 31.0956 4.97434 31.1656 4.93434C31.2156 4.90434 31.2056 4.90434 31.2156 4.82434C31.2156 4.77434 31.2256 4.73434 31.2356 4.68434C31.2656 4.48434 31.3456 4.01434 31.3456 3.87434H29.9756V1.27434C30.3256 1.25434 31.0356 1.27434 31.3456 1.46434C31.4056 1.50434 31.5056 1.65434 31.5356 1.45434L31.5956 1.03434C31.6256 0.854344 31.6556 0.654344 31.6756 0.464344C30.8756 0.454344 30.0756 0.464344 29.2756 0.464344C29.0756 0.464344 28.8756 0.464344 28.6756 0.464344C28.5156 0.464344 28.5656 0.534344 28.6156 0.594344C28.8256 0.874343 28.8456 1.52434 28.8456 1.87434" fill="black"/>
<path fill-rule="evenodd" clip-rule="evenodd" d="M40.3556 6.48433C40.3556 6.81433 40.3556 7.16433 40.3256 7.49433C40.3056 7.64433 40.2856 7.79433 40.2456 7.92433C40.2256 7.98433 40.2056 8.05433 40.1756 8.10433C40.1356 8.17433 40.0356 8.26433 40.1356 8.28433C40.1556 8.28433 40.1656 8.28433 40.1856 8.28433H41.7056C41.8556 8.24433 41.7056 8.18433 41.6156 7.92433C41.5756 7.78433 41.5456 7.64433 41.5356 7.49433C41.4556 6.76433 41.5056 3.47433 41.5056 2.50433C41.5056 2.02433 41.4656 1.09433 41.6856 0.664334C41.7356 0.574334 41.8656 0.474333 41.6856 0.464333C41.6656 0.464333 41.6056 0.464333 41.5856 0.464333C41.1356 0.464333 40.5256 0.444333 40.1256 0.464333C40.0956 0.604333 40.1856 0.534333 40.2756 0.854333C40.4056 1.31433 40.3756 2.00433 40.3756 2.48433C40.3756 2.87433 40.3756 3.25433 40.3756 3.64433C40.3756 4.60433 40.3756 5.48433 40.3756 6.46433" fill="black"/>
<path fill-rule="evenodd" clip-rule="evenodd" d="M34.0357 1.30435C34.0357 1.30435 34.0457 1.30435 34.0757 1.32435L34.5057 6.04435H33.6157L34.0457 1.30435H34.0357ZM32.3457 6.56435C32.2957 7.01435 32.2457 7.72435 31.9957 8.11435C31.9257 8.22435 31.8857 8.22435 31.9157 8.26435C31.9457 8.31435 32.6357 8.28435 32.7357 8.28435H33.5357C33.5357 8.28435 33.5357 8.28435 33.5457 8.27435C33.5457 8.27435 33.5457 8.27435 33.5557 8.27435C33.6557 8.22435 33.5157 8.20435 33.4557 7.88435C33.4257 7.71435 33.4257 7.51435 33.4257 7.33435C33.4357 6.98435 33.4857 7.21435 33.5157 6.85435C33.6357 6.82435 34.4057 6.84435 34.5857 6.84435C34.6157 7.33435 34.7357 7.36435 34.6557 7.84435C34.6457 7.92435 34.6257 8.00435 34.5957 8.07435C34.5057 8.31435 34.2857 8.28435 35.3457 8.28435C35.5257 8.28435 36.0557 8.30435 36.1857 8.28435C36.2157 8.15435 36.1457 8.24435 36.0157 7.94435C35.7957 7.43435 35.7157 6.19435 35.6557 5.58435C35.5257 4.27435 35.2957 2.79435 35.2357 1.51435C35.2257 1.28435 35.2257 0.90435 35.3157 0.69435C35.3657 0.58435 35.4157 0.594351 35.3757 0.494351C35.2357 0.464351 33.4157 0.494351 33.0457 0.494351C32.8757 0.494351 32.6357 0.45435 32.7257 0.60435C33.0257 1.09435 32.7657 2.49435 32.7057 3.11435C32.5757 4.31435 32.4657 5.34435 32.3457 6.58435" fill="black"/>
<path fill-rule="evenodd" clip-rule="evenodd" d="M44.1257 1.30435C44.1257 1.30435 44.1357 1.30435 44.1657 1.32435L44.5957 6.04435H43.7057L44.1357 1.30435H44.1257ZM42.4357 6.56435C42.3857 7.01435 42.3357 7.72435 42.0857 8.11435C42.0157 8.22435 41.9757 8.22435 42.0057 8.26435C42.0357 8.31435 42.7257 8.28435 42.8257 8.28435H43.6257C43.6257 8.28435 43.6257 8.28435 43.6357 8.27435C43.6357 8.27435 43.6357 8.27435 43.6457 8.27435C43.7457 8.22435 43.6057 8.20435 43.5457 7.88435C43.5157 7.71435 43.5157 7.51435 43.5157 7.33435C43.5257 6.98435 43.5757 7.21435 43.6057 6.85435C43.7257 6.82435 44.4957 6.84435 44.6757 6.84435C44.7057 7.33435 44.8257 7.36435 44.7457 7.84435C44.7357 7.92435 44.7157 8.00435 44.6857 8.07435C44.5957 8.31435 44.3757 8.28435 45.4357 8.28435C45.6157 8.28435 46.1457 8.30435 46.2757 8.28435C46.3057 8.15435 46.2357 8.24435 46.1057 7.94435C45.8857 7.43435 45.8057 6.19435 45.7457 5.58435C45.6157 4.27435 45.3857 2.79435 45.3257 1.51435C45.3157 1.28435 45.3157 0.90435 45.4057 0.69435C45.4557 0.58435 45.5057 0.594351 45.4657 0.494351C45.3257 0.464351 43.5057 0.494351 43.1357 0.494351C42.9657 0.494351 42.7257 0.45435 42.8157 0.60435C43.1157 1.09435 42.8557 2.49435 42.7957 3.11435C42.6657 4.31435 42.5557 5.34435 42.4357 6.58435" fill="black"/>
<path fill-rule="evenodd" clip-rule="evenodd" d="M26.1457 7.48435V4.60435C26.3357 4.59435 26.5357 4.60435 26.7257 4.60435C26.9357 4.60435 27.0757 4.62435 27.1557 4.76435C27.2357 4.91435 27.1957 5.94435 27.1957 6.18435C27.1957 6.39435 27.2257 7.18435 27.1557 7.31435C27.0757 7.46435 26.9457 7.49435 26.7357 7.49435C26.5457 7.49435 26.3257 7.50435 26.1457 7.49435M26.1457 1.29435C26.3157 1.28435 26.5557 1.29435 26.7157 1.29435C26.8857 1.29435 27.0057 1.39435 27.0457 1.54435C27.0757 1.64435 27.0757 3.45435 27.0457 3.56435C27.0157 3.70435 26.8957 3.80435 26.7157 3.81435C26.5557 3.81435 26.2957 3.81435 26.1357 3.81435V1.30435L26.1457 1.29435ZM24.7257 0.544347V0.574348C24.9057 0.674348 24.9757 1.19435 24.9957 1.46435C25.0257 1.91435 25.0157 3.20435 25.0057 3.72435C25.0057 4.68435 25.0057 5.51435 25.0057 6.49435C25.0057 6.84435 25.0357 8.02435 24.7257 8.23435V8.25435C24.7757 8.30435 24.8357 8.30435 24.9257 8.30435H26.6757C27.2457 8.30435 27.7957 8.36435 28.1557 7.77435C28.3257 7.49435 28.3157 7.28435 28.3157 6.92435V5.92435C28.3157 5.37435 28.3857 4.93435 27.9257 4.55435C27.8857 4.51435 27.8257 4.48435 27.7857 4.44435C27.8157 4.39435 27.8557 4.36435 27.8957 4.32435C28.2557 3.95435 28.1757 3.39435 28.1757 2.91435V1.94435C28.1757 1.59435 28.1957 1.38435 28.0557 1.09435C27.9457 0.874346 27.7857 0.714347 27.5657 0.614347C27.2757 0.474347 27.0457 0.504348 26.7057 0.504348H24.7457L24.7157 0.564348L24.7257 0.544347Z" fill="black"/>
<path fill-rule="evenodd" clip-rule="evenodd" d="M23.1557 4.51435C23.1057 4.58435 23.0357 4.63435 22.9457 4.65435C22.8457 4.67435 22.4657 4.66435 22.3457 4.65435V1.55435C22.4657 1.55435 22.8557 1.54435 22.9557 1.55435C23.1357 1.59435 23.2057 1.73435 23.2057 1.91435V4.29435C23.2057 4.37435 23.1857 4.44435 23.1457 4.50435M21.3157 6.50435C21.3157 6.83435 21.3157 7.18435 21.2857 7.51435C21.2657 7.71435 21.2257 7.95435 21.1357 8.12435C21.1057 8.18435 21.0457 8.22435 21.0557 8.28435H21.0857C21.1657 8.32435 22.2457 8.28435 22.3357 8.28435V5.80435V5.79435V5.74435H22.8657C23.0057 5.76435 23.0957 5.79435 23.1557 5.90435C23.2357 6.05435 23.1957 7.29435 23.1957 7.52435V7.61435C23.1757 7.73435 23.1557 7.86435 23.1157 7.97435C23.0957 8.02435 23.0757 8.08435 23.0557 8.12435C23.0557 8.14435 23.0357 8.15435 23.0257 8.17435H23.0057H23.0157C22.9857 8.21435 22.9657 8.25435 23.0157 8.26435C23.0357 8.26435 23.0357 8.26435 23.0557 8.26435H24.2857C24.3457 8.26435 24.4157 8.26435 24.4657 8.26435C24.4657 8.14435 24.4657 8.22435 24.3457 8.08435C24.3257 8.05435 24.3157 8.01435 24.2957 7.97435C24.2557 7.85435 24.2357 7.74435 24.2257 7.62435C24.1857 7.28435 24.1957 6.97435 24.1957 6.63435C24.1957 6.08435 24.2457 5.53435 23.9357 5.26435C23.8957 5.22435 23.8357 5.19435 23.7957 5.15435C23.8257 5.10435 23.8657 5.07435 23.9057 5.03435C24.1457 4.79435 24.1857 4.46435 24.1957 4.13435V3.67435V1.60435C24.1957 1.11435 23.8857 0.734346 23.4857 0.554346C23.3357 0.484346 23.3857 0.454346 23.2057 0.454346C22.8257 0.454346 22.4457 0.454346 22.0657 0.454346C21.6857 0.454346 21.4157 0.474347 21.0457 0.494347C21.0157 0.644347 21.1057 0.564346 21.1957 0.884346C21.2357 1.03435 21.2657 1.20435 21.2757 1.37435C21.3157 1.82435 21.2957 3.13434 21.2957 3.67435C21.2957 4.63434 21.2957 5.51435 21.2957 6.49435" fill="black"/>
<path fill-rule="evenodd" clip-rule="evenodd" d="M38.5157 4.51435C38.4657 4.58435 38.3957 4.63435 38.3057 4.65435C38.2057 4.67435 37.8257 4.66435 37.7057 4.65435V1.55435C37.8257 1.55435 38.2157 1.54435 38.3157 1.55435C38.4957 1.59435 38.5657 1.73435 38.5657 1.91435V4.29435C38.5657 4.37435 38.5457 4.44435 38.5057 4.50435M36.6757 6.50435C36.6757 6.83435 36.6757 7.18435 36.6457 7.51435C36.6257 7.71435 36.5857 7.95435 36.4957 8.12435C36.4657 8.18435 36.3957 8.22435 36.4157 8.28435H36.4457C36.5257 8.32435 37.6057 8.28435 37.6957 8.28435V5.80435V5.79435V5.74435H38.2257C38.3657 5.76435 38.4557 5.79435 38.5157 5.90435C38.5957 6.05435 38.5557 7.29435 38.5557 7.52435V7.61435C38.5357 7.73435 38.5157 7.86435 38.4757 7.97435C38.4557 8.02435 38.4357 8.08435 38.4157 8.12435C38.4157 8.14435 38.3957 8.15435 38.3857 8.17435H38.3657H38.3757C38.3457 8.21435 38.3257 8.25435 38.3757 8.26435C38.3957 8.26435 38.3957 8.26435 38.4157 8.26435H39.6457C39.7057 8.26435 39.7757 8.26435 39.8257 8.26435C39.8257 8.14435 39.8257 8.22435 39.7057 8.08435C39.6857 8.05435 39.6757 8.01435 39.6557 7.97435C39.6257 7.85435 39.5957 7.74435 39.5857 7.62435C39.5457 7.28435 39.5557 6.97435 39.5557 6.63435C39.5557 6.08435 39.6057 5.53435 39.2957 5.26435C39.2557 5.22435 39.1957 5.19435 39.1557 5.15435C39.1857 5.10435 39.2257 5.07435 39.2657 5.03435C39.5057 4.79435 39.5457 4.46435 39.5557 4.13435V3.67435V1.60435C39.5557 1.11435 39.2457 0.734346 38.8457 0.554346C38.6957 0.484346 38.7457 0.454346 38.5657 0.454346C38.1857 0.454346 37.8057 0.454346 37.4257 0.454346C37.0457 0.454346 36.7757 0.474347 36.4057 0.494347C36.3757 0.644347 36.4657 0.564346 36.5557 0.884346C36.5957 1.03435 36.6257 1.20435 36.6357 1.37435C36.6757 1.82435 36.6557 3.13434 36.6557 3.67435C36.6557 4.63434 36.6557 5.51435 36.6557 6.49435" fill="black"/>
</svg>
