<svg width="262" height="44" viewBox="0 0 262 44" fill="none" xmlns="http://www.w3.org/2000/svg">
<path d="M3.21985 0.620117C1.92985 0.620117 0.879883 1.67011 0.879883 2.96011V41.1901C0.879883 42.4801 1.92985 43.5301 3.21985 43.5301C4.50985 43.5301 5.55988 42.4801 5.55988 41.1901V2.96011C5.55988 1.67011 4.50985 0.620117 3.21985 0.620117Z" fill="black"/>
<path d="M56.6299 38.8501C55.2099 38.8501 54.0499 37.6901 54.0499 36.2701C54.0499 36.2401 54.0499 36.2101 54.0499 36.1701C54.0499 36.1401 54.0499 36.1101 54.0499 36.0701V2.9501C54.0499 1.6601 52.9999 0.610107 51.7099 0.610107C50.4199 0.610107 49.3699 1.6601 49.3699 2.9501V36.0701C49.3699 36.0701 49.3699 36.1301 49.3699 36.1701C49.3699 36.2001 49.3699 36.2301 49.3699 36.2701C49.3699 40.2701 52.6199 43.5201 56.6199 43.5201C57.9099 43.5201 58.9599 42.4701 58.9599 41.1801C58.9599 39.8901 57.9099 38.8401 56.6199 38.8401" fill="black"/>
<path d="M127.92 20.6001C121.53 20.6001 116.33 25.7401 116.33 32.0601C116.33 38.3801 121.53 43.5201 127.92 43.5201C134.31 43.5201 139.51 38.3801 139.51 32.0601C139.51 25.7401 134.31 20.6001 127.92 20.6001ZM127.92 38.8501C124.11 38.8501 121 35.8101 121 32.0601C121 28.3101 124.1 25.2701 127.92 25.2701C131.74 25.2701 134.84 28.3101 134.84 32.0601C134.84 35.8101 131.74 38.8501 127.92 38.8501Z" fill="black"/>
<path d="M43.7999 20.6001C42.5399 20.6001 41.5198 21.5901 41.4698 22.8401C39.5698 21.4401 37.2199 20.6001 34.6799 20.6001C28.3599 20.6001 23.2198 25.7401 23.2198 32.0601C23.2198 38.3801 28.3599 43.5201 34.6799 43.5201C37.2199 43.5201 39.5698 42.6901 41.4698 41.2801C41.5198 42.5201 42.5399 43.5201 43.7999 43.5201C45.0599 43.5201 46.1399 42.4701 46.1399 41.1801V22.9301C46.1399 21.6401 45.0899 20.5901 43.7999 20.5901M34.6799 38.8401C30.9399 38.8401 27.8899 35.8001 27.8899 32.0501C27.8899 28.3001 30.9299 25.2601 34.6799 25.2601C38.4299 25.2601 41.4698 28.3001 41.4698 32.0501C41.4698 35.8001 38.4299 38.8401 34.6799 38.8401Z" fill="black"/>
<path d="M87.4799 20.6001C86.2199 20.6001 85.1999 21.5901 85.1499 22.8401C83.2499 21.4401 80.8999 20.6001 78.3599 20.6001C72.0399 20.6001 66.8999 25.7401 66.8999 32.0601C66.8999 38.3801 72.0399 43.5201 78.3599 43.5201C80.8999 43.5201 83.2499 42.6901 85.1499 41.2801C85.1999 42.5201 86.2199 43.5201 87.4799 43.5201C88.7399 43.5201 89.8199 42.4701 89.8199 41.1801V22.9301C89.8199 21.6401 88.7699 20.5901 87.4799 20.5901M78.3599 38.8401C74.6199 38.8401 71.5699 35.8001 71.5699 32.0501C71.5699 28.3001 74.6099 25.2601 78.3599 25.2601C82.1099 25.2601 85.1499 28.3001 85.1499 32.0501C85.1499 35.8001 82.1099 38.8401 78.3599 38.8401Z" fill="black"/>
<path d="M176.84 20.6001C175.58 20.6001 174.56 21.5901 174.51 22.8401C172.61 21.4401 170.26 20.6001 167.72 20.6001C161.4 20.6001 156.26 25.7401 156.26 32.0601C156.26 38.3801 161.4 43.5201 167.72 43.5201C170.26 43.5201 172.61 42.6901 174.51 41.2801C174.56 42.5201 175.58 43.5201 176.84 43.5201C178.1 43.5201 179.18 42.4701 179.18 41.1801V22.9301C179.18 21.6401 178.13 20.5901 176.84 20.5901M167.72 38.8401C163.98 38.8401 160.93 35.8001 160.93 32.0501C160.93 28.3001 163.97 25.2601 167.72 25.2601C171.47 25.2601 174.51 28.3001 174.51 32.0501C174.51 35.8001 171.47 38.8401 167.72 38.8401Z" fill="black"/>
<path d="M62.9298 20.6001C61.6398 20.6001 60.5898 21.6501 60.5898 22.9401V41.1901C60.5898 42.4801 61.6398 43.5301 62.9298 43.5301C64.2198 43.5301 65.2698 42.4801 65.2698 41.1901V22.9401C65.2698 21.6501 64.2198 20.6001 62.9298 20.6001Z" fill="black"/>
<path d="M103.94 20.6001C101.62 20.6001 99.4798 21.3301 97.7098 22.5701C97.5298 21.4501 96.5698 20.6001 95.4098 20.6001C94.1198 20.6001 93.0698 21.6501 93.0698 22.9401V41.1901C93.0698 42.4801 94.1198 43.5301 95.4098 43.5301C96.6998 43.5301 97.7498 42.4801 97.7498 41.1901V31.4801C97.7498 28.0601 100.53 25.2801 103.95 25.2801C107.37 25.2801 110.15 28.0601 110.15 31.4801C110.15 31.5401 110.15 31.6001 110.15 31.6601C110.15 31.7201 110.15 31.7801 110.15 31.8401V41.1901C110.15 42.4801 111.2 43.5301 112.49 43.5301C113.78 43.5301 114.83 42.4801 114.83 41.1901V31.8401C114.83 31.7801 114.83 31.7201 114.83 31.6601C114.83 31.6001 114.83 31.5401 114.83 31.4801C114.83 25.4901 109.95 20.6101 103.96 20.6101" fill="black"/>
<path d="M227.49 20.6001C226.2 20.6001 225.15 21.6501 225.15 22.9401V32.6501C225.15 36.0701 222.37 38.8501 218.95 38.8501C215.53 38.8501 212.75 36.0701 212.75 32.6501C212.75 32.5901 212.75 32.5301 212.75 32.4701C212.75 32.4101 212.75 32.3501 212.75 32.2901V22.9401C212.75 21.6501 211.7 20.6001 210.41 20.6001C209.12 20.6001 208.07 21.6501 208.07 22.9401V32.2901C208.07 32.3501 208.07 32.4101 208.07 32.4701C208.07 32.5301 208.07 32.5901 208.07 32.6501C208.07 38.6401 212.95 43.5201 218.94 43.5201C221.26 43.5201 223.4 42.7901 225.17 41.5501C225.35 42.6701 226.31 43.5201 227.47 43.5201C228.76 43.5201 229.81 42.4701 229.81 41.1801V22.9301C229.81 21.6401 228.76 20.5901 227.47 20.5901" fill="black"/>
<path d="M20.8199 17.4702C22.1099 17.4702 23.1599 16.4202 23.1599 15.1302C23.1599 13.8402 22.1099 12.7902 20.8199 12.7902H18.3099V9.14017C18.3099 7.85017 17.2598 6.80017 15.9698 6.80017C14.6798 6.80017 13.6299 7.85017 13.6299 9.14017V36.3202C13.6299 40.2802 16.8499 43.5002 20.8099 43.5002C22.0999 43.5002 23.1499 42.4502 23.1499 41.1602C23.1499 39.8702 22.0999 38.8202 20.8099 38.8202C19.4199 38.8202 18.2999 37.6902 18.2999 36.3102V17.4502H20.8099L20.8199 17.4702Z" fill="black"/>
<path d="M205.78 38.8501C204.36 38.8501 203.2 37.6901 203.2 36.2701C203.2 36.2401 203.2 36.2101 203.2 36.1701C203.2 36.1401 203.2 36.1101 203.2 36.0701V5.2901H258.82C260.11 5.2901 261.16 4.2401 261.16 2.9501C261.16 1.6601 260.11 0.610107 258.82 0.610107H195.56C194.27 0.610107 193.22 1.6601 193.22 2.9501C193.22 4.2401 194.27 5.2901 195.56 5.2901H198.54V36.0701C198.54 36.0701 198.54 36.1301 198.54 36.1701C198.54 36.2001 198.54 36.2301 198.54 36.2701C198.54 40.2701 201.79 43.5201 205.79 43.5201C207.08 43.5201 208.13 42.4701 208.13 41.1801C208.13 39.8901 207.08 38.8401 205.79 38.8401" fill="black"/>
<path d="M250.57 17.4702C251.86 17.4702 252.91 16.4202 252.91 15.1302C252.91 13.8402 251.86 12.7902 250.57 12.7902H248.06V9.14017C248.06 7.85017 247.01 6.80017 245.72 6.80017C244.43 6.80017 243.38 7.85017 243.38 9.14017V12.7902H237.6V9.14017C237.6 7.85017 236.55 6.80017 235.26 6.80017C233.97 6.80017 232.92 7.85017 232.92 9.14017V36.3202C232.92 40.2802 236.14 43.5002 240.1 43.5002C241.39 43.5002 242.44 42.4502 242.44 41.1602C242.44 39.8702 241.39 38.8202 240.1 38.8202C238.71 38.8202 237.59 37.6902 237.59 36.3102V17.4502H243.37V36.3102C243.37 40.2702 246.59 43.4902 250.55 43.4902C251.84 43.4902 252.89 42.4402 252.89 41.1502C252.89 39.8602 251.84 38.8102 250.55 38.8102C249.16 38.8102 248.04 37.6802 248.04 36.3002V17.4402H250.55L250.57 17.4702Z" fill="black"/>
<path d="M258.35 20.6001C257.06 20.6001 256.01 21.6501 256.01 22.9401V41.1901C256.01 42.4801 257.06 43.5301 258.35 43.5301C259.64 43.5301 260.69 42.4801 260.69 41.1901V22.9401C260.69 21.6501 259.64 20.6001 258.35 20.6001Z" fill="black"/>
<path d="M229.26 12.3501C227.72 12.3501 226.47 13.6001 226.47 15.1401C226.47 16.6801 227.72 17.9301 229.26 17.9301C230.8 17.9301 232.05 16.6801 232.05 15.1401C232.05 13.6001 230.8 12.3501 229.26 12.3501Z" fill="black"/>
<path d="M189.49 0.160156C187.95 0.160156 186.7 1.41013 186.7 2.95013C186.7 4.49013 187.95 5.74014 189.49 5.74014C191.03 5.74014 192.28 4.49013 192.28 2.95013C192.28 1.41013 191.03 0.160156 189.49 0.160156Z" fill="black"/>
<path d="M9.95996 12.3501C8.41996 12.3501 7.16992 13.6001 7.16992 15.1401C7.16992 16.6801 8.41996 17.9301 9.95996 17.9301C11.5 17.9301 12.7499 16.6801 12.7499 15.1401C12.7499 13.6001 11.5 12.3501 9.95996 12.3501Z" fill="black"/>
<path d="M62.9299 12.3501C61.3899 12.3501 60.1399 13.6001 60.1399 15.1401C60.1399 16.6801 61.3899 17.9301 62.9299 17.9301C64.4699 17.9301 65.7198 16.6801 65.7198 15.1401C65.7198 13.6001 64.4699 12.3501 62.9299 12.3501Z" fill="black"/>
<path d="M258.35 12.3501C256.81 12.3501 255.56 13.6001 255.56 15.1401C255.56 16.6801 256.81 17.9301 258.35 17.9301C259.89 17.9301 261.14 16.6801 261.14 15.1401C261.14 13.6001 259.89 12.3501 258.35 12.3501Z" fill="black"/>
</svg>
