<svg width="203" height="101" viewBox="0 0 203 101" fill="none" xmlns="http://www.w3.org/2000/svg">
<path d="M60.02 51.6929C59.96 51.9329 59.9 51.9929 59.6 52.0529L59.36 51.7528C50.35 50.5528 29.34 49.8328 18.66 49.6528C16.86 53.0128 14.28 55.6528 10.86 55.6528C8.46002 55.6528 5.70004 54.4528 5.04004 51.9328C4.74004 50.7328 5.82004 48.1529 7.92004 47.8529C9.30004 47.6129 10.68 47.5529 12.36 47.5529C13.8 47.5529 15.42 47.6129 17.46 47.6129C18.18 45.1529 18.84 43.0529 19.26 39.2129L19.08 39.2729C17.94 39.5129 16.74 39.6329 15.48 39.6329C14.52 39.6329 13.5 39.5728 12.48 39.3928C5.46004 38.1928 0.77002 33.1528 0.77002 26.7828C0.77002 25.1628 1.07004 23.5429 1.67004 21.8029C1.91004 21.2029 2.99004 20.1228 3.23004 20.4228C3.53004 20.7828 3.17002 21.4428 2.99002 22.0428C2.45002 23.4228 2.21002 24.8028 2.21002 26.1828C2.21002 31.6428 6.17002 36.8129 12.9 37.7129C14.7 37.9529 18.06 37.4129 19.5 37.0529L19.62 35.7928C19.68 34.8928 19.68 33.9329 19.68 32.9129C19.68 29.1929 19.44 24.2029 19.38 15.7429C19.38 10.4629 19.08 0.672844 26.4 0.0128442C34.75 -0.407156 38.29 9.56284 37.87 16.7628C37.33 26.3128 31.21 35.1928 22.8 38.3128L21.84 38.6129L21.78 39.2129C21.6 41.4929 20.88 44.6729 19.62 47.6129C30.67 47.7929 51.08 48.8728 58.7 50.0728C59.48 50.3128 59.96 51.0929 60.02 51.6929ZM16.13 49.7129C15.23 49.6529 14.45 49.6528 13.67 49.6528C11.03 49.6528 9.11003 49.8328 8.03003 49.9528C6.29003 50.1328 6.35003 51.0329 6.47003 51.6929C6.83003 53.3129 8.75003 54.2728 10.91 53.6728C12.89 53.0128 14.75 51.4529 16.13 49.7129ZM35.58 16.8128C35.64 16.2128 35.7 15.5528 35.7 14.8928C35.7 9.01285 33.18 1.02285 26.45 1.86285C21.95 2.34285 21.65 9.00285 21.65 13.6329V15.6728C21.65 20.4728 22.19 25.2828 22.19 30.5028C22.19 31.7028 22.13 32.9029 22.07 34.1629L21.95 36.2028L22.07 36.1428C29.27 33.0828 34.62 25.2728 35.58 16.8128Z" fill="black"/>
<path d="M56.06 36.4429C54.32 38.7829 51.56 41.1828 49.58 41.1828C47.6 41.1828 45.68 39.6828 44.9 37.7628C44.6 36.9228 44.36 35.9029 44.36 34.8829C44.36 34.0429 44.48 33.2029 44.78 32.4229C45.02 31.7629 45.38 31.1629 45.98 30.9829C46.34 30.8629 47 31.1029 47.48 31.5829C47.96 32.0629 47.96 32.6029 47.66 32.7229C47.42 32.7829 47.12 33.1429 46.82 33.7429C46.7 34.3429 46.52 35.1229 46.46 35.9629C46.58 36.9229 46.7 38.6628 47.72 39.2628C50.24 40.7028 55.52 33.6828 55.64 31.7628C55.64 31.6428 55.76 31.5829 55.82 31.5229C55.7 31.4629 55.76 31.4628 55.82 31.4028C55.88 31.2828 56.12 31.2229 56.36 31.2229C56.96 31.2229 57.98 31.9429 58.04 32.6029C58.1 32.7229 58.4 35.1829 58.46 38.6629V38.9028L58.52 38.8429C60.14 37.8829 67.77 34.1629 69.15 35.4229C69.69 35.9029 69.63 36.0229 69.15 36.1429C66.75 36.8629 62.79 39.0229 60.26 40.5229L58.52 41.7229L58.46 42.4429L58.28 48.0229C57.8 55.5929 56.18 63.8129 50.96 64.8929C49.46 65.1929 47.06 64.2329 45.38 62.5529C43.76 60.8729 42.8 58.7129 43.1 56.5529C44 51.9329 48.8 45.9229 54.87 41.4229L56.37 40.3429L56.07 36.4429H56.06ZM56.3 43.1629L54.92 44.4229C50.06 48.8629 45.97 53.7329 45.31 57.7529C44.95 59.6129 45.85 61.1129 46.57 61.9529C47.47 62.7929 48.61 63.2728 49.33 63.0928C53.89 62.1928 56.35 51.5629 56.29 43.1629H56.3Z" fill="black"/>
<path d="M66.5001 56.5529C67.4001 51.9329 72.2001 46.2829 78.2701 41.7829L79.7701 40.7028L79.7101 40.4629L79.5901 35.5428V35.2429L79.4101 35.3629C78.8701 36.0229 78.1501 36.7428 77.3701 37.4028C76.3501 38.2428 75.3301 39.0229 74.3101 39.5029C73.7701 39.6829 73.1101 39.9228 72.3301 39.9228C71.7901 39.9228 71.1901 39.8029 70.5901 39.5029C70.3501 39.3829 70.1701 39.2629 70.0501 39.1429C69.3301 38.6029 68.7301 38.0028 68.3101 37.4028C67.7701 36.6228 67.5301 35.8428 67.5301 35.1228C67.5301 34.2828 67.8301 33.4428 68.4301 32.8428C69.4501 32.0628 70.5901 31.4629 72.5701 31.4629C74.1301 31.4629 76.1101 31.8229 78.3301 32.6629L78.3901 32.7229L78.5101 32.6629C78.9301 32.1229 79.1701 31.6428 79.3501 31.4028C79.7101 30.8028 81.3901 31.7629 81.4501 32.6029C81.5101 32.7229 81.8101 35.5429 81.8701 39.0229V39.2628L81.9301 39.2028C83.5501 38.2428 91.4201 34.6428 92.5601 35.4228C93.1601 35.8428 93.0401 36.0229 92.5601 36.1429C90.1601 36.8629 86.2001 39.0229 83.6701 40.5229L81.9301 41.7229L81.8701 42.4429L81.6901 48.0229C81.2101 55.5929 79.2901 63.4529 74.0701 64.5329C72.5701 64.8329 70.4701 64.2329 68.7901 62.5529C67.1701 60.8729 66.2101 58.7129 66.5101 56.5529H66.5001ZM79.5901 43.3428L78.3301 44.4228C73.2301 48.6228 69.3801 53.7329 68.7201 57.7529C68.3601 59.6129 69.2601 61.1128 69.9801 61.9528C70.8801 62.7928 72.0201 63.2728 72.7401 63.0928C77.9601 62.0128 79.7001 51.0828 79.5801 43.3428H79.5901ZM72.5701 37.7628C73.4101 37.3428 74.4901 36.6229 75.4501 35.7829L76.7701 34.5229L77.3701 33.8629L76.9501 33.7429C75.8101 33.4429 74.7901 33.2628 73.8901 33.2628C72.2701 33.2628 71.0701 33.7428 70.4101 34.4028C69.9301 34.9428 69.7501 35.4829 69.7501 36.0829C69.7501 36.6829 69.9901 37.2828 70.3501 37.7628L70.7701 38.0628C70.7701 38.0628 70.8901 38.1228 71.2501 38.1228C71.6701 38.1228 72.0901 38.0028 72.5701 37.7628Z" fill="black"/>
<path d="M90.88 34.8829C90.88 33.0229 91.24 31.1629 91.9 30.1429C91.96 29.8429 92.56 29.7829 93.28 29.9629C93.94 30.2029 94.3 30.6829 94.24 30.9829C93.76 31.4629 92.56 38.2429 93.46 39.0329C93.94 39.3929 94.54 39.5729 95.2 39.5729C98.92 39.5729 105.29 34.7729 107.09 32.9729C107.33 32.7329 107.93 33.0929 107.21 34.4129C106.07 36.5129 100.61 41.2529 96.46 41.4329C94.96 41.4929 93.34 41.1329 92.2 39.8729C91.3 38.9129 90.88 36.8729 90.88 34.8929V34.8829ZM92.68 24.9129C92.8 24.7329 93.22 23.5329 93.34 23.2329L93.46 22.3329C93.46 21.9729 94.12 21.8529 94.72 22.0929C95.5 22.2729 95.98 22.7529 95.86 23.0529C95.86 23.2929 95.86 23.7129 95.68 24.0729C95.56 24.3729 95.08 25.6929 94.9 25.9929C94.72 26.2329 94 26.2329 93.46 25.9329C92.74 25.6929 92.38 25.1529 92.68 24.9129Z" fill="black"/>
<path d="M128.34 41.0029C126.18 41.0029 124.26 40.8229 122.76 40.4629C120.78 39.9229 117.36 37.4029 117.36 35.6629V35.6029C115.26 37.1629 112.56 39.6829 109.56 39.6829C108.06 39.6829 106.38 38.7229 105.54 37.4029C105.12 36.6829 104.94 36.0229 104.94 35.3629C104.94 34.3429 105.42 33.3829 106.5 32.5429C107.64 31.6429 109.56 31.0429 111.96 31.0429C113.34 31.0429 114.96 31.2829 116.64 31.7629L117.48 32.0029C118.38 30.8029 118.5 30.7429 118.5 30.6829C118.86 30.0229 120.9 31.3429 120.6 32.0629L120.48 32.2429C119.88 33.2029 119.58 34.3429 119.58 35.3629C119.58 36.6829 120.12 37.8229 121.44 38.2429C122.7 38.6029 124.68 38.7229 127.14 38.7229C134.22 38.7229 144.55 37.5229 147.25 36.7429C147.67 36.6229 149.89 36.0829 150.19 36.5629C150.67 37.0429 148.15 38.0029 147.73 38.1229C143.53 39.5029 134.94 41.0029 128.34 41.0029ZM116.21 33.3229L116.33 33.2029L115.61 33.0829C114.83 32.9029 113.99 32.8429 113.15 32.8429C111.47 32.8429 109.73 33.2029 108.35 34.1629C107.51 34.7029 106.85 35.8429 106.85 36.6829C106.85 37.3429 107.27 37.8829 108.35 37.8829C110.81 37.8829 114.53 35.1829 116.21 33.3229Z" fill="black"/>
<path d="M116.63 47.3029C125.03 48.8629 133.68 52.8229 138.84 59.0129C142.56 63.5729 144.18 68.6229 144.18 73.5429C144.18 74.3829 144.18 75.2829 144.06 76.1229L143.88 77.3829C147.72 76.8429 150.18 76.6629 151.86 76.6629C153.96 76.6629 154.68 76.9629 154.98 77.2629C155.28 77.6829 155.22 77.7429 154.74 77.8029L145.97 78.9429L143.45 79.3629L143.33 80.0229C142.07 84.2229 139.85 88.1229 136.73 91.2529C132.77 95.3929 127.12 98.1529 121.72 99.3529C120.46 99.7129 118.96 99.9529 117.52 100.013C116.92 100.073 116.32 100.073 115.72 100.073C112.66 100.073 109.78 99.4129 107.73 97.9129C107.07 97.4929 106.41 96.8929 105.99 96.4129C104.91 95.0929 104.67 93.6529 105.03 92.2129C105.75 90.3529 107.67 88.2529 112.65 85.5529V83.0929C112.77 74.5129 113.43 61.2429 113.91 53.3129C113.97 52.1729 114.09 50.3729 114.27 48.5129C112.95 48.3929 111.63 48.3329 110.31 48.3329C109.17 48.3329 108.09 48.3929 107.01 48.4529C95.84 49.2929 85.94 54.8729 85.94 63.4629C85.94 64.6029 86.12 65.8029 86.48 67.0629C88.34 73.3029 96.33 79.7929 104.13 79.3129C104.85 79.2529 105.57 79.0129 106.11 78.8329C108.33 78.1729 107.49 80.2129 104.19 80.5129C95.6 81.1129 86.6 74.4529 84.2 66.4629C83.84 65.1429 83.66 63.8829 83.66 62.6829C83.66 53.6129 93.87 47.6129 105.63 46.7129C106.65 46.5929 107.73 46.5929 108.87 46.5929C110.67 46.5929 112.53 46.7129 114.39 46.9529C114.69 43.4729 115.05 39.9929 115.29 39.3929C115.41 39.0329 116.01 38.9729 116.67 39.3329C117.33 39.6329 117.75 40.1129 117.57 40.4129C117.15 41.4329 116.85 44.3729 116.61 47.3129L116.63 47.3029ZM112.73 88.1829C109.61 89.9829 107.75 91.7229 107.39 93.4629C106.91 95.0229 107.57 96.2229 108.71 97.1229C109.61 97.6629 111.05 98.2029 113.09 98.3229C113.87 98.3829 114.95 98.3829 115.97 98.2629C117.29 98.2029 118.61 97.9629 120.17 97.6629C125.27 96.4629 130.74 93.8229 134.76 89.7929C137.46 87.0329 139.56 83.6729 140.7 80.1229L140.82 79.8229L139.38 80.0029C128.03 82.1029 120.05 84.5629 114.77 87.0229V89.3629C114.77 93.6829 114.89 94.2229 115.01 94.3429L115.07 94.6429C115.19 94.9429 114.89 95.1829 114.53 95.1829C112.67 95.0629 112.91 90.0829 112.73 88.1629V88.1829ZM116.57 48.8029C116.39 51.0229 116.33 53.0029 116.27 54.0229C115.67 62.9129 114.89 75.5729 114.89 84.1029C114.89 84.2829 114.95 84.4629 114.89 84.6429C120.71 82.1829 129.3 79.8429 141.07 77.8629L141.43 77.7429H141.49C141.79 76.2429 141.97 74.6829 141.97 73.1229C141.97 68.3229 140.41 63.3929 136.99 59.0129C132.07 53.4329 124.38 50.0029 116.58 48.8029H116.57Z" fill="black"/>
<path d="M153.19 77.3829C153.19 75.5229 153.55 73.6629 154.21 72.6429C154.27 72.3429 154.87 72.2829 155.59 72.4629C156.25 72.7029 156.61 73.1829 156.55 73.4829C156.07 73.9629 154.87 80.7429 155.77 81.5329C156.25 81.8929 156.85 82.0729 157.51 82.0729C161.23 82.0729 167.6 77.2729 169.4 75.4729C169.64 75.2329 170.24 75.5929 169.52 76.9129C168.38 79.0129 162.92 83.7529 158.77 83.9329C157.27 83.9929 155.65 83.6329 154.51 82.3729C153.61 81.4129 153.19 79.3729 153.19 77.3929V77.3829ZM154.99 67.4129C155.11 67.2329 155.53 66.0329 155.65 65.7329L155.77 64.8329C155.77 64.4729 156.43 64.3529 157.03 64.5929C157.81 64.7729 158.29 65.2529 158.17 65.5529C158.17 65.7929 158.17 66.2129 157.99 66.5729C157.87 66.8729 157.39 68.1929 157.21 68.4929C157.03 68.7329 156.31 68.7329 155.77 68.4329C155.05 68.1929 154.69 67.6529 154.99 67.4129Z" fill="black"/>
<path d="M166.64 79.3629C166.64 78.0429 167.3 76.7229 168.8 75.7029C170.42 74.6229 172.46 74.0829 174.56 74.0829C176.24 74.0829 177.92 74.4429 179.42 75.1029H179.48L180.5 73.7229C180.86 73.0629 182.9 74.3829 182.48 75.1029C182.18 76.0029 181.64 77.0829 181.52 78.2229C181.46 79.2429 181.76 80.4429 182.84 80.7429C185.9 81.3429 191.07 78.2829 193.23 75.8829C194.25 74.8629 195.15 76.3629 191.85 79.6629C190.35 81.1629 186.21 83.0829 183.69 82.4829C181.71 82.0029 180.21 80.8629 179.43 78.7029C177.75 80.2029 173.79 83.2629 170.6 83.2629C169.82 83.2629 169.1 83.0829 168.44 82.6629C167.24 81.7629 166.64 80.6229 166.64 79.3629ZM178.41 76.3029C177.81 76.1229 176.97 76.0029 176.07 76.0029C173.07 76.0029 169.11 77.1429 168.45 79.9029C168.27 80.6229 168.63 81.2829 169.53 81.3429C172.41 80.9829 176.31 78.5229 178.42 76.3029H178.41Z" fill="black"/>
<path d="M192.51 82.3028C193.05 82.4228 193.71 82.4828 194.49 82.4828C196.41 82.4828 198.81 82.1828 200.37 81.8228C198.87 81.0428 196.59 79.9028 195.39 79.2428C193.83 78.3428 192.15 77.7428 191.91 75.9428C191.43 72.7628 197.97 70.8428 201.04 70.4228C202 70.3028 203.2 71.4428 202.72 72.0428C200.5 72.8228 195.04 73.8428 194.37 75.4028C194.01 76.2428 195.39 76.8428 196.59 77.5628C198.87 78.8228 200.67 79.7228 201.87 80.6828C203.19 81.8228 202.05 83.5028 200.49 83.9228C199.41 84.2228 197.85 84.4028 196.29 84.4028C194.73 84.4028 193.35 84.2228 192.45 83.8628C191.73 83.5028 191.19 82.0028 192.51 82.3028Z" fill="black"/>
<path d="M146.72 92.2028C146.84 91.7528 146.98 91.3228 147.14 90.9028C147.31 90.4828 147.47 90.0628 147.64 89.6428C147.69 89.5028 147.76 89.3928 147.84 89.2928C147.94 89.1828 148.05 89.1429 148.18 89.1629C148.31 89.1829 148.41 89.2529 148.49 89.3629C148.57 89.5129 148.62 89.6528 148.64 89.8128C148.66 89.9628 148.69 90.1129 148.71 90.2729C148.76 90.5629 148.8 90.8528 148.83 91.1528C148.86 91.4528 148.89 91.7328 148.93 92.0328C148.97 92.3028 149 92.5728 149.03 92.8428C149.06 93.1128 149.09 93.3828 149.13 93.6528C149.13 93.7728 149.11 93.8629 149.05 93.9429C148.99 94.0229 148.9 94.0628 148.79 94.0728C148.68 94.0728 148.6 94.0328 148.53 93.9528C148.47 93.8728 148.43 93.7729 148.42 93.6629C148.4 93.4729 148.38 93.2728 148.36 93.0928C148.34 92.9028 148.32 92.7129 148.3 92.5229C148.26 92.2429 148.22 91.9628 148.19 91.6828C148.16 91.4028 148.12 91.1228 148.08 90.8428C148.08 90.7828 148.06 90.7229 148.06 90.6629C148.06 90.6029 148.05 90.5329 148.04 90.4629C147.99 90.6029 147.94 90.7229 147.89 90.8329C147.84 90.9429 147.79 91.0628 147.74 91.1728C147.61 91.5028 147.5 91.8428 147.41 92.1728C147.32 92.5128 147.25 92.8528 147.2 93.2028C147.2 93.2528 147.2 93.3029 147.19 93.3529C147.19 93.4029 147.17 93.4528 147.15 93.5028C147.1 93.6628 146.99 93.7428 146.83 93.7628C146.67 93.7828 146.56 93.7128 146.49 93.5428C146.18 92.8428 145.93 92.1129 145.74 91.3529C145.71 91.2429 145.68 91.1428 145.65 91.0328C145.62 90.9228 145.59 90.8229 145.55 90.7129C145.53 90.7729 145.52 90.8229 145.51 90.8829C145.51 90.9329 145.49 90.9929 145.47 91.0529C145.41 91.4229 145.35 91.7928 145.29 92.1528C145.23 92.5228 145.18 92.8828 145.13 93.2528C145.11 93.3428 145.1 93.4228 145.1 93.5128C145.1 93.6028 145.1 93.6829 145.09 93.7729C145.09 93.8929 145.05 93.9829 144.99 94.0529C144.93 94.1229 144.85 94.1528 144.76 94.1428C144.65 94.1428 144.56 94.1028 144.5 94.0328C144.43 93.9628 144.41 93.8629 144.43 93.7429C144.45 93.5529 144.47 93.3729 144.49 93.1929C144.51 93.0129 144.53 92.8328 144.55 92.6428C144.6 92.3328 144.65 92.0229 144.7 91.7229C144.75 91.4229 144.8 91.1129 144.85 90.8029C144.89 90.6229 144.93 90.4529 144.96 90.2729C144.99 90.0929 145.04 89.9229 145.08 89.7429C145.11 89.6529 145.15 89.5628 145.21 89.4828C145.29 89.3728 145.39 89.3229 145.52 89.3329C145.65 89.3329 145.76 89.3928 145.83 89.5028C145.92 89.6228 145.99 89.7528 146.03 89.8928C146.08 90.0328 146.12 90.1728 146.16 90.3128C146.24 90.5828 146.31 90.8528 146.38 91.1228C146.45 91.3928 146.52 91.6528 146.6 91.9228C146.6 91.9728 146.62 92.0228 146.64 92.0628C146.66 92.1028 146.68 92.1629 146.7 92.2129L146.72 92.2028Z" fill="black"/>
<path d="M153.83 93.0229C153.74 93.1329 153.67 93.2229 153.6 93.3029C153.54 93.3829 153.47 93.4629 153.39 93.5329C153.33 93.5929 153.27 93.6529 153.2 93.7129C153.13 93.7729 153.06 93.8229 152.98 93.8729C152.76 94.0129 152.54 94.0329 152.33 93.9429C152.12 93.8529 151.99 93.6729 151.94 93.4129C151.87 93.0429 151.88 92.6929 151.96 92.3629C152.04 92.0329 152.23 91.7429 152.52 91.4929C152.76 91.2729 153.06 91.1429 153.4 91.1229C153.66 91.1229 153.9 91.1929 154.1 91.3729C154.15 91.4229 154.2 91.4729 154.25 91.5129C154.3 91.5529 154.35 91.6129 154.4 91.6629C154.43 91.7129 154.46 91.7629 154.48 91.8229C154.5 91.8829 154.52 91.9429 154.52 92.0029C154.52 92.1129 154.53 92.2129 154.52 92.3129C154.52 92.4129 154.52 92.5229 154.52 92.6229C154.52 92.7929 154.52 92.9529 154.52 93.1229C154.52 93.2929 154.52 93.4629 154.52 93.6229C154.52 93.6729 154.52 93.7229 154.52 93.7829C154.52 93.8429 154.52 93.9029 154.52 93.9629C154.49 94.1729 154.37 94.2729 154.17 94.2529C153.98 94.2529 153.88 94.1529 153.86 93.9629C153.84 93.8429 153.83 93.7329 153.82 93.6229C153.82 93.5129 153.81 93.3929 153.8 93.2829V93.1829C153.8 93.1829 153.8 93.0929 153.79 93.0229H153.83ZM152.62 93.2529C152.87 93.0829 153.08 92.8829 153.24 92.6529C153.4 92.4229 153.56 92.1829 153.72 91.9529C153.61 91.7929 153.49 91.7529 153.34 91.8029C153.18 91.8529 153.06 91.9229 152.96 92.0029C152.76 92.1729 152.65 92.3629 152.62 92.5729C152.59 92.7829 152.59 93.0129 152.62 93.2429V93.2529Z" fill="black"/>
<path d="M158.32 94.3829C158.04 94.3829 157.81 94.3129 157.65 94.1829C157.49 94.0529 157.39 93.8529 157.36 93.6029C157.36 93.4929 157.37 93.4029 157.4 93.3129C157.42 93.2429 157.46 93.1929 157.52 93.1529C157.58 93.1129 157.65 93.0929 157.72 93.0929C157.8 93.0929 157.86 93.1329 157.92 93.1729C157.97 93.2129 158.01 93.2729 158.03 93.3529V93.5029C158.03 93.5629 158.05 93.6129 158.07 93.6529C158.09 93.6929 158.13 93.7329 158.2 93.7529C158.37 93.7829 158.49 93.7529 158.58 93.6529C158.69 93.5229 158.72 93.3829 158.68 93.2329C158.64 93.0729 158.55 92.9729 158.42 92.9129C158.31 92.8629 158.21 92.8129 158.11 92.7629C158.01 92.7129 157.92 92.6529 157.83 92.5829C157.68 92.4729 157.58 92.3629 157.52 92.2329C157.46 92.1029 157.44 91.9829 157.45 91.8529C157.45 91.7229 157.5 91.6029 157.56 91.4929C157.62 91.3829 157.7 91.2829 157.79 91.2029C157.93 91.0929 158.1 91.0429 158.32 91.0529C158.53 91.0529 158.71 91.1029 158.85 91.1729C159.05 91.2929 159.2 91.4629 159.29 91.6829C159.32 91.7629 159.32 91.8429 159.29 91.9129C159.26 91.9929 159.21 92.0429 159.13 92.0729C159.05 92.1129 158.97 92.1229 158.88 92.0929C158.79 92.0729 158.72 92.0229 158.68 91.9529C158.66 91.9229 158.64 91.8929 158.63 91.8529C158.62 91.8229 158.59 91.7829 158.56 91.7529C158.51 91.7029 158.45 91.6729 158.38 91.6529C158.31 91.6429 158.25 91.6529 158.2 91.7029C158.15 91.7529 158.13 91.8029 158.13 91.8629C158.13 91.9229 158.16 91.9729 158.23 92.0229C158.31 92.0729 158.39 92.1229 158.47 92.1729C158.55 92.2229 158.63 92.2729 158.71 92.3229C158.96 92.4529 159.15 92.6129 159.27 92.8229C159.39 93.0229 159.42 93.2629 159.36 93.5429C159.3 93.8029 159.18 94.0129 158.99 94.1629C158.8 94.3129 158.58 94.3829 158.32 94.3729V94.3829Z" fill="black"/>
<path d="M162.44 91.4529H162.26C162.26 91.4529 162.16 91.4529 162.11 91.4429C162.01 91.4229 161.93 91.3829 161.88 91.3129C161.82 91.2429 161.79 91.1629 161.79 91.0829C161.79 90.9929 161.84 90.9229 161.9 90.8629C161.96 90.8029 162.05 90.7729 162.16 90.7729C162.21 90.7729 162.26 90.7629 162.31 90.7729C162.36 90.7729 162.41 90.7829 162.46 90.7929C162.46 90.7429 162.48 90.7029 162.48 90.6729C162.48 90.6429 162.49 90.6029 162.5 90.5629C162.5 90.4529 162.52 90.3729 162.52 90.3029C162.52 90.2329 162.52 90.1729 162.52 90.1029C162.52 90.0329 162.52 89.9729 162.52 89.9029C162.52 89.8329 162.53 89.7429 162.54 89.6429C162.54 89.6129 162.55 89.5829 162.55 89.5529C162.55 89.5229 162.55 89.4929 162.58 89.4629C162.64 89.2729 162.76 89.2029 162.95 89.2329C163.14 89.2629 163.23 89.3729 163.23 89.5729C163.23 89.6729 163.23 89.7529 163.23 89.8029C163.23 89.8629 163.23 89.9129 163.22 89.9729C163.22 90.0229 163.22 90.0829 163.21 90.1529C163.21 90.2129 163.2 90.2929 163.19 90.3929C163.19 90.4529 163.19 90.5129 163.19 90.5729C163.19 90.6329 163.19 90.7029 163.19 90.7729C163.24 90.7729 163.28 90.7829 163.32 90.7829C163.36 90.7829 163.4 90.7829 163.45 90.7929C163.65 90.8229 163.76 90.9329 163.76 91.1329C163.76 91.3329 163.65 91.4429 163.42 91.4729H163.17C163.17 91.4729 163.17 91.5129 163.16 91.5429C163.16 91.5629 163.15 91.5929 163.15 91.6129C163.15 91.9229 163.16 92.2329 163.16 92.5329C163.16 92.8329 163.16 93.1429 163.17 93.4529C163.17 93.5829 163.2 93.6529 163.22 93.6729C163.24 93.6929 163.32 93.7129 163.43 93.7329C163.5 93.7329 163.57 93.7429 163.63 93.7429H163.83C164.06 93.7429 164.2 93.8329 164.22 94.0229C164.24 94.1129 164.22 94.1929 164.17 94.2729C164.12 94.3529 164.04 94.4029 163.94 94.4229C163.74 94.4429 163.55 94.4429 163.37 94.4329C163.18 94.4329 163.01 94.3629 162.84 94.2529C162.7 94.1729 162.61 94.0729 162.55 93.9529C162.5 93.8329 162.47 93.7029 162.47 93.5629C162.47 93.3629 162.45 93.1529 162.45 92.9529C162.45 92.7529 162.45 92.5429 162.45 92.3429C162.45 92.2029 162.44 92.0629 162.44 91.9229V91.4729V91.4529Z" fill="black"/>
<path d="M167.28 93.1029C167.28 93.2129 167.31 93.3029 167.35 93.3829C167.39 93.4629 167.44 93.5429 167.5 93.6129C167.61 93.7229 167.73 93.7429 167.87 93.6829C168.03 93.6129 168.15 93.5029 168.24 93.3629C168.26 93.3229 168.28 93.2829 168.3 93.2529C168.32 93.2229 168.34 93.1829 168.36 93.1429C168.46 92.9929 168.58 92.9529 168.73 93.0229C168.8 93.0629 168.85 93.1129 168.88 93.1729C168.91 93.2329 168.91 93.3029 168.89 93.3729C168.81 93.6129 168.68 93.8329 168.49 94.0129C168.3 94.1929 168.06 94.2929 167.78 94.3129C167.55 94.3429 167.35 94.2729 167.18 94.1129C167.07 94.0129 166.98 93.9129 166.92 93.8129C166.85 93.7129 166.8 93.5929 166.76 93.4529C166.69 93.2429 166.64 93.0229 166.61 92.8129C166.58 92.6029 166.59 92.3829 166.64 92.1629C166.75 91.6429 167.06 91.3329 167.59 91.2229C167.67 91.2029 167.74 91.2029 167.82 91.2229C167.89 91.2329 167.96 91.2529 168.03 91.2729C168.25 91.3529 168.43 91.5029 168.56 91.7229C168.69 91.9429 168.74 92.1729 168.71 92.4129C168.68 92.7229 168.51 92.9229 168.21 92.9929C168.13 93.0129 168.06 93.0229 167.98 93.0329C167.91 93.0329 167.83 93.0429 167.75 93.0529C167.68 93.0529 167.62 93.0629 167.56 93.0629H167.37C167.37 93.0629 167.34 93.0729 167.33 93.0729C167.32 93.0729 167.31 93.0729 167.29 93.0829L167.28 93.1029ZM167.19 92.4929C167.33 92.4929 167.46 92.4729 167.58 92.4729C167.7 92.4729 167.83 92.4629 167.97 92.4529C168.07 92.4529 168.11 92.3829 168.1 92.2729C168.1 92.2229 168.08 92.1829 168.07 92.1529C168.07 92.1229 168.05 92.0829 168.03 92.0429C167.91 91.8429 167.74 91.7829 167.52 91.8829C167.39 91.9429 167.31 92.0229 167.26 92.1329C167.22 92.2429 167.19 92.3629 167.19 92.5029V92.4929Z" fill="black"/>
<path d="M172.33 92.1728C172.33 92.2328 172.33 92.2828 172.33 92.3228C172.33 92.3628 172.33 92.4128 172.33 92.4628C172.33 92.7128 172.35 92.9728 172.35 93.2228C172.35 93.4728 172.35 93.7328 172.35 93.9828C172.35 94.0428 172.35 94.1128 172.32 94.1828C172.27 94.3328 172.17 94.4028 172.01 94.4028C171.85 94.4028 171.75 94.3228 171.7 94.1528C171.7 94.1328 171.69 94.1128 171.7 94.0828C171.7 94.0628 171.7 94.0328 171.7 94.0028C171.7 93.5828 171.68 93.1628 171.67 92.7428C171.67 92.3228 171.65 91.9028 171.64 91.4828C171.64 91.4428 171.64 91.4028 171.64 91.3728C171.64 91.3428 171.64 91.3028 171.66 91.2628C171.69 91.1228 171.79 91.0528 171.95 91.0328C172.11 91.0328 172.21 91.1028 172.26 91.2528C172.26 91.2828 172.28 91.3128 172.28 91.3528C172.28 91.3828 172.3 91.4228 172.32 91.4628C172.49 91.4028 172.61 91.3528 172.71 91.3128C172.8 91.2728 172.94 91.2228 173.13 91.1728C173.36 91.1228 173.51 91.1928 173.55 91.3728C173.58 91.4628 173.57 91.5428 173.52 91.6028C173.47 91.6728 173.39 91.7228 173.29 91.7628C173.14 91.8228 173.03 91.8628 172.95 91.8928C172.87 91.9228 172.8 91.9528 172.75 91.9728C172.69 91.9928 172.63 92.0228 172.57 92.0528C172.51 92.0828 172.43 92.1128 172.32 92.1528L172.33 92.1728Z" fill="black"/>
<path d="M180.57 91.7628C180.57 91.9228 180.59 92.0929 180.62 92.2829C180.65 92.4729 180.72 92.6629 180.8 92.8429C180.88 93.0229 181 93.1828 181.17 93.3228C181.36 93.5028 181.53 93.4629 181.65 93.2229C181.69 93.1429 181.72 93.0729 181.73 92.9929C181.74 92.9229 181.76 92.8428 181.78 92.7628C181.8 92.7128 181.81 92.6628 181.82 92.6228C181.82 92.5828 181.84 92.5328 181.86 92.4828C181.89 92.4028 181.94 92.3529 182 92.3129C182.06 92.2829 182.13 92.2629 182.21 92.2729C182.29 92.2929 182.35 92.3329 182.41 92.3929C182.46 92.4529 182.49 92.5229 182.49 92.6129C182.49 92.8429 182.44 93.0729 182.38 93.2829C182.32 93.4929 182.2 93.6829 182.04 93.8529C181.87 94.0329 181.67 94.1229 181.43 94.1429C181.19 94.1529 180.97 94.0828 180.78 93.9328C180.59 93.7828 180.45 93.6129 180.33 93.4229C180.22 93.2329 180.13 93.0228 180.06 92.7928C179.83 91.9728 179.84 91.1729 180.09 90.3829C180.17 90.1729 180.26 89.9729 180.38 89.8029C180.49 89.6229 180.64 89.4829 180.81 89.3629C181.1 89.1629 181.41 89.1428 181.75 89.3228C181.91 89.4028 182.02 89.5129 182.09 89.6629C182.16 89.8129 182.21 89.9728 182.24 90.1528C182.24 90.2428 182.24 90.3229 182.19 90.3829C182.15 90.4529 182.09 90.4928 182.01 90.5128C181.83 90.5628 181.7 90.5028 181.6 90.3228C181.58 90.2828 181.57 90.2429 181.56 90.2029C181.56 90.1629 181.54 90.1229 181.52 90.0829C181.45 89.8929 181.34 89.8529 181.2 89.9529C181.15 90.0029 181.1 90.0529 181.05 90.1029C181 90.1529 180.96 90.2028 180.92 90.2628C180.8 90.4428 180.72 90.6428 180.66 90.8728C180.61 91.1028 180.58 91.4029 180.58 91.7529L180.57 91.7628Z" fill="black"/>
<path d="M184.2 93.2829C184.15 93.0429 184.13 92.8029 184.13 92.5929C184.13 92.3729 184.18 92.1529 184.27 91.9429C184.42 91.5529 184.68 91.3029 185.07 91.1829C185.19 91.1429 185.31 91.1429 185.44 91.1729C185.84 91.2829 186.09 91.5329 186.2 91.9329C186.28 92.2629 186.31 92.5929 186.29 92.9029C186.27 93.2229 186.18 93.5329 186.03 93.8429C185.95 94.0029 185.85 94.1229 185.72 94.2029C185.59 94.2829 185.46 94.3329 185.32 94.3429C185.18 94.3429 185.04 94.3329 184.9 94.2729C184.76 94.2129 184.63 94.1129 184.53 93.9829C184.44 93.8729 184.37 93.7629 184.33 93.6429C184.28 93.5229 184.24 93.4029 184.21 93.3029L184.2 93.2829ZM185.59 92.1729C185.59 92.1729 185.58 92.1329 185.58 92.1029C185.58 92.0729 185.58 92.0529 185.55 92.0229C185.45 91.8229 185.32 91.7729 185.14 91.8729C185.02 91.9629 184.94 92.0629 184.89 92.1829C184.8 92.4029 184.77 92.6229 184.79 92.8329C184.81 93.0429 184.87 93.2529 184.98 93.4529C184.98 93.4929 185.02 93.5329 185.07 93.5829C185.12 93.6429 185.18 93.6729 185.25 93.6729C185.32 93.6729 185.38 93.6329 185.43 93.5529C185.46 93.5029 185.48 93.4529 185.5 93.4029C185.65 93.0129 185.68 92.6029 185.59 92.1629V92.1729Z" fill="black"/>
<path d="M191 93.0229C190.91 93.1329 190.84 93.2229 190.77 93.3029C190.71 93.3829 190.64 93.4629 190.56 93.5329C190.5 93.5929 190.44 93.6529 190.37 93.7129C190.3 93.7729 190.23 93.8229 190.15 93.8729C189.93 94.0129 189.71 94.0329 189.5 93.9429C189.29 93.8529 189.16 93.6729 189.11 93.4129C189.04 93.0429 189.05 92.6929 189.13 92.3629C189.21 92.0329 189.4 91.7429 189.69 91.4929C189.93 91.2729 190.23 91.1429 190.57 91.1229C190.83 91.1229 191.07 91.1929 191.27 91.3729C191.32 91.4229 191.37 91.4729 191.42 91.5129C191.47 91.5529 191.52 91.6129 191.57 91.6629C191.6 91.7129 191.63 91.7629 191.65 91.8229C191.67 91.8829 191.69 91.9429 191.69 92.0029C191.69 92.1129 191.7 92.2129 191.69 92.3129C191.69 92.4129 191.69 92.5229 191.69 92.6229C191.69 92.7929 191.69 92.9529 191.69 93.1229C191.69 93.2929 191.69 93.4629 191.69 93.6229C191.69 93.6729 191.69 93.7229 191.69 93.7829C191.69 93.8429 191.69 93.9029 191.69 93.9629C191.66 94.1729 191.54 94.2729 191.34 94.2529C191.15 94.2529 191.05 94.1529 191.03 93.9629C191.01 93.8429 191 93.7329 190.99 93.6229C190.99 93.5129 190.98 93.3929 190.97 93.2829V93.1829C190.97 93.1829 190.97 93.0929 190.96 93.0229H191ZM189.79 93.2529C190.04 93.0829 190.25 92.8829 190.41 92.6529C190.57 92.4229 190.73 92.1829 190.89 91.9529C190.78 91.7929 190.66 91.7529 190.51 91.8029C190.35 91.8529 190.23 91.9229 190.13 92.0029C189.93 92.1729 189.82 92.3629 189.79 92.5729C189.76 92.7829 189.76 93.0129 189.79 93.2429V93.2529Z" fill="black"/>
<path d="M194.55 92.7729C194.55 92.4729 194.62 92.1929 194.73 91.9429C194.84 91.6929 195.01 91.4729 195.26 91.2729C195.45 91.1329 195.64 91.0729 195.86 91.0729C196.08 91.0729 196.27 91.1529 196.44 91.3029C196.56 91.3929 196.66 91.5129 196.76 91.6829C196.82 91.7829 196.84 91.8729 196.82 91.9629C196.8 92.0529 196.75 92.1229 196.67 92.1629C196.59 92.2129 196.51 92.2229 196.41 92.2029C196.32 92.1829 196.24 92.1229 196.18 92.0529C196.16 92.0229 196.14 91.9929 196.12 91.9529C196.1 91.9229 196.08 91.8929 196.05 91.8729C195.93 91.7229 195.8 91.7129 195.64 91.8329C195.46 91.9729 195.35 92.1429 195.29 92.3629C195.23 92.5929 195.23 92.8429 195.29 93.0929C195.31 93.2029 195.35 93.2929 195.42 93.3629C195.49 93.4329 195.58 93.4829 195.68 93.5029C195.91 93.5629 196.11 93.5029 196.28 93.3229C196.31 93.2829 196.34 93.2429 196.36 93.2029C196.38 93.1629 196.41 93.1229 196.44 93.0729C196.58 92.9029 196.72 92.8729 196.88 92.9729C197.04 93.0629 197.08 93.2029 197.03 93.4129C196.95 93.6329 196.8 93.8229 196.56 93.9729C196.33 94.1229 196.09 94.2029 195.84 94.2029C195.56 94.2029 195.31 94.1129 195.1 93.9729C194.89 93.8329 194.75 93.6329 194.67 93.3829C194.63 93.2729 194.6 93.1729 194.59 93.0729C194.58 92.9729 194.56 92.8729 194.54 92.7629L194.55 92.7729Z" fill="black"/>
<path d="M200.53 91.5029C200.64 91.4529 200.74 91.4029 200.83 91.3529C200.92 91.3029 201.02 91.2529 201.12 91.2129C201.32 91.1329 201.53 91.1329 201.73 91.2129C201.93 91.2929 202.07 91.4329 202.15 91.6529C202.23 91.8729 202.26 92.0929 202.25 92.2929C202.25 92.5729 202.25 92.8529 202.23 93.1329C202.22 93.4129 202.2 93.6929 202.19 93.9729C202.19 94.0929 202.15 94.1829 202.09 94.2629C202.03 94.3329 201.95 94.3729 201.84 94.3729C201.64 94.3729 201.52 94.2529 201.5 94.0029V93.7829C201.5 93.7129 201.5 93.6429 201.51 93.5629C201.51 93.3429 201.53 93.1229 201.54 92.9129C201.54 92.7029 201.56 92.4829 201.57 92.2629C201.57 92.1829 201.58 92.1129 201.57 92.0329C201.57 91.9629 201.52 91.9029 201.45 91.8529C201.37 91.8129 201.3 91.8129 201.23 91.8529C201.16 91.8929 201.1 91.9429 201.05 91.9929C200.94 92.0829 200.85 92.1829 200.77 92.2929C200.69 92.4029 200.63 92.5329 200.58 92.6629C200.56 92.7029 200.55 92.7429 200.55 92.7929V92.9429C200.55 93.1129 200.57 93.2829 200.57 93.4529C200.57 93.6329 200.58 93.8029 200.59 93.9629V94.0829C200.56 94.2629 200.46 94.3529 200.3 94.3729C200.11 94.3929 200 94.3129 199.95 94.1229C199.93 94.0829 199.92 94.0429 199.92 94.0129C199.92 93.9829 199.92 93.9329 199.91 93.8929C199.89 93.5229 199.87 93.1429 199.86 92.7629C199.85 92.3829 199.83 92.0029 199.82 91.6229C199.82 91.2829 199.81 90.9529 199.82 90.6229C199.82 90.2929 199.82 89.9629 199.82 89.6229C199.82 89.5729 199.82 89.5429 199.83 89.5229C199.85 89.4229 199.89 89.3529 199.95 89.2929C200.01 89.2429 200.09 89.2129 200.18 89.2229C200.37 89.2229 200.47 89.3229 200.49 89.5329C200.49 89.6429 200.5 89.7429 200.49 89.8429C200.49 89.9429 200.49 90.0529 200.49 90.1529C200.49 90.3729 200.49 90.6029 200.49 90.8229C200.49 91.0429 200.49 91.2629 200.53 91.4929V91.5029Z" fill="black"/>
</svg>
