<svg width="204" height="74" viewBox="0 0 204 74" fill="none" xmlns="http://www.w3.org/2000/svg">
<path d="M128.38 48.0399H125.85C124.23 48.0799 122.94 49.3999 122.94 51.0299V51.2299C120.98 48.6899 118.44 47.4199 115.32 47.4199C112.2 47.4199 109.45 48.5999 107.4 50.9699C105.34 53.3399 104.31 56.5099 104.31 60.4899C104.31 64.4699 105.34 67.7199 107.4 70.0399C109.46 72.3599 112.1 73.5099 115.32 73.5099C118.54 73.5099 120.92 72.2599 122.94 69.7599C122.96 69.7399 122.97 69.7199 122.99 69.6999V70.4599C123.25 71.8399 124.47 72.8899 125.93 72.8899H128.34C129.03 72.8899 129.59 72.3299 129.59 71.6399V49.2699C129.59 48.5999 129.05 48.0499 128.39 48.0299L128.38 48.0399ZM120.58 66.8999C119.52 67.4299 118.44 67.6999 117.34 67.6999C115.49 67.6999 113.98 67.0299 112.81 65.6899C111.64 64.3499 111.06 62.6199 111.06 60.4899C111.06 58.3599 111.64 56.5899 112.81 55.2699C113.98 53.9499 115.48 53.2899 117.34 53.2899H117.4C117.48 53.2899 117.55 53.2899 117.63 53.2899C117.65 53.2899 117.67 53.2899 117.69 53.2899C117.78 53.2899 117.87 53.2999 117.97 53.3099C120.8 53.5999 123.01 55.9899 123.01 58.8999V64.8499C122.46 65.6699 121.66 66.3499 120.59 66.8799L120.58 66.8999Z" fill="black"/>
<path d="M89.49 38.5699H87.14C85.49 38.5699 84.15 39.9099 84.15 41.5599V51.2299C82.19 48.6899 79.64 47.4199 76.48 47.4199C73.32 47.4199 70.6101 48.5999 68.5601 50.9699C66.5001 53.3399 65.47 56.5099 65.47 60.4899C65.47 64.4699 66.5001 67.7199 68.5601 70.0399C70.6201 72.3599 73.26 73.5099 76.48 73.5099C79.7 73.5099 82.12 72.2399 84.15 69.6999V69.8999C84.15 71.5499 85.49 72.8899 87.14 72.8899H89.49C90.18 72.8899 90.74 72.3299 90.74 71.6399V39.8099C90.74 39.1199 90.18 38.5599 89.49 38.5599V38.5699ZM84.15 64.8699C83.6 65.6899 82.8 66.3699 81.73 66.8999C80.67 67.4299 79.59 67.6999 78.49 67.6999C76.64 67.6999 75.13 67.0299 73.96 65.6899C72.79 64.3499 72.21 62.6199 72.21 60.4899C72.21 58.3599 72.79 56.5799 73.96 55.2399C74.87 54.1899 76 53.5499 77.33 53.3299C77.78 53.2099 78.25 53.1399 78.74 53.1399C79.82 53.1399 80.82 53.4599 81.67 53.9999C83.16 54.9599 84.15 56.6299 84.15 58.5399V64.8599V64.8699Z" fill="black"/>
<path d="M62.7399 49.2899V71.6499C62.7399 72.3399 62.1799 72.8999 61.4899 72.8999H59.1898C57.5398 72.8999 56.1998 71.5599 56.1998 69.9099V69.7599C53.9698 72.2699 51.0498 73.5199 47.4498 73.5199C44.7698 73.5199 42.7699 72.8399 41.4299 71.4599C40.0899 70.0799 39.4199 68.1699 39.4199 65.6899V51.0299C39.4199 49.3799 40.7599 48.0399 42.4099 48.0399H44.7098C45.3998 48.0399 45.9598 48.5999 45.9598 49.2899V63.1199C45.9598 66.1799 47.4899 67.6999 50.5399 67.6999C52.8399 67.6999 54.7198 66.7599 56.1998 64.8699V51.0299C56.1998 49.3799 57.5398 48.0399 59.1898 48.0399H61.4899C62.1799 48.0399 62.7399 48.5999 62.7399 49.2899Z" fill="black"/>
<path d="M21.52 65.5399C21.52 67.8699 20.57 69.7899 18.66 71.2799C16.75 72.7699 14.12 73.5199 10.76 73.5199C8.60001 73.5199 6.53006 73.1799 4.56006 72.4899C4.33006 72.4099 4.11002 72.3299 3.90002 72.2399C2.69002 71.7599 1.62005 71.1899 0.680054 70.4999C0.660054 70.4899 0.650005 70.4699 0.630005 70.4599C0.550005 70.3999 0.480024 70.3399 0.400024 70.2899C0.180024 70.0699 0.0400391 69.7599 0.0400391 69.4199C0.0400391 69.2299 0.0800342 69.0399 0.160034 68.8799L0.280029 68.6899L0.709961 67.9999V67.9699L0.959961 67.5899C1.49996 66.8399 2.38 66.3499 3.38 66.3499C3.78 66.3499 4.17002 66.4299 4.52002 66.5699C4.69002 66.6599 4.86004 66.7599 5.04004 66.8499C5.46004 67.0599 5.91001 67.2699 6.39001 67.4699C8.04001 68.1599 9.59995 68.4999 11.0699 68.4999C12.4399 68.4999 13.4801 68.2599 14.1801 67.7799C14.8801 67.2999 15.24 66.6499 15.24 65.8199C15.24 65.1999 14.87 64.6999 14.13 64.2999C13.39 63.9099 12.48 63.6199 11.4 63.4499C10.32 63.2799 9.13998 63.0199 7.84998 62.6799C6.55998 62.3399 5.38005 61.9299 4.30005 61.4399C3.22005 60.9599 2.30995 60.1999 1.56995 59.1499C0.829946 58.0999 0.459961 56.8099 0.459961 55.2599C0.459961 53.0599 1.36994 51.2099 3.18994 49.6999C5.00994 48.1899 7.49002 47.4399 10.65 47.4399C13.25 47.4399 15.62 47.9599 17.77 48.9999C17.95 49.0799 18.12 49.1699 18.29 49.2699C19.12 49.7999 19.67 50.7299 19.67 51.7899C19.67 52.2499 19.57 52.6799 19.38 53.0699L19.12 53.5199L18.89 53.9199L18.74 54.1699C18.52 54.4699 18.15 54.6699 17.74 54.6699C17.67 54.6699 17.6 54.6699 17.54 54.6499C17.41 54.6299 17.28 54.5899 17.16 54.5299C17.07 54.4599 16.98 54.3899 16.88 54.3199C16.3 53.9199 15.65 53.5699 14.91 53.2599C14.58 53.1299 14.26 53.0099 13.92 52.8999C12.89 52.5899 11.83 52.4299 10.71 52.4299C9.53996 52.4299 8.6 52.6599 7.88 53.1199C7.16 53.5799 6.80005 54.1799 6.80005 54.8999C6.80005 55.4499 7.16 55.8999 7.88 56.2599C8.6 56.6199 9.50999 56.8899 10.61 57.0599C11.71 57.2299 12.89 57.4999 14.16 57.8599C15.43 58.2199 16.61 58.6499 17.71 59.1499C18.81 59.6499 19.7199 60.4499 20.4399 61.5399C21.1599 62.6399 21.52 63.9799 21.52 65.5499V65.5399Z" fill="black"/>
<path d="M37.5399 70.67V70.69C37.5399 71.35 37.3298 71.96 36.9598 72.45C36.9498 72.47 36.9299 72.49 36.9199 72.51C36.8899 72.55 36.8598 72.59 36.8198 72.62C36.7998 72.64 36.7799 72.66 36.7599 72.68C36.6499 72.77 36.5198 72.83 36.4598 72.86C36.4298 72.87 36.4199 72.88 36.4199 72.88C35.5999 73.21 34.6399 73.42 33.5199 73.49C33.2099 73.51 32.8799 73.52 32.5499 73.52C30.2499 73.52 28.4999 72.94 27.2999 71.77C26.0999 70.6 25.4999 68.92 25.4999 66.73V53.76H22.6299C21.9399 53.76 21.3799 53.2 21.3799 52.51V51.03C21.3799 49.38 22.7199 48.04 24.3699 48.04H25.4999V44.24C25.4999 42.59 26.8399 41.25 28.4899 41.25H30.9799C31.5699 41.31 32.0298 41.78 32.0898 42.36V48.04H35.8999C36.5799 48.04 37.1299 48.6 37.1299 49.29V50.77C37.1299 52.39 35.8298 53.72 34.2198 53.76H32.0898V64.98C32.0898 65.77 32.2998 66.42 32.7098 66.93C33.1198 67.45 33.6699 67.7 34.3599 67.7H34.4199C34.4699 67.7 34.5198 67.7 34.5698 67.7H34.5798C35.8498 67.7 36.9299 68.5 37.3599 69.62L37.5099 70.15C37.5399 70.32 37.5599 70.49 37.5599 70.67H37.5399Z" fill="black"/>
<path d="M101.59 49.2699V69.9099C101.59 71.5599 100.25 72.8999 98.6 72.8999H96.3C95.61 72.8999 95.05 72.3399 95.05 71.6499V51.0099C95.05 49.4799 96.2001 48.2199 97.6801 48.0399H100.58C101.16 48.1499 101.59 48.6599 101.59 49.2599V49.2699Z" fill="black"/>
<path d="M98.3002 45.37C100.449 45.37 102.19 43.6283 102.19 41.4799C102.19 39.3316 100.449 37.59 98.3002 37.59C96.1518 37.59 94.4102 39.3316 94.4102 41.4799C94.4102 43.6283 96.1518 45.37 98.3002 45.37Z" fill="black"/>
<path d="M171.32 54.9399V69.9099C171.32 71.5599 169.98 72.8999 168.33 72.8999H166.03H166.01C166.01 72.8999 165.99 72.8999 165.98 72.8999C165.31 72.8999 164.76 72.3599 164.74 71.6999V57.2099C164.74 54.5699 163.5 53.2499 161.03 53.2499C159.97 53.2499 158.98 53.5399 158.07 54.1199C157.16 54.7099 156.43 55.3699 155.88 56.1299V71.6599C155.88 72.3499 155.32 72.9099 154.63 72.9099H150.53C149.84 72.9099 149.28 72.3499 149.28 71.6599V57.2099C149.28 54.5699 148.04 53.2499 145.57 53.2499C144.54 53.2499 143.56 53.5399 142.64 54.1199C141.71 54.7099 140.98 55.3899 140.43 56.1799V69.9099C140.43 71.5599 139.09 72.8999 137.44 72.8999H135.14C134.45 72.8999 133.89 72.3399 133.89 71.6499V51.0299C133.89 49.3799 135.23 48.0399 136.88 48.0399H139.18C139.87 48.0399 140.43 48.5999 140.43 49.2899V51.2899C141.05 50.3999 142.13 49.5299 143.67 48.6899C145.21 47.8499 146.84 47.4299 148.56 47.4299C152.16 47.4299 154.46 48.9399 155.46 51.9599C156.25 50.7199 157.42 49.6599 158.99 48.7699C160.55 47.8799 162.22 47.4299 164.01 47.4299C166.34 47.4299 168.14 48.0599 169.41 49.3099C170.68 50.5599 171.32 52.4399 171.32 54.9499V54.9399Z" fill="black"/>
<path d="M203.57 55.63C203.56 55.53 203.54 55.43 203.52 55.33C203.37 54.81 202.94 54.4 202.37 54.3C201.59 54.17 200.84 54.69 200.71 55.48C200.68 55.65 200.68 55.82 200.71 55.98C200.71 56 200.71 56.02 200.72 56.04C200.72 56.06 200.72 56.08 200.72 56.1C200.72 56.13 200.72 56.17 200.72 56.21C200.67 56.5 200.4 56.7 200.1 56.65C199.92 56.62 199.78 56.5 199.71 56.35C199.71 56.34 199.7 56.32 199.69 56.31C199.69 56.32 199.69 56.34 199.7 56.35C199.17 54.85 198.08 53.54 196.55 52.76C195.28 52.12 193.91 51.93 192.61 52.14C191.43 52.33 190.32 52.85 189.41 53.64C189.41 53.64 189.4 53.65 189.39 53.66C188.79 54.18 188.29 54.83 187.91 55.57C187.02 57.32 187.01 59.3 187.71 60.98C188.28 62.33 189.31 63.5 190.72 64.22C191.25 64.49 191.81 64.68 192.36 64.8C192.36 64.8 192.36 64.8 192.37 64.8C192.19 65.1 191.98 65.39 191.76 65.66C190.61 67.05 189.06 67.74 187.1 67.74C185.14 67.74 183.6 67.05 182.47 65.66C181.41 64.36 180.84 62.76 180.78 60.87C180.78 60.74 180.78 60.6 180.78 60.47C180.78 60.22 180.78 59.98 180.81 59.75C180.88 58.74 181.1 57.81 181.48 56.97C181.51 56.91 181.54 56.85 181.57 56.79C181.57 56.78 181.58 56.77 181.59 56.75C181.71 56.5 181.85 56.25 182.01 56.02C182.03 55.98 182.06 55.94 182.09 55.9C184.04 52.84 187.4 50.93 191.03 50.83C191.13 50.83 191.23 50.83 191.33 50.83C191.78 50.77 192.18 50.5 192.4 50.07C192.74 49.4 192.5 48.58 191.85 48.21C191.64 48.14 191.43 48.08 191.22 48.02C189.96 47.67 188.59 47.5 187.11 47.5C183.28 47.5 180.18 48.66 177.83 50.99C177.74 51.08 177.65 51.17 177.56 51.26C175.4 53.53 174.22 56.28 174.02 59.51C174 59.84 173.99 60.17 173.99 60.5C173.99 60.83 173.99 61.18 174.02 61.52C174.22 64.75 175.4 67.51 177.56 69.79C179.95 72.31 183.13 73.57 187.11 73.57C188.96 73.57 190.63 73.3 192.14 72.75C193.88 72.12 195.4 71.14 196.68 69.78C198.7 67.66 199.87 65.13 200.19 62.2C200.19 62.1 200.21 61.99 200.22 61.89C200.22 61.99 200.2 62.1 200.19 62.2C200.97 61.79 201.67 61.22 202.22 60.52C202.76 59.85 203.16 59.07 203.39 58.2C203.44 58.01 203.48 57.82 203.52 57.62C203.63 56.96 203.64 56.3 203.55 55.67L203.57 55.63ZM195.86 59.6C195.4 60.51 194.45 61.02 193.48 60.95H193.45C193.13 60.93 192.81 60.84 192.52 60.69C192.48 60.67 192.44 60.65 192.39 60.62C191.57 60.14 191.12 59.26 191.16 58.36C191.17 58.02 191.26 57.67 191.43 57.35C191.66 56.89 192.02 56.53 192.44 56.3C193.14 55.92 194 55.88 194.77 56.26C196 56.88 196.48 58.38 195.86 59.61V59.6Z" fill="black"/>
<path d="M25.12 17.7599V34.06C25.12 34.75 24.56 35.31 23.87 35.31H21.5699C19.9199 35.31 18.58 33.9699 18.58 32.3199V21.16C18.58 21.05 18.59 20.94 18.59 20.83C18.59 20.72 18.59 20.61 18.58 20.5V20.2899C18.58 17.1999 17.05 15.66 14 15.66C13.54 15.66 13.1099 15.7 12.6899 15.77C12.6299 15.77 12.58 15.79 12.52 15.8C12.39 15.82 12.25 15.85 12.12 15.89C12.05 15.9 11.99 15.92 11.92 15.94C11.92 15.94 11.91 15.94 11.9 15.94C9.84002 16.6 8.33997 18.5399 8.33997 20.8199V32.31C8.33997 33.96 6.99998 35.3 5.34998 35.3H3.03003C2.41003 35.3 1.91005 34.86 1.80005 34.27V13.09C1.97005 11.6 3.23002 10.45 4.77002 10.45H7.08997C7.77997 10.45 8.33997 11.01 8.33997 11.7V13.7C10.5 11.13 13.4 9.83997 17.04 9.83997C19.72 9.83997 21.73 10.54 23.09 11.95C24.44 13.36 25.12 15.3 25.12 17.77V17.7599Z" fill="black"/>
<path d="M57.4199 18.02C57.4099 17.92 57.3899 17.82 57.3699 17.72C57.2199 17.2 56.7898 16.79 56.2198 16.69C55.4398 16.56 54.6899 17.08 54.5599 17.87C54.5299 18.04 54.5299 18.21 54.5599 18.37C54.5599 18.39 54.5598 18.41 54.5698 18.43C54.5698 18.45 54.5698 18.47 54.5698 18.49C54.5698 18.52 54.5698 18.56 54.5698 18.6C54.5198 18.89 54.2498 19.09 53.9498 19.04C53.7698 19.01 53.6299 18.89 53.5599 18.74C53.5599 18.73 53.5499 18.71 53.5399 18.7C53.5399 18.71 53.5399 18.73 53.5499 18.74C53.0199 17.24 51.9299 15.93 50.3999 15.15C49.1299 14.51 47.7598 14.32 46.4598 14.53C45.2798 14.72 44.1699 15.24 43.2599 16.03C43.2599 16.03 43.2499 16.04 43.2399 16.05C42.6399 16.57 42.1399 17.22 41.7599 17.96C40.8699 19.71 40.8599 21.69 41.5599 23.37C42.1299 24.72 43.1598 25.89 44.5698 26.61C45.0998 26.88 45.6598 27.07 46.2098 27.19C46.2098 27.19 46.2098 27.19 46.2198 27.19C46.0398 27.49 45.8299 27.78 45.6099 28.05C44.4599 29.44 42.9098 30.13 40.9498 30.13C38.9898 30.13 37.4498 29.44 36.3198 28.05C35.2598 26.75 34.6899 25.15 34.6299 23.26C34.6299 23.13 34.6299 22.99 34.6299 22.86C34.6299 22.61 34.6299 22.37 34.6599 22.14C34.7299 21.13 34.9498 20.2 35.3298 19.36C35.3598 19.3 35.3899 19.24 35.4199 19.18C35.4199 19.17 35.4298 19.16 35.4398 19.14C35.5598 18.89 35.6999 18.64 35.8599 18.41C35.8799 18.37 35.9098 18.33 35.9398 18.29C37.8898 15.23 41.2499 13.32 44.8799 13.22C44.9799 13.22 45.0799 13.22 45.1799 13.22C45.6299 13.16 46.0299 12.89 46.2499 12.46C46.5899 11.79 46.3498 10.97 45.6998 10.6C45.4898 10.53 45.2798 10.47 45.0698 10.41C43.8098 10.06 42.4398 9.89001 40.9598 9.89001C37.1298 9.89001 34.0299 11.05 31.6799 13.38C31.5899 13.47 31.4999 13.56 31.4099 13.65C29.2499 15.92 28.0699 18.67 27.8699 21.9C27.8499 22.23 27.8398 22.56 27.8398 22.89C27.8398 23.22 27.8399 23.57 27.8699 23.91C28.0699 27.14 29.2499 29.9 31.4099 32.18C33.7999 34.7 36.9798 35.96 40.9598 35.96C42.8098 35.96 44.4799 35.69 45.9899 35.14C47.7299 34.51 49.2499 33.53 50.5299 32.17C52.5499 30.05 53.7199 27.52 54.0399 24.59C54.0399 24.49 54.0598 24.38 54.0698 24.28C54.0698 24.38 54.0499 24.49 54.0399 24.59C54.8199 24.18 55.5198 23.61 56.0698 22.91C56.6098 22.24 57.0099 21.46 57.2399 20.59C57.2899 20.4 57.3299 20.21 57.3699 20.01C57.4799 19.35 57.4899 18.69 57.3999 18.06L57.4199 18.02ZM49.7098 21.99C49.2498 22.9 48.2998 23.41 47.3298 23.34H47.2999C46.9799 23.32 46.6599 23.23 46.3699 23.08C46.3299 23.06 46.2899 23.04 46.2399 23.01C45.4199 22.53 44.9699 21.65 45.0099 20.75C45.0199 20.41 45.1099 20.06 45.2799 19.74C45.5099 19.28 45.8699 18.92 46.2899 18.69C46.9899 18.31 47.8499 18.27 48.6199 18.65C49.8499 19.27 50.3298 20.77 49.7098 22V21.99Z" fill="black"/>
<path d="M65.8199 11.68V32.3199C65.8199 33.9699 64.48 35.31 62.83 35.31H60.53C59.84 35.31 59.28 34.75 59.28 34.06V13.42C59.28 11.89 60.43 10.63 61.91 10.45H64.8101C65.3901 10.56 65.8199 11.07 65.8199 11.67V11.68Z" fill="black"/>
<path d="M62.5302 7.78C64.6785 7.78 66.4202 6.03837 66.4202 3.88998C66.4202 1.7416 64.6785 0 62.5302 0C60.3818 0 58.6401 1.7416 58.6401 3.88998C58.6401 6.03837 60.3818 7.78 62.5302 7.78Z" fill="black"/>
</svg>
