<svg width="207" height="65" viewBox="0 0 207 65" fill="none" xmlns="http://www.w3.org/2000/svg">
<path d="M61.15 38.7899C61.07 34.3599 59.78 30.8399 57.21 28.0099C54.15 24.6499 50.8 23.18 46.97 23.5C43.18 23.82 40.36 25.19 38.35 27.7C37.73 28.47 37.18 29.31 36.65 30.11C36.27 30.69 35.88 31.29 35.47 31.85C34.7 32.9 33.9 33.99 32.97 34.92C31.59 36.3 30.39 36.37 29.62 36.2C28.53 35.95 27.45 35.5199 26.32 35.0699C26.14 34.9999 25.96 34.93 25.78 34.85C26.24 34.56 26.65 34.3 27.05 34.02C31.07 31.18 32.78 27.84 32.26 23.83C31.78 20.11 29.79 17.64 26.5 16.68C25 16.24 23.34 15.91 21.56 15.69C17.14 15.14 13.19 16.52 9.91997 17.94C9.25997 18.23 8.61997 18.56 7.98997 18.88C7.69997 19.03 7.39997 19.18 7.09997 19.33C6.95997 19.4 6.85997 19.52 6.80997 19.67C6.75997 19.82 6.77997 19.98 6.84997 20.12L10.66 27.2299C10.81 27.5099 11.15 27.61 11.43 27.47C11.56 27.4 11.67 27.3399 11.78 27.2899C11.97 27.1899 12.12 27.1099 12.26 27.0399C12.78 26.7899 13.31 26.5399 13.81 26.2899C14.97 25.7199 16.17 25.13 17.38 24.64C20.34 23.43 23.22 23.6 25.93 25.15C26.75 25.62 27.04 26.27 26.87 27.24C26.63 28.58 25.8 29.46 24.1 30.18C22.2 30.98 20.08 31.1 17.61 30.55C17.04 30.42 16.46 30.28 15.85 30.13C15.55 30.06 15.24 29.98 14.91 29.9C14.71 29.85 14.5 29.91 14.36 30.06C14.22 30.21 14.17 30.42 14.22 30.62L16.89 39.78C16.94 39.94 17.04 40.06 17.19 40.14C17.34 40.21 17.5 40.22 17.65 40.16C19.76 39.33 21.77 39.41 23.45 39.61C25.37 39.83 26.87 40.91 27.58 42.58C28.28 44.23 28.07 46.15 27.06 47.47C25.9 48.98 24.43 50.05 22.54 50.77C19.65 51.86 16.76 51.53 14.31 51.06C11.88 50.6 9.84997 49.55 8.12997 47.86C5.82997 45.61 4.18997 42.76 2.95997 38.9C2.61997 37.83 2.35997 36.76 2.07997 35.62C1.95997 35.11 1.82997 34.5899 1.68997 34.0699C1.62997 33.8299 1.41997 33.66 1.16997 33.64C0.919966 33.62 0.689967 33.77 0.599967 34C0.599967 34.01 0.589966 34.0299 0.579966 34.0399C0.539966 34.1199 0.469965 34.26 0.459965 34.44C0.429965 35.04 0.389966 35.65 0.339966 36.24C0.239966 37.61 0.129966 39.03 0.259966 40.42C0.719966 45.48 2.70997 50.03 6.15997 53.94C7.97997 56 10.17 57.57 12.69 58.61C12.75 58.67 12.82 58.72 12.9 58.75C15.08 59.6 17.42 60.03 19.84 60.03C19.88 60.03 19.92 60.03 19.96 60.03C22.28 60.03 24.64 59.62 26.79 58.83C29.55 57.82 31.34 56.4 32.43 54.34C33.37 52.55 33.93 50.46 34.15 47.94C34.36 45.41 33.63 43.1 32.82 40.99C32.67 40.61 32.52 40.24 32.35 39.84C32.83 39.86 33.33 39.91 33.81 39.95C34.99 40.05 36.21 40.16 37.41 39.99C40.22 39.59 42.49 38.0099 44.56 35.0099C45.79 33.2199 46.98 31.81 48.17 30.71C49.06 29.89 50.13 29.45 51.28 29.43C53.3 29.46 55.04 30.77 55.71 32.77C56.07 33.83 56.3 34.93 56.41 36.03C56.65 38.44 56.3 40.47 55.34 42.24C53.71 45.24 49.71 47.42 45.85 47.44C45.15 47.44 44.48 47.36 43.85 47.21C41.1 46.57 39.49 44.99 38.92 42.37C38.87 42.15 38.83 41.92 38.79 41.68C38.77 41.57 38.75 41.46 38.73 41.35C38.69 41.11 38.49 40.92 38.25 40.88L37.97 40.84C37.68 40.8 37.4 40.98 37.33 41.27C37.26 41.53 37.18 41.7999 37.1 42.0699C36.91 42.6999 36.71 43.3499 36.68 44.0399C36.66 44.4999 36.66 44.97 36.68 45.43C36.59 45.54 36.55 45.6799 36.56 45.8199C36.72 47.9599 37.34 50.02 38.4 51.94C39.35 53.65 40.6 54.87 42.1 55.55C43.93 56.37 45.83 56.7899 47.74 56.7899H47.75C47.75 56.7899 47.84 56.7899 47.89 56.7899C52.8 56.7899 57.01 54.05 59.16 49.44C60.58 46.4 61.21 43.02 61.13 38.8L61.15 38.7899Z" fill="black"/>
<path d="M39.1 19.7499C41 20.3199 42.9 20.6099 44.8 20.6099C47.69 20.6099 50.57 19.9399 53.41 18.6099L53.52 18.5599C53.61 18.5199 53.69 18.4799 53.78 18.4299C53.88 18.3799 53.98 18.3299 54.08 18.2799C54.15 18.2499 54.21 18.2099 54.28 18.1799C54.37 18.1299 54.47 18.0799 54.56 18.0299L54.7 17.9599C54.84 17.8899 54.97 17.8099 55.11 17.7299C55.7 17.3899 56.25 17.0199 56.83 16.6199C57.09 16.4399 57.36 16.2599 57.64 16.0699C57.78 15.9799 57.87 15.8399 57.89 15.6799C57.91 15.5199 57.87 15.3599 57.77 15.2299L56.57 13.7499C55.78 12.7899 55.04 11.8799 54.3 10.9599C54.03 10.6199 53.75 10.2799 53.48 9.93993C53.22 9.60993 52.93 9.42992 52.62 9.39992C52.2 9.35992 51.85 9.59991 51.63 9.78991C50.92 10.3899 50.32 10.8499 49.75 11.2199C46.87 13.0899 44.11 13.8699 41.31 13.5899C35.86 13.0499 32.18 10.5299 30.07 5.89992C29.96 5.66992 29.72 5.52991 29.47 5.56991C29.22 5.60991 29.02 5.79992 28.98 6.04992C28.64 8.33992 28.94 10.3999 29.89 12.3299C31.66 15.9199 34.76 18.4099 39.11 19.7199L39.1 19.7499Z" fill="black"/>
<path d="M36.32 6.97994C36.7 7.29994 37.07 7.61996 37.44 7.93996C38.8 9.10996 40.08 10.2099 41.41 11.2999C41.59 11.4499 41.87 11.5199 42.15 11.5199C42.45 11.5199 42.75 11.4399 42.94 11.2699C44.36 10.0199 45.78 8.71996 47.14 7.46996L47.8 6.86995C47.94 6.73995 47.99 6.59995 48.04 6.48995C48.05 6.45995 48.06 6.43996 48.08 6.40996C48.19 6.17996 48.14 5.89994 47.94 5.72994L42.55 1.03994C42.33 0.849938 42.01 0.859947 41.8 1.04995L36.31 6.12996C36.19 6.23996 36.12 6.39996 36.13 6.55996C36.13 6.71996 36.21 6.87994 36.33 6.97994H36.32Z" fill="black"/>
<path d="M98.25 13.7C98.25 18.74 92.99 20.25 90.44 20.25C89.39 20.25 89.06 20.1899 88.6 20.0699V26.13C88.69 27.7 89 28.83 89 28.83C89 28.98 88.79 29.5699 87.37 29.5699C86.66 29.5699 85.22 29.39 85.22 28.06C85.22 28.06 85.47 22.8 85.44 20.99L85.35 16.84C85.29 14.32 85.26 10.78 85.23 9.82996C84.71 9.91996 84.22 9.97995 83.85 9.97995C82.34 9.97995 82.4 8.99997 82.4 8.83997C82.4 8.83997 87.57 7.94995 91.38 7.94995C95.9 7.94995 98.27 10.07 98.27 13.7H98.25ZM88.66 9.14996L88.6 18.9L88.63 18.84C89.09 18.93 89.28 19.06 90.17 19.06C91.74 19.06 94.66 17.86 94.66 13.99C94.66 12.02 93.55 9.00995 90.48 9.00995C89.9 9.00995 89.28 9.06997 88.67 9.15997L88.66 9.14996Z" fill="black"/>
<path d="M111.37 19.67L111.15 24.53C111.15 26.07 111.83 27.33 111.83 27.33C112.23 27.18 113.52 26.25 113.52 26.25C113.58 26.25 113.86 26.4 113.86 26.9C113.86 27.98 111.98 29.5699 110.32 29.5699C108.85 29.5699 108.08 27.3899 108.05 25.4799C107.59 27.42 105.62 29.5699 103.28 29.5699C100.94 29.5699 99.59 27.23 99.59 24.93C99.59 21.43 101.9 20.5 104.85 20.5C106.63 20.5 108.11 21.39 108.11 21.39L108.14 19.15C108.14 17.37 107.71 14.78 105.22 14.78C103.93 14.78 102.55 15.27 102.55 15.27L103.13 18.47C103.13 18.47 102.64 19.05 101.38 19.05C100.12 19.05 99.66 17.85 99.66 17.11C99.66 15.66 101.04 13.8199 106.02 13.8199C111 13.8199 111.55 16.34 111.37 19.66V19.67ZM108.05 22.56C108.05 22.56 106.82 21.55 105.19 21.55C104.15 21.55 103.04 21.95 103.04 24.13C103.04 25.51 103.59 26.9 105.1 26.9C106.88 26.9 107.96 24.2599 108.05 22.5699V22.56Z" fill="black"/>
<path d="M124.8 25.02C124.8 25.02 125.14 24.37 126.4 24.37C127.66 24.37 128.27 25.69 128.27 26.86C128.27 27.75 127.93 29.38 125.66 29.35C120.99 29.38 116.59 29.38 115.7 29.38V29.0399C115.7 27.9899 115.95 26.83 124.49 14.9H118.31L118.8 18.16C118.8 18.16 118.31 18.74 117.05 18.74C115.79 18.74 115.33 17.51 115.33 16.22C115.33 15.14 115.7 13.8199 117.82 13.8199C121.32 13.8199 124.92 13.85 127.69 13.85C127.69 14.25 127.63 15.63 126.68 16.89L118.93 28.17L125.17 28.02L124.8 25.0099V25.02Z" fill="black"/>
<path d="M144.42 7.97995C146.6 7.97995 149.12 9.29996 149.12 11.18C149.12 12.59 148.23 13.21 147.4 13.21C146.32 13.21 145.65 12.63 145.65 12.63L146.23 9.39996C146.23 9.39996 145.58 8.93997 144.35 8.93997C142.41 8.93997 140.97 11.22 140.97 12.94C140.97 15.68 142.11 16.88 143.68 17.67C144.05 17.85 144.17 17.89 144.17 18.19C144.17 18.59 143.83 18.77 143.34 18.99C141.13 19.97 139.9 21.2699 139.9 23.5399C139.9 25.9999 140.91 28.58 144.48 28.58C147.58 28.58 149.34 25.9999 149.34 23.2599C149.34 21.1999 148.6 19.51 148.39 19.11H148.33C147.96 19.11 145.44 19.11 145.38 18.34C145.38 17.97 145.69 17.88 145.69 17.85C145.69 17.85 147.32 17.94 149.35 17.94C152.45 17.94 153.65 17.69 153.65 17.69C153.65 17.69 153.74 17.84 153.74 18.24C153.74 18.79 152.79 19.07 150.05 19.1C150.97 19.75 152.02 21.04 152.02 23.43C152.02 26.9 149.13 29.52 144.21 29.52C139.29 29.52 136.46 27.21 136.46 23.62C136.46 21.41 138.06 18.46 141.38 17.84C139.29 17.35 137.75 15.57 137.75 13.17C137.75 11.02 140.02 7.96997 144.42 7.96997V7.97995Z" fill="black"/>
<path d="M88.99 44.52C89.91 44.34 90.8 44.24 91.7 44.24C93.51 44.24 94.04 44.9799 94.04 44.9799C94.04 44.9799 93.49 46.55 91.03 46.55C90.23 46.55 89.46 46.43 88.76 46.24C87.53 47.32 86.64 48.98 86.64 50.94C86.64 53.89 88.39 55.64 90.7 55.64C93.01 55.64 94.42 54.2899 94.42 54.2899L93.16 50.63C93.16 50.63 93.56 49.46 95.25 49.46C96.82 49.46 97.56 50.8999 97.56 52.0699C97.56 53.9499 94.67 56.96 90.18 56.96C86.03 56.96 82.53 55.33 82.53 51.03C82.53 48.11 84.31 46.26 86.62 45.25C84.93 44.11 83.82 42.4799 83.82 40.7299C83.82 37.5599 86.77 35.35 91.17 35.35C93.35 35.35 95.87 36.67 95.87 38.55C95.87 39.96 94.98 40.58 94.15 40.58C93.07 40.58 92.4 40 92.4 40L92.98 36.77C92.98 36.77 92.33 36.31 91.1 36.31C89.16 36.31 87.72 38.77 87.72 40.49C87.72 42.21 88.18 43.66 89.01 44.52H88.99ZM92 44.86C91.42 44.86 90.77 45.0099 90.19 45.2899C90.62 45.4699 91.08 45.5399 91.64 45.5399C92.41 45.5399 92.99 45.05 92.99 45.05C92.99 44.99 92.44 44.87 92.01 44.87L92 44.86Z" fill="black"/>
<path d="M108.91 53.37C108.29 54.6 106.54 57 104.08 57C100.33 57 98.45 54.05 98.45 49.99C98.45 44.06 102.45 41.23 106.54 41.23C109.86 41.23 112.29 42.4 112.32 43.6L112.07 46.24L112.1 53.13L112.01 60.97C112.1 62.63 112.41 63.77 112.41 63.77C112.41 63.77 112.32 64.51 110.78 64.51C109.4 64.51 108.63 63.96 108.63 62.85C108.63 62.85 108.85 61.19 108.81 59.99C108.78 58.79 108.87 55.19 108.9 53.38L108.91 53.37ZM108.91 52.05V51.68C108.91 47.38 108.82 43.19 108.82 43.19C108.39 42.24 106.55 42.24 106.48 42.24C103.65 42.24 102.08 45.93 102.08 49.34C102.08 53.46 103.49 54.87 105.09 54.87C107.06 54.87 108.35 52.78 108.9 52.04L108.91 52.05Z" fill="black"/>
<path d="M121.58 54.14C123.42 54.14 125.24 51.22 125.27 51.22L125.52 44.7C125.43 43.04 125.12 41.99 125.12 41.99C125.12 41.99 125.06 41.28 126.63 41.25C128.01 41.22 128.78 41.8 128.78 42.91C128.78 42.91 128.57 46.4799 128.53 48.2299L128.44 51.92C128.44 53.46 129.12 54.72 129.12 54.72C129.52 54.57 130.81 53.64 130.81 53.64C130.87 53.64 131.15 53.7899 131.15 54.2899C131.15 55.3699 129.27 56.96 127.61 56.96C126.13 56.96 125.37 54.44 125.33 52.53C124.35 54.07 122.72 56.99 119.64 56.99C116.9 56.99 116.29 53.9799 116.35 51.7599C116.35 50.1899 116.44 49.02 116.41 47.39L116.32 43.7599C116.32 43.7599 116.04 43.7899 115.71 43.7899C115.06 43.7899 114.23 43.73 114.17 43.05C114.17 43.05 117.27 41.21 118.41 41.21C119.33 41.21 119.79 41.83 119.79 42.66C119.79 43.55 119.61 45.24 119.57 46.44L119.51 50.81C119.51 52.62 119.94 54.13 121.57 54.13L121.58 54.14Z" fill="black"/>
<path d="M132.92 43.8099C132.28 43.8099 131.45 43.7499 131.38 43.0699C131.38 43.0699 134.48 41.2299 135.62 41.2299C136.54 41.2299 137.16 41.8499 137.16 42.6799C137.16 43.5699 137.04 45.2599 136.79 51.3499C136.79 54.1499 137.37 54.7299 137.37 54.7299C137.77 54.5799 139.06 53.6499 139.06 53.6499C139.12 53.6499 139.4 53.7999 139.4 54.2999C139.4 55.3799 137.53 56.9699 135.86 56.9699C134.08 56.9699 133.55 54.9099 133.55 53.0299C133.55 51.6799 133.61 49.7099 133.61 48.1399V47.3999L133.52 43.7699C133.52 43.7699 133.24 43.7999 132.9 43.7999L132.92 43.8099ZM137.01 37.3199C137.01 38.6399 136.12 39.5599 134.92 39.5599C133.87 39.5599 133.26 38.6399 133.26 37.6499C133.26 36.3599 134.12 35.4099 135.32 35.4099C136.36 35.4099 137.01 36.2699 137.01 37.3199Z" fill="black"/>
<path d="M140.2 36.31C139.55 36.31 138.72 36.25 138.66 35.57C138.66 35.57 141.76 33.73 142.9 33.73C143.82 33.73 144.28 34.34 144.28 35.17V39.01L144.13 51.4C144.13 53.21 144.71 54.78 144.71 54.78C145.11 54.63 146.4 53.7 146.4 53.7C146.46 53.7 146.74 53.85 146.74 54.35C146.74 55.43 144.87 57.02 143.2 57.02C141.2 57.02 141.02 54.87 140.96 52.99C140.96 51.42 140.93 41.58 140.9 39.96L140.81 36.27C140.81 36.27 140.53 36.3 140.2 36.3V36.31Z" fill="black"/>
<path d="M148.53 43.81C147.89 43.81 147.06 43.7499 146.99 43.0699C146.99 43.0699 150.09 41.2299 151.23 41.2299C152.15 41.2299 152.77 41.85 152.77 42.68C152.77 43.57 152.62 45.26 152.59 46.46L152.41 51.35C152.41 54.15 152.99 54.7299 152.99 54.7299C153.39 54.5799 154.68 53.65 154.68 53.65C154.74 53.65 155.02 53.8 155.02 54.3C155.02 55.38 153.15 56.97 151.48 56.97C149.64 56.97 149.24 54.91 149.17 53.03C149.17 51.46 149.26 49.03 149.23 47.4L149.14 43.77C149.14 43.77 148.86 43.8 148.52 43.8L148.53 43.81ZM149.58 39.5699C149.03 39.5699 148.66 38.77 148.66 38.77C148.66 38.77 149.77 38.34 150.35 37.72C151.21 36.83 151.49 35.54 151.49 33.72C151.49 33.72 154.01 34.27 154.01 35.35C154.01 37.84 151.37 39.56 149.58 39.56V39.5699Z" fill="black"/>
<path d="M156.28 36.31C155.63 36.31 154.8 36.25 154.74 35.57C154.74 35.57 157.84 33.73 158.98 33.73C159.9 33.73 160.52 34.34 160.52 35.17C160.52 36 160.46 37.08 160.4 38.24C160.4 39.44 160.34 43.04 160.31 44.85C160.92 43.62 162.68 41.22 165.14 41.22C168.89 41.22 170.77 44.17 170.77 48.23C170.77 54.16 166.77 56.96 162.68 56.96C160.13 56.96 158.38 56.5 157.36 55.7C157.11 55.42 157.15 54.07 157.15 53.7L156.9 36.27C156.9 36.27 156.62 36.3 156.29 36.3L156.28 36.31ZM160.31 46.18V46.55C160.31 50.85 160.4 55.03 160.4 55.03C160.83 55.98 162.67 55.98 162.74 55.98C165.57 55.98 167.14 52.29 167.14 48.88C167.14 44.76 165.73 43.35 164.13 43.35C162.16 43.35 160.87 45.44 160.32 46.18H160.31Z" fill="black"/>
<path d="M183.33 42.89C183.33 43.72 182.78 44.7 181.98 45.16C181.55 44.88 181.03 44.36 180.44 44.36C179.12 44.36 178.13 45.28 177.37 46.97L177.34 53.52C177.43 55.15 177.74 56.19 177.74 56.22C177.74 56.22 177.65 56.96 176.11 56.96C174.73 56.96 173.96 56.41 173.96 55.3C173.99 55.3 174.18 51.8 174.18 49.9799L173.93 43.77C173.93 43.77 173.65 43.8 173.31 43.8C172.67 43.8 171.84 43.74 171.77 43.06C171.77 43.06 174.87 41.22 176.01 41.22C176.93 41.22 177.55 41.84 177.55 42.67C177.55 43.65 177.46 44.88 177.43 45.41C178.23 43.44 179.86 41.2299 181.49 41.2299C182.54 41.2299 183.33 41.72 183.33 42.89Z" fill="black"/>
<path d="M185.11 43.8099C184.47 43.8099 183.64 43.7499 183.57 43.0699C183.57 43.0699 186.67 41.2299 187.81 41.2299C188.73 41.2299 189.35 41.8499 189.35 42.6799C189.35 43.5699 189.23 45.2599 188.98 51.3499C188.98 54.1499 189.56 54.7299 189.56 54.7299C189.96 54.5799 191.25 53.6499 191.25 53.6499C191.31 53.6499 191.59 53.7999 191.59 54.2999C191.59 55.3799 189.72 56.9699 188.05 56.9699C186.27 56.9699 185.74 54.9099 185.74 53.0299C185.74 51.6799 185.8 49.7099 185.8 48.1399V47.3999L185.71 43.7699C185.71 43.7699 185.43 43.7999 185.09 43.7999L185.11 43.8099ZM189.2 37.3199C189.2 38.6399 188.31 39.5599 187.11 39.5599C186.06 39.5599 185.45 38.6399 185.45 37.6499C185.45 36.3599 186.31 35.4099 187.51 35.4099C188.55 35.4099 189.2 36.2699 189.2 37.3199Z" fill="black"/>
<path d="M199.53 57.03C195.47 57.03 192.52 54.05 192.52 49.19C192.52 44.79 195.07 41.23 199.84 41.23C203.9 41.23 206.82 44 206.82 48.92C206.82 53.84 203.75 57.04 199.53 57.04V57.03ZM199.65 42.21C197.5 42.21 196.33 44.55 196.33 49.1C196.33 53.65 197.53 55.86 199.68 55.86C201.83 55.86 203 53.59 203 49.04C203 44.49 201.83 42.22 199.65 42.22V42.21Z" fill="black"/>
</svg>
