<svg width="226" height="78" viewBox="0 0 226 78" fill="none" xmlns="http://www.w3.org/2000/svg">
<path d="M33.19 9.09286C36.01 8.86286 38.65 7.98286 41.21 7.12286C43.82 6.25286 46.29 5.42287 48.83 5.30287C54.81 5.01287 57.1701 9.69287 59.9001 15.1129C61.1001 17.4929 62.34 19.9429 63.95 21.9829C65.25 23.6229 66.75 25.0729 68.2 26.4629C68.48 26.7329 68.7701 27.0129 69.0501 27.2829C69.4301 27.6529 69.8401 28.0129 70.2701 28.3929C71.5401 29.5129 72.9901 30.7929 73.4101 32.1429C74.2001 34.7229 72.8401 37.7629 71.5301 40.7029C70.4301 43.1529 69.3 45.6829 69.33 48.1129C69.35 49.6229 69.5601 51.2129 69.7701 52.7529C70.4001 57.4129 70.9901 61.8229 66.6801 64.6429C64.2501 66.2329 61.5401 67.3729 59.4301 67.6929C57.6201 67.9729 55.5501 67.6229 53.5501 67.2929C52.1001 67.0529 50.61 66.8029 49.2 66.7929C46.11 66.7629 42.6001 67.9429 38.8901 69.1929C31.0101 71.8429 23.56 74.3429 19.74 65.9929C19.19 64.7929 18.89 63.6329 18.61 62.5229C18.07 60.4129 17.5101 58.2229 15.2801 56.0029C14.1301 54.8529 12.6401 53.7429 11.0601 52.5729C7.7201 50.0829 3.92998 47.2629 3.81998 44.0429C3.73998 41.6129 5.34008 39.0629 7.04008 36.3729C8.36008 34.2729 9.73002 32.1029 10.36 29.8229C11.01 27.5029 11.1 24.8929 11.19 22.3629C11.35 17.8229 11.51 13.5329 14.57 10.7929C16.53 9.03286 19.17 8.58287 22 8.58287C23.57 8.58287 25.2 8.72287 26.82 8.86287C28.4 9.00287 30.0201 9.14287 31.5601 9.14287C32.1101 9.14287 32.6401 9.12287 33.1701 9.08287M48.6801 2.82286C45.8001 2.96286 43.0601 3.88287 40.4001 4.77287C37.9801 5.58287 35.48 6.41286 32.97 6.62286C31.18 6.76286 29.1701 6.59286 27.0301 6.40286C22.2201 5.98286 16.7701 5.51287 12.9201 8.95287C9.07008 12.3929 8.89 17.4129 8.71 22.2729C8.62 24.7629 8.54001 27.1129 7.97001 29.1529C7.43001 31.0829 6.16009 33.1029 4.93009 35.0529C3.11009 37.9429 1.22999 40.9329 1.32999 44.1229C1.46999 48.5329 5.7701 51.7329 9.5601 54.5529C11.0601 55.6729 12.48 56.7229 13.5 57.7529C15.25 59.4929 15.6601 61.1029 16.1801 63.1429C16.4801 64.3029 16.82 65.6229 17.46 67.0229C19.59 71.6829 22.8801 74.0229 27.5201 74.1829C27.6901 74.1829 27.8601 74.1829 28.0401 74.1829C31.7601 74.1829 35.7701 72.8329 39.6501 71.5329C43.1601 70.3529 46.4801 69.2329 49.1501 69.2629C50.3601 69.2729 51.7 69.4929 53.11 69.7329C55.3 70.1029 57.5701 70.4729 59.7701 70.1429C62.2101 69.7729 65.29 68.4829 68 66.7129C73.61 63.0429 72.8501 57.4029 72.1801 52.4229C71.9701 50.8929 71.78 49.4429 71.76 48.0829C71.74 46.2029 72.71 44.0229 73.74 41.7129C75.24 38.3529 76.79 34.8729 75.73 31.4129C75.11 29.3929 73.39 27.8729 71.87 26.5329C71.46 26.1729 71.07 25.8229 70.73 25.5029C70.44 25.2229 70.16 24.9529 69.87 24.6729C68.41 23.2729 67.04 21.9529 65.84 20.4429C64.38 18.6029 63.2001 16.2629 62.0601 13.9929C60.6701 11.2429 59.24 8.40286 57.25 6.29286C55.05 3.95286 52.4501 2.81287 49.3101 2.81287C49.1001 2.81287 48.8801 2.81287 48.6601 2.83287" fill="black"/>
<mask id="mask0_137_1418" style="mask-type:luminance" maskUnits="userSpaceOnUse" x="1" y="2" width="76" height="73">
<path d="M33.19 9.09286C36.01 8.86286 38.65 7.98286 41.21 7.12286C43.82 6.25286 46.29 5.42287 48.83 5.30287C54.81 5.01287 57.1701 9.69287 59.9001 15.1129C61.1001 17.4929 62.34 19.9429 63.95 21.9829C65.25 23.6229 66.75 25.0729 68.2 26.4629C68.48 26.7329 68.7701 27.0129 69.0501 27.2829C69.4301 27.6529 69.8401 28.0129 70.2701 28.3929C71.5401 29.5129 72.9901 30.7929 73.4101 32.1429C74.2001 34.7229 72.8401 37.7629 71.5301 40.7029C70.4301 43.1529 69.3 45.6829 69.33 48.1129C69.35 49.6229 69.5601 51.2129 69.7701 52.7529C70.4001 57.4129 70.9901 61.8229 66.6801 64.6429C64.2501 66.2329 61.5401 67.3729 59.4301 67.6929C57.6201 67.9729 55.5501 67.6229 53.5501 67.2929C52.1001 67.0529 50.61 66.8029 49.2 66.7929C46.11 66.7629 42.6001 67.9429 38.8901 69.1929C31.0101 71.8429 23.56 74.3429 19.74 65.9929C19.19 64.7929 18.89 63.6329 18.61 62.5229C18.07 60.4129 17.5101 58.2229 15.2801 56.0029C14.1301 54.8529 12.6401 53.7429 11.0601 52.5729C7.7201 50.0829 3.92998 47.2629 3.81998 44.0429C3.73998 41.6129 5.34008 39.0629 7.04008 36.3729C8.36008 34.2729 9.73002 32.1029 10.36 29.8229C11.01 27.5029 11.1 24.8929 11.19 22.3629C11.35 17.8229 11.51 13.5329 14.57 10.7929C16.53 9.03286 19.17 8.58287 22 8.58287C23.57 8.58287 25.2 8.72287 26.82 8.86287C28.4 9.00287 30.0201 9.14287 31.5601 9.14287C32.1101 9.14287 32.6401 9.12287 33.1701 9.08287M48.6801 2.82286C45.8001 2.96286 43.0601 3.88287 40.4001 4.77287C37.9801 5.58287 35.48 6.41286 32.97 6.62286C31.18 6.76286 29.1701 6.59286 27.0301 6.40286C22.2201 5.98286 16.7701 5.51287 12.9201 8.95287C9.07008 12.3929 8.89 17.4129 8.71 22.2729C8.62 24.7629 8.54001 27.1129 7.97001 29.1529C7.43001 31.0829 6.16009 33.1029 4.93009 35.0529C3.11009 37.9429 1.22999 40.9329 1.32999 44.1229C1.46999 48.5329 5.7701 51.7329 9.5601 54.5529C11.0601 55.6729 12.48 56.7229 13.5 57.7529C15.25 59.4929 15.6601 61.1029 16.1801 63.1429C16.4801 64.3029 16.82 65.6229 17.46 67.0229C19.59 71.6829 22.8801 74.0229 27.5201 74.1829C27.6901 74.1829 27.8601 74.1829 28.0401 74.1829C31.7601 74.1829 35.7701 72.8329 39.6501 71.5329C43.1601 70.3529 46.4801 69.2329 49.1501 69.2629C50.3601 69.2729 51.7 69.4929 53.11 69.7329C55.3 70.1029 57.5701 70.4729 59.7701 70.1429C62.2101 69.7729 65.29 68.4829 68 66.7129C73.61 63.0429 72.8501 57.4029 72.1801 52.4229C71.9701 50.8929 71.78 49.4429 71.76 48.0829C71.74 46.2029 72.71 44.0229 73.74 41.7129C75.24 38.3529 76.79 34.8729 75.73 31.4129C75.11 29.3929 73.39 27.8729 71.87 26.5329C71.46 26.1729 71.07 25.8229 70.73 25.5029C70.44 25.2229 70.16 24.9529 69.87 24.6729C68.41 23.2729 67.04 21.9529 65.84 20.4429C64.38 18.6029 63.2001 16.2629 62.0601 13.9929C60.6701 11.2429 59.24 8.40286 57.25 6.29286C55.05 3.95286 52.4501 2.81287 49.3101 2.81287C49.1001 2.81287 48.8801 2.81287 48.6601 2.83287" fill="white"/>
</mask>
<g mask="url(#mask0_137_1418)">
<path d="M76.84 2.81287H1.26001V74.3529H76.84V2.81287Z" fill="black"/>
</g>
<path d="M44.3802 74.1529C41.8202 73.4229 39.2801 72.4529 36.8201 71.5229C33.8501 70.3929 30.7901 69.2229 27.5901 68.4329C25.7001 67.9629 23.7702 67.5529 21.9102 67.1529C19.7802 66.7029 17.5801 66.2329 15.4501 65.6729C14.9901 65.5529 14.5202 65.4429 14.0602 65.3329C11.7302 64.7929 9.33017 64.2329 8.24017 62.3929C6.65017 59.7029 7.10014 56.3129 7.58014 52.7329C8.06014 49.1129 8.56021 45.3629 6.78021 42.2629C5.38021 39.8329 2.11014 34.1329 3.21014 30.2329C3.59014 28.8929 4.46017 27.8629 5.86017 27.0929C6.72017 26.6229 7.79023 26.4329 8.93023 26.2429C9.77023 26.0929 10.6402 25.9429 11.4802 25.6729C13.9702 24.8529 16.1102 23.3429 18.1802 21.8929C18.7502 21.4929 19.3002 21.1129 19.8502 20.7429C22.4502 19.0129 24.7802 16.1729 27.2602 13.1729C32.7402 6.52288 37.9302 0.232878 45.7602 5.40288C46.8702 6.13288 47.7401 6.96289 48.5801 7.77289C50.1501 9.26289 51.7702 10.8129 54.7202 11.5629C56.2802 11.9629 58.0802 12.1629 59.9802 12.3629C64.1902 12.8229 68.5501 13.3029 70.3301 15.9729C71.6901 18.0029 71.6802 21.0029 71.6702 24.1929C71.6702 26.6729 71.6601 29.2329 72.3301 31.5029C73.0101 33.8129 74.3201 36.0829 75.5801 38.2629C77.8501 42.2029 80.0002 45.9129 78.8502 49.8629C77.7102 53.7929 73.5302 55.9329 69.4902 58.0029C67.5802 58.9829 65.6002 59.9929 63.9902 61.1829C61.7202 62.8729 59.9402 65.0229 58.2302 67.1029C56.4802 69.2229 54.8302 71.2229 52.7502 72.6829C50.9202 73.9629 49.1902 74.5829 47.3002 74.5829C46.3702 74.5829 45.4102 74.4329 44.3702 74.1429M34.5002 2.63289C31.0602 4.63289 28.1401 8.17288 25.3201 11.5929C22.9701 14.4529 20.7401 17.1429 18.4501 18.6729C17.8701 19.0529 17.2902 19.4629 16.7302 19.8629C14.8102 21.2129 12.8202 22.6029 10.6802 23.3129C10.0102 23.5329 9.27016 23.6629 8.48016 23.7929C7.19016 24.0129 5.8602 24.2429 4.6402 24.9129C2.6502 26.0029 1.35022 27.5629 0.790221 29.5529C-0.429779 33.8729 2.03016 39.0129 4.60016 43.4829C5.97016 45.8629 5.54016 49.0329 5.10016 52.3929C4.59016 56.2329 4.06015 60.2129 6.09015 63.6329C7.71015 66.3829 10.7802 67.0929 13.4802 67.7229C13.9502 67.8329 14.3902 67.9329 14.8102 68.0429C16.9902 68.6129 19.2202 69.0929 21.3802 69.5529C23.2202 69.9429 25.1302 70.3529 26.9802 70.8129C30.0302 71.5729 33.0302 72.7129 35.9302 73.8129C38.4402 74.7629 41.0301 75.7529 43.6901 76.5129C44.9301 76.8629 46.1202 77.0429 47.2702 77.0429C49.6702 77.0429 51.9202 76.2729 54.1602 74.7029C56.5202 73.0529 58.3602 70.8229 60.1302 68.6629C61.8302 66.6029 63.4301 64.6629 65.4601 63.1529C66.9001 62.0829 68.7002 61.1629 70.6102 60.1829C74.9102 57.9829 79.7701 55.4929 81.2101 50.5329C82.6501 45.5729 80.1401 41.2229 77.7101 37.0029C76.4601 34.8429 75.2901 32.8029 74.6901 30.7729C74.1201 28.8429 74.1302 26.4629 74.1302 24.1629C74.1302 20.7529 74.1402 17.2229 72.3702 14.5629C69.9502 10.9429 64.7902 10.3729 60.2402 9.87288C58.4302 9.67288 56.7201 9.48289 55.3201 9.13289C52.9901 8.54289 51.7302 7.34289 50.2702 5.94289C49.3502 5.06289 48.3902 4.15289 47.1002 3.30289C44.7302 1.74289 42.4302 0.962891 40.1702 0.962891C38.2702 0.962891 36.3902 1.51289 34.5102 2.60289" fill="black"/>
<mask id="mask1_137_1418" style="mask-type:luminance" maskUnits="userSpaceOnUse" x="0" y="0" width="82" height="78">
<path d="M44.3802 74.1529C41.8202 73.4229 39.2801 72.4529 36.8201 71.5229C33.8501 70.3929 30.7901 69.2229 27.5901 68.4329C25.7001 67.9629 23.7702 67.5529 21.9102 67.1529C19.7802 66.7029 17.5801 66.2329 15.4501 65.6729C14.9901 65.5529 14.5202 65.4429 14.0602 65.3329C11.7302 64.7929 9.33017 64.2329 8.24017 62.3929C6.65017 59.7029 7.10014 56.3129 7.58014 52.7329C8.06014 49.1129 8.56021 45.3629 6.78021 42.2629C5.38021 39.8329 2.11014 34.1329 3.21014 30.2329C3.59014 28.8929 4.46017 27.8629 5.86017 27.0929C6.72017 26.6229 7.79023 26.4329 8.93023 26.2429C9.77023 26.0929 10.6402 25.9429 11.4802 25.6729C13.9702 24.8529 16.1102 23.3429 18.1802 21.8929C18.7502 21.4929 19.3002 21.1129 19.8502 20.7429C22.4502 19.0129 24.7802 16.1729 27.2602 13.1729C32.7402 6.52288 37.9302 0.232878 45.7602 5.40288C46.8702 6.13288 47.7401 6.96289 48.5801 7.77289C50.1501 9.26289 51.7702 10.8129 54.7202 11.5629C56.2802 11.9629 58.0802 12.1629 59.9802 12.3629C64.1902 12.8229 68.5501 13.3029 70.3301 15.9729C71.6901 18.0029 71.6802 21.0029 71.6702 24.1929C71.6702 26.6729 71.6601 29.2329 72.3301 31.5029C73.0101 33.8129 74.3201 36.0829 75.5801 38.2629C77.8501 42.2029 80.0002 45.9129 78.8502 49.8629C77.7102 53.7929 73.5302 55.9329 69.4902 58.0029C67.5802 58.9829 65.6002 59.9929 63.9902 61.1829C61.7202 62.8729 59.9402 65.0229 58.2302 67.1029C56.4802 69.2229 54.8302 71.2229 52.7502 72.6829C50.9202 73.9629 49.1902 74.5829 47.3002 74.5829C46.3702 74.5829 45.4102 74.4329 44.3702 74.1429M34.5002 2.63289C31.0602 4.63289 28.1401 8.17288 25.3201 11.5929C22.9701 14.4529 20.7401 17.1429 18.4501 18.6729C17.8701 19.0529 17.2902 19.4629 16.7302 19.8629C14.8102 21.2129 12.8202 22.6029 10.6802 23.3129C10.0102 23.5329 9.27016 23.6629 8.48016 23.7929C7.19016 24.0129 5.8602 24.2429 4.6402 24.9129C2.6502 26.0029 1.35022 27.5629 0.790221 29.5529C-0.429779 33.8729 2.03016 39.0129 4.60016 43.4829C5.97016 45.8629 5.54016 49.0329 5.10016 52.3929C4.59016 56.2329 4.06015 60.2129 6.09015 63.6329C7.71015 66.3829 10.7802 67.0929 13.4802 67.7229C13.9502 67.8329 14.3902 67.9329 14.8102 68.0429C16.9902 68.6129 19.2202 69.0929 21.3802 69.5529C23.2202 69.9429 25.1302 70.3529 26.9802 70.8129C30.0302 71.5729 33.0302 72.7129 35.9302 73.8129C38.4402 74.7629 41.0301 75.7529 43.6901 76.5129C44.9301 76.8629 46.1202 77.0429 47.2702 77.0429C49.6702 77.0429 51.9202 76.2729 54.1602 74.7029C56.5202 73.0529 58.3602 70.8229 60.1302 68.6629C61.8302 66.6029 63.4301 64.6629 65.4601 63.1529C66.9001 62.0829 68.7002 61.1629 70.6102 60.1829C74.9102 57.9829 79.7701 55.4929 81.2101 50.5329C82.6501 45.5729 80.1401 41.2229 77.7101 37.0029C76.4601 34.8429 75.2901 32.8029 74.6901 30.7729C74.1201 28.8429 74.1302 26.4629 74.1302 24.1629C74.1302 20.7529 74.1402 17.2229 72.3702 14.5629C69.9502 10.9429 64.7902 10.3729 60.2402 9.87288C58.4302 9.67288 56.7201 9.48289 55.3201 9.13289C52.9901 8.54289 51.7302 7.34289 50.2702 5.94289C49.3502 5.06289 48.3902 4.15289 47.1002 3.30289C44.7302 1.74289 42.4302 0.962891 40.1702 0.962891C38.2702 0.962891 36.3902 1.51289 34.5102 2.60289" fill="white"/>
</mask>
<g mask="url(#mask1_137_1418)">
<path d="M82.6702 0.23291H-0.389893V77.0629H82.6702V0.23291Z" fill="black"/>
</g>
<path d="M214.51 25.1629C214.59 24.7029 214.63 24.2229 214.63 23.7429C214.63 23.2629 214.59 22.7829 214.51 22.3229C213.84 18.2929 210.39 15.2129 206.24 15.2129C201.62 15.2129 197.85 19.0429 197.85 23.7429C197.85 28.4429 201.61 32.2729 206.24 32.2729C209.31 32.2729 211.99 30.5929 213.46 28.0829L210.62 27.2729C209.6 28.5829 208.02 29.4329 206.24 29.4329C203.64 29.4329 201.45 27.6229 200.83 25.1729H214.51V25.1629ZM200.83 22.3129C201.45 19.8629 203.64 18.0529 206.24 18.0529C208.84 18.0529 211.03 19.8629 211.65 22.3129H200.83Z" fill="black"/>
<path d="M113.07 24.2229L112.55 23.3729C113.48 22.8829 114.28 22.1929 114.92 21.3729C115.88 20.1329 116.45 18.5829 116.45 16.9029C116.45 15.2229 115.88 13.6629 114.92 12.4329C113.58 10.7029 111.48 9.58289 109.13 9.58289H100.32V31.9729H103.74V24.2229H109.07L113.84 31.9729H117.85L113.08 24.2229H113.07ZM103.73 15.1629V12.4329H109.13C111.6 12.4329 113.6 14.4329 113.6 16.9029C113.6 18.1429 113.1 19.2529 112.29 20.0629C111.93 20.4229 111.51 20.7229 111.05 20.9429C110.47 21.2229 109.82 21.3729 109.13 21.3729H103.73V15.1629Z" fill="black"/>
<path d="M174.49 23.7029V31.9629H171.07V23.7029C171.07 21.4929 169.28 19.7029 167.07 19.7029C164.86 19.7029 163.07 21.4929 163.07 23.7029V31.9629H159.65V8.94287H163.07V17.4529C164.22 16.7129 165.6 16.2829 167.07 16.2829C168.54 16.2829 169.91 16.7129 171.07 17.4529C173.12 18.7729 174.49 21.0729 174.49 23.6929" fill="black"/>
<path d="M131.84 15.4829V16.7729C130.42 15.7029 128.66 15.0729 126.75 15.0729C122.06 15.0729 118.24 18.8929 118.24 23.5829C118.24 28.2729 122.06 32.0929 126.75 32.0929C128.66 32.0929 130.42 31.4629 131.84 30.3929V31.9729H135.26V15.4829H131.84ZM126.75 29.2429C123.63 29.2429 121.09 26.7129 121.09 23.5829C121.09 20.4529 123.62 17.9229 126.75 17.9229C128.99 17.9229 130.92 19.2229 131.84 21.1029C132.2 21.8529 132.41 22.6929 132.41 23.5829C132.41 24.4729 132.2 25.3129 131.84 26.0629C130.92 27.9429 128.99 29.2429 126.75 29.2429Z" fill="black"/>
<path d="M191.26 15.4829V16.7729C189.84 15.7029 188.08 15.0729 186.17 15.0729C181.48 15.0729 177.66 18.8929 177.66 23.5829C177.66 28.2729 181.48 32.0929 186.17 32.0929C188.08 32.0929 189.84 31.4629 191.26 30.3929V31.9729H194.68V15.4829H191.26ZM186.17 29.2429C183.05 29.2429 180.51 26.7129 180.51 23.5829C180.51 20.4529 183.04 17.9229 186.17 17.9229C188.41 17.9229 190.34 19.2229 191.26 21.1029C191.62 21.8529 191.83 22.6929 191.83 23.5829C191.83 24.4729 191.62 25.3129 191.26 26.0629C190.34 27.9429 188.41 29.2429 186.17 29.2429Z" fill="black"/>
<path d="M147.96 15.1929C146.04 15.1929 144.27 15.8229 142.85 16.8929V15.4729H139.43V38.6129H142.85V30.5529C144.27 31.6229 146.04 32.2529 147.96 32.2529C152.67 32.2529 156.49 28.4329 156.49 23.7229C156.49 19.0129 152.67 15.1929 147.96 15.1929ZM147.96 29.4029C145.71 29.4029 143.77 28.0929 142.85 26.2029C142.49 25.4529 142.28 24.6129 142.28 23.7229C142.28 22.8329 142.49 21.9929 142.85 21.2429C143.77 19.3529 145.72 18.0429 147.96 18.0429C151.09 18.0429 153.64 20.5929 153.64 23.7229C153.64 26.8529 151.09 29.4029 147.96 29.4029Z" fill="black"/>
<path d="M225.15 31.2729C224.38 31.8729 223.41 32.2229 222.37 32.2229C221.84 32.2229 221.34 32.1329 220.87 31.9729C219.09 31.3529 217.82 29.6629 217.82 27.6729V8.95288H221.24V27.3729C221.22 27.4729 221.22 27.5629 221.22 27.6629C221.22 27.7629 221.22 27.8629 221.24 27.9529C221.38 28.8829 222.18 29.5929 223.14 29.5929C223.79 29.5929 224.37 29.2729 224.72 28.7729L225.16 31.2629L225.15 31.2729Z" fill="black"/>
<path d="M153.67 52.1329V54.9029C153.67 54.9029 153.57 54.9029 153.52 54.9029C150.47 54.9029 147.99 57.3829 147.99 60.4329V68.4629H144.67V52.4229H147.99V54.2429C149.46 52.9329 151.4 52.1329 153.52 52.1329C153.57 52.1329 153.62 52.1329 153.67 52.1329Z" fill="black"/>
<path d="M133.36 52.1628C128.86 52.1628 125.2 55.8828 125.2 60.4628C125.2 65.0428 128.86 68.7628 133.36 68.7628C137.86 68.7628 141.52 65.0428 141.52 60.4628C141.52 55.8828 137.86 52.1628 133.36 52.1628ZM133.36 65.9928C130.36 65.9928 127.92 63.5128 127.92 60.4628C127.92 57.4128 130.35 54.9328 133.36 54.9328C136.37 54.9328 138.79 57.4128 138.79 60.4628C138.79 63.5128 136.36 65.9928 133.36 65.9928Z" fill="black"/>
<path d="M163.49 52.1628C158.99 52.1628 155.33 55.8828 155.33 60.4628C155.33 65.0428 158.99 68.7628 163.49 68.7628C167.99 68.7628 171.65 65.0428 171.65 60.4628C171.65 55.8828 167.99 52.1628 163.49 52.1628ZM163.49 65.9928C160.49 65.9928 158.05 63.5128 158.05 60.4628C158.05 57.4128 160.48 54.9328 163.49 54.9328C166.5 54.9328 168.92 57.4128 168.92 60.4628C168.92 63.5128 166.49 65.9928 163.49 65.9928Z" fill="black"/>
<path d="M122.05 46.0729V68.4729H118.72V53.0329L113.07 63.4829H109.29L103.64 53.0329V68.4729H100.31V46.0729H103.64V46.0829L103.65 46.0729L111.18 59.9929L118.71 46.0729L118.72 46.0829V46.0729H122.05Z" fill="black"/>
<path d="M186.21 55.1929L177.45 65.7029H186.24V68.4729H173.12V65.7129V65.7029L181.88 55.1929H173.39V52.4229H186.24V55.1929H186.21Z" fill="black"/>
</svg>
