<svg width="219" height="50" viewBox="0 0 219 50" fill="none" xmlns="http://www.w3.org/2000/svg">
<path d="M39.38 20.4928C39.38 19.3528 38.93 18.2528 38.13 17.4428L22.79 2.03283C21.11 0.362834 18.4 0.362834 16.71 2.03283L13.18 5.58284C8.77001 6.20284 6.24 8.33284 4.96 11.1328V11.1728C4.96 11.1728 4.94001 11.2128 4.94001 11.2228C4.94001 11.3028 5 11.3628 5.07 11.3628C5.11 11.3628 5.14 11.3528 5.16 11.3228L5.20001 11.2628C6.55001 9.28283 8.55001 7.79283 11.62 7.12283C14.69 6.45283 18.88 6.64283 24.52 8.04283C25.46 8.29283 26.1 9.14284 26.08 10.1128C26.14 11.6128 25.09 13.2628 23.5 12.8228C13.44 10.3528 9.41 10.0928 5.81 12.9728L1.39001 17.4128C0.580005 18.2228 0.130005 19.3228 0.130005 20.4628C0.130005 21.6028 0.580005 22.7028 1.38 23.5128L16.72 38.9228C18.4 40.5928 21.11 40.5928 22.79 38.9228L26.32 35.3728C30.73 34.7528 33.26 32.6128 34.53 29.8228V29.7828C34.53 29.7828 34.53 29.7428 34.53 29.7328C34.53 29.6528 34.47 29.5928 34.39 29.5928C34.39 29.5928 34.33 29.6028 34.3 29.6228L34.26 29.6928C32.91 31.6728 30.91 33.1628 27.84 33.8228C24.77 34.4828 20.58 34.3028 14.95 32.9028C14.01 32.6528 13.37 31.8028 13.39 30.8328C13.32 29.3328 14.38 27.6828 15.97 28.1228C26.03 30.5828 30.05 30.8528 33.66 27.9728L38.08 23.5328C38.88 22.7228 39.33 21.6228 39.33 20.4828H39.36L39.38 20.4928Z" fill="black"/>
<path d="M132.46 18.1228C128.63 18.1228 125.48 21.5229 125.48 25.7029C125.48 29.8829 128.62 33.2928 132.46 33.2928C136.3 33.2928 139.44 29.8929 139.44 25.7129C139.44 21.5329 136.31 18.1329 132.46 18.1329M132.02 35.2829H131.86C126.63 35.2829 122.38 30.7028 122.38 25.0728C122.38 19.4428 126.63 14.8629 131.86 14.8629H132.02L132.71 14.9129C137.55 15.3929 141.34 19.8529 141.34 25.0829C141.34 30.3129 137.65 34.6728 132.91 35.2328L132.02 35.2928V35.2829Z" fill="black"/>
<path d="M209.89 18.1228C206.06 18.1228 202.91 21.5228 202.91 25.7028C202.91 29.8828 206.05 33.2928 209.89 33.2928C213.73 33.2928 216.87 29.8928 216.87 25.7128C216.87 21.5328 213.74 18.1328 209.89 18.1328M209.44 35.2828H209.3C204.03 35.2828 199.6 30.6128 199.6 25.0728C199.6 19.5328 204.02 14.8428 209.3 14.8428H209.46L210.16 14.8928C215.04 15.3728 218.86 19.8328 218.86 25.0628C218.86 30.2928 215.14 34.6528 210.36 35.2128L209.45 35.2928L209.44 35.2828Z" fill="black"/>
<path d="M162 34.8728H159.89V24.8028C160.02 21.4028 157.37 18.5328 153.97 18.3928C150.57 18.2628 147.7 20.9128 147.56 24.3128C147.56 24.4728 147.56 24.6328 147.56 24.8028V34.8728H143.44V24.6228C143.44 19.3528 147.6 15.0328 152.72 15.0328C157.84 15.0328 162 19.3428 162 24.6228V34.8728Z" fill="black"/>
<path d="M120.27 34.8728H118.17V24.8028C118.3 21.4028 115.65 18.5328 112.25 18.3928C108.85 18.2628 105.98 20.9128 105.84 24.3128C105.84 24.4728 105.84 24.6328 105.84 24.8028V34.8728H101.68V24.8028C101.77 21.4028 99.09 18.5628 95.69 18.4628C92.28 18.3628 89.45 21.0528 89.35 24.4528C89.35 24.5628 89.35 24.6828 89.35 24.7928V34.8628H85.23V24.6128C85.23 19.3428 89.39 15.0228 94.51 15.0228C98.02 15.0528 101.2 17.0628 102.75 20.2128C104.3 17.0628 107.49 15.0528 110.99 15.0228C116.1 15.0228 120.26 19.3328 120.26 24.6128V34.8628L120.27 34.8728Z" fill="black"/>
<path d="M167.73 22.8728H180.74C179.67 19.9928 177.1 18.0828 174.24 18.0828C171.28 18.1528 168.68 20.0728 167.74 22.8728M173.61 35.2628C168.39 35.2628 164.13 30.6828 164.13 25.0528C164.13 19.4228 168.38 14.8428 173.61 14.8428C177.76 14.8428 181.49 17.8428 182.69 22.1228V22.2028C182.85 22.8928 182.94 23.6028 182.93 24.3128V25.1028H167.26V25.6828C167.26 29.8528 170.4 33.2528 174.26 33.2528C177.09 33.2528 179.62 31.3828 180.71 28.4928L180.76 28.3728L180.97 28.2228H182.67L182.45 28.8228C180.99 32.7328 177.53 35.2728 173.62 35.2728" fill="black"/>
<path d="M62.56 35.3828C62.31 35.3828 62.05 35.3828 61.81 35.3428C58.47 35.3428 55.27 33.9828 52.95 31.5828C51.41 30.0228 50.37 28.0428 49.94 25.8928L49.89 25.6428H53.65V25.8628C53.65 27.3428 54.18 28.7728 55.16 29.8728C56.84 31.8328 59.29 32.9328 61.87 32.9028C67.04 32.6128 69.42 29.5528 69.92 26.8128C70.45 23.9328 69.18 21.7828 66.17 20.4428L59.75 17.6828C52.51 14.4528 52.77 8.62284 53.04 6.91284C53.72 2.25284 58.79 0.152832 62.21 0.152832C68.21 0.152832 71.95 3.79283 72.75 10.4028L72.78 10.6428H68.77V10.4428C68.39 5.37284 67.14 2.23283 62.09 2.23283C59.1 2.23283 57 4.15284 56.61 7.22284C56.35 9.22284 57.07 12.0128 61.93 13.8328L67.91 16.4828C70.9 17.5728 73.14 20.0928 73.86 23.1928C74.47 25.9128 73.76 28.7528 71.94 30.8628C68.99 34.1828 65.05 35.3628 62.57 35.3628" fill="black"/>
<path d="M197.47 34.8928H193.36V10.6328H189.21V34.8828H185.09V10.6328H181.26V8.49284H185.09V5.61284C185.03 4.47284 185.91 3.51284 187.05 3.45284C188.19 3.39284 189.15 4.27284 189.21 5.41284C189.21 5.48284 189.21 5.54284 189.21 5.61284V8.49284H193.36V5.61284C193.32 4.44284 194.24 3.45283 195.41 3.40283C196.52 3.40283 197.47 4.36284 197.47 5.14284V8.49284H206.65V10.6328H197.48V34.8828L197.47 34.8928Z" fill="black"/>
<path d="M79.7 10.9629C78.39 10.9729 77.32 9.92285 77.31 8.61285C77.3 7.30285 78.35 6.23285 79.66 6.22285C80.97 6.21285 82.04 7.26284 82.05 8.57284V8.59284C82.05 9.89284 81 10.9529 79.7 10.9629Z" fill="black"/>
<path d="M81.81 34.8729H77.6V16.9329C77.74 15.7729 78.79 14.9429 79.95 15.0729C80.92 15.1829 81.69 15.9529 81.81 16.9329V34.8729Z" fill="black"/>
<path d="M57.1 47.3928C57.1 47.7128 57.07 48.0328 56.99 48.3528C56.92 48.6428 56.79 48.9128 56.61 49.1428C56.42 49.3828 56.16 49.5628 55.88 49.6828C55.51 49.8228 55.12 49.8928 54.73 49.8828C54.51 49.8828 54.3 49.8628 54.08 49.8228C53.9 49.7828 53.72 49.7328 53.55 49.6728C53.41 49.6228 53.27 49.5528 53.14 49.4828C53.04 49.4328 52.95 49.3628 52.86 49.2928L53.25 48.4828C53.43 48.6128 53.61 48.7228 53.81 48.8128C54.08 48.9328 54.38 48.9928 54.67 48.9828C55.07 49.0228 55.47 48.8828 55.75 48.6028C56.02 48.2128 56.14 47.7528 56.09 47.2828V42.4528H57.09V47.3928H57.1Z" fill="black"/>
<path d="M66.19 49.7428C66.08 49.4228 65.96 49.1128 65.86 48.8128C65.75 48.5128 65.65 48.1928 65.54 47.8828H62.29L61.64 49.7428H60.6C60.88 48.9728 61.13 48.2528 61.38 47.6028C61.62 46.9428 61.86 46.3328 62.08 45.7428C62.31 45.1528 62.56 44.5928 62.77 44.0528C62.98 43.5128 63.25 42.9828 63.48 42.4628H64.4C64.65 42.9828 64.88 43.5128 65.11 44.0528C65.34 44.5928 65.59 45.1528 65.79 45.7428C66 46.3328 66.27 46.9528 66.5 47.6028C66.73 48.2528 66.98 48.9728 67.27 49.7428H66.18H66.19ZM65.23 47.0428C65.01 46.4328 64.79 45.8428 64.57 45.2728C64.35 44.7028 64.13 44.1528 63.89 43.6328C63.65 44.1628 63.41 44.7028 63.21 45.2728C63 45.8428 62.77 46.4328 62.56 47.0428H65.22H65.23Z" fill="black"/>
<path d="M74.45 46.6928C74.56 46.8328 74.7 47.0128 74.87 47.2428C75.04 47.4728 75.21 47.7228 75.39 48.0028C75.57 48.2828 75.75 48.5728 75.92 48.8728C76.09 49.1528 76.24 49.4428 76.37 49.7428H75.27C75.14 49.4728 74.98 49.2028 74.82 48.9328C74.66 48.6628 74.49 48.3928 74.34 48.1428C74.19 47.8928 74.01 47.6628 73.86 47.4428C73.71 47.2228 73.55 47.0328 73.42 46.8728C73.33 46.8728 73.24 46.8728 73.15 46.8728H71.97V49.7528H70.97V42.5628C71.28 42.4928 71.61 42.4428 71.93 42.4228C72.28 42.4028 72.6 42.3828 72.89 42.3828C73.7 42.3328 74.5 42.5328 75.19 42.9628C75.73 43.3728 76.03 44.0128 75.98 44.6928C75.99 45.1328 75.86 45.5628 75.61 45.9328C75.32 46.3028 74.91 46.5728 74.46 46.6928M72.94 43.2728C72.51 43.2728 72.19 43.2728 71.96 43.3028V46.0528H72.67C72.98 46.0528 73.29 46.0328 73.6 46.0028C73.84 45.9828 74.08 45.9128 74.29 45.8028C74.48 45.7128 74.63 45.5728 74.73 45.3928C74.84 45.1728 74.9 44.9228 74.88 44.6828C74.89 44.4428 74.84 44.2128 74.73 44.0028C74.63 43.8228 74.49 43.6728 74.31 43.5728C74.12 43.4628 73.91 43.3828 73.69 43.3528C73.44 43.3128 73.19 43.2928 72.93 43.2928" fill="black"/>
<path d="M86 46.0928C86.01 46.6528 85.91 47.2128 85.71 47.7328C85.53 48.1728 85.25 48.5728 84.89 48.8928C84.52 49.2028 84.09 49.4428 83.63 49.5728C83.11 49.7228 82.56 49.8028 82.02 49.8028C81.73 49.8028 81.41 49.8028 81.06 49.7628C80.74 49.7428 80.42 49.6928 80.1 49.6228V42.5528C80.42 42.4828 80.74 42.4328 81.06 42.4128C81.41 42.3928 81.73 42.3728 82.02 42.3728C82.56 42.3728 83.11 42.4428 83.63 42.6028C84.09 42.7428 84.52 42.9728 84.89 43.2928C85.25 43.6128 85.53 44.0028 85.71 44.4428C85.91 44.9728 86.01 45.5328 86 46.0928ZM82.11 48.9128C82.89 48.9728 83.66 48.7028 84.24 48.1728C85.17 46.9428 85.17 45.2428 84.24 44.0128C83.67 43.4828 82.89 43.2128 82.11 43.2728H81.13V48.8728H81.46C81.61 48.9028 81.82 48.9028 82.12 48.9028L82.11 48.9128Z" fill="black"/>
<path d="M91.1801 42.4528H90.1801V49.7328H91.1801V42.4528Z" fill="black"/>
<path d="M98.85 48.7329C98.78 48.5629 98.69 48.3529 98.58 48.0929C98.47 47.8329 98.35 47.5529 98.22 47.2529C98.09 46.9529 97.95 46.6429 97.8 46.3229C97.65 46.0029 97.51 45.7029 97.38 45.4129C97.25 45.1329 97.13 44.8729 97.02 44.6529C96.91 44.4229 96.81 44.2529 96.75 44.1429C96.67 44.9629 96.61 45.8629 96.56 46.8229C96.51 47.7829 96.47 48.7429 96.43 49.7429H95.45C95.48 49.1129 95.51 48.4729 95.55 47.8229C95.59 47.1729 95.62 46.5529 95.66 45.9329C95.7 45.3129 95.76 44.7029 95.81 44.1129C95.86 43.5229 95.92 42.9629 95.98 42.4429H96.86C97.05 42.7529 97.25 43.1129 97.46 43.5329C97.67 43.9529 97.89 44.3929 98.1 44.8529C98.32 45.3129 98.52 45.7729 98.72 46.2329L99.27 47.4929C99.44 47.1129 99.62 46.6929 99.82 46.2329C100.02 45.7729 100.22 45.3129 100.44 44.8529C100.66 44.3929 100.87 43.9529 101.08 43.5329C101.3 43.1129 101.49 42.7429 101.68 42.4429H102.56C102.8 44.7929 102.97 47.2229 103.09 49.7229H102.13C102.09 48.7429 102.05 47.7629 102 46.8029C101.95 45.8429 101.89 44.9429 101.81 44.1229C101.74 44.2329 101.65 44.4129 101.54 44.6329C101.43 44.8529 101.31 45.1129 101.18 45.3929C101.05 45.6729 100.91 45.9829 100.76 46.3029C100.61 46.6229 100.47 46.9329 100.34 47.2329C100.21 47.5329 100.09 47.8129 99.98 48.0729L99.7 48.7129H98.87L98.85 48.7329Z" fill="black"/>
<path d="M118.27 46.0928C118.28 46.6528 118.18 47.2128 117.98 47.7328C117.8 48.1728 117.52 48.5728 117.16 48.8928C116.79 49.2028 116.36 49.4428 115.9 49.5728C115.38 49.7228 114.83 49.8028 114.29 49.8028C114 49.8028 113.68 49.8028 113.33 49.7628C113.01 49.7428 112.69 49.6928 112.37 49.6228V42.5528C112.69 42.4828 113.01 42.4328 113.33 42.4128C113.67 42.3928 114 42.3728 114.29 42.3728C114.83 42.3728 115.38 42.4428 115.9 42.6028C116.36 42.7428 116.79 42.9728 117.16 43.2928C117.52 43.6128 117.8 44.0028 117.98 44.4428C118.18 44.9728 118.28 45.5328 118.27 46.0928ZM114.37 48.9128C115.15 48.9728 115.92 48.7028 116.5 48.1728C117.44 46.9428 117.44 45.2428 116.5 44.0128C115.93 43.4828 115.15 43.2128 114.37 43.2728H113.39V48.8728H113.72C113.87 48.9028 114.09 48.9028 114.37 48.9028" fill="black"/>
<path d="M127.03 49.7428C126.92 49.4228 126.8 49.1128 126.7 48.8128C126.59 48.5128 126.49 48.1928 126.38 47.8828H123.13L122.48 49.7428H121.44L122.22 47.6028C122.46 46.9528 122.7 46.3328 122.93 45.7428C123.16 45.1528 123.41 44.5928 123.62 44.0528C123.83 43.5128 124.1 42.9828 124.33 42.4628H125.25C125.5 42.9828 125.73 43.5128 125.96 44.0528C126.19 44.5928 126.42 45.1528 126.65 45.7428C126.89 46.3328 127.13 46.9528 127.35 47.6028L128.13 49.7428H127.03ZM126.07 47.0428C125.85 46.4328 125.63 45.8428 125.41 45.2728C125.19 44.7028 124.97 44.1528 124.73 43.6328C124.49 44.1628 124.25 44.7028 124.05 45.2728C123.84 45.8428 123.62 46.4328 123.4 47.0428H126.06H126.07Z" fill="black"/>
<path d="M133.61 49.0129C134.66 49.0129 135.18 48.6529 135.18 47.9229C135.18 47.7229 135.14 47.5229 135.04 47.3529C134.94 47.1929 134.81 47.0529 134.66 46.9429C134.49 46.8229 134.31 46.7229 134.12 46.6429C133.91 46.5529 133.7 46.4729 133.47 46.3929C133.22 46.3029 132.97 46.2029 132.73 46.0829C132.51 45.9729 132.3 45.8429 132.12 45.6729C131.95 45.5129 131.81 45.3229 131.71 45.1029C131.39 44.3129 131.58 43.4129 132.19 42.8229C132.7 42.4429 133.32 42.2529 133.96 42.2829C134.36 42.2829 134.75 42.3229 135.14 42.4229C135.42 42.4829 135.68 42.5929 135.92 42.7329L135.6 43.5629C135.4 43.4429 135.18 43.3529 134.96 43.2929C134.64 43.2029 134.3 43.1629 133.96 43.1629C133.78 43.1629 133.6 43.1829 133.42 43.2229C133.27 43.2629 133.12 43.3229 132.98 43.4129C132.86 43.4929 132.76 43.6029 132.69 43.7329C132.61 43.8829 132.57 44.0429 132.58 44.2129C132.58 44.3829 132.62 44.5429 132.69 44.6929C132.77 44.8329 132.88 44.9529 133.01 45.0429C133.16 45.1529 133.32 45.2429 133.49 45.3229C133.67 45.4129 133.87 45.4929 134.09 45.5729C134.4 45.6929 134.68 45.8229 134.94 45.9529C135.18 46.0729 135.41 46.2229 135.61 46.4029C135.8 46.5829 135.95 46.7929 136.05 47.0329C136.16 47.3129 136.22 47.6129 136.21 47.9129C136.24 48.4929 135.98 49.0429 135.52 49.3829C134.95 49.7529 134.28 49.9429 133.6 49.9029C133.34 49.9029 133.08 49.8829 132.82 49.8429C132.61 49.8129 132.4 49.7629 132.19 49.7029C132.03 49.6629 131.87 49.6029 131.71 49.5329C131.6 49.4829 131.5 49.4329 131.39 49.3829L131.69 48.5429C131.92 48.6629 132.16 48.7629 132.41 48.8429C132.79 48.9629 133.19 49.0129 133.59 49.0029" fill="black"/>
<path d="M149.98 49.7428C149.86 49.4228 149.75 49.1128 149.65 48.8128C149.54 48.5128 149.44 48.1928 149.33 47.8828H146.08L145.43 49.7428H144.39C144.66 48.9728 144.92 48.2528 145.17 47.6028C145.41 46.9528 145.65 46.3328 145.87 45.7428C146.1 45.1528 146.35 44.5928 146.56 44.0528C146.77 43.5128 147.04 42.9828 147.27 42.4628H148.19C148.44 42.9828 148.67 43.5128 148.9 44.0528C149.13 44.5928 149.36 45.1528 149.58 45.7428C149.81 46.3328 150.06 46.9528 150.29 47.6028C150.52 48.2528 150.77 48.9728 151.06 49.7428H149.97H149.98ZM149.02 47.0428C148.8 46.4328 148.58 45.8428 148.36 45.2728C148.14 44.7028 147.92 44.1528 147.68 43.6328C147.44 44.1628 147.2 44.7028 146.99 45.2728C146.78 45.8428 146.56 46.4328 146.35 47.0428H149.01H149.02Z" fill="black"/>
<path d="M157.94 48.7329C157.87 48.5629 157.78 48.3529 157.67 48.0929C157.56 47.8329 157.44 47.5529 157.31 47.2529C157.18 46.9529 157.04 46.6429 156.89 46.3229C156.75 46.0029 156.6 45.7029 156.47 45.4129C156.34 45.1329 156.22 44.8729 156.11 44.6529C156 44.4229 155.9 44.2529 155.84 44.1429C155.76 44.9629 155.7 45.8629 155.65 46.8229C155.6 47.7829 155.56 48.7429 155.52 49.7429H154.56C154.59 49.1129 154.62 48.4729 154.66 47.8229C154.69 47.1729 154.73 46.5529 154.77 45.9329C154.81 45.3129 154.87 44.7029 154.92 44.1129C154.97 43.5229 155.02 42.9629 155.09 42.4429H155.97C156.16 42.7529 156.36 43.1129 156.57 43.5329C156.78 43.9529 157 44.3929 157.21 44.8529C157.43 45.3129 157.63 45.7729 157.83 46.2329C158.03 46.6929 158.21 47.1129 158.38 47.4929L158.93 46.2329C159.13 45.7729 159.34 45.3129 159.55 44.8529C159.76 44.3929 159.98 43.9529 160.19 43.5329C160.41 43.1129 160.6 42.7429 160.79 42.4429H161.67C161.9 44.7929 162.08 47.2229 162.2 49.7229H161.22C161.19 48.7429 161.15 47.7629 161.09 46.8029C161.04 45.8429 160.98 44.9429 160.9 44.1229C160.83 44.2329 160.74 44.4129 160.63 44.6329C160.52 44.8629 160.4 45.1129 160.27 45.3929C160.14 45.6729 160 45.9829 159.85 46.3029C159.7 46.6229 159.56 46.9329 159.43 47.2329C159.3 47.5329 159.18 47.8129 159.07 48.0729C158.96 48.3329 158.86 48.5529 158.8 48.7129H157.97L157.94 48.7329Z" fill="black"/>
<path d="M166.42 49.7429V42.4529H170.79V43.3229H167.43V45.4929H170.43V46.3429H167.43V48.8729H171.05V49.7429H166.42ZM170.09 40.5629L168.65 42.0029L168.17 41.5629L169.49 39.9429L170.09 40.5629Z" fill="black"/>
<path d="M178.5 46.6929C178.61 46.8329 178.75 47.0129 178.92 47.2429C179.09 47.4729 179.26 47.7229 179.44 48.0029C179.62 48.2829 179.8 48.5729 179.97 48.8729C180.14 49.1529 180.29 49.4429 180.42 49.7429H179.32C179.19 49.4729 179.03 49.2029 178.87 48.9329C178.71 48.6629 178.54 48.3929 178.39 48.1429C178.24 47.8929 178.06 47.6629 177.91 47.4429C177.76 47.2229 177.6 47.0329 177.47 46.8729C177.38 46.8729 177.29 46.8729 177.2 46.8729H176.02V49.7529H175.02V42.5629C175.33 42.4929 175.66 42.4429 175.98 42.4229C176.32 42.4029 176.65 42.3829 176.94 42.3829C177.75 42.3229 178.56 42.5329 179.24 42.9629C179.77 43.3729 180.07 44.0229 180.03 44.6929C180.04 45.1329 179.91 45.5629 179.66 45.9329C179.37 46.3029 178.96 46.5729 178.5 46.6929ZM176.98 43.2729C176.56 43.2729 176.24 43.2729 176.02 43.3029V46.0529H176.71C177.02 46.0529 177.33 46.0329 177.64 46.0029C177.88 45.9829 178.12 45.9129 178.34 45.8029C178.52 45.7129 178.67 45.5729 178.78 45.3929C178.89 45.1729 178.95 44.9229 178.94 44.6829C178.94 44.4429 178.89 44.2129 178.78 44.0029C178.68 43.8229 178.54 43.6729 178.36 43.5729C178.17 43.4629 177.96 43.3929 177.74 43.3529C177.49 43.3129 177.23 43.2929 176.98 43.2929" fill="black"/>
<path d="M185.18 42.4528H184.18V49.7328H185.18V42.4528Z" fill="black"/>
<path d="M192.73 49.9029C192.26 49.9029 191.79 49.8229 191.35 49.6529C190.95 49.4929 190.58 49.2429 190.29 48.9229C189.98 48.5829 189.75 48.1729 189.61 47.7329C189.44 47.2129 189.36 46.6629 189.36 46.1029C189.36 45.5529 189.44 45.0029 189.63 44.4829C189.79 44.0429 190.05 43.6329 190.37 43.2929C190.67 42.9729 191.05 42.7229 191.46 42.5529C191.88 42.3829 192.33 42.2929 192.78 42.3029C193.05 42.3029 193.32 42.3229 193.58 42.3729C193.79 42.4029 194 42.4529 194.2 42.5129C194.35 42.5629 194.49 42.6129 194.63 42.6829L194.86 42.8129L194.57 43.6529C194.49 43.6029 194.4 43.5529 194.3 43.5229C194.19 43.4729 194.05 43.4229 193.9 43.3729C193.74 43.3229 193.58 43.2829 193.42 43.2529C193.25 43.2229 193.07 43.2029 192.89 43.2029C192.54 43.2029 192.19 43.2629 191.87 43.4029C191.57 43.5329 191.3 43.7229 191.09 43.9829C190.87 44.2529 190.71 44.5629 190.61 44.9029C190.49 45.3029 190.43 45.7129 190.44 46.1229C190.44 46.5229 190.48 46.9229 190.59 47.3029C190.68 47.6329 190.83 47.9529 191.04 48.2229C191.24 48.4829 191.49 48.6829 191.79 48.8129C192.12 48.9629 192.48 49.0329 192.84 49.0229C193.23 49.0229 193.61 48.9829 193.99 48.8829C194.22 48.8129 194.45 48.7229 194.67 48.6229L194.93 49.4629C194.85 49.5129 194.76 49.5629 194.67 49.5929C194.51 49.6529 194.35 49.7029 194.19 49.7429C193.98 49.8029 193.76 49.8429 193.54 49.8729C193.27 49.9129 193.01 49.9229 192.74 49.9229" fill="black"/>
<path d="M203.74 49.7428C203.63 49.4228 203.51 49.1128 203.41 48.8128C203.3 48.5128 203.2 48.1928 203.09 47.8828H199.85L199.2 49.7428H198.16C198.44 48.9728 198.69 48.2528 198.94 47.6028C199.18 46.9428 199.42 46.3328 199.64 45.7428C199.87 45.1528 200.12 44.5928 200.33 44.0528C200.54 43.5128 200.81 42.9828 201.04 42.4628H201.96C202.21 42.9828 202.44 43.5128 202.67 44.0528C202.9 44.5928 203.13 45.1528 203.35 45.7428C203.58 46.3328 203.83 46.9528 204.06 47.6028L204.84 49.7428H203.74ZM202.78 47.0428C202.56 46.4328 202.34 45.8428 202.12 45.2728C201.9 44.7028 201.68 44.1528 201.44 43.6328C201.2 44.1628 200.96 44.7028 200.76 45.2728C200.55 45.8428 200.32 46.4328 200.11 47.0428H202.77H202.78Z" fill="black"/>
<path d="M210.33 49.0128C211.38 49.0128 211.9 48.6528 211.9 47.9228C211.9 47.7228 211.86 47.5229 211.76 47.3529C211.67 47.1929 211.54 47.0529 211.39 46.9429C211.22 46.8229 211.04 46.7228 210.85 46.6428C210.64 46.5528 210.43 46.4728 210.2 46.3928C209.95 46.3028 209.7 46.2029 209.46 46.0829C209.24 45.9829 209.03 45.8428 208.85 45.6728C208.68 45.5128 208.54 45.3229 208.44 45.1029C208.34 44.8529 208.29 44.5828 208.29 44.3128C208.26 43.7428 208.5 43.1928 208.93 42.8128C209.44 42.4328 210.06 42.2429 210.69 42.2729C211.09 42.2729 211.49 42.3129 211.87 42.4129C212.14 42.4729 212.41 42.5829 212.65 42.7229L212.33 43.5529C212.13 43.4329 211.91 43.3428 211.68 43.2828C211.36 43.1928 211.02 43.1528 210.68 43.1528C210.5 43.1528 210.32 43.1729 210.14 43.2129C209.99 43.2529 209.84 43.3128 209.71 43.4028C209.59 43.4828 209.49 43.5929 209.41 43.7229C209.33 43.8729 209.3 44.0328 209.3 44.2028C209.3 44.3728 209.34 44.5328 209.41 44.6828C209.49 44.8228 209.6 44.9428 209.73 45.0328C209.88 45.1428 210.04 45.2428 210.21 45.3128C210.39 45.4028 210.59 45.4828 210.81 45.5628C211.12 45.6828 211.4 45.8129 211.66 45.9429C211.91 46.0629 212.13 46.2128 212.33 46.3928C212.52 46.5728 212.67 46.7829 212.77 47.0229C212.88 47.3029 212.93 47.6028 212.92 47.9028C212.95 48.4728 212.69 49.0328 212.24 49.3728C211.67 49.7428 211 49.9228 210.32 49.8928C210.06 49.8928 209.8 49.8729 209.54 49.8329C209.33 49.8029 209.12 49.7529 208.91 49.6929C208.75 49.6529 208.59 49.5929 208.43 49.5229C208.32 49.4829 208.22 49.4228 208.12 49.3728L208.42 48.5328C208.65 48.6528 208.89 48.7529 209.14 48.8329C209.52 48.9529 209.91 49.0029 210.3 48.9929" fill="black"/>
</svg>
