<svg width="193" height="49" viewBox="0 0 193 49" fill="none" xmlns="http://www.w3.org/2000/svg">
<path d="M6.45005 16.5C6.45005 18.01 8.29004 18.77 10.16 18.77C11.9 18.77 13.74 18.01 13.74 16.69C13.74 14.58 11.1301 14.48 9.42005 14.39C5.14005 14.14 0.860023 12.53 0.860023 7.92996C0.860023 3.13996 5.18003 0.709961 9.96003 0.709961C14.48 0.709961 19.06 3.13996 18.96 7.92996H13.24C13.21 6.41996 11.7 5.78996 10.06 5.78996C8.69003 5.78996 6.88004 6.13996 6.88004 7.80996C6.88004 9.28996 8.22003 9.63996 10.46 9.85996C15.45 10.27 19.79 11.37 19.79 16.73C19.79 21.36 15.01 23.79 10.22 23.79C5.43004 23.79 0.520032 21.46 0.620032 16.51H6.44004L6.45005 16.5Z" fill="black"/>
<path d="M22.3101 15.99V1.20996H28.4301V15.86C28.4301 17.69 30.1301 18.48 31.8701 18.48C33.5101 18.48 35.2501 17.69 35.2501 15.86V1.20996H41.3101V15.99C41.3101 20.94 36.7601 23.55 31.8401 23.55C26.9201 23.55 22.3101 20.93 22.3101 15.99Z" fill="black"/>
<path d="M44.49 23.24V1.17996C47.97 1.17996 51.35 1.14996 54.83 1.17996C60.45 1.17996 63.33 5.30996 63.23 9.46996C63.23 13.5 60.39 17.54 54.83 17.54H50.61V23.24H44.49ZM54.83 12.53C56.43 12.53 57.37 10.92 57.37 9.31996C57.37 7.73996 56.5 6.19996 54.83 6.19996H50.51V12.53H54.83Z" fill="black"/>
<path d="M80.09 6.22997H71.6L71.59 9.37997H79.42V14.42H71.59V18.01H80.39V23.27H65.47L65.48 1.21997H80.09V6.22997Z" fill="black"/>
<path d="M102.81 22.42V23.24H96.32L92.31 16.34H89.1V23.24H82.98V1.17996C86.46 1.17996 89.84 1.14996 93.29 1.17996C98.94 1.17996 101.72 5.11996 101.72 8.98996C101.68 11.51 100.55 13.94 98.24 15.42L102.82 22.41L102.81 22.42ZM93.24 11.64C94.95 11.64 95.78 10.25 95.78 8.86996C95.78 7.48996 94.98 6.18996 93.24 6.18996H88.99V11.64H93.24Z" fill="black"/>
<path d="M22.5401 25.6799H24.7101V47.7999H18.5901V37.6299L13.61 42.5399H12.9001L7.92007 37.6299V47.7999H1.80005V25.6799H3.97006L13.2701 35.2299L22.5401 25.6799Z" fill="black"/>
<path d="M33.55 45.06L32.2101 47.8H25.8201V47.01L36.5601 25.52H39.3701L50.0101 47.01V47.8H43.6901L42.3201 45.06H33.5601H33.55ZM35.5201 40.24H40.3701L37.9301 34.91L35.5201 40.24Z" fill="black"/>
<path d="M71.0201 46.95V47.77H64.5301L60.5201 40.87H57.3101V47.77H51.1901V25.71C54.6701 25.71 58.0501 25.68 61.4901 25.71C67.1401 25.71 69.9201 29.65 69.9201 33.52C69.8901 36.04 68.7501 38.47 66.4401 39.95L71.0201 46.94V46.95ZM61.4501 36.17C63.1601 36.17 63.9901 34.78 63.9901 33.4C63.9901 32.02 63.1901 30.72 61.4501 30.72H57.2001V36.17H61.4501Z" fill="black"/>
<path d="M110.57 30.7599H102.08V33.9099H109.91V38.9499H102.08V42.5399H110.88L110.87 47.7999H95.9501L95.9601 25.7499H110.58L110.57 30.7599Z" fill="black"/>
<path d="M112.89 30.7899V25.7499H130.28V30.7899H124.56V47.7999H118.64V30.7899H112.89Z" fill="black"/>
<path d="M144.27 43.1399V47.7999H132.19V43.1399H135.17V30.4099H132.46V25.7499H144V30.4099H141.29V43.1399H144.27Z" fill="black"/>
<path d="M152.83 36.43V47.8H146.71V25.65H148.62L160.83 36.52V25.75H166.95V47.87H165.14L152.83 36.43Z" fill="black"/>
<path d="M181.78 25.46C186.43 25.46 191.28 27.7 192.52 33.05H186.56C185.52 31.29 184.05 30.62 181.77 30.62C177.99 30.62 175.92 33.42 175.92 36.76C175.92 40.45 178.19 42.81 181.77 42.81C184.18 42.81 185.72 42.24 186.82 40.13H181.84V35.28H192.88C193.05 37.42 193.01 39.53 192.24 41.68C190.53 46.31 186.12 48.08 181.77 48.08C175.81 48.08 169.73 44.33 169.73 36.8C169.73 29.24 175.82 25.46 181.77 25.46" fill="black"/>
<path d="M82.92 41.0899L86.92 47.7999H94.42L87.34 37.4399L82.92 41.0899Z" fill="black"/>
<path d="M72.77 43.46V47.8H78.89V43.49L72.77 43.46Z" fill="black"/>
<path d="M78.89 33.94V27.49H72.77V41.84H78.89L109.14 16.88C109.69 16.43 109.09 15.58 108.48 15.95L78.89 33.95V33.94Z" fill="black"/>
</svg>
