<svg width="220" height="31" viewBox="0 0 220 31" fill="none" xmlns="http://www.w3.org/2000/svg">
<path d="M37.2701 29.6998H27.79C29.01 22.7998 30.24 15.9098 31.47 8.97979H31.0301C26.5401 8.97979 22.0601 8.97979 17.5701 8.97979C17.2401 8.97979 17.11 9.04979 17.05 9.39979C16.09 14.8898 15.1101 20.3798 14.1401 25.8598C13.9101 27.1298 13.6901 28.3998 13.4501 29.6898H3.97003C5.19003 22.7998 6.41008 15.9198 7.64008 8.97979H0.320068C0.800068 6.31979 1.27006 3.71979 1.75006 1.09979H49.4501C48.9701 3.72979 48.5001 6.33979 48.0201 8.96979C46.7701 8.96979 45.56 8.96979 44.35 8.96979C43.33 8.96979 42.31 8.96979 41.29 8.96979C41.02 8.96979 40.9301 9.04979 40.8801 9.31979C39.7001 16.0398 38.5001 22.7498 37.3101 29.4698C37.3001 29.5298 37.2801 29.5998 37.2601 29.6998" fill="black"/>
<path d="M151.87 0.369756C154.35 0.439756 156.94 0.889755 159.32 2.16976C162.6 3.92976 164.62 6.66976 165.25 10.2698C166.25 15.9498 164.92 21.0598 160.89 25.3298C158.55 27.8098 155.61 29.2998 152.27 29.9898C148.65 30.7398 145.04 30.6798 141.55 29.3798C137.09 27.7198 134.48 24.4898 133.81 19.8398C133.11 15.0098 134.19 10.5598 137.24 6.67976C139.75 3.47976 143.11 1.59976 147.09 0.769756C148.6 0.459756 150.13 0.339756 151.87 0.369756ZM143.46 16.5498C143.37 18.7698 144.61 20.7498 146.56 21.4898C148.95 22.3898 151.78 21.7198 153.51 19.8498C155.04 18.1898 155.73 16.1998 155.72 13.9898C155.71 11.5698 154.37 9.69975 152.21 9.11975C149.71 8.44975 147.49 9.03975 145.69 10.9098C144.17 12.4798 143.53 14.4198 143.46 16.5598" fill="black"/>
<path d="M71.6201 29.7198C73.3301 20.1498 75.0301 10.6398 76.7301 1.08978H77.1501C80.9801 1.08978 84.8101 1.08978 88.6501 1.08978C91.2201 1.08978 93.7102 1.54978 96.0302 2.66978C99.9202 4.54978 102.14 7.61978 102.53 11.8898C102.85 15.3498 102.23 18.6698 100.46 21.7098C98.4601 25.1498 95.4601 27.3798 91.7001 28.6598C89.6401 29.3598 87.5101 29.6998 85.3401 29.7098C80.8801 29.7298 76.4201 29.7098 71.9701 29.7098H71.6201M82.3001 21.6298C83.6501 21.6298 84.9401 21.6998 86.2301 21.6098C87.8901 21.4998 89.3701 20.8898 90.5701 19.7198C92.2901 18.0498 92.9601 15.9698 92.7601 13.6298C92.5501 11.1398 91.0201 9.49978 88.5201 9.13978C87.3601 8.96978 86.1601 9.03978 84.9901 8.97978C84.6601 8.95978 84.5601 9.07978 84.5101 9.38978C84.0201 12.1798 83.5101 14.9598 83.0001 17.7498C82.7701 19.0298 82.5401 20.3098 82.3001 21.6198" fill="black"/>
<path d="M124.86 18.0398C126.74 21.9398 128.61 25.7998 130.49 29.6998H119.86C119.37 28.4098 118.88 27.1198 118.39 25.8298C117.61 23.7798 116.83 21.7398 116.07 19.6798C115.94 19.3298 115.77 19.1798 115.4 19.2298C115.2 19.2598 115 19.2298 114.75 19.2298C114.6 20.0898 114.45 20.9298 114.31 21.7698C113.87 24.3198 113.44 26.8798 112.99 29.4298C112.97 29.5298 112.8 29.6898 112.69 29.6898C109.8 29.6998 106.9 29.6898 104.01 29.6898C103.97 29.6898 103.93 29.6698 103.84 29.6498C105.54 20.1398 107.24 10.6198 108.94 1.05975H109.38C113.14 1.05975 116.91 1.05975 120.67 1.05975C122.67 1.05975 124.63 1.28975 126.49 2.06975C129.29 3.24975 130.94 5.28975 131.15 8.31975C131.32 10.8298 130.81 13.1898 129.19 15.2098C128.18 16.4698 126.88 17.3098 125.36 17.8398C125.21 17.8898 125.06 17.9498 124.86 18.0198M116.77 8.39976C116.47 10.0798 116.19 11.6498 115.9 13.2798C117.22 13.2498 118.48 13.3898 119.69 13.0498C120.14 12.9298 120.59 12.7198 120.96 12.4398C121.75 11.8498 121.89 10.9898 121.72 10.0798C121.56 9.23976 120.95 8.75976 120.15 8.64976C119.04 8.49976 117.92 8.46975 116.77 8.38975" fill="black"/>
<path d="M177.84 20.3698C177.26 23.4998 176.69 26.5898 176.12 29.6998H166.72C168.42 20.1598 170.12 10.6398 171.83 1.08978H172.29C175.67 1.08978 179.06 1.08978 182.44 1.08978C184.64 1.08978 186.8 1.31978 188.87 2.12978C192.56 3.57978 194.47 6.67978 194.13 10.5898C193.98 12.3498 193.62 14.0398 192.65 15.5598C191.38 17.5598 189.5 18.7398 187.28 19.4598C185.06 20.1798 182.77 20.3798 180.45 20.3698C179.59 20.3698 178.74 20.3698 177.84 20.3698ZM179.06 13.3798C180.07 13.3298 181.02 13.3298 181.97 13.2298C182.69 13.1598 183.38 12.9398 183.95 12.4598C184.71 11.8298 184.87 10.9898 184.69 10.0798C184.53 9.26978 183.95 8.82978 183.18 8.60978C182.13 8.30978 181.06 8.41978 179.98 8.40978C179.68 10.0598 179.38 11.6698 179.07 13.3798" fill="black"/>
<path d="M44.6101 26.4698C46.8601 24.4098 48.9901 22.4698 51.1401 20.5098C52.2901 21.6698 53.6901 22.3298 55.2501 22.7198C56.3101 22.9798 57.3701 22.9998 58.4301 22.6898C58.5901 22.6498 58.7401 22.5898 58.8901 22.5198C60.1601 21.9098 60.2901 20.5298 59.1001 19.7798C58.4801 19.3898 57.7701 19.1198 57.0901 18.8298C55.7501 18.2798 54.3601 17.8398 53.0701 17.1998C51.2101 16.2898 49.8301 14.8698 49.3501 12.8098C48.6501 9.79978 49.2801 7.03978 51.2401 4.62978C53.0501 2.40978 55.4901 1.18978 58.2701 0.639782C62.4101 -0.180218 66.3801 0.309782 70.1201 2.30978C70.8501 2.69978 71.5001 3.24978 72.2501 3.76978C70.1701 5.75978 68.1801 7.65978 66.1601 9.58978C65.9201 9.37978 65.7001 9.15978 65.4501 8.98978C63.7101 7.77978 61.8501 7.38978 59.8401 8.22978C59.5201 8.35978 59.2302 8.64978 59.0302 8.92978C58.5602 9.58978 58.6801 10.4198 59.3701 10.8398C59.9901 11.2298 60.6801 11.5398 61.3801 11.7798C63.0601 12.3698 64.7201 12.9698 66.2301 13.9398C69.1901 15.8598 70.2401 18.5998 69.6801 21.9798C69.1101 25.4198 66.9601 27.6298 63.8701 29.0398C60.9301 30.3698 57.8301 30.7198 54.6301 30.3898C52.0501 30.1198 49.5801 29.4798 47.3101 28.2198C46.4101 27.7198 45.5801 27.0798 44.6401 26.4598" fill="black"/>
<path d="M192.12 26.4398C194.33 24.4198 196.46 22.4798 198.62 20.4998C199.32 21.2498 200.16 21.7698 201.08 22.1698C202.64 22.8398 204.23 23.1798 205.91 22.6898C206.13 22.6298 206.35 22.5398 206.54 22.4198C207.57 21.8198 207.69 20.5698 206.71 19.8998C206.05 19.4498 205.28 19.1498 204.53 18.8398C203.21 18.2898 201.83 17.8498 200.55 17.2298C198.67 16.3098 197.28 14.8898 196.8 12.8098C196.11 9.80978 196.73 7.06978 198.68 4.66978C200.49 2.44978 202.92 1.21978 205.7 0.669783C209.84 -0.150217 213.81 0.329782 217.55 2.31978C218.29 2.71978 218.95 3.26978 219.7 3.78978C217.61 5.77978 215.62 7.68978 213.66 9.55978C213.06 9.15978 212.52 8.69978 211.91 8.41978C210.4 7.72978 208.83 7.52978 207.27 8.25978C206.96 8.40978 206.66 8.67978 206.47 8.96978C206.01 9.63978 206.14 10.4498 206.83 10.8798C207.45 11.2698 208.15 11.5698 208.84 11.8198C210.34 12.3498 211.83 12.8698 213.2 13.6898C214.99 14.7598 216.46 16.1398 216.95 18.2098C217.78 21.7298 216.91 24.8198 214.15 27.2698C212.45 28.7798 210.41 29.6398 208.19 30.0898C203.2 31.1098 198.47 30.3898 194.05 27.8598C193.38 27.4698 192.78 26.9498 192.1 26.4598" fill="black"/>
</svg>
