<?xml version="1.0" encoding="UTF-8"?>
<svg id="Camada_1" data-name="Camada 1" xmlns="http://www.w3.org/2000/svg" viewBox="0 0 34 34">
  <defs>
    <style>
      .cls-1, .cls-2 {
        fill: #fff;
      }

      .cls-2 {
        fill-rule: evenodd;
      }
    </style>
  </defs>
  <path class="cls-1" d="m17,0C7.61,0,0,7.61,0,17s7.61,17,17,17,17-7.61,17-17S26.39,0,17,0Zm0,33.02C8.15,33.02.98,25.85.98,17S8.15.98,17,.98s16.02,7.17,16.02,16.02-7.17,16.02-16.02,16.02Z"/>
  <g>
    <path class="cls-1" d="m12.92,20.87c.26,0,.51-.02.75-.08.24-.05.45-.13.63-.26.18-.12.32-.28.43-.48.11-.2.16-.47.16-.78,0-.62-.18-1.07-.52-1.33-.35-.26-.81-.4-1.39-.4h-2.89v3.33h2.84Zm-.15-5.15c.47,0,.86-.11,1.17-.34.31-.22.45-.59.45-1.1,0-.28-.05-.51-.15-.69-.1-.18-.24-.32-.41-.42-.17-.1-.36-.17-.59-.21-.22-.04-.45-.06-.68-.06h-2.49v2.82h2.69,0Zm.34-4.88c.58,0,1.1.05,1.58.15.47.1.88.27,1.22.5.34.23.6.54.79.92.18.38.28.86.28,1.42,0,.61-.14,1.12-.41,1.52-.28.41-.69.74-1.23,1,.74.21,1.29.59,1.66,1.13.37.54.55,1.18.55,1.94,0,.61-.12,1.14-.35,1.58-.24.45-.56.81-.96,1.09-.4.28-.86.49-1.38.63-.51.13-1.04.2-1.58.2h-5.86v-12.09h5.7Z"/>
    <path class="cls-2" d="m12.92,20.87c.26,0,.51-.02.75-.08.24-.05.45-.13.63-.26.18-.12.32-.28.43-.48.11-.2.16-.47.16-.78,0-.62-.18-1.07-.52-1.34-.35-.26-.81-.4-1.39-.4h-2.89v3.33h2.84Zm-.15-5.15c.47,0,.86-.11,1.17-.34.31-.22.45-.59.45-1.1,0-.28-.05-.51-.15-.69-.1-.18-.24-.32-.41-.42-.17-.1-.36-.17-.59-.21-.22-.04-.45-.06-.68-.06h-2.49v2.82h2.69,0Zm.34-4.88c.58,0,1.1.05,1.58.15.47.1.88.27,1.22.5.34.23.6.54.79.92.18.38.28.86.28,1.42,0,.61-.14,1.12-.41,1.52-.28.41-.69.74-1.23,1,.74.21,1.29.59,1.66,1.13.37.54.55,1.18.55,1.94,0,.61-.12,1.14-.35,1.58-.24.45-.56.81-.96,1.09-.4.28-.86.49-1.38.63-.51.13-1.04.2-1.58.2h-5.86v-12.09h5.7Z"/>
    <path class="cls-1" d="m24.1,16.23c-.29-.32-.77-.49-1.36-.49-.38,0-.7.06-.96.2-.25.13-.45.29-.61.48-.16.19-.26.4-.32.62-.06.21-.1.41-.11.58h3.91c-.06-.61-.27-1.07-.55-1.38h0Zm-2.76,4.6c.36.35.88.53,1.55.53.48,0,.9-.12,1.26-.37.35-.24.56-.5.64-.78h2.12c-.34,1.05-.86,1.8-1.56,2.26-.7.45-1.54.68-2.53.68-.69,0-1.31-.11-1.87-.33-.56-.22-1.02-.53-1.41-.94-.38-.41-.68-.89-.89-1.46-.21-.56-.31-1.19-.31-1.86s.11-1.27.32-1.83c.22-.57.52-1.06.92-1.47s.87-.74,1.42-.98c.55-.24,1.16-.36,1.83-.36.74,0,1.39.14,1.95.43.55.29,1.01.67,1.36,1.16.36.48.61,1.04.77,1.66.16.62.21,1.27.17,1.95h-6.32c0,.69.23,1.35.6,1.7h0Z"/>
    <path class="cls-2" d="m24.1,16.23c-.29-.32-.77-.49-1.36-.49-.38,0-.7.06-.96.2-.25.13-.45.29-.61.48-.16.19-.26.4-.32.62-.06.21-.1.41-.11.58h3.91c-.06-.61-.27-1.07-.55-1.38h0Zm-2.76,4.6c.36.35.88.53,1.55.53.48,0,.9-.12,1.26-.37.35-.24.56-.5.64-.78h2.12c-.34,1.05-.86,1.8-1.56,2.26-.7.46-1.54.68-2.53.68-.69,0-1.31-.11-1.87-.33-.56-.22-1.02-.53-1.41-.94-.38-.41-.68-.89-.89-1.46-.21-.56-.31-1.19-.31-1.86s.11-1.27.32-1.83c.22-.57.52-1.05.92-1.47.4-.41.87-.74,1.42-.98.55-.24,1.16-.36,1.83-.36.74,0,1.39.14,1.95.43.55.29,1.01.67,1.36,1.16.36.48.61,1.04.77,1.66.16.62.21,1.27.17,1.95h-6.32c0,.69.23,1.35.6,1.7h0Z"/>
    <rect class="cls-1" x="20.25" y="11.65" width="4.9" height="1.19"/>
    <rect class="cls-1" x="20.25" y="11.65" width="4.9" height="1.19"/>
  </g>
</svg>