<?xml version="1.0" encoding="UTF-8"?>
<svg id="Camada_1" data-name="Camada 1" xmlns="http://www.w3.org/2000/svg" viewBox="0 0 34 34">
  <defs>
    <style>
      .cls-1 {
        fill: #fff;
      }

      .cls-2 {
        fill-rule: evenodd;
      }
    </style>
  </defs>
  <circle class="cls-1" cx="17" cy="17" r="17"/>
  <path d="m12.29,21.43c.3,0,.59-.03.85-.09.27-.06.51-.15.72-.29.2-.13.37-.32.49-.55.12-.23.18-.53.18-.9,0-.71-.2-1.22-.6-1.53-.4-.3-.93-.45-1.59-.45h-3.31v3.81h3.26Zm-.17-5.89c.54,0,.99-.13,1.34-.39.35-.26.52-.68.52-1.26,0-.32-.06-.59-.17-.79-.12-.21-.27-.37-.47-.48-.2-.12-.42-.2-.67-.24-.25-.05-.51-.07-.78-.07h-2.85v3.23h3.08,0Zm.39-5.59c.66,0,1.26.06,1.81.18.54.11,1.01.31,1.4.57.39.26.69.61.9,1.06.21.44.32.98.32,1.62,0,.7-.16,1.28-.47,1.74-.32.46-.79.85-1.41,1.14.85.24,1.48.68,1.9,1.29.42.62.63,1.36.63,2.22,0,.7-.13,1.31-.4,1.81-.27.51-.64.93-1.1,1.25-.46.33-.99.56-1.58.72-.58.15-1.19.23-1.81.23h-6.71v-13.84h6.53Z"/>
  <path class="cls-2" d="m12.29,21.43c.3,0,.59-.03.85-.09.27-.06.51-.15.72-.29.2-.13.37-.32.49-.55.12-.23.18-.53.18-.9,0-.71-.2-1.22-.6-1.53-.4-.3-.93-.45-1.59-.45h-3.31v3.81h3.26Zm-.17-5.89c.54,0,.99-.13,1.34-.39.35-.26.52-.68.52-1.26,0-.32-.06-.59-.17-.8-.12-.21-.27-.37-.47-.48-.2-.12-.42-.2-.67-.24-.25-.05-.51-.07-.78-.07h-2.85v3.23h3.08,0Zm.39-5.59c.66,0,1.26.06,1.81.18.54.11,1.01.31,1.4.57.39.26.69.61.9,1.06.21.44.32.98.32,1.62,0,.7-.16,1.28-.47,1.74-.32.46-.79.85-1.41,1.14.85.24,1.48.67,1.9,1.29.42.62.63,1.36.63,2.22,0,.7-.13,1.31-.4,1.82-.27.51-.64.93-1.1,1.25-.46.33-.99.56-1.58.72-.58.15-1.19.23-1.81.23h-6.71v-13.84h6.53Z"/>
  <path d="m25.09,16.12c-.33-.36-.88-.56-1.56-.56-.44,0-.8.07-1.1.23-.28.15-.52.34-.7.55-.18.22-.3.45-.37.71-.07.24-.11.46-.12.66h4.48c-.07-.7-.31-1.22-.63-1.59h0Zm-3.16,5.27c.41.4,1.01.6,1.78.6.56,0,1.03-.14,1.44-.42.4-.28.64-.58.74-.89h2.42c-.39,1.21-.98,2.07-1.79,2.59-.8.52-1.77.78-2.9.78-.79,0-1.5-.13-2.14-.38-.64-.25-1.17-.61-1.62-1.08-.44-.47-.78-1.02-1.02-1.67-.24-.65-.36-1.36-.36-2.14s.12-1.45.37-2.1c.25-.65.59-1.21,1.05-1.68s1-.84,1.62-1.12c.63-.27,1.32-.41,2.09-.41.85,0,1.59.16,2.23.5.63.33,1.15.77,1.56,1.33.41.56.7,1.19.88,1.9.18.71.24,1.45.19,2.23h-7.23c0,.79.27,1.54.68,1.94h0Z"/>
  <path class="cls-2" d="m25.09,16.12c-.33-.36-.88-.56-1.56-.56-.44,0-.8.07-1.1.23-.28.15-.52.34-.7.55-.18.22-.3.45-.37.71-.07.24-.11.46-.12.66h4.48c-.07-.7-.31-1.22-.63-1.59h0Zm-3.16,5.27c.41.4,1.01.6,1.78.6.56,0,1.03-.14,1.44-.42.4-.28.64-.58.74-.89h2.42c-.39,1.21-.98,2.07-1.79,2.58-.8.52-1.77.78-2.9.78-.79,0-1.5-.13-2.14-.38-.64-.25-1.17-.61-1.62-1.08-.44-.47-.78-1.02-1.02-1.67-.24-.65-.36-1.36-.36-2.14s.12-1.45.37-2.1c.25-.65.59-1.21,1.05-1.68.46-.47,1-.84,1.62-1.12.63-.27,1.32-.41,2.09-.41.85,0,1.59.16,2.23.5.63.33,1.15.77,1.56,1.33.41.56.7,1.19.88,1.9.18.71.24,1.45.19,2.23h-7.23c0,.79.27,1.54.68,1.94h0Z"/>
  <rect x="20.68" y="10.88" width="5.61" height="1.37"/>
  <rect x="20.68" y="10.88" width="5.61" height="1.37"/>
</svg>