<?xml version="1.0" encoding="UTF-8"?>
<svg id="Camada_1" data-name="Camada 1" xmlns="http://www.w3.org/2000/svg" viewBox="0 0 34 34">
  <defs>
    <style>
      .cls-1 {
        fill: #fff;
      }
    </style>
  </defs>
  <path class="cls-1" d="m17,0C7.62,0,0,7.62,0,17,0,24.68,5.1,31.17,12.08,33.27h0c1.55.47,3.17.72,4.92.72s3.45-.26,5.04-.76c3.46-1.07,6.46-3.22,8.58-6.06,2.12-2.84,3.38-6.36,3.38-10.17C34,7.62,26.39,0,17,0Zm4.75,32.31c-.17.05-.35.11-.52.14-.03-.07-.04-.14-.04-.22v-4.84c0-.64-.09-1.26-.32-1.86-.16-.45-.41-.85-.79-1.22.56-.1,1.08-.17,1.59-.28.78-.15,1.53-.41,2.25-.76,1.37-.69,2.4-1.72,2.96-3.16.78-1.99.97-4.04.38-6.13-.22-.78-.62-1.49-1.15-2.1-.13-.14-.14-.25-.09-.42.44-1.35.25-2.67-.23-3.98-.06-.15-.17-.17-.31-.17-.6,0-1.17.14-1.73.36-.82.3-1.58.71-2.32,1.18-.16.11-.31.14-.5.09-2.28-.6-4.56-.61-6.85-.15-.8.16-1.46.13-2.15-.35-.85-.57-1.81-.94-2.84-1.09-.17-.03-.3-.05-.41-.05l-.31.12c-.08.1-.14.25-.21.51-.38,1.21-.41,2.41-.08,3.63.06.17.03.29-.09.43-1,1.18-1.47,2.56-1.5,4.09,0,1.23.11,2.43.49,3.6.77,2.33,2.45,3.66,4.76,4.3.72.19,1.46.33,2.27.41-.22.25-.42.45-.56.7-.22.39-.37.8-.42,1.24-.02.18-.1.26-.25.33-1.89.77-3.57.24-4.66-1.49-.52-.81-1.23-1.37-2.2-1.56-.3-.06-.6-.07-.89.04-.25.1-.3.25-.14.47.12.15.26.28.43.39.95.58,1.54,1.45,1.97,2.44.64,1.53,1.82,2.25,3.43,2.38.72.06,1.44-.02,2.16-.18,0,.99-.02,2.09-.02,3.08v.02c0,.08,0,.15-.04.22-.16-.04-.32-.09-.48-.14h0C5.78,30.36.98,24.23.98,17,.98,8.16,8.16.98,17,.98s16.02,7.18,16.02,16.03c0,7.19-4.74,13.28-11.27,15.31Z"/>
</svg>