<?xml version="1.0" encoding="UTF-8"?>
<svg id="Camada_1" data-name="Camada 1" xmlns="http://www.w3.org/2000/svg" viewBox="0 0 34 34">
  <defs>
    <style>
      .cls-1 {
        fill: #fff;
      }
    </style>
  </defs>
  <path class="cls-1" d="m34,17c0,7.94-5.45,14.61-12.81,16.48-1.34.34-2.74.52-4.19.52s-2.79-.17-4.1-.5C5.49,31.67,0,24.97,0,17,0,7.61,7.61,0,17,0s17,7.61,17,17Z"/>
  <path d="m27.26,13.98c-.22-.78-.61-1.49-1.14-2.1-.13-.14-.15-.26-.09-.43.44-1.35.25-2.67-.23-3.97-.06-.16-.18-.18-.31-.18-.6-.01-1.17.15-1.73.36-.82.3-1.58.71-2.31,1.18-.17.1-.31.13-.51.08-2.27-.6-4.56-.61-6.85-.15-.8.16-1.45.12-2.15-.35-.85-.57-1.81-.94-2.84-1.09-.17-.03-.3-.05-.4-.05l-.31.12c-.08.09-.14.25-.21.51-.38,1.21-.41,2.41-.08,3.63.06.17.03.29-.09.43-1,1.18-1.46,2.56-1.49,4.09-.01,1.23.1,2.44.49,3.6.77,2.33,2.45,3.66,4.76,4.31.72.19,1.45.33,2.26.41-.22.25-.42.46-.56.71-.22.38-.36.8-.41,1.24-.02.18-.1.26-.25.33-1.89.77-3.57.24-4.66-1.49-.52-.81-1.23-1.37-2.2-1.56-.3-.06-.6-.07-.89.04-.25.1-.3.25-.14.47.12.16.27.28.44.39.94.58,1.54,1.45,1.97,2.44.63,1.53,1.82,2.25,3.42,2.38.73.06,1.44-.02,2.16-.18,0,.61,0,1.25,0,1.89v2.46c1.31.33,2.68.5,4.1.5s2.85-.18,4.19-.52v-6.1c0-.63-.08-1.26-.31-1.86-.17-.45-.41-.85-.79-1.21.55-.1,1.08-.18,1.59-.28.78-.16,1.53-.41,2.25-.77,1.37-.69,2.4-1.71,2.96-3.15.78-1.99.97-4.05.37-6.13Z"/>
</svg>