<?xml version="1.0" encoding="UTF-8"?>
<svg id="Camada_1" data-name="Camada 1" xmlns="http://www.w3.org/2000/svg" viewBox="0 0 34 34">
  <defs>
    <style>
      .cls-1 {
        fill: #fff;
      }
    </style>
  </defs>
  <circle class="cls-1" cx="17" cy="17" r="17"/>
  <g>
    <path d="m22.31,26.37h-10.62c-2.2,0-3.99-1.75-3.99-3.9v-10.94c0-2.15,1.79-3.9,3.99-3.9h10.62c2.2,0,3.99,1.75,3.99,3.9v10.94c0,2.15-1.79,3.9-3.99,3.9ZM11.69,9.24c-1.31,0-2.38,1.03-2.38,2.29v10.94c0,1.26,1.07,2.29,2.38,2.29h10.62c1.31,0,2.39-1.03,2.39-2.29v-10.94c0-1.27-1.07-2.29-2.39-2.29h-10.62Z"/>
    <path d="m17,21.86c-2.68,0-4.86-2.18-4.86-4.86s2.18-4.86,4.86-4.86,4.86,2.18,4.86,4.86-2.18,4.86-4.86,4.86Zm0-8.12c-1.8,0-3.26,1.46-3.26,3.26s1.46,3.26,3.26,3.26,3.26-1.46,3.26-3.26-1.46-3.26-3.26-3.26Z"/>
    <path d="m23.36,11.89c0,.63-.51,1.14-1.14,1.14s-1.14-.51-1.14-1.14.51-1.14,1.14-1.14,1.14.51,1.14,1.14Z"/>
  </g>
</svg>