<?xml version="1.0" encoding="UTF-8"?>
<svg id="Camada_1" data-name="Camada 1" xmlns="http://www.w3.org/2000/svg" viewBox="0 0 34 34">
  <defs>
    <style>
      .cls-1 {
        fill: #fff;
      }

      .cls-2 {
        fill-rule: evenodd;
      }
    </style>
  </defs>
  <circle class="cls-1" cx="17" cy="17" r="17"/>
  <path d="m17,6.6c-2.82,0-3.18.01-4.29.06-1.11.05-1.86.23-2.52.48-.68.27-1.26.62-1.84,1.2-.58.58-.93,1.16-1.2,1.84-.26.66-.43,1.42-.48,2.52s-.06,1.46-.06,4.29.01,3.18.06,4.29c.05,1.11.23,1.86.48,2.52.27.68.62,1.26,1.2,1.84.58.58,1.16.93,1.84,1.2.66.26,1.42.43,2.52.48,1.11.05,1.46.06,4.29.06s3.18-.01,4.29-.06c1.11-.05,1.86-.23,2.52-.48.68-.27,1.26-.62,1.84-1.2.58-.58.93-1.16,1.2-1.84.26-.66.43-1.42.48-2.52s.06-1.46.06-4.29-.01-3.18-.06-4.29c-.05-1.11-.22-1.86-.48-2.52-.27-.68-.62-1.26-1.2-1.84-.58-.58-1.16-.93-1.84-1.2-.66-.26-1.42-.43-2.52-.48-1.11-.05-1.46-.06-4.29-.06Zm0,1.87c2.78,0,3.1,0,4.2.06,1.01.05,1.56.22,1.93.36.48.19.83.41,1.2.78.36.36.59.71.78,1.2.14.37.31.92.36,1.93.05,1.1.06,1.43.06,4.2s0,3.1-.06,4.2c-.05,1.01-.22,1.56-.36,1.93-.19.48-.41.83-.78,1.2-.36.36-.71.59-1.2.78-.37.14-.92.31-1.93.36-1.1.05-1.42.06-4.2.06s-3.1,0-4.2-.06c-1.01-.05-1.56-.22-1.93-.36-.48-.19-.83-.41-1.2-.78-.36-.36-.59-.71-.78-1.2-.14-.37-.31-.92-.36-1.93-.05-1.1-.06-1.43-.06-4.2s0-3.1.06-4.2c.05-1.01.22-1.56.36-1.93.19-.48.41-.83.78-1.2.36-.36.71-.59,1.2-.78.37-.14.92-.31,1.93-.36,1.1-.05,1.43-.06,4.2-.06Z"/>
  <path class="cls-2" d="m17,6.6c-2.82,0-3.18.01-4.29.06-1.11.05-1.86.23-2.52.48-.68.27-1.26.62-1.84,1.2-.58.58-.93,1.16-1.2,1.84-.26.66-.43,1.42-.48,2.52-.05,1.11-.06,1.46-.06,4.29s.01,3.18.06,4.29c.05,1.11.22,1.86.48,2.52.27.68.62,1.26,1.2,1.84.58.58,1.16.93,1.84,1.2.66.26,1.42.43,2.52.48,1.11.05,1.46.06,4.29.06s3.18-.01,4.29-.06c1.11-.05,1.86-.23,2.52-.48.68-.27,1.26-.62,1.84-1.2.58-.58.93-1.16,1.2-1.84.26-.66.43-1.42.48-2.52s.06-1.46.06-4.29-.01-3.18-.06-4.29c-.05-1.11-.23-1.86-.48-2.52-.27-.68-.62-1.26-1.2-1.84-.58-.58-1.16-.93-1.84-1.2-.66-.26-1.42-.43-2.52-.48-1.11-.05-1.46-.06-4.29-.06Zm0,1.87c2.78,0,3.1.01,4.2.06,1.01.05,1.56.21,1.93.36.48.19.83.41,1.2.78.36.36.59.71.78,1.2.14.37.31.92.36,1.93.05,1.1.06,1.43.06,4.2s0,3.1-.06,4.2c-.05,1.01-.22,1.56-.36,1.93-.19.48-.41.83-.78,1.2-.36.36-.71.59-1.2.78-.37.14-.92.31-1.93.36-1.1.05-1.42.06-4.2.06s-3.1,0-4.2-.06c-1.01-.05-1.56-.21-1.93-.36-.48-.19-.83-.41-1.2-.78s-.59-.71-.78-1.2c-.14-.37-.31-.92-.36-1.93-.05-1.1-.06-1.43-.06-4.2s0-3.1.06-4.2c.05-1.01.22-1.56.36-1.93.19-.48.41-.83.78-1.2.36-.36.71-.59,1.2-.78.37-.14.92-.31,1.93-.36,1.1-.05,1.43-.06,4.2-.06Z"/>
  <path d="m17,20.47c-1.91,0-3.47-1.55-3.47-3.47s1.55-3.47,3.47-3.47,3.47,1.55,3.47,3.47-1.55,3.47-3.47,3.47Zm0-8.8c-2.95,0-5.34,2.39-5.34,5.34s2.39,5.34,5.34,5.34,5.34-2.39,5.34-5.34-2.39-5.34-5.34-5.34Z"/>
  <path d="m22.55,12.7c.69,0,1.25-.56,1.25-1.25s-.56-1.25-1.25-1.25-1.25.56-1.25,1.25.56,1.25,1.25,1.25Z"/>
</svg>