<?xml version="1.0" encoding="UTF-8"?>
<svg id="Camada_1" data-name="Camada 1" xmlns="http://www.w3.org/2000/svg" viewBox="0 0 34 34">
  <defs>
    <style>
      .cls-1 {
        fill: #fff;
      }
    </style>
  </defs>
  <circle class="cls-1" cx="17" cy="17" r="17"/>
  <path d="m12.62,24.92h-3.29v-10.57h3.29v10.57Zm-1.64-12.02c-1.06,0-1.91-.85-1.91-1.91s.85-1.9,1.91-1.9,1.91.85,1.91,1.9-.85,1.91-1.91,1.91Zm13.95,12.02h-3.28v-5.14c0-1.23-.02-2.8-1.71-2.8s-1.97,1.34-1.97,2.71v5.23h-3.28v-10.57h3.15v1.44h.04c.44-.83,1.51-1.71,3.11-1.71,3.33,0,3.94,2.19,3.94,5.04v5.8Z"/>
</svg>