<?xml version="1.0" encoding="UTF-8"?>
<svg id="Camada_1" data-name="Camada 1" xmlns="http://www.w3.org/2000/svg" viewBox="0 0 34 34">
  <defs>
    <style>
      .cls-1 {
        fill: #fff;
      }
    </style>
  </defs>
  <path class="cls-1" d="m17,0C7.61,0,0,7.61,0,17s7.61,17,17,17,17-7.61,17-17S26.39,0,17,0Zm0,33.02C8.15,33.02.98,25.85.98,17S8.15.98,17,.98s16.02,7.17,16.02,16.02-7.17,16.02-16.02,16.02Z"/>
  <path class="cls-1" d="m18.28,14.75c.27-.31.49-.61.77-.88.86-.81,1.87-1.21,3.05-1.2.65,0,1.29.05,1.92.23,1.43.41,2.26,1.4,2.66,2.8.3,1.05.35,2.13.35,3.21,0,2.28,0,4.56,0,6.84,0,.21-.06.27-.27.27-1.17,0-2.35,0-3.52,0-.21,0-.25-.06-.25-.26,0-2.17,0-4.34,0-6.51,0-.54-.04-1.09-.19-1.62-.28-.97-.98-1.47-2-1.42-1.39.07-2.12.76-2.29,2.18-.04.34-.06.68-.06,1.02,0,2.11,0,4.22,0,6.33,0,.21-.05.27-.27.27-1.18,0-2.37,0-3.55,0-.19,0-.24-.05-.24-.24,0-4.18,0-8.36,0-12.54,0-.21.07-.25.26-.25,1.12,0,2.25,0,3.37,0,.21,0,.26.07.26.26-.01.5,0,1,0,1.5h0Z"/>
  <path class="cls-1" d="m11.84,19.52c0,2.07,0,4.13,0,6.2,0,.23-.06.3-.29.3-1.17-.01-2.35,0-3.52,0-.19,0-.24-.05-.24-.24,0-4.19,0-8.37,0-12.56,0-.17.04-.23.22-.23,1.19,0,2.38,0,3.57,0,.23,0,.26.09.26.28,0,2.08,0,4.17,0,6.25h0Z"/>
  <path class="cls-1" d="m12.16,8.84c0,1.3-1.05,2.36-2.35,2.36s-2.34-1.06-2.35-2.34c0-1.29,1.06-2.36,2.35-2.36s2.34,1.05,2.34,2.33h0Z"/>
</svg>