<?xml version="1.0" encoding="UTF-8"?>
<svg id="Camada_1" data-name="Camada 1" xmlns="http://www.w3.org/2000/svg" viewBox="0 0 34 34">
  <defs>
    <style>
      .cls-1 {
        fill: #fff;
      }
    </style>
  </defs>
  <path class="cls-1" d="m17,0C7.61,0,0,7.61,0,17s7.61,17,17,17,17-7.61,17-17S26.39,0,17,0Zm0,33.02C8.15,33.02.98,25.85.98,17S8.15.98,17,.98s16.02,7.17,16.02,16.02-7.17,16.02-16.02,16.02Z"/>
  <g>
    <path class="cls-1" d="m17.1,7.69c-5.05,0-9.16,4.11-9.16,9.16,0,1.66.44,3.26,1.28,4.67l-1.48,4.78,5.06-1.37c1.32.7,2.79,1.07,4.3,1.07,5.05,0,9.16-4.11,9.16-9.16s-4.11-9.16-9.16-9.16Zm0,16.83c-1.51,0-2.91-.43-4.09-1.18l-.11.03-2.93.79.88-2.86c-.89-1.25-1.42-2.79-1.42-4.45,0-4.23,3.43-7.67,7.67-7.67s7.66,3.43,7.66,7.67-3.43,7.67-7.66,7.67Z"/>
    <path class="cls-1" d="m15.59,14.59s.27.41,0,.75c-.27.33-.49.59-.49.59,0,0-.24.17,0,.52.24.35,1.23,1.86,2.93,2.53,0,0,.52.22.75-.29l.54-.7s.13-.17.54,0c.41.17,1.72.81,1.72.81,0,0,.24.08.19.43-.05.35-.18,1.7-2.05,1.85,0,0-1.81.06-3.85-1.51-1.27-.98-2.17-2.21-2.67-3.07-.03-.06-.06-.11-.09-.17-.26-.52-.45-1.09-.42-1.65,0-.06,0-.13,0-.2.04-.61.29-1.34,1.21-1.76,0,0,.75-.11.88,0l.83,1.86Z"/>
  </g>
</svg>