<?xml version="1.0" encoding="UTF-8"?>
<svg id="Camada_1" data-name="Camada 1" xmlns="http://www.w3.org/2000/svg" viewBox="0 0 34 34">
  <defs>
    <style>
      .cls-1 {
        fill: #fff;
      }

      .cls-2 {
        fill-rule: evenodd;
      }
    </style>
  </defs>
  <circle class="cls-1" cx="17" cy="17" r="17"/>
  <path class="cls-2" d="m8.83,21.85l-.07-.13c-.88-1.53-1.35-3.28-1.35-5.06,0-5.58,4.54-10.12,10.12-10.12,2.71,0,5.25,1.05,7.16,2.97,1.91,1.91,2.97,4.46,2.97,7.16,0,5.58-4.54,10.12-10.12,10.12-1.69,0-3.37-.43-4.84-1.23l-.12-.07-5.1,1.34,1.36-4.98Zm4.09,2.61c1.39.83,2.98,1.26,4.61,1.26h.19c4.91-.1,8.87-4.13,8.87-9.06,0-2.42-.94-4.69-2.65-6.4-1.71-1.71-3.99-2.65-6.4-2.65-5,0-9.06,4.06-9.06,9.05,0,1.71.48,3.38,1.38,4.82l.13.2-1,3.65,3.74-.98.19.11Zm7.33-3.11c-.32,0-.62-.04-.91-.14-.39-.12-.86-.28-1.46-.54-1.52-.65-3.04-1.99-4.27-3.76l-.06-.08c-.17-.22-1-1.37-1-2.49,0-1.07.52-1.62.77-1.89.24-.26.44-.27.49-.27.17,0,.34,0,.49,0h.14s.06.04.14.24l.27.66c.23.57.5,1.21.54,1.3.05.09.03.12.02.14-.1.2-.13.27-.21.37l-.13.16c-.08.1-.17.2-.24.28-.13.12-.46.46-.17.96.19.33.73,1.19,1.52,1.9.87.78,1.65,1.12,2.02,1.28l.16.07c.17.08.31.12.44.12.21,0,.39-.09.55-.27.13-.15.66-.77.86-1.06.02-.02.04-.02.07-.02.04,0,.09.02.11.02.2.07,1.42.67,1.75.83,0,0,.37.19.38.19-.02.02-.01.42-.2.93-.15.43-1.04.95-1.49,1.02-.18.03-.37.05-.58.05Z"/>
</svg>