<?xml version="1.0" encoding="UTF-8"?>
<svg id="Camada_1" data-name="Camada 1" xmlns="http://www.w3.org/2000/svg" viewBox="0 0 34 34">
  <defs>
    <style>
      .cls-1 {
        fill: #fff;
      }

      .cls-2 {
        fill-rule: evenodd;
      }
    </style>
  </defs>
  <circle class="cls-1" cx="17" cy="17" r="17"/>
  <path d="m14.8,20.3v-6.6l5.72,3.3-5.72,3.3Zm12.75-8.6c-.25-.95-1-1.69-1.95-1.95-1.72-.46-8.6-.46-8.6-.46,0,0-6.88,0-8.6.46-.95.25-1.69,1-1.95,1.95-.46,1.72-.46,5.3-.46,5.3,0,0,0,3.58.46,5.3.25.95,1,1.69,1.95,1.95,1.72.46,8.6.46,8.6.46,0,0,6.88,0,8.6-.46.95-.25,1.69-1,1.95-1.95.46-1.72.46-5.3.46-5.3,0,0,0-3.58-.46-5.3Z"/>
  <path class="cls-2" d="m14.8,20.3v-6.6l5.72,3.3-5.72,3.3Zm12.75-8.6c-.25-.95-1-1.69-1.95-1.95-1.72-.46-8.6-.46-8.6-.46,0,0-6.88,0-8.6.46-.95.25-1.69,1-1.95,1.95-.46,1.72-.46,5.3-.46,5.3,0,0,0,3.58.46,5.3.25.95,1,1.69,1.95,1.95,1.72.46,8.6.46,8.6.46,0,0,6.88,0,8.6-.46.95-.25,1.69-1,1.95-1.95.46-1.72.46-5.3.46-5.3,0,0,0-3.58-.46-5.3Z"/>
</svg>