<?xml version="1.0" encoding="UTF-8"?>
<svg id="Camada_1" data-name="Camada 1" xmlns="http://www.w3.org/2000/svg" viewBox="0 0 34 34">
  <defs>
    <style>
      .cls-1, .cls-2 {
        fill: #fff;
      }

      .cls-2 {
        fill-rule: evenodd;
      }
    </style>
  </defs>
  <path class="cls-1" d="m17,0C7.61,0,0,7.61,0,17s7.61,17,17,17,17-7.61,17-17S26.39,0,17,0Zm0,33.02C8.15,33.02.98,25.85.98,17S8.15.98,17,.98s16.02,7.17,16.02,16.02-7.17,16.02-16.02,16.02Z"/>
  <path class="cls-1" d="m14.8,20.3v-6.6l5.72,3.3-5.72,3.3Zm12.75-8.6c-.25-.95-1-1.69-1.95-1.95-1.72-.46-8.6-.46-8.6-.46,0,0-6.88,0-8.6.46-.95.25-1.69,1-1.95,1.95-.46,1.72-.46,5.3-.46,5.3,0,0,0,3.58.46,5.3.25.95,1,1.69,1.95,1.95,1.72.46,8.6.46,8.6.46,0,0,6.88,0,8.6-.46.95-.25,1.69-1,1.95-1.95.46-1.72.46-5.3.46-5.3,0,0,0-3.58-.46-5.3Z"/>
  <path class="cls-2" d="m14.8,20.3v-6.6l5.72,3.3-5.72,3.3Zm12.75-8.6c-.25-.95-1-1.69-1.95-1.95-1.72-.46-8.6-.46-8.6-.46,0,0-6.88,0-8.6.46-.95.25-1.69,1-1.95,1.95-.46,1.72-.46,5.3-.46,5.3,0,0,0,3.58.46,5.3.25.95,1,1.69,1.95,1.95,1.72.46,8.6.46,8.6.46,0,0,6.88,0,8.6-.46.95-.25,1.69-1,1.95-1.95.46-1.72.46-5.3.46-5.3,0,0,0-3.58-.46-5.3Z"/>
</svg>