<?xml version="1.0" encoding="UTF-8"?>
<svg id="Camada_1" data-name="Camada 1" xmlns="http://www.w3.org/2000/svg" viewBox="0 0 34 34">
  <defs>
    <style>
      .cls-1 {
        fill: #fff;
      }
    </style>
  </defs>
  <path class="cls-1" d="m17,0C7.61,0,0,7.61,0,17s7.61,17,17,17,17-7.61,17-17S26.39,0,17,0Zm0,33.02C8.15,33.02.98,25.85.98,17S8.15.98,17,.98s16.02,7.17,16.02,16.02-7.17,16.02-16.02,16.02Z"/>
  <path class="cls-1" d="m23.6,10.49h-13.2c-1.51,0-2.73,1.22-2.73,2.73v7.56c0,1.51,1.22,2.73,2.73,2.73h13.2c1.51,0,2.73-1.22,2.73-2.73v-7.56c0-1.51-1.22-2.73-2.73-2.73Zm-8.53,8.96v-5.28l5.06,2.64-5.06,2.64Z"/>
</svg>