<svg width="900" height="648" viewBox="0 0 900 648" fill="none" xmlns="http://www.w3.org/2000/svg">
<path d="M449.23 574.46C585.771 574.46 696.46 463.771 696.46 327.23C696.46 190.689 585.771 80 449.23 80C312.689 80 202 190.689 202 327.23C202 463.771 312.689 574.46 449.23 574.46Z" stroke="black" stroke-width="3" stroke-miterlimit="10"/>
<path d="M345.333 27H341.561V16.6729L341.597 14.9761L341.658 13.1206C341.032 13.7472 340.596 14.1582 340.352 14.3535L338.302 16.0015L336.483 13.731L342.232 9.15332H345.333V27ZM350.716 25.2544C350.716 24.5708 350.899 24.054 351.265 23.7041C351.632 23.3542 352.165 23.1792 352.865 23.1792C353.54 23.1792 354.061 23.3582 354.427 23.7163C354.801 24.0744 354.989 24.5871 354.989 25.2544C354.989 25.8973 354.801 26.4059 354.427 26.7803C354.053 27.1465 353.532 27.3296 352.865 27.3296C352.181 27.3296 351.652 27.1506 351.278 26.7925C350.903 26.4263 350.716 25.9136 350.716 25.2544ZM377.921 27L376.627 22.752H370.121L368.827 27H364.75L371.049 9.08008H375.675L381.999 27H377.921ZM375.724 19.5781C374.528 15.7288 373.852 13.5519 373.698 13.0474C373.551 12.5428 373.445 12.144 373.38 11.8511C373.112 12.8927 372.343 15.4684 371.073 19.5781H375.724ZM395.312 27H391.588V19.0288C391.588 18.0441 391.413 17.3076 391.063 16.8193C390.714 16.3229 390.156 16.0747 389.391 16.0747C388.349 16.0747 387.597 16.4246 387.133 17.1245C386.669 17.8162 386.437 18.9678 386.437 20.5791V27H382.714V13.3525H385.558L386.059 15.0981H386.266C386.681 14.439 387.251 13.9425 387.975 13.6089C388.708 13.2671 389.538 13.0962 390.465 13.0962C392.052 13.0962 393.257 13.5275 394.079 14.3901C394.901 15.2446 395.312 16.4816 395.312 18.1011V27ZM406.562 27L405.841 25.1445H405.744C405.117 25.9339 404.47 26.4832 403.803 26.7925C403.144 27.0936 402.281 27.2441 401.215 27.2441C399.905 27.2441 398.871 26.8698 398.114 26.1211C397.366 25.3724 396.991 24.3063 396.991 22.9229C396.991 21.4743 397.496 20.4082 398.505 19.7246C399.522 19.0329 401.052 18.6504 403.095 18.5771L405.463 18.5039V17.9058C405.463 16.5223 404.755 15.8306 403.339 15.8306C402.248 15.8306 400.967 16.1602 399.494 16.8193L398.261 14.3047C399.831 13.4827 401.573 13.0718 403.485 13.0718C405.316 13.0718 406.72 13.4705 407.697 14.2681C408.673 15.0656 409.162 16.2782 409.162 17.9058V27H406.562ZM405.463 20.6768L404.022 20.7256C402.94 20.7581 402.134 20.9535 401.605 21.3115C401.076 21.6696 400.812 22.2148 400.812 22.9473C400.812 23.9971 401.414 24.522 402.619 24.522C403.481 24.522 404.169 24.2738 404.682 23.7773C405.202 23.2809 405.463 22.6217 405.463 21.7998V20.6768ZM401.325 11.8511V11.5215C402.724 9.89388 403.681 8.66911 404.193 7.84717H408.368V8.10352C407.945 8.52669 407.221 9.15739 406.195 9.99561C405.178 10.8257 404.381 11.4442 403.803 11.8511H401.325ZM415.48 27H411.757V8.00586H415.48V27ZM417.99 9.82471C417.99 8.61214 418.665 8.00586 420.016 8.00586C421.367 8.00586 422.042 8.61214 422.042 9.82471C422.042 10.4025 421.872 10.8542 421.53 11.1797C421.196 11.4971 420.692 11.6558 420.016 11.6558C418.665 11.6558 417.99 11.0454 417.99 9.82471ZM421.872 27H418.148V13.3525H421.872V27ZM434.062 22.9473C434.062 24.347 433.573 25.4131 432.597 26.1455C431.628 26.8779 430.176 27.2441 428.239 27.2441C427.246 27.2441 426.4 27.175 425.7 27.0366C425 26.9064 424.345 26.7111 423.734 26.4507V23.3745C424.426 23.7 425.203 23.9727 426.066 24.1924C426.937 24.4121 427.702 24.522 428.361 24.522C429.712 24.522 430.387 24.1313 430.387 23.3501C430.387 23.0571 430.298 22.8211 430.119 22.6421C429.94 22.4549 429.63 22.2474 429.191 22.0195C428.751 21.7835 428.166 21.5109 427.433 21.2017C426.383 20.7622 425.61 20.3553 425.114 19.981C424.625 19.6066 424.267 19.1794 424.04 18.6992C423.82 18.2109 423.71 17.6128 423.71 16.9048C423.71 15.6922 424.178 14.7563 425.114 14.0972C426.058 13.4299 427.392 13.0962 429.118 13.0962C430.762 13.0962 432.361 13.4543 433.915 14.1704L432.792 16.856C432.108 16.563 431.47 16.3229 430.875 16.1357C430.281 15.9486 429.675 15.855 429.057 15.855C427.958 15.855 427.409 16.152 427.409 16.7461C427.409 17.0798 427.584 17.3687 427.934 17.6128C428.292 17.8569 429.069 18.2191 430.265 18.6992C431.331 19.1305 432.112 19.5334 432.609 19.9077C433.105 20.2821 433.472 20.7134 433.708 21.2017C433.944 21.6899 434.062 22.2718 434.062 22.9473ZM441.369 15.7451C440.579 15.7451 439.961 15.9974 439.513 16.502C439.066 16.9984 438.809 17.7064 438.744 18.626H443.969C443.952 17.7064 443.712 16.9984 443.249 16.502C442.785 15.9974 442.158 15.7451 441.369 15.7451ZM441.894 27.2441C439.696 27.2441 437.979 26.6379 436.742 25.4253C435.505 24.2127 434.887 22.4956 434.887 20.2739C434.887 17.9871 435.456 16.2212 436.596 14.9761C437.743 13.7228 439.326 13.0962 441.344 13.0962C443.273 13.0962 444.774 13.6455 445.849 14.7441C446.923 15.8428 447.46 17.3605 447.46 19.2974V21.104H438.659C438.699 22.1619 439.013 22.988 439.599 23.582C440.185 24.1761 441.007 24.4731 442.064 24.4731C442.886 24.4731 443.664 24.3877 444.396 24.2168C445.128 24.0459 445.893 23.7733 446.691 23.3989V26.2798C446.04 26.6053 445.344 26.8454 444.604 27C443.863 27.1628 442.96 27.2441 441.894 27.2441ZM471.278 27H466.676L465.272 25.6206C463.718 26.703 461.96 27.2441 459.999 27.2441C458.013 27.2441 456.439 26.7884 455.275 25.877C454.111 24.9655 453.529 23.7326 453.529 22.1782C453.529 21.0633 453.773 20.1152 454.262 19.334C454.758 18.5446 455.604 17.8081 456.801 17.1245C456.19 16.4246 455.747 15.7573 455.47 15.1226C455.194 14.4797 455.055 13.7798 455.055 13.0229C455.055 11.786 455.527 10.7891 456.471 10.0322C457.423 9.27539 458.693 8.89697 460.28 8.89697C461.793 8.89697 463.002 9.25098 463.905 9.95898C464.817 10.6589 465.272 11.5988 465.272 12.7788C465.272 13.7472 464.992 14.6343 464.43 15.4399C463.869 16.2375 462.961 16.9984 461.708 17.7227L465.175 21.104C465.753 20.1519 466.253 18.9271 466.676 17.4297H470.558C470.265 18.5283 469.862 19.6025 469.35 20.6523C468.837 21.694 468.255 22.6177 467.604 23.4233L471.278 27ZM457.448 21.8242C457.448 22.5241 457.708 23.0815 458.229 23.4966C458.758 23.9116 459.433 24.1191 460.255 24.1191C461.281 24.1191 462.204 23.8709 463.026 23.3745L458.974 19.3462C458.502 19.7043 458.127 20.0786 457.851 20.4692C457.582 20.8599 457.448 21.3115 457.448 21.8242ZM461.83 13.1694C461.83 12.7381 461.684 12.4004 461.391 12.1562C461.098 11.904 460.719 11.7778 460.255 11.7778C459.71 11.7778 459.279 11.908 458.961 12.1685C458.652 12.4289 458.498 12.7992 458.498 13.2793C458.498 13.9954 458.884 14.7848 459.657 15.6475C460.357 15.2568 460.894 14.8743 461.269 14.5C461.643 14.1175 461.83 13.674 461.83 13.1694ZM477.519 27V9.15332H481.303V27H477.519ZM496.471 27H492.748V19.0288C492.748 18.0441 492.581 17.3076 492.248 16.8193C491.922 16.3229 491.405 16.0747 490.697 16.0747C489.745 16.0747 489.053 16.4246 488.622 17.1245C488.191 17.8244 487.975 18.9759 487.975 20.5791V27H484.252V13.3525H487.096L487.597 15.0981H487.804C488.17 14.4715 488.699 13.9832 489.391 13.6333C490.083 13.2752 490.876 13.0962 491.771 13.0962C493.814 13.0962 495.198 13.7635 495.922 15.0981H496.251C496.618 14.4634 497.155 13.971 497.863 13.6211C498.579 13.2712 499.385 13.0962 500.28 13.0962C501.826 13.0962 502.994 13.495 503.783 14.2925C504.581 15.0819 504.979 16.3514 504.979 18.1011V27H501.244V19.0288C501.244 18.0441 501.077 17.3076 500.744 16.8193C500.418 16.3229 499.901 16.0747 499.193 16.0747C498.282 16.0747 497.598 16.4002 497.143 17.0513C496.695 17.7023 496.471 18.7358 496.471 20.1519V27ZM513.214 15.7451C512.425 15.7451 511.806 15.9974 511.359 16.502C510.911 16.9984 510.655 17.7064 510.59 18.626H515.814C515.798 17.7064 515.558 16.9984 515.094 16.502C514.63 15.9974 514.004 15.7451 513.214 15.7451ZM513.739 27.2441C511.542 27.2441 509.825 26.6379 508.588 25.4253C507.351 24.2127 506.732 22.4956 506.732 20.2739C506.732 17.9871 507.302 16.2212 508.441 14.9761C509.589 13.7228 511.172 13.0962 513.19 13.0962C515.119 13.0962 516.62 13.6455 517.694 14.7441C518.769 15.8428 519.306 17.3605 519.306 19.2974V21.104H510.504C510.545 22.1619 510.858 22.988 511.444 23.582C512.03 24.1761 512.852 24.4731 513.91 24.4731C514.732 24.4731 515.509 24.3877 516.242 24.2168C516.974 24.0459 517.739 23.7733 518.537 23.3989V26.2798C517.886 26.6053 517.19 26.8454 516.449 27C515.709 27.1628 514.805 27.2441 513.739 27.2441ZM528.7 13.0962C529.205 13.0962 529.624 13.1328 529.958 13.2061L529.677 16.6973C529.376 16.6159 529.009 16.5752 528.578 16.5752C527.39 16.5752 526.462 16.8804 525.795 17.4907C525.136 18.1011 524.806 18.9556 524.806 20.0542V27H521.083V13.3525H523.903L524.452 15.6475H524.635C525.058 14.8825 525.628 14.2681 526.344 13.8042C527.069 13.3322 527.854 13.0962 528.7 13.0962ZM540.707 22.9473C540.707 24.347 540.219 25.4131 539.242 26.1455C538.274 26.8779 536.821 27.2441 534.884 27.2441C533.891 27.2441 533.045 27.175 532.345 27.0366C531.645 26.9064 530.99 26.7111 530.38 26.4507V23.3745C531.072 23.7 531.849 23.9727 532.711 24.1924C533.582 24.4121 534.347 24.522 535.006 24.522C536.357 24.522 537.033 24.1313 537.033 23.3501C537.033 23.0571 536.943 22.8211 536.764 22.6421C536.585 22.4549 536.276 22.2474 535.836 22.0195C535.397 21.7835 534.811 21.5109 534.079 21.2017C533.029 20.7622 532.256 20.3553 531.759 19.981C531.271 19.6066 530.913 19.1794 530.685 18.6992C530.465 18.2109 530.355 17.6128 530.355 16.9048C530.355 15.6922 530.823 14.7563 531.759 14.0972C532.703 13.4299 534.038 13.0962 535.763 13.0962C537.407 13.0962 539.006 13.4543 540.561 14.1704L539.438 16.856C538.754 16.563 538.115 16.3229 537.521 16.1357C536.927 15.9486 536.321 15.855 535.702 15.855C534.604 15.855 534.054 16.152 534.054 16.7461C534.054 17.0798 534.229 17.3687 534.579 17.6128C534.937 17.8569 535.714 18.2191 536.911 18.6992C537.977 19.1305 538.758 19.5334 539.254 19.9077C539.751 20.2821 540.117 20.7134 540.353 21.2017C540.589 21.6899 540.707 22.2718 540.707 22.9473ZM551.029 27L550.309 25.1445H550.211C549.585 25.9339 548.938 26.4832 548.271 26.7925C547.611 27.0936 546.749 27.2441 545.683 27.2441C544.372 27.2441 543.339 26.8698 542.582 26.1211C541.833 25.3724 541.459 24.3063 541.459 22.9229C541.459 21.4743 541.964 20.4082 542.973 19.7246C543.99 19.0329 545.52 18.6504 547.562 18.5771L549.931 18.5039V17.9058C549.931 16.5223 549.223 15.8306 547.807 15.8306C546.716 15.8306 545.434 16.1602 543.961 16.8193L542.729 14.3047C544.299 13.4827 546.041 13.0718 547.953 13.0718C549.784 13.0718 551.188 13.4705 552.165 14.2681C553.141 15.0656 553.629 16.2782 553.629 17.9058V27H551.029ZM549.931 20.6768L548.49 20.7256C547.408 20.7581 546.602 20.9535 546.073 21.3115C545.544 21.6696 545.28 22.2148 545.28 22.9473C545.28 23.9971 545.882 24.522 547.086 24.522C547.949 24.522 548.637 24.2738 549.149 23.7773C549.67 23.2809 549.931 22.6217 549.931 21.7998V20.6768ZM546.11 10.5693C545.858 10.5693 545.613 10.6792 545.377 10.8989C545.15 11.1105 544.983 11.436 544.877 11.8755H543.058C543.148 10.6955 543.481 9.77181 544.059 9.10449C544.645 8.43717 545.418 8.10352 546.378 8.10352C546.712 8.10352 547.038 8.17269 547.355 8.31104C547.681 8.44124 547.998 8.58773 548.307 8.75049C548.625 8.90511 548.934 9.04753 549.235 9.17773C549.536 9.30794 549.833 9.37305 550.126 9.37305C550.378 9.37305 550.618 9.26725 550.846 9.05566C551.082 8.84408 551.253 8.51855 551.359 8.0791H553.178C553.088 9.25911 552.746 10.1828 552.152 10.8501C551.566 11.5174 550.801 11.8511 549.857 11.8511C549.524 11.8511 549.194 11.786 548.869 11.6558C548.551 11.5174 548.234 11.3709 547.917 11.2163C547.607 11.0535 547.302 10.9071 547.001 10.7769C546.7 10.6385 546.403 10.5693 546.11 10.5693ZM559.191 20.1519C559.191 21.5028 559.411 22.5241 559.85 23.2158C560.298 23.9076 561.022 24.2534 562.023 24.2534C563.016 24.2534 563.728 23.9116 564.159 23.228C564.599 22.5363 564.818 21.5109 564.818 20.1519C564.818 18.8009 564.599 17.7878 564.159 17.1123C563.72 16.4368 563 16.0991 561.999 16.0991C561.006 16.0991 560.29 16.4368 559.85 17.1123C559.411 17.7796 559.191 18.7928 559.191 20.1519ZM568.627 20.1519C568.627 22.3735 568.041 24.111 566.869 25.3643C565.697 26.6175 564.066 27.2441 561.974 27.2441C560.664 27.2441 559.508 26.9593 558.507 26.3896C557.506 25.8118 556.737 24.9858 556.2 23.9116C555.663 22.8374 555.395 21.5841 555.395 20.1519C555.395 17.922 555.976 16.1886 557.14 14.9517C558.304 13.7147 559.94 13.0962 562.047 13.0962C563.358 13.0962 564.513 13.381 565.514 13.9507C566.515 14.5203 567.284 15.3382 567.821 16.4043C568.358 17.4704 568.627 18.7196 568.627 20.1519Z" fill="black"/>
<path d="M730.232 210.12H717.757V207.496L722.237 202.967C723.563 201.608 724.43 200.668 724.837 200.147C725.244 199.618 725.537 199.13 725.716 198.682C725.895 198.235 725.984 197.771 725.984 197.291C725.984 196.574 725.785 196.041 725.386 195.691C724.995 195.341 724.47 195.167 723.811 195.167C723.12 195.167 722.448 195.325 721.797 195.643C721.146 195.96 720.467 196.412 719.759 196.998L717.708 194.568C718.587 193.82 719.315 193.291 719.893 192.981C720.471 192.672 721.101 192.436 721.785 192.273C722.469 192.103 723.233 192.017 724.08 192.017C725.195 192.017 726.179 192.221 727.034 192.627C727.888 193.034 728.552 193.604 729.024 194.336C729.496 195.069 729.732 195.907 729.732 196.851C729.732 197.673 729.585 198.446 729.292 199.17C729.007 199.887 728.56 200.623 727.949 201.38C727.347 202.137 726.281 203.215 724.751 204.615L722.456 206.775V206.946H730.232V210.12ZM732.466 208.375C732.466 207.691 732.649 207.174 733.015 206.824C733.382 206.474 733.915 206.299 734.615 206.299C735.29 206.299 735.811 206.478 736.177 206.836C736.551 207.194 736.739 207.707 736.739 208.375C736.739 209.017 736.551 209.526 736.177 209.9C735.803 210.267 735.282 210.45 734.615 210.45C733.931 210.45 733.402 210.271 733.028 209.913C732.653 209.546 732.466 209.034 732.466 208.375ZM756.327 195.167C754.903 195.167 753.8 195.704 753.019 196.778C752.237 197.844 751.847 199.333 751.847 201.246C751.847 205.225 753.34 207.215 756.327 207.215C757.58 207.215 759.098 206.902 760.88 206.275V209.449C759.415 210.059 757.779 210.364 755.973 210.364C753.377 210.364 751.391 209.579 750.016 208.008C748.64 206.43 747.953 204.167 747.953 201.221C747.953 199.366 748.29 197.742 748.966 196.351C749.641 194.951 750.61 193.881 751.871 193.14C753.141 192.391 754.626 192.017 756.327 192.017C758.06 192.017 759.802 192.436 761.551 193.274L760.331 196.351C759.663 196.033 758.992 195.757 758.316 195.521C757.641 195.285 756.978 195.167 756.327 195.167ZM766.112 203.272C766.112 204.623 766.332 205.644 766.771 206.336C767.219 207.028 767.943 207.374 768.944 207.374C769.937 207.374 770.649 207.032 771.08 206.348C771.52 205.656 771.739 204.631 771.739 203.272C771.739 201.921 771.52 200.908 771.08 200.232C770.641 199.557 769.92 199.219 768.919 199.219C767.927 199.219 767.21 199.557 766.771 200.232C766.332 200.9 766.112 201.913 766.112 203.272ZM775.548 203.272C775.548 205.494 774.962 207.231 773.79 208.484C772.618 209.738 770.986 210.364 768.895 210.364C767.585 210.364 766.429 210.079 765.428 209.51C764.427 208.932 763.658 208.106 763.121 207.032C762.584 205.958 762.315 204.704 762.315 203.272C762.315 201.042 762.897 199.309 764.061 198.072C765.225 196.835 766.861 196.216 768.968 196.216C770.278 196.216 771.434 196.501 772.435 197.071C773.436 197.64 774.205 198.458 774.742 199.524C775.279 200.59 775.548 201.84 775.548 203.272ZM789.972 210.12H786.249V202.149C786.249 201.164 786.074 200.428 785.724 199.939C785.374 199.443 784.816 199.195 784.051 199.195C783.01 199.195 782.257 199.545 781.793 200.245C781.329 200.936 781.097 202.088 781.097 203.699V210.12H777.374V196.473H780.218L780.719 198.218H780.926C781.341 197.559 781.911 197.063 782.635 196.729C783.368 196.387 784.198 196.216 785.125 196.216C786.712 196.216 787.917 196.648 788.739 197.51C789.561 198.365 789.972 199.602 789.972 201.221V210.12ZM802.076 206.067C802.076 207.467 801.588 208.533 800.611 209.266C799.643 209.998 798.19 210.364 796.253 210.364C795.261 210.364 794.414 210.295 793.714 210.157C793.014 210.027 792.359 209.831 791.749 209.571V206.495C792.441 206.82 793.218 207.093 794.081 207.312C794.951 207.532 795.716 207.642 796.375 207.642C797.726 207.642 798.402 207.251 798.402 206.47C798.402 206.177 798.312 205.941 798.133 205.762C797.954 205.575 797.645 205.368 797.206 205.14C796.766 204.904 796.18 204.631 795.448 204.322C794.398 203.882 793.625 203.475 793.128 203.101C792.64 202.727 792.282 202.299 792.054 201.819C791.834 201.331 791.725 200.733 791.725 200.025C791.725 198.812 792.193 197.876 793.128 197.217C794.072 196.55 795.407 196.216 797.132 196.216C798.776 196.216 800.375 196.574 801.93 197.291L800.807 199.976C800.123 199.683 799.484 199.443 798.89 199.256C798.296 199.069 797.69 198.975 797.071 198.975C795.973 198.975 795.423 199.272 795.423 199.866C795.423 200.2 795.598 200.489 795.948 200.733C796.306 200.977 797.083 201.339 798.28 201.819C799.346 202.251 800.127 202.653 800.624 203.028C801.12 203.402 801.486 203.833 801.722 204.322C801.958 204.81 802.076 205.392 802.076 206.067ZM809.481 207.398C810.132 207.398 810.913 207.256 811.825 206.971V209.742C810.897 210.157 809.758 210.364 808.407 210.364C806.917 210.364 805.831 209.99 805.147 209.241C804.472 208.484 804.134 207.353 804.134 205.848V199.268H802.352V197.693L804.403 196.448L805.477 193.567H807.857V196.473H811.678V199.268H807.857V205.848C807.857 206.377 808.004 206.767 808.297 207.02C808.598 207.272 808.993 207.398 809.481 207.398ZM820.963 196.216C821.467 196.216 821.887 196.253 822.22 196.326L821.939 199.817C821.638 199.736 821.272 199.695 820.841 199.695C819.653 199.695 818.725 200 818.058 200.611C817.398 201.221 817.069 202.076 817.069 203.174V210.12H813.346V196.473H816.166L816.715 198.768H816.898C817.321 198.003 817.891 197.388 818.607 196.924C819.331 196.452 820.117 196.216 820.963 196.216ZM833.116 210.12L832.616 208.375H832.42C832.022 209.009 831.456 209.502 830.724 209.852C829.991 210.193 829.157 210.364 828.221 210.364C826.618 210.364 825.41 209.937 824.596 209.083C823.782 208.22 823.375 206.983 823.375 205.372V196.473H827.098V204.444C827.098 205.429 827.273 206.169 827.623 206.666C827.973 207.154 828.53 207.398 829.295 207.398C830.337 207.398 831.09 207.052 831.554 206.36C832.018 205.66 832.25 204.505 832.25 202.894V196.473H835.973V210.12H833.116ZM844.171 210.364C839.923 210.364 837.799 208.033 837.799 203.37C837.799 201.05 838.377 199.28 839.532 198.06C840.688 196.831 842.344 196.216 844.5 196.216C846.079 196.216 847.495 196.526 848.749 197.144L847.65 200.025C847.064 199.789 846.519 199.598 846.014 199.451C845.51 199.297 845.005 199.219 844.5 199.219C842.564 199.219 841.595 200.595 841.595 203.345C841.595 206.014 842.564 207.349 844.5 207.349C845.217 207.349 845.88 207.256 846.49 207.068C847.101 206.873 847.711 206.572 848.321 206.165V209.351C847.719 209.734 847.109 209.998 846.49 210.145C845.88 210.291 845.107 210.364 844.171 210.364ZM846.502 213.172C846.502 214.214 846.193 214.966 845.575 215.43C844.964 215.894 844.016 216.126 842.73 216.126C842.096 216.126 841.502 216.041 840.948 215.87V213.819C841.168 213.876 841.461 213.933 841.827 213.99C842.201 214.047 842.49 214.075 842.694 214.075C843.28 214.075 843.573 213.823 843.573 213.318C843.573 212.643 842.897 212.203 841.546 212L842.499 210.12H844.854L844.525 210.865C845.127 211.06 845.607 211.361 845.965 211.768C846.323 212.183 846.502 212.651 846.502 213.172ZM858.912 210.12L858.192 208.265H858.094C857.468 209.054 856.821 209.603 856.153 209.913C855.494 210.214 854.632 210.364 853.565 210.364C852.255 210.364 851.222 209.99 850.465 209.241C849.716 208.493 849.342 207.426 849.342 206.043C849.342 204.594 849.846 203.528 850.855 202.845C851.873 202.153 853.403 201.771 855.445 201.697L857.813 201.624V201.026C857.813 199.642 857.105 198.951 855.689 198.951C854.599 198.951 853.317 199.28 851.844 199.939L850.611 197.425C852.182 196.603 853.924 196.192 855.836 196.192C857.667 196.192 859.071 196.591 860.047 197.388C861.024 198.186 861.512 199.398 861.512 201.026V210.12H858.912ZM857.813 203.797L856.373 203.846C855.291 203.878 854.485 204.074 853.956 204.432C853.427 204.79 853.163 205.335 853.163 206.067C853.163 207.117 853.765 207.642 854.969 207.642C855.832 207.642 856.52 207.394 857.032 206.897C857.553 206.401 857.813 205.742 857.813 204.92V203.797ZM853.993 193.689C853.74 193.689 853.496 193.799 853.26 194.019C853.032 194.231 852.866 194.556 852.76 194.996H850.941C851.03 193.816 851.364 192.892 851.942 192.225C852.528 191.557 853.301 191.224 854.261 191.224C854.595 191.224 854.92 191.293 855.238 191.431C855.563 191.561 855.881 191.708 856.19 191.871C856.507 192.025 856.817 192.168 857.118 192.298C857.419 192.428 857.716 192.493 858.009 192.493C858.261 192.493 858.501 192.387 858.729 192.176C858.965 191.964 859.136 191.639 859.242 191.199H861.061C860.971 192.379 860.629 193.303 860.035 193.97C859.449 194.638 858.684 194.971 857.74 194.971C857.407 194.971 857.077 194.906 856.751 194.776C856.434 194.638 856.117 194.491 855.799 194.336C855.49 194.174 855.185 194.027 854.884 193.897C854.583 193.759 854.286 193.689 853.993 193.689ZM867.074 203.272C867.074 204.623 867.293 205.644 867.733 206.336C868.181 207.028 868.905 207.374 869.906 207.374C870.899 207.374 871.611 207.032 872.042 206.348C872.481 205.656 872.701 204.631 872.701 203.272C872.701 201.921 872.481 200.908 872.042 200.232C871.603 199.557 870.882 199.219 869.881 199.219C868.889 199.219 868.172 199.557 867.733 200.232C867.293 200.9 867.074 201.913 867.074 203.272ZM876.51 203.272C876.51 205.494 875.924 207.231 874.752 208.484C873.58 209.738 871.948 210.364 869.857 210.364C868.547 210.364 867.391 210.079 866.39 209.51C865.389 208.932 864.62 208.106 864.083 207.032C863.546 205.958 863.277 204.704 863.277 203.272C863.277 201.042 863.859 199.309 865.023 198.072C866.187 196.835 867.822 196.216 869.93 196.216C871.24 196.216 872.396 196.501 873.397 197.071C874.398 197.64 875.167 198.458 875.704 199.524C876.241 200.59 876.51 201.84 876.51 203.272Z" fill="black"/>
<path d="M729.536 449.265C729.536 450.38 729.199 451.328 728.523 452.109C727.848 452.891 726.9 453.428 725.679 453.721V453.794C727.119 453.973 728.21 454.412 728.95 455.112C729.691 455.804 730.061 456.74 730.061 457.92C730.061 459.637 729.439 460.976 728.194 461.936C726.948 462.888 725.17 463.364 722.859 463.364C720.922 463.364 719.205 463.043 717.708 462.4V459.189C718.399 459.539 719.16 459.824 719.99 460.044C720.821 460.264 721.642 460.374 722.456 460.374C723.701 460.374 724.621 460.162 725.215 459.739C725.809 459.316 726.106 458.636 726.106 457.7C726.106 456.862 725.764 456.268 725.081 455.918C724.397 455.568 723.307 455.393 721.809 455.393H720.454V452.5H721.834C723.217 452.5 724.226 452.321 724.861 451.963C725.504 451.597 725.825 450.974 725.825 450.095C725.825 448.744 724.979 448.069 723.286 448.069C722.7 448.069 722.102 448.167 721.492 448.362C720.89 448.557 720.218 448.895 719.478 449.375L717.732 446.775C719.36 445.603 721.301 445.017 723.555 445.017C725.402 445.017 726.859 445.391 727.925 446.14C728.999 446.889 729.536 447.931 729.536 449.265ZM732.466 461.375C732.466 460.691 732.649 460.174 733.015 459.824C733.382 459.474 733.915 459.299 734.615 459.299C735.29 459.299 735.811 459.478 736.177 459.836C736.551 460.194 736.739 460.707 736.739 461.375C736.739 462.017 736.551 462.526 736.177 462.9C735.803 463.267 735.282 463.45 734.615 463.45C733.931 463.45 733.402 463.271 733.028 462.913C732.653 462.546 732.466 462.034 732.466 461.375ZM759.671 463.12L758.377 458.872H751.871L750.577 463.12H746.5L752.799 445.2H757.425L763.749 463.12H759.671ZM757.474 455.698C756.278 451.849 755.602 449.672 755.448 449.167C755.301 448.663 755.195 448.264 755.13 447.971C754.862 449.013 754.093 451.589 752.823 455.698H757.474ZM776.683 463.12H772.96V455.149C772.96 454.164 772.793 453.428 772.459 452.939C772.134 452.443 771.617 452.195 770.909 452.195C769.957 452.195 769.265 452.545 768.834 453.245C768.403 453.944 768.187 455.096 768.187 456.699V463.12H764.464V449.473H767.308L767.809 451.218H768.016C768.382 450.592 768.911 450.103 769.603 449.753C770.295 449.395 771.088 449.216 771.983 449.216C774.026 449.216 775.41 449.884 776.134 451.218H776.463C776.83 450.583 777.367 450.091 778.075 449.741C778.791 449.391 779.597 449.216 780.492 449.216C782.038 449.216 783.206 449.615 783.995 450.413C784.793 451.202 785.191 452.472 785.191 454.221V463.12H781.456V455.149C781.456 454.164 781.289 453.428 780.956 452.939C780.63 452.443 780.113 452.195 779.405 452.195C778.494 452.195 777.81 452.52 777.354 453.171C776.907 453.822 776.683 454.856 776.683 456.272V463.12ZM795.367 449.216C796.979 449.216 798.24 449.847 799.151 451.108C800.063 452.362 800.519 454.083 800.519 456.272C800.519 458.526 800.047 460.272 799.103 461.509C798.167 462.746 796.889 463.364 795.27 463.364C793.666 463.364 792.409 462.782 791.498 461.619H791.241L790.619 463.12H787.774V444.126H791.498V448.545C791.498 449.106 791.449 450.006 791.351 451.243H791.498C792.368 449.892 793.658 449.216 795.367 449.216ZM794.171 452.195C793.251 452.195 792.58 452.48 792.157 453.049C791.734 453.611 791.514 454.543 791.498 455.845V456.248C791.498 457.712 791.713 458.762 792.145 459.397C792.584 460.032 793.276 460.349 794.22 460.349C794.985 460.349 795.591 459.999 796.039 459.299C796.494 458.591 796.722 457.566 796.722 456.223C796.722 454.88 796.494 453.875 796.039 453.208C795.583 452.533 794.96 452.195 794.171 452.195ZM802.186 445.945C802.186 444.732 802.861 444.126 804.212 444.126C805.563 444.126 806.239 444.732 806.239 445.945C806.239 446.523 806.068 446.974 805.726 447.3C805.392 447.617 804.888 447.776 804.212 447.776C802.861 447.776 802.186 447.166 802.186 445.945ZM806.068 463.12H802.345V449.473H806.068V463.12ZM814.388 451.865C813.599 451.865 812.98 452.118 812.533 452.622C812.085 453.118 811.829 453.826 811.764 454.746H816.988C816.972 453.826 816.732 453.118 816.268 452.622C815.804 452.118 815.178 451.865 814.388 451.865ZM814.913 463.364C812.716 463.364 810.999 462.758 809.762 461.545C808.525 460.333 807.906 458.616 807.906 456.394C807.906 454.107 808.476 452.341 809.615 451.096C810.763 449.843 812.346 449.216 814.364 449.216C816.292 449.216 817.794 449.766 818.868 450.864C819.942 451.963 820.479 453.481 820.479 455.417V457.224H811.678C811.719 458.282 812.032 459.108 812.618 459.702C813.204 460.296 814.026 460.593 815.084 460.593C815.906 460.593 816.683 460.508 817.416 460.337C818.148 460.166 818.913 459.893 819.71 459.519V462.4C819.059 462.725 818.364 462.965 817.623 463.12C816.882 463.283 815.979 463.364 814.913 463.364ZM834.854 463.12H831.131V455.149C831.131 454.164 830.956 453.428 830.606 452.939C830.257 452.443 829.699 452.195 828.934 452.195C827.892 452.195 827.14 452.545 826.676 453.245C826.212 453.936 825.98 455.088 825.98 456.699V463.12H822.257V449.473H825.101L825.602 451.218H825.809C826.224 450.559 826.794 450.063 827.518 449.729C828.25 449.387 829.081 449.216 830.008 449.216C831.595 449.216 832.8 449.648 833.622 450.51C834.444 451.365 834.854 452.602 834.854 454.221V463.12ZM843.187 460.398C843.838 460.398 844.619 460.256 845.531 459.971V462.742C844.603 463.157 843.464 463.364 842.113 463.364C840.624 463.364 839.537 462.99 838.854 462.241C838.178 461.484 837.84 460.353 837.84 458.848V452.268H836.058V450.693L838.109 449.448L839.183 446.567H841.563V449.473H845.384V452.268H841.563V458.848C841.563 459.377 841.71 459.767 842.003 460.02C842.304 460.272 842.699 460.398 843.187 460.398ZM855.719 463.12L854.999 461.265H854.901C854.274 462.054 853.627 462.603 852.96 462.913C852.301 463.214 851.438 463.364 850.372 463.364C849.062 463.364 848.028 462.99 847.271 462.241C846.523 461.493 846.148 460.426 846.148 459.043C846.148 457.594 846.653 456.528 847.662 455.845C848.679 455.153 850.209 454.771 852.252 454.697L854.62 454.624V454.026C854.62 452.642 853.912 451.951 852.496 451.951C851.406 451.951 850.124 452.28 848.651 452.939L847.418 450.425C848.989 449.603 850.73 449.192 852.643 449.192C854.474 449.192 855.877 449.591 856.854 450.388C857.831 451.186 858.319 452.398 858.319 454.026V463.12H855.719ZM854.62 456.797L853.18 456.846C852.097 456.878 851.292 457.074 850.763 457.432C850.234 457.79 849.969 458.335 849.969 459.067C849.969 460.117 850.571 460.642 851.776 460.642C852.639 460.642 853.326 460.394 853.839 459.897C854.36 459.401 854.62 458.742 854.62 457.92V456.797ZM866.456 463.364C862.208 463.364 860.084 461.033 860.084 456.37C860.084 454.05 860.662 452.28 861.817 451.06C862.973 449.831 864.629 449.216 866.786 449.216C868.364 449.216 869.78 449.526 871.034 450.144L869.935 453.025C869.349 452.789 868.804 452.598 868.299 452.451C867.795 452.297 867.29 452.219 866.786 452.219C864.849 452.219 863.88 453.595 863.88 456.345C863.88 459.014 864.849 460.349 866.786 460.349C867.502 460.349 868.165 460.256 868.775 460.068C869.386 459.873 869.996 459.572 870.606 459.165V462.351C870.004 462.734 869.394 462.998 868.775 463.145C868.165 463.291 867.392 463.364 866.456 463.364ZM868.788 466.172C868.788 467.214 868.478 467.966 867.86 468.43C867.25 468.894 866.301 469.126 865.016 469.126C864.381 469.126 863.787 469.041 863.233 468.87V466.819C863.453 466.876 863.746 466.933 864.112 466.99C864.487 467.047 864.776 467.075 864.979 467.075C865.565 467.075 865.858 466.823 865.858 466.318C865.858 465.643 865.182 465.203 863.832 465L864.784 463.12H867.14L866.81 463.865C867.412 464.06 867.892 464.361 868.25 464.768C868.609 465.183 868.788 465.651 868.788 466.172ZM881.197 463.12L880.477 461.265H880.379C879.753 462.054 879.106 462.603 878.438 462.913C877.779 463.214 876.917 463.364 875.851 463.364C874.54 463.364 873.507 462.99 872.75 462.241C872.001 461.493 871.627 460.426 871.627 459.043C871.627 457.594 872.132 456.528 873.141 455.845C874.158 455.153 875.688 454.771 877.73 454.697L880.099 454.624V454.026C880.099 452.642 879.391 451.951 877.975 451.951C876.884 451.951 875.602 452.28 874.129 452.939L872.896 450.425C874.467 449.603 876.209 449.192 878.121 449.192C879.952 449.192 881.356 449.591 882.333 450.388C883.309 451.186 883.797 452.398 883.797 454.026V463.12H881.197ZM880.099 456.797L878.658 456.846C877.576 456.878 876.77 457.074 876.241 457.432C875.712 457.79 875.448 458.335 875.448 459.067C875.448 460.117 876.05 460.642 877.254 460.642C878.117 460.642 878.805 460.394 879.317 459.897C879.838 459.401 880.099 458.742 880.099 457.92V456.797ZM876.278 446.689C876.026 446.689 875.781 446.799 875.545 447.019C875.318 447.231 875.151 447.556 875.045 447.996H873.226C873.316 446.816 873.649 445.892 874.227 445.225C874.813 444.557 875.586 444.224 876.546 444.224C876.88 444.224 877.206 444.293 877.523 444.431C877.848 444.561 878.166 444.708 878.475 444.871C878.792 445.025 879.102 445.168 879.403 445.298C879.704 445.428 880.001 445.493 880.294 445.493C880.546 445.493 880.786 445.387 881.014 445.176C881.25 444.964 881.421 444.639 881.527 444.199H883.346C883.256 445.379 882.914 446.303 882.32 446.97C881.734 447.638 880.969 447.971 880.025 447.971C879.692 447.971 879.362 447.906 879.037 447.776C878.719 447.638 878.402 447.491 878.084 447.336C877.775 447.174 877.47 447.027 877.169 446.897C876.868 446.759 876.571 446.689 876.278 446.689ZM889.359 456.272C889.359 457.623 889.579 458.644 890.018 459.336C890.466 460.028 891.19 460.374 892.191 460.374C893.184 460.374 893.896 460.032 894.327 459.348C894.767 458.656 894.986 457.631 894.986 456.272C894.986 454.921 894.767 453.908 894.327 453.232C893.888 452.557 893.167 452.219 892.167 452.219C891.174 452.219 890.458 452.557 890.018 453.232C889.579 453.9 889.359 454.913 889.359 456.272ZM898.795 456.272C898.795 458.494 898.209 460.231 897.037 461.484C895.865 462.738 894.234 463.364 892.142 463.364C890.832 463.364 889.676 463.079 888.675 462.51C887.674 461.932 886.905 461.106 886.368 460.032C885.831 458.958 885.562 457.704 885.562 456.272C885.562 454.042 886.144 452.309 887.308 451.072C888.472 449.835 890.108 449.216 892.215 449.216C893.526 449.216 894.681 449.501 895.682 450.071C896.683 450.64 897.452 451.458 897.989 452.524C898.526 453.59 898.795 454.84 898.795 456.272Z" fill="black"/>
<path d="M60.9548 202.54C60.9548 199.008 61.6995 196.379 63.1887 194.654C64.6861 192.929 66.9241 192.066 69.9026 192.066C70.9198 192.066 71.7174 192.127 72.2952 192.249V195.264C71.5709 195.101 70.8547 195.02 70.1467 195.02C68.8528 195.02 67.7948 195.215 66.9729 195.606C66.1591 195.997 65.5487 196.574 65.1418 197.339C64.7349 198.104 64.4949 199.191 64.4216 200.599H64.5803C65.386 199.215 66.6759 198.523 68.45 198.523C70.045 198.523 71.2942 199.024 72.1975 200.025C73.1008 201.026 73.5525 202.409 73.5525 204.175C73.5525 206.08 73.0154 207.589 71.9412 208.704C70.8669 209.811 69.3777 210.364 67.4734 210.364C66.155 210.364 65.0035 210.059 64.0188 209.449C63.0422 208.838 62.2854 207.947 61.7483 206.775C61.2193 205.604 60.9548 204.192 60.9548 202.54ZM67.4001 207.349C68.2058 207.349 68.8243 207.081 69.2556 206.543C69.6869 205.998 69.9026 205.225 69.9026 204.224C69.9026 203.353 69.6991 202.67 69.2922 202.173C68.8935 201.669 68.2872 201.417 67.4734 201.417C66.7084 201.417 66.0533 201.665 65.5081 202.161C64.9709 202.658 64.7024 203.235 64.7024 203.895C64.7024 204.863 64.9547 205.681 65.4592 206.348C65.9719 207.015 66.6189 207.349 67.4001 207.349ZM75.7864 208.375C75.7864 207.691 75.9695 207.174 76.3357 206.824C76.7019 206.474 77.2349 206.299 77.9348 206.299C78.6103 206.299 79.1311 206.478 79.4973 206.836C79.8717 207.194 80.0588 207.707 80.0588 208.375C80.0588 209.017 79.8717 209.526 79.4973 209.9C79.123 210.267 78.6021 210.45 77.9348 210.45C77.2512 210.45 76.7223 210.271 76.3479 209.913C75.9736 209.546 75.7864 209.034 75.7864 208.375ZM102.345 210.12H92.0664V192.273H102.345V195.374H95.8506V199.292H101.893V202.393H95.8506V206.995H102.345V210.12ZM117.135 210.12H113.412V202.149C113.412 201.164 113.237 200.428 112.887 199.939C112.537 199.443 111.979 199.195 111.214 199.195C110.173 199.195 109.42 199.545 108.956 200.245C108.492 200.936 108.26 202.088 108.26 203.699V210.12H104.537V196.473H107.381L107.882 198.218H108.089C108.504 197.559 109.074 197.063 109.798 196.729C110.531 196.387 111.361 196.216 112.289 196.216C113.875 196.216 115.08 196.648 115.902 197.51C116.724 198.365 117.135 199.602 117.135 201.221V210.12ZM125.467 207.398C126.118 207.398 126.9 207.256 127.811 206.971V209.742C126.883 210.157 125.744 210.364 124.393 210.364C122.904 210.364 121.817 209.99 121.134 209.241C120.458 208.484 120.121 207.353 120.121 205.848V199.268H118.338V197.693L120.389 196.448L121.463 193.567H123.844V196.473H127.665V199.268H123.844V205.848C123.844 206.377 123.99 206.767 124.283 207.02C124.584 207.272 124.979 207.398 125.467 207.398ZM136.949 196.216C137.454 196.216 137.873 196.253 138.207 196.326L137.926 199.817C137.625 199.736 137.258 199.695 136.827 199.695C135.639 199.695 134.711 200 134.044 200.611C133.385 201.221 133.055 202.076 133.055 203.174V210.12H129.332V196.473H132.152L132.701 198.768H132.884C133.307 198.003 133.877 197.388 134.593 196.924C135.318 196.452 136.103 196.216 136.949 196.216ZM145.086 198.865C144.297 198.865 143.679 199.118 143.231 199.622C142.783 200.118 142.527 200.826 142.462 201.746H147.687C147.67 200.826 147.43 200.118 146.966 199.622C146.502 199.118 145.876 198.865 145.086 198.865ZM145.611 210.364C143.414 210.364 141.697 209.758 140.46 208.545C139.223 207.333 138.604 205.616 138.604 203.394C138.604 201.107 139.174 199.341 140.313 198.096C141.461 196.843 143.044 196.216 145.062 196.216C146.991 196.216 148.492 196.766 149.566 197.864C150.641 198.963 151.178 200.481 151.178 202.417V204.224H142.376C142.417 205.282 142.73 206.108 143.316 206.702C143.902 207.296 144.724 207.593 145.782 207.593C146.604 207.593 147.381 207.508 148.114 207.337C148.846 207.166 149.611 206.893 150.409 206.519V209.4C149.758 209.725 149.062 209.965 148.321 210.12C147.581 210.283 146.677 210.364 145.611 210.364ZM164.833 196.473V198.365L162.696 198.914C163.087 199.524 163.282 200.208 163.282 200.965C163.282 202.43 162.77 203.573 161.744 204.395C160.727 205.209 159.311 205.616 157.496 205.616L156.825 205.579L156.275 205.518C155.893 205.811 155.702 206.137 155.702 206.495C155.702 207.032 156.385 207.3 157.752 207.3H160.072C161.569 207.3 162.708 207.622 163.49 208.265C164.279 208.908 164.674 209.852 164.674 211.097C164.674 212.692 164.007 213.929 162.672 214.808C161.345 215.687 159.437 216.126 156.947 216.126C155.042 216.126 153.586 215.792 152.577 215.125C151.576 214.466 151.075 213.538 151.075 212.342C151.075 211.52 151.332 210.832 151.844 210.279C152.357 209.725 153.11 209.331 154.103 209.095C153.72 208.932 153.386 208.667 153.102 208.301C152.817 207.927 152.674 207.532 152.674 207.117C152.674 206.596 152.825 206.165 153.126 205.823C153.427 205.473 153.862 205.132 154.432 204.798C153.716 204.489 153.146 203.992 152.723 203.309C152.308 202.625 152.101 201.819 152.101 200.892C152.101 199.402 152.585 198.251 153.553 197.437C154.522 196.623 155.905 196.216 157.704 196.216C158.086 196.216 158.538 196.253 159.059 196.326C159.588 196.391 159.925 196.44 160.072 196.473H164.833ZM154.298 212.049C154.298 212.562 154.542 212.964 155.03 213.257C155.527 213.55 156.218 213.697 157.105 213.697C158.44 213.697 159.486 213.514 160.243 213.147C161 212.781 161.378 212.281 161.378 211.646C161.378 211.133 161.154 210.779 160.707 210.584C160.259 210.389 159.567 210.291 158.631 210.291H156.703C156.019 210.291 155.445 210.45 154.981 210.767C154.526 211.093 154.298 211.52 154.298 212.049ZM155.653 200.94C155.653 201.681 155.82 202.267 156.153 202.698C156.495 203.13 157.012 203.345 157.704 203.345C158.403 203.345 158.916 203.13 159.242 202.698C159.567 202.267 159.73 201.681 159.73 200.94C159.73 199.297 159.055 198.475 157.704 198.475C156.336 198.475 155.653 199.297 155.653 200.94ZM174.508 210.12L173.788 208.265H173.69C173.063 209.054 172.416 209.603 171.749 209.913C171.09 210.214 170.227 210.364 169.161 210.364C167.851 210.364 166.817 209.99 166.061 209.241C165.312 208.493 164.938 207.426 164.938 206.043C164.938 204.594 165.442 203.528 166.451 202.845C167.468 202.153 168.998 201.771 171.041 201.697L173.409 201.624V201.026C173.409 199.642 172.701 198.951 171.285 198.951C170.195 198.951 168.913 199.28 167.44 199.939L166.207 197.425C167.778 196.603 169.519 196.192 171.432 196.192C173.263 196.192 174.667 196.591 175.643 197.388C176.62 198.186 177.108 199.398 177.108 201.026V210.12H174.508ZM173.409 203.797L171.969 203.846C170.886 203.878 170.081 204.074 169.552 204.432C169.023 204.79 168.758 205.335 168.758 206.067C168.758 207.117 169.361 207.642 170.565 207.642C171.428 207.642 172.115 207.394 172.628 206.897C173.149 206.401 173.409 205.742 173.409 204.92V203.797Z" fill="black"/>
<path d="M15.9959 451.719C17.7211 451.719 19.0924 452.203 20.1096 453.171C21.135 454.14 21.6477 455.466 21.6477 457.151C21.6477 459.145 21.0333 460.679 19.8044 461.753C18.5756 462.827 16.8178 463.364 14.531 463.364C12.5453 463.364 10.9421 463.043 9.72144 462.4V459.141C10.3643 459.482 11.113 459.763 11.9675 459.983C12.822 460.194 13.6318 460.3 14.3967 460.3C16.6998 460.3 17.8513 459.356 17.8513 457.468C17.8513 455.67 16.6591 454.771 14.2747 454.771C13.8433 454.771 13.3673 454.815 12.8464 454.905C12.3256 454.986 11.9024 455.076 11.5769 455.173L10.0754 454.368L10.7468 445.273H20.427V448.472H14.0549L13.7253 451.975L14.1526 451.89C14.649 451.776 15.2634 451.719 15.9959 451.719ZM24.2112 461.375C24.2112 460.691 24.3943 460.174 24.7605 459.824C25.1267 459.474 25.6598 459.299 26.3596 459.299C27.0351 459.299 27.5559 459.478 27.9221 459.836C28.2965 460.194 28.4836 460.707 28.4836 461.375C28.4836 462.017 28.2965 462.526 27.9221 462.9C27.5478 463.267 27.0269 463.45 26.3596 463.45C25.676 463.45 25.1471 463.271 24.7727 462.913C24.3984 462.546 24.2112 462.034 24.2112 461.375ZM44.2144 463.12H40.4912V445.273H50.7207V448.374H44.2144V452.976H50.269V456.064H44.2144V463.12ZM58.3208 451.865C57.5314 451.865 56.9129 452.118 56.4653 452.622C56.0177 453.118 55.7614 453.826 55.6963 454.746H60.9209C60.9046 453.826 60.6646 453.118 60.2007 452.622C59.7368 452.118 59.1102 451.865 58.3208 451.865ZM58.8457 463.364C56.6484 463.364 54.9313 462.758 53.6943 461.545C52.4574 460.333 51.8389 458.616 51.8389 456.394C51.8389 454.107 52.4085 452.341 53.5479 451.096C54.6953 449.843 56.2782 449.216 58.2964 449.216C60.2251 449.216 61.7266 449.766 62.8008 450.864C63.875 451.963 64.4121 453.481 64.4121 455.417V457.224H55.6108C55.6515 458.282 55.9648 459.108 56.5508 459.702C57.1367 460.296 57.9587 460.593 59.0166 460.593C59.8385 460.593 60.6157 460.508 61.3481 460.337C62.0806 460.166 62.8455 459.893 63.6431 459.519V462.4C62.992 462.725 62.2962 462.965 61.5557 463.12C60.8151 463.283 59.9118 463.364 58.8457 463.364ZM71.7314 463.364C67.4834 463.364 65.3594 461.033 65.3594 456.37C65.3594 454.05 65.9372 452.28 67.0928 451.06C68.2484 449.831 69.9045 449.216 72.061 449.216C73.6398 449.216 75.0558 449.526 76.3091 450.144L75.2104 453.025C74.6245 452.789 74.0793 452.598 73.5747 452.451C73.0701 452.297 72.5656 452.219 72.061 452.219C70.1242 452.219 69.1558 453.595 69.1558 456.345C69.1558 459.014 70.1242 460.349 72.061 460.349C72.7772 460.349 73.4404 460.256 74.0508 460.068C74.6611 459.873 75.2715 459.572 75.8818 459.165V462.351C75.2796 462.734 74.6693 462.998 74.0508 463.145C73.4404 463.291 72.6673 463.364 71.7314 463.364ZM90.4033 463.12H86.6802V455.149C86.6802 453.18 85.9478 452.195 84.4829 452.195C83.4412 452.195 82.6885 452.549 82.2246 453.257C81.7607 453.965 81.5288 455.112 81.5288 456.699V463.12H77.8057V444.126H81.5288V447.996C81.5288 448.297 81.5003 449.005 81.4434 450.12L81.3579 451.218H81.5532C82.3833 449.884 83.7017 449.216 85.5083 449.216C87.1115 449.216 88.3281 449.648 89.1582 450.51C89.9883 451.373 90.4033 452.61 90.4033 454.221V463.12ZM101.653 463.12L100.933 461.265H100.835C100.209 462.054 99.5618 462.603 98.8945 462.913C98.2354 463.214 97.3727 463.364 96.3066 463.364C94.9964 463.364 93.9629 462.99 93.2061 462.241C92.4574 461.493 92.083 460.426 92.083 459.043C92.083 457.594 92.5876 456.528 93.5967 455.845C94.6139 455.153 96.1439 454.771 98.1865 454.697L100.555 454.624V454.026C100.555 452.642 99.8467 451.951 98.4307 451.951C97.3402 451.951 96.0584 452.28 94.5854 452.939L93.3525 450.425C94.9232 449.603 96.6647 449.192 98.5771 449.192C100.408 449.192 101.812 449.591 102.789 450.388C103.765 451.186 104.253 452.398 104.253 454.026V463.12H101.653ZM100.555 456.797L99.1143 456.846C98.0319 456.878 97.2262 457.074 96.6973 457.432C96.1683 457.79 95.9038 458.335 95.9038 459.067C95.9038 460.117 96.506 460.642 97.7104 460.642C98.5731 460.642 99.2607 460.394 99.7734 459.897C100.294 459.401 100.555 458.742 100.555 457.92V456.797ZM119.068 463.12H115.345V455.149C115.345 454.164 115.178 453.428 114.844 452.939C114.519 452.443 114.002 452.195 113.294 452.195C112.342 452.195 111.65 452.545 111.219 453.245C110.787 453.944 110.572 455.096 110.572 456.699V463.12H106.849V449.473H109.693L110.193 451.218H110.401C110.767 450.592 111.296 450.103 111.988 449.753C112.68 449.395 113.473 449.216 114.368 449.216C116.411 449.216 117.794 449.884 118.519 451.218H118.848C119.214 450.583 119.751 450.091 120.459 449.741C121.176 449.391 121.981 449.216 122.876 449.216C124.423 449.216 125.59 449.615 126.38 450.413C127.177 451.202 127.576 452.472 127.576 454.221V463.12H123.841V455.149C123.841 454.164 123.674 453.428 123.34 452.939C123.015 452.443 122.498 452.195 121.79 452.195C120.879 452.195 120.195 452.52 119.739 453.171C119.292 453.822 119.068 454.856 119.068 456.272V463.12ZM135.811 451.865C135.022 451.865 134.403 452.118 133.956 452.622C133.508 453.118 133.252 453.826 133.187 454.746H138.411C138.395 453.826 138.155 453.118 137.691 452.622C137.227 452.118 136.6 451.865 135.811 451.865ZM136.336 463.364C134.139 463.364 132.422 462.758 131.185 461.545C129.948 460.333 129.329 458.616 129.329 456.394C129.329 454.107 129.899 452.341 131.038 451.096C132.186 449.843 133.768 449.216 135.787 449.216C137.715 449.216 139.217 449.766 140.291 450.864C141.365 451.963 141.902 453.481 141.902 455.417V457.224H133.101C133.142 458.282 133.455 459.108 134.041 459.702C134.627 460.296 135.449 460.593 136.507 460.593C137.329 460.593 138.106 460.508 138.838 460.337C139.571 460.166 140.336 459.893 141.133 459.519V462.4C140.482 462.725 139.786 462.965 139.046 463.12C138.305 463.283 137.402 463.364 136.336 463.364ZM156.277 463.12H152.554V455.149C152.554 454.164 152.379 453.428 152.029 452.939C151.679 452.443 151.122 452.195 150.357 452.195C149.315 452.195 148.562 452.545 148.099 453.245C147.635 453.936 147.403 455.088 147.403 456.699V463.12H143.68V449.473H146.524L147.024 451.218H147.232C147.647 450.559 148.217 450.063 148.941 449.729C149.673 449.387 150.503 449.216 151.431 449.216C153.018 449.216 154.222 449.648 155.044 450.51C155.866 451.365 156.277 452.602 156.277 454.221V463.12ZM164.61 460.398C165.261 460.398 166.042 460.256 166.954 459.971V462.742C166.026 463.157 164.887 463.364 163.536 463.364C162.046 463.364 160.96 462.99 160.276 462.241C159.601 461.484 159.263 460.353 159.263 458.848V452.268H157.481V450.693L159.532 449.448L160.606 446.567H162.986V449.473H166.807V452.268H162.986V458.848C162.986 459.377 163.133 459.767 163.426 460.02C163.727 460.272 164.122 460.398 164.61 460.398ZM171.441 456.272C171.441 457.623 171.661 458.644 172.1 459.336C172.548 460.028 173.272 460.374 174.273 460.374C175.266 460.374 175.978 460.032 176.409 459.348C176.849 458.656 177.068 457.631 177.068 456.272C177.068 454.921 176.849 453.908 176.409 453.232C175.97 452.557 175.25 452.219 174.249 452.219C173.256 452.219 172.54 452.557 172.1 453.232C171.661 453.9 171.441 454.913 171.441 456.272ZM180.877 456.272C180.877 458.494 180.291 460.231 179.119 461.484C177.947 462.738 176.316 463.364 174.224 463.364C172.914 463.364 171.758 463.079 170.757 462.51C169.756 461.932 168.987 461.106 168.45 460.032C167.913 458.958 167.645 457.704 167.645 456.272C167.645 454.042 168.226 452.309 169.39 451.072C170.554 449.835 172.19 449.216 174.297 449.216C175.608 449.216 176.763 449.501 177.764 450.071C178.765 450.64 179.534 451.458 180.071 452.524C180.608 453.59 180.877 454.84 180.877 456.272Z" fill="black"/>
<path d="M372.127 636.421H369.979V640.12H366.292V636.421H358.675V633.797L366.5 622.273H369.979V633.492H372.127V636.421ZM366.292 633.492V630.464C366.292 629.96 366.313 629.227 366.353 628.267C366.394 627.307 366.427 626.749 366.451 626.595H366.353C366.052 627.262 365.69 627.913 365.267 628.548L361.995 633.492H366.292ZM373.958 638.375C373.958 637.691 374.141 637.174 374.508 636.824C374.874 636.474 375.407 636.299 376.107 636.299C376.782 636.299 377.303 636.478 377.669 636.836C378.044 637.194 378.231 637.707 378.231 638.375C378.231 639.017 378.044 639.526 377.669 639.9C377.295 640.267 376.774 640.45 376.107 640.45C375.423 640.45 374.894 640.271 374.52 639.913C374.145 639.546 373.958 639.034 373.958 638.375ZM401.164 640.12L399.87 635.872H393.363L392.069 640.12H387.992L394.291 622.2H398.917L405.241 640.12H401.164ZM398.966 632.698C397.77 628.849 397.095 626.672 396.94 626.167C396.793 625.663 396.688 625.264 396.623 624.971C396.354 626.013 395.585 628.589 394.315 632.698H398.966ZM413.451 640.364C411.848 640.364 410.591 639.782 409.679 638.619H409.484C409.614 639.758 409.679 640.417 409.679 640.596V646.126H405.956V626.473H408.983L409.508 628.243H409.679C410.55 626.892 411.84 626.216 413.549 626.216C415.16 626.216 416.422 626.839 417.333 628.084C418.244 629.329 418.7 631.058 418.7 633.272C418.7 634.729 418.485 635.994 418.053 637.068C417.63 638.143 417.024 638.96 416.234 639.522C415.445 640.083 414.517 640.364 413.451 640.364ZM412.353 629.195C411.433 629.195 410.762 629.48 410.338 630.049C409.915 630.611 409.695 631.543 409.679 632.845V633.248C409.679 634.712 409.895 635.762 410.326 636.397C410.766 637.032 411.457 637.349 412.401 637.349C414.07 637.349 414.904 635.974 414.904 633.223C414.904 631.88 414.696 630.875 414.281 630.208C413.874 629.533 413.231 629.195 412.353 629.195ZM428.144 626.216C428.648 626.216 429.067 626.253 429.401 626.326L429.12 629.817C428.819 629.736 428.453 629.695 428.021 629.695C426.833 629.695 425.906 630 425.238 630.611C424.579 631.221 424.25 632.076 424.25 633.174V640.12H420.526V626.473H423.346L423.896 628.768H424.079C424.502 628.003 425.071 627.388 425.788 626.924C426.512 626.452 427.297 626.216 428.144 626.216ZM436.281 628.865C435.491 628.865 434.873 629.118 434.425 629.622C433.978 630.118 433.721 630.826 433.656 631.746H438.881C438.865 630.826 438.625 630.118 438.161 629.622C437.697 629.118 437.07 628.865 436.281 628.865ZM436.806 640.364C434.608 640.364 432.891 639.758 431.654 638.545C430.417 637.333 429.799 635.616 429.799 633.394C429.799 631.107 430.368 629.341 431.508 628.096C432.655 626.843 434.238 626.216 436.256 626.216C438.185 626.216 439.687 626.766 440.761 627.864C441.835 628.963 442.372 630.481 442.372 632.417V634.224H433.571C433.611 635.282 433.925 636.108 434.511 636.702C435.097 637.296 435.919 637.593 436.977 637.593C437.799 637.593 438.576 637.508 439.308 637.337C440.041 637.166 440.806 636.893 441.603 636.519V639.4C440.952 639.725 440.256 639.965 439.516 640.12C438.775 640.283 437.872 640.364 436.806 640.364ZM453.671 636.067C453.671 637.467 453.183 638.533 452.206 639.266C451.238 639.998 449.785 640.364 447.848 640.364C446.855 640.364 446.009 640.295 445.309 640.157C444.609 640.027 443.954 639.831 443.344 639.571V636.495C444.035 636.82 444.813 637.093 445.675 637.312C446.546 637.532 447.311 637.642 447.97 637.642C449.321 637.642 449.997 637.251 449.997 636.47C449.997 636.177 449.907 635.941 449.728 635.762C449.549 635.575 449.24 635.368 448.8 635.14C448.361 634.904 447.775 634.631 447.042 634.322C445.993 633.882 445.22 633.475 444.723 633.101C444.235 632.727 443.877 632.299 443.649 631.819C443.429 631.331 443.319 630.733 443.319 630.025C443.319 628.812 443.787 627.876 444.723 627.217C445.667 626.55 447.002 626.216 448.727 626.216C450.371 626.216 451.97 626.574 453.524 627.291L452.401 629.976C451.718 629.683 451.079 629.443 450.485 629.256C449.891 629.069 449.285 628.975 448.666 628.975C447.567 628.975 447.018 629.272 447.018 629.866C447.018 630.2 447.193 630.489 447.543 630.733C447.901 630.977 448.678 631.339 449.875 631.819C450.941 632.251 451.722 632.653 452.218 633.028C452.715 633.402 453.081 633.833 453.317 634.322C453.553 634.81 453.671 635.392 453.671 636.067ZM460.978 628.865C460.189 628.865 459.57 629.118 459.123 629.622C458.675 630.118 458.419 630.826 458.354 631.746H463.578C463.562 630.826 463.322 630.118 462.858 629.622C462.394 629.118 461.767 628.865 460.978 628.865ZM461.503 640.364C459.306 640.364 457.589 639.758 456.352 638.545C455.115 637.333 454.496 635.616 454.496 633.394C454.496 631.107 455.066 629.341 456.205 628.096C457.353 626.843 458.935 626.216 460.954 626.216C462.882 626.216 464.384 626.766 465.458 627.864C466.532 628.963 467.069 630.481 467.069 632.417V634.224H458.268C458.309 635.282 458.622 636.108 459.208 636.702C459.794 637.296 460.616 637.593 461.674 637.593C462.496 637.593 463.273 637.508 464.005 637.337C464.738 637.166 465.503 636.893 466.3 636.519V639.4C465.649 639.725 464.953 639.965 464.213 640.12C463.472 640.283 462.569 640.364 461.503 640.364ZM481.444 640.12H477.721V632.149C477.721 631.164 477.546 630.428 477.196 629.939C476.846 629.443 476.289 629.195 475.524 629.195C474.482 629.195 473.729 629.545 473.266 630.245C472.802 630.936 472.57 632.088 472.57 633.699V640.12H468.847V626.473H471.691L472.191 628.218H472.399C472.814 627.559 473.384 627.063 474.108 626.729C474.84 626.387 475.67 626.216 476.598 626.216C478.185 626.216 479.389 626.648 480.211 627.51C481.033 628.365 481.444 629.602 481.444 631.221V640.12ZM489.777 637.398C490.428 637.398 491.209 637.256 492.121 636.971V639.742C491.193 640.157 490.054 640.364 488.703 640.364C487.213 640.364 486.127 639.99 485.443 639.241C484.768 638.484 484.43 637.353 484.43 635.848V629.268H482.648V627.693L484.699 626.448L485.773 623.567H488.153V626.473H491.974V629.268H488.153V635.848C488.153 636.377 488.3 636.767 488.593 637.02C488.894 637.272 489.289 637.398 489.777 637.398ZM502.309 640.12L501.588 638.265H501.491C500.864 639.054 500.217 639.603 499.55 639.913C498.891 640.214 498.028 640.364 496.962 640.364C495.652 640.364 494.618 639.99 493.861 639.241C493.113 638.493 492.738 637.426 492.738 636.043C492.738 634.594 493.243 633.528 494.252 632.845C495.269 632.153 496.799 631.771 498.842 631.697L501.21 631.624V631.026C501.21 629.642 500.502 628.951 499.086 628.951C497.995 628.951 496.714 629.28 495.241 629.939L494.008 627.425C495.578 626.603 497.32 626.192 499.232 626.192C501.063 626.192 502.467 626.591 503.444 627.388C504.42 628.186 504.909 629.398 504.909 631.026V640.12H502.309ZM501.21 633.797L499.77 633.846C498.687 633.878 497.882 634.074 497.353 634.432C496.824 634.79 496.559 635.335 496.559 636.067C496.559 637.117 497.161 637.642 498.366 637.642C499.228 637.642 499.916 637.394 500.429 636.897C500.95 636.401 501.21 635.742 501.21 634.92V633.797ZM513.046 640.364C508.798 640.364 506.674 638.033 506.674 633.37C506.674 631.05 507.252 629.28 508.407 628.06C509.563 626.831 511.219 626.216 513.375 626.216C514.954 626.216 516.37 626.526 517.624 627.144L516.525 630.025C515.939 629.789 515.394 629.598 514.889 629.451C514.385 629.297 513.88 629.219 513.375 629.219C511.439 629.219 510.47 630.595 510.47 633.345C510.47 636.014 511.439 637.349 513.375 637.349C514.092 637.349 514.755 637.256 515.365 637.068C515.976 636.873 516.586 636.572 517.196 636.165V639.351C516.594 639.734 515.984 639.998 515.365 640.145C514.755 640.291 513.982 640.364 513.046 640.364ZM515.377 643.172C515.377 644.214 515.068 644.966 514.45 645.43C513.839 645.894 512.891 646.126 511.605 646.126C510.971 646.126 510.377 646.041 509.823 645.87V643.819C510.043 643.876 510.336 643.933 510.702 643.99C511.076 644.047 511.365 644.075 511.569 644.075C512.155 644.075 512.448 643.823 512.448 643.318C512.448 642.643 511.772 642.203 510.421 642L511.374 640.12H513.729L513.4 640.865C514.002 641.06 514.482 641.361 514.84 641.768C515.198 642.183 515.377 642.651 515.377 643.172ZM527.787 640.12L527.067 638.265H526.969C526.343 639.054 525.696 639.603 525.028 639.913C524.369 640.214 523.507 640.364 522.44 640.364C521.13 640.364 520.097 639.99 519.34 639.241C518.591 638.493 518.217 637.426 518.217 636.043C518.217 634.594 518.721 633.528 519.73 632.845C520.748 632.153 522.278 631.771 524.32 631.697L526.688 631.624V631.026C526.688 629.642 525.98 628.951 524.564 628.951C523.474 628.951 522.192 629.28 520.719 629.939L519.486 627.425C521.057 626.603 522.799 626.192 524.711 626.192C526.542 626.192 527.946 626.591 528.922 627.388C529.899 628.186 530.387 629.398 530.387 631.026V640.12H527.787ZM526.688 633.797L525.248 633.846C524.166 633.878 523.36 634.074 522.831 634.432C522.302 634.79 522.038 635.335 522.038 636.067C522.038 637.117 522.64 637.642 523.844 637.642C524.707 637.642 525.395 637.394 525.907 636.897C526.428 636.401 526.688 635.742 526.688 634.92V633.797ZM522.868 623.689C522.615 623.689 522.371 623.799 522.135 624.019C521.907 624.231 521.741 624.556 521.635 624.996H519.816C519.905 623.816 520.239 622.892 520.817 622.225C521.403 621.557 522.176 621.224 523.136 621.224C523.47 621.224 523.795 621.293 524.113 621.431C524.438 621.561 524.756 621.708 525.065 621.871C525.382 622.025 525.692 622.168 525.993 622.298C526.294 622.428 526.591 622.493 526.884 622.493C527.136 622.493 527.376 622.387 527.604 622.176C527.84 621.964 528.011 621.639 528.117 621.199H529.936C529.846 622.379 529.504 623.303 528.91 623.97C528.324 624.638 527.559 624.971 526.615 624.971C526.282 624.971 525.952 624.906 525.626 624.776C525.309 624.638 524.992 624.491 524.674 624.336C524.365 624.174 524.06 624.027 523.759 623.897C523.458 623.759 523.161 623.689 522.868 623.689ZM535.949 633.272C535.949 634.623 536.168 635.644 536.608 636.336C537.056 637.028 537.78 637.374 538.781 637.374C539.774 637.374 540.486 637.032 540.917 636.348C541.356 635.656 541.576 634.631 541.576 633.272C541.576 631.921 541.356 630.908 540.917 630.232C540.478 629.557 539.757 629.219 538.756 629.219C537.764 629.219 537.047 629.557 536.608 630.232C536.168 630.9 535.949 631.913 535.949 633.272ZM545.385 633.272C545.385 635.494 544.799 637.231 543.627 638.484C542.455 639.738 540.823 640.364 538.732 640.364C537.422 640.364 536.266 640.079 535.265 639.51C534.264 638.932 533.495 638.106 532.958 637.032C532.421 635.958 532.152 634.704 532.152 633.272C532.152 631.042 532.734 629.309 533.898 628.072C535.062 626.835 536.697 626.216 538.805 626.216C540.115 626.216 541.271 626.501 542.272 627.071C543.273 627.64 544.042 628.458 544.579 629.524C545.116 630.59 545.385 631.84 545.385 633.272Z" fill="black"/>
<path d="M449 100C460.046 100 469 91.0457 469 80C469 68.9543 460.046 60 449 60C437.954 60 429 68.9543 429 80C429 91.0457 437.954 100 449 100Z" fill="white" stroke="black" stroke-width="3" stroke-miterlimit="10"/>
<path d="M449 95.2552C457.425 95.2552 464.255 88.4251 464.255 79.9997C464.255 71.5743 457.425 64.7441 449 64.7441C440.574 64.7441 433.744 71.5743 433.744 79.9997C433.744 88.4251 440.574 95.2552 449 95.2552Z" fill="black"/>
<path d="M449 593.88C460.046 593.88 469 584.926 469 573.88C469 562.834 460.046 553.88 449 553.88C437.954 553.88 429 562.834 429 573.88C429 584.926 437.954 593.88 449 593.88Z" fill="white" stroke="black" stroke-width="3" stroke-miterlimit="10"/>
<path d="M449 589.136C457.426 589.136 464.256 582.305 464.256 573.88C464.256 565.455 457.426 558.625 449 558.625C440.575 558.625 433.745 565.455 433.745 573.88C433.745 582.305 440.575 589.136 449 589.136Z" fill="black"/>
<path d="M663 222C674.046 222 683 213.046 683 202C683 190.954 674.046 182 663 182C651.954 182 643 190.954 643 202C643 213.046 651.954 222 663 222Z" fill="white" stroke="black" stroke-width="3" stroke-miterlimit="10"/>
<path d="M663 217.256C671.426 217.256 678.256 210.426 678.256 202C678.256 193.575 671.426 186.745 663 186.745C654.575 186.745 647.745 193.575 647.745 202C647.745 210.426 654.575 217.256 663 217.256Z" fill="black"/>
<path d="M663 472.35C674.046 472.35 683 463.396 683 452.35C683 441.304 674.046 432.35 663 432.35C651.954 432.35 643 441.304 643 452.35C643 463.396 651.954 472.35 663 472.35Z" fill="white" stroke="black" stroke-width="3" stroke-miterlimit="10"/>
<path d="M663 467.606C671.425 467.606 678.255 460.776 678.255 452.35C678.255 443.925 671.425 437.095 663 437.095C654.575 437.095 647.744 443.925 647.744 452.35C647.744 460.776 654.575 467.606 663 467.606Z" fill="black"/>
<path d="M236 471.03C247.046 471.03 256 462.075 256 451.03C256 439.984 247.046 431.03 236 431.03C224.954 431.03 216 439.984 216 451.03C216 462.075 224.954 471.03 236 471.03Z" fill="white" stroke="black" stroke-width="3" stroke-miterlimit="10"/>
<path d="M236 466.285C244.425 466.285 251.255 459.455 251.255 451.03C251.255 442.605 244.425 435.774 236 435.774C227.575 435.774 220.744 442.605 220.744 451.03C220.744 459.455 227.575 466.285 236 466.285Z" fill="black"/>
<path d="M236 224C247.046 224 256 215.046 256 204C256 192.954 247.046 184 236 184C224.954 184 216 192.954 216 204C216 215.046 224.954 224 236 224Z" fill="white" stroke="black" stroke-width="3" stroke-miterlimit="10"/>
<path d="M236 219.255C244.425 219.255 251.255 212.425 251.255 204C251.255 195.574 244.425 188.744 236 188.744C227.575 188.744 220.744 195.574 220.744 204C220.744 212.425 227.575 219.255 236 219.255Z" fill="black"/>
</svg>
