<svg width="699" height="699" viewBox="0 0 699 699" fill="none" xmlns="http://www.w3.org/2000/svg">
<mask id="mask0_137_424" style="mask-type:alpha" maskUnits="userSpaceOnUse" x="0" y="0" width="699" height="699">
<rect width="699" height="699" rx="18" fill="#D9D9D9"/>
</mask>
<g mask="url(#mask0_137_424)">
<rect x="-18" y="-30" width="770" height="806" fill="white"/>
<mask id="mask1_137_424" style="mask-type:luminance" maskUnits="userSpaceOnUse" x="-18" y="-30" width="769" height="806">
<path d="M751 -30H-18V776H751V-30Z" fill="white"/>
</mask>
<g mask="url(#mask1_137_424)">
<path d="M5.77405 988.252C7.65053 933.662 2.22245 878.515 2.22245 823.788V749.829C2.22245 726.786 0.0802 712.262 -23.8871 705.959C-38.5446 702.098 -57.9536 702.219 -66.1601 687.259C-74.1734 672.655 -69.3816 648.805 -69.3816 632.443C-69.3816 588.468 -73.2795 545.669 -57.1241 503.991C-34.9527 446.797 6.12841 389.934 6.08814 326.857C6.06398 291.683 2.68149 256.67 3.06806 221.464C3.50295 182.333 3.1486 143.177 3.1486 104.046C3.1486 49.3024 -59.8059 29.1523 -85.392 -12.8564C-96.8361 -31.6442 -92.2455 -57.7264 -92.2455 -78.9806V-144.049C-92.2455 -212.712 -8.64178 -236.908 5.77405 -299.994" stroke="black" stroke-miterlimit="10"/>
<path d="M16.9362 988.252C17.9429 959.002 13.7792 930.422 11.2585 901.357C9.02765 875.614 10.2276 849.725 10.2276 823.917V749.958C10.2276 727.995 8.54444 712.785 -13.8283 705.072C-27.7609 700.268 -44.7217 698.963 -52.1792 684.43C-59.9026 669.382 -55.3523 646.218 -55.3523 629.59C-55.3523 585.816 -59.1778 543.082 -43.4492 501.493C-22.204 445.331 17.9268 388.717 17.21 326.929C16.8154 292.827 11.5484 259.136 11.8867 224.97C12.2732 185.831 11.9752 146.675 11.9752 107.536C11.9752 54.1626 -46.6867 29.2733 -70.6782 -13.1707C-81.5988 -32.4905 -77.3546 -57.8795 -77.3546 -79.4077V-144.476C-77.3546 -211.938 2.72173 -237.835 16.9362 -299.978" stroke="black" stroke-miterlimit="10"/>
<path d="M28.0984 988.252C28.9359 958.809 23.1213 930.543 19.4086 901.478C16.1227 875.799 17.4194 849.902 17.4194 824.07V750.111C17.4194 729.099 16.2677 713.6 -3.96278 703.895C-16.8162 697.729 -31.1515 695.102 -37.6266 680.924C-44.7862 665.264 -40.5903 642.954 -40.5903 625.979C-40.5903 582.528 -44.3915 539.826 -29.2267 498.422C-9.13315 443.557 29.9426 387.282 28.2594 327.098C27.3413 294.262 19.916 262.296 20.1173 229.331C20.3508 190.183 20.2059 151.036 20.2059 111.896C20.2059 59.5466 -33.2374 29.9342 -55.2235 -13.477C-65.3227 -33.4174 -61.4892 -58.1778 -61.4892 -79.9801V-145.048C-61.4892 -211.229 14.5201 -238.762 28.1145 -299.994" stroke="black" stroke-miterlimit="10"/>
<path d="M39.2606 988.252C39.768 958.527 32.1574 930.671 27.0917 901.623C22.622 876.017 23.9186 850.152 23.9186 824.263V750.305C23.9186 730.227 23.226 714.414 5.73377 702.501C-5.58145 694.787 -17.3074 690.62 -22.5905 676.878C-28.8964 660.484 -25.2079 639.141 -25.2079 621.764C-25.2079 578.74 -29.0011 536.038 -14.537 494.899C4.21165 441.583 42.1519 385.67 39.2284 327.389C37.6499 295.971 27.8407 266.141 27.8246 234.465C27.8085 195.325 27.9052 156.178 27.9052 117.039C27.9052 65.3418 -19.5624 31.0545 -39.1728 -13.7349C-48.1927 -34.3362 -44.8263 -58.5646 -44.8263 -80.6248V-145.693C-44.8263 -210.52 26.6569 -239.665 39.2687 -299.986" stroke="black" stroke-miterlimit="10"/>
<path d="M50.4308 988.252C50.463 958.18 40.9357 930.792 34.3882 901.776C28.6218 876.242 29.8379 850.474 29.8379 824.473V750.514C29.8379 731.364 29.4594 714.913 15.3013 700.897C6.03167 691.717 -3.18158 685.486 -7.13586 672.356C-12.3143 655.189 -9.30226 634.829 -9.30226 617.017C-9.30226 574.492 -13.1116 531.79 0.547214 490.974C17.7979 439.431 54.5381 383.841 50.1489 327.751C47.8054 297.816 35.411 270.606 35.1291 240.212C34.7667 201.088 35.1935 161.933 35.1935 122.81C35.1935 71.3465 -5.69428 32.5134 -22.5906 -13.9686C-30.322 -35.239 -27.4791 -59.0401 -27.4791 -81.3583V-146.427C-27.4791 -209.81 39.0834 -240.616 50.4308 -299.986" stroke="black" stroke-miterlimit="10"/>
<path d="M61.593 988.252C61.0374 957.753 49.5047 930.897 41.3787 901.945C34.2271 876.484 35.3143 850.894 35.3143 824.707V750.748C35.3143 732.154 34.96 715.179 24.7642 699.156C18.0637 688.621 11.3148 680.03 8.63298 667.48C4.81561 649.603 7.00617 630.09 7.00617 611.874C7.00617 569.898 3.17269 527.22 15.9295 486.759C31.5534 437.198 67.0453 381.818 61.0132 328.194C57.8159 299.743 42.6833 275.676 42.0874 246.466C41.2901 207.383 42.1357 168.187 42.1357 129.096C42.1357 77.3995 8.28668 34.2382 -5.62178 -14.1701C-11.9035 -36.053 -9.60828 -59.5721 -9.60828 -82.1401V-147.208C-9.60828 -209.045 51.7114 -241.607 61.585 -299.97" stroke="black" stroke-miterlimit="10"/>
<path d="M72.7553 988.252C71.507 957.27 57.9126 930.978 48.1356 902.115C39.5345 876.718 40.4445 851.385 40.4445 824.94C40.4445 784.1 47.1289 736.595 34.1386 697.278C23.9911 666.57 23.6207 638.803 23.6207 606.402C23.6207 564.981 19.7791 522.384 31.5534 482.278C40.4606 451.932 52.6778 422.666 62.1971 392.513C68.6641 372.033 75.1875 350.335 71.8613 328.638C67.7218 301.597 49.7785 281.285 48.8202 253.027C47.4994 214.017 48.8443 174.724 48.8443 135.689C48.8443 83.2672 22.3643 36.1082 11.6612 -14.4119C2.72173 -56.6141 8.66524 -105.087 8.66524 -148.095C8.66524 -178.135 19.6181 -199.727 35.8459 -224.488C51.5342 -248.426 68.5755 -271.083 72.7472 -300.01" stroke="black" stroke-miterlimit="10"/>
<path d="M83.9255 988.252C81.904 956.746 66.2157 931.026 54.7636 902.3C44.6725 876.968 45.3812 851.982 45.3812 825.19C45.3812 781.989 46.9758 738.449 43.4806 695.344C40.9196 663.757 40.4283 632.468 40.4283 600.76C40.4283 559.895 36.6029 517.443 47.3141 477.683C55.1904 448.474 66.2399 420.224 74.6961 391.191C80.4222 371.541 86.8167 349.763 82.6933 329.162C77.5309 303.378 56.7609 287.5 55.4079 259.87C53.4992 220.972 55.4079 181.519 55.4079 142.573C55.4079 88.9334 36.4982 38.1473 29.1453 -14.5812C23.0568 -58.2664 27.2044 -104.902 27.2044 -148.949C27.2044 -178.223 36.466 -200.018 51.212 -224.963C65.4184 -248.99 80.6155 -271.744 83.9255 -299.994" stroke="black" stroke-miterlimit="10"/>
<path d="M95.0877 988.252C92.2045 955.948 74.1646 930.68 61.0373 901.881C49.4322 876.404 50.2134 851.748 50.2134 824.312C50.2134 780.473 47.5477 735.756 52.9435 692.16C56.8978 660.226 57.3166 628.816 57.3166 596.649C57.3166 556.188 53.2737 513.591 62.8413 474.04C69.6868 445.733 79.6652 418.297 87.163 390.168C92.2126 371.243 98.3574 349.28 93.3965 329.718C87.0342 304.611 63.4212 293.778 61.9716 265.778C59.9421 226.655 61.9232 186.887 61.8749 147.707C61.8105 91.8914 49.7785 37.3333 46.4846 -18.2323C43.9155 -61.5548 45.8162 -105.425 45.8162 -148.82C45.8162 -177.861 52.9355 -199.373 66.3205 -224.915C79.0531 -249.208 92.583 -272.203 95.0716 -299.978" stroke="black" stroke-miterlimit="10"/>
<path d="M106.25 988.252C102.561 955.609 82.653 931.018 67.8989 902.671C54.8039 877.5 55.0858 853.344 55.0858 825.698C55.0858 781.803 49.5771 733.983 62.1084 691.418C72.3767 656.559 74.1726 625.713 74.1726 589.33C74.1726 549.442 70.4922 507.546 78.9323 468.382C84.7308 441.47 93.3964 415.267 99.7265 388.483C103.947 370.622 110.035 348.369 104.317 330.193C96.8111 306.344 70.7741 301.314 68.4385 273.685C65.1849 235.198 68.3741 195.108 68.3741 156.476C68.3741 99.2663 64.742 42.2338 64.2024 -14.9519C63.7675 -60.1846 64.4118 -105.466 64.4118 -150.707C64.4118 -178.465 70.4761 -200.799 82.0087 -225.955C93.0823 -250.111 104.599 -273.073 106.242 -299.978" stroke="black" stroke-miterlimit="10"/>
<path d="M117.42 988.252C112.894 955.021 90.908 930.978 74.5915 902.848C60.0468 877.782 60.1112 854.061 60.1112 825.948C60.1112 781.191 53.2899 731.477 71.4748 689.516C78.3928 673.549 86.2772 658.284 89.3295 640.971C92.6153 622.304 90.916 602.67 90.916 583.769C90.916 544.267 87.3966 502.798 94.6529 463.844C99.4528 438.06 106.926 412.857 112.218 387.17C115.705 370.252 121.616 347.555 115.165 330.685C106.33 307.585 78.0223 308.576 75.0989 280.407C71.1365 242.21 75.0103 201.644 75.0103 163.23C75.0103 103.909 78.8599 44.1037 81.6061 -15.1615C83.7162 -60.5715 82.8383 -106.119 82.8383 -151.577C82.8383 -178.618 87.453 -201.283 97.3105 -226.454C106.781 -250.642 116.51 -273.718 117.412 -299.986" stroke="black" stroke-miterlimit="10"/>
<path d="M128.582 988.252C123.267 954.448 99.2514 930.905 81.4531 903.018C65.5312 878.072 65.3943 854.779 65.3943 826.174C65.3943 779.893 57.9448 729.583 80.8893 687.695C90.1106 670.865 100.854 654.891 105.227 635.933C109.504 617.403 107.393 597.374 107.393 578.441C107.393 539.246 104.116 498.277 110.172 459.476C114.03 434.78 120.327 410.536 124.628 385.92C127.423 369.913 133.108 346.684 126.029 331.128C115.834 308.714 85.4959 315.734 81.9443 286.831C77.2974 248.981 81.8316 207.843 81.8316 169.695C81.8316 108.189 92.9052 45.8124 98.7601 -15.3791C103.101 -60.7247 100.943 -106.876 100.943 -152.415C100.943 -178.796 104.245 -201.823 112.435 -226.938C120.319 -251.126 128.333 -274.323 128.582 -300.002" stroke="black" stroke-miterlimit="10"/>
<path d="M139.745 988.252C133.72 953.876 107.74 930.825 88.5804 903.179C71.3861 878.37 71.072 855.472 71.072 826.399C71.072 778.313 63.2843 728.099 90.3925 686.018C101.7 668.472 115.286 651.715 120.843 631.226C125.844 612.769 123.509 592.49 123.509 573.484C123.509 534.522 120.553 494.093 125.409 455.397C128.381 431.733 133.543 408.4 136.91 384.792C139.068 369.647 144.488 345.83 136.91 331.539C125.393 309.802 93.2273 322.536 89.0475 292.859C86.3415 273.669 88.9187 252.213 88.9187 232.812V175.748C88.9187 112.074 106.846 47.3599 115.536 -15.5887C121.769 -60.7166 118.564 -107.65 118.564 -153.165C118.564 -178.965 120.714 -202.347 127.286 -227.365C133.632 -251.513 140.018 -274.839 139.736 -299.986" stroke="black" stroke-miterlimit="10"/>
<path d="M150.907 988.252C144.295 953.336 116.438 930.72 96.0542 903.332C77.7082 878.676 77.2653 856.108 77.2653 826.601V752.642C77.2653 725.536 84.2316 706.394 100.025 684.511C113.224 666.215 129.211 648.837 136.104 626.922C141.847 608.65 139.173 587.968 139.173 568.979C139.173 530.17 136.612 490.297 140.308 451.658C142.483 428.945 146.558 406.465 149.071 383.792C150.665 369.413 155.779 345 147.855 331.862C135.146 310.801 101.305 328.726 96.5454 298.316C93.5737 279.319 96.4085 257.54 96.4085 238.285V181.22C96.4085 151.012 104.092 121.012 110.156 91.5448C117.517 55.7907 125.635 20.1413 131.876 -15.8386C139.656 -60.6763 135.597 -108.424 135.597 -153.866C135.597 -179.183 136.773 -202.887 141.814 -227.768C146.695 -251.851 151.575 -275.298 150.899 -299.994" stroke="black" stroke-miterlimit="10"/>
<path d="M162.077 988.252C155.046 952.812 125.409 930.607 103.963 903.461C84.61 878.967 84.0946 856.664 84.0946 826.77V752.811C84.0946 724.408 92.4139 705.386 109.81 683.213C124.644 664.313 142.99 646.323 150.923 623.126C157.132 604.975 154.273 584.043 154.273 565.046C154.273 526.35 152.147 486.944 154.789 448.345C156.287 426.494 159.315 404.789 161.078 382.962C162.182 369.244 167.014 344.234 158.872 332.096C145.165 311.655 109.753 334.183 104.51 303.088C101.337 284.243 104.365 262.199 104.365 243.065V186C104.365 155.001 113.482 124.47 120.867 94.5432C129.959 57.7251 140.155 21.0763 147.653 -16.1126C156.633 -60.636 151.889 -109.157 151.889 -154.471C151.889 -179.408 152.292 -203.379 155.94 -228.115C159.484 -252.117 162.995 -275.661 162.069 -299.986" stroke="black" stroke-miterlimit="10"/>
<path d="M173.239 988.252C165.999 952.321 134.711 930.478 112.371 903.566C102.561 891.75 93.1307 878.346 91.665 862.597C90.5777 850.934 91.665 838.634 91.665 826.915V752.957C91.665 723.465 101.039 704.596 119.756 682.182C135.951 662.781 156.448 644.259 165.194 619.942C171.685 601.904 168.681 580.763 168.681 561.797C168.681 523.15 167.127 484.147 168.745 445.548C169.631 424.447 171.765 403.418 172.869 382.334C173.561 369.147 178.184 343.549 169.953 332.224C155.457 312.276 118.596 338.818 113.015 307.045C109.721 288.298 112.878 266.076 112.878 247.014V189.949C112.878 158.257 123.025 127.347 131.586 97.0659C142.241 59.3693 154.257 21.8419 162.762 -16.427C172.595 -60.628 167.296 -109.834 167.296 -154.978C167.296 -203.322 175.261 -251.787 173.247 -299.994" stroke="black" stroke-miterlimit="10"/>
<path d="M184.401 988.252C177.202 951.869 144.399 930.341 121.366 903.654C111.235 891.919 101.563 878.636 100.113 862.709C99.05 851.039 100.113 838.755 100.113 827.028V753.069C100.113 722.691 110.14 704.065 129.911 681.448C147.186 661.685 169.591 642.728 178.853 617.476C185.424 599.551 182.299 578.232 182.299 559.347C182.299 520.716 181.277 481.963 182.114 443.348C182.557 422.867 183.846 402.411 184.434 381.931C184.804 369.131 189.33 342.936 181.116 332.225C166.047 312.566 127.882 342.557 122.156 310.06C118.854 291.328 122.035 269.058 122.035 250.004V192.94C122.035 160.651 132.818 129.644 142.298 99.0487C154.201 60.6348 167.859 22.4142 177.073 -16.7735C187.397 -60.6602 181.655 -110.439 181.655 -155.357C181.655 -203.491 186.205 -251.924 184.401 -299.986" stroke="black" stroke-miterlimit="10"/>
<path d="M195.572 988.252C188.718 951.466 154.539 930.188 131.047 903.719C120.65 891.999 110.929 878.894 109.56 862.782C108.561 851.079 109.56 838.844 109.56 827.1V753.142C109.56 722.111 119.723 703.855 140.3 681.053C158.308 661.105 182.396 641.785 191.803 615.807C198.245 598.011 195.024 576.539 195.024 557.792C195.024 519.144 194.533 480.472 194.807 441.824C194.952 421.811 195.523 401.806 195.741 381.801C195.878 369.244 200.492 342.412 192.383 332.087C176.968 312.453 137.683 345.354 132.021 312.002C128.832 293.182 131.925 271.033 131.925 251.907V194.842C131.925 162.078 142.821 131.273 153.017 100.419C165.87 61.5052 180.93 22.7688 190.506 -17.1523C200.951 -60.7247 194.863 -110.955 194.863 -155.583C194.863 -203.669 196.731 -251.908 195.58 -299.97" stroke="black" stroke-miterlimit="10"/>
<path d="M206.734 988.252C200.484 950.846 164.727 929.728 140.936 903.147C131.409 892.507 123.307 881.28 120.787 867.078C118.459 854.005 120.126 839.287 120.126 825.972V751.538C120.126 739.746 119.587 728.809 124.153 717.734C130.338 702.743 142.056 690.58 152.968 678.877C170.88 659.67 197.625 638.932 204.785 612.535C209.327 595.819 206.742 576.112 206.742 558.84C206.742 519.813 206.742 480.786 206.742 441.76C206.742 421.916 206.742 402.072 206.742 382.229C206.742 369.558 211.711 342.251 203.553 331.942C187.728 311.929 146.912 347.434 142.813 311.607C138.456 273.523 142.354 231.982 142.644 193.649C143.208 118.772 189.105 50.6726 203.762 -21.7385C212.339 -64.1019 206.742 -111.535 206.742 -154.68C206.742 -203.121 206.75 -251.553 206.742 -299.994" stroke="black" stroke-miterlimit="10"/>
<path d="M217.896 988.252C211.655 950.838 175.881 929.728 152.091 903.147C142.563 892.507 134.461 881.28 131.941 867.078C129.613 854.005 131.28 839.287 131.28 825.972V751.538C131.28 739.746 130.733 728.809 135.299 717.734C141.476 702.743 153.202 690.58 164.115 678.877C182.026 659.67 208.779 638.932 215.939 612.535C220.473 595.819 217.896 576.112 217.896 558.839V382.237C217.896 369.566 222.865 342.251 214.715 331.942C198.89 311.929 158.066 347.45 153.975 311.615C149.626 273.532 153.516 231.99 153.806 193.657C154.37 118.771 200.275 50.6887 214.924 -21.7304C223.493 -64.0938 217.896 -111.527 217.896 -154.672V-299.986" stroke="black" stroke-miterlimit="10"/>
<path d="M229.066 988.252C222.825 950.838 187.051 929.728 163.261 903.147C153.734 892.507 145.632 881.28 143.111 867.078C140.784 854.005 142.451 839.287 142.451 825.972V751.538C142.451 739.746 141.903 728.809 146.469 717.734C152.646 702.743 164.372 690.58 175.285 678.877C193.196 659.67 219.95 638.932 227.109 612.535C231.644 595.819 229.066 576.112 229.066 558.839V382.237C229.066 369.566 234.035 342.251 225.885 331.942C210.06 311.929 169.237 347.45 165.145 311.615C160.797 273.532 164.686 231.99 164.976 193.657C165.54 118.771 211.445 50.6887 226.095 -21.7304C234.664 -64.0938 229.066 -111.527 229.066 -154.672V-299.986" stroke="black" stroke-miterlimit="10"/>
<path d="M240.229 988.252C233.987 950.838 198.213 929.728 174.423 903.147C164.896 892.507 156.794 881.28 154.273 867.078C151.946 854.005 153.613 839.287 153.613 825.972V751.538C153.613 739.746 153.065 728.809 157.632 717.734C163.809 702.743 175.535 690.58 186.447 678.877C204.358 659.67 231.112 638.932 238.272 612.535C242.806 595.819 240.221 576.112 240.221 558.839V382.237C240.221 369.566 245.19 342.251 237.039 331.942C221.214 311.929 180.391 347.45 176.3 311.615C171.951 273.532 175.841 231.99 176.131 193.657C176.694 118.771 222.599 50.6887 237.249 -21.7304C245.818 -64.0938 240.221 -111.527 240.221 -154.672V-299.986" stroke="black" stroke-miterlimit="10"/>
<path d="M251.391 988.252C245.149 950.838 209.375 929.728 185.585 903.147C176.058 892.507 167.956 881.28 165.435 867.078C163.108 854.005 164.775 839.287 164.775 825.972V751.538C164.775 739.746 164.227 728.809 168.794 717.734C174.971 702.743 186.697 690.58 197.609 678.877C215.52 659.67 242.274 638.932 249.434 612.535C253.968 595.819 251.383 576.112 251.383 558.839V382.237C251.383 369.566 256.352 342.251 248.202 331.942C232.376 311.929 191.553 347.45 187.462 311.615C183.113 273.532 187.003 231.99 187.293 193.657C187.856 118.771 233.762 50.6887 248.411 -21.7304C256.98 -64.0938 251.383 -111.527 251.383 -154.672V-299.986" stroke="black" stroke-miterlimit="10"/>
<path d="M262.553 988.252C256.311 950.838 220.538 929.728 196.747 903.147C187.22 892.507 179.118 881.28 176.598 867.078C174.27 854.005 175.937 839.287 175.937 825.972V751.538C175.937 739.746 175.39 728.809 179.956 717.734C186.133 702.743 197.859 690.58 208.771 678.877C226.682 659.67 253.436 638.932 260.596 612.535C265.13 595.819 262.545 576.112 262.545 558.839V382.237C262.545 369.566 267.514 342.251 259.364 331.942C243.539 311.929 202.715 347.45 198.624 311.615C194.275 273.532 198.165 231.99 198.455 193.657C199.019 118.771 244.924 50.6887 259.573 -21.7304C268.142 -64.0938 262.545 -111.527 262.545 -154.672V-299.986" stroke="black" stroke-miterlimit="10"/>
<path d="M273.723 988.252C267.482 950.838 231.708 929.728 207.918 903.147C198.39 892.507 190.289 881.28 187.768 867.078C185.44 854.005 187.107 839.287 187.107 825.972V751.538C187.107 739.746 186.56 728.809 191.126 717.734C197.303 702.743 209.029 690.58 219.942 678.877C237.853 659.67 264.607 638.932 271.766 612.535C276.3 595.819 273.715 576.112 273.715 558.839V382.237C273.715 369.566 278.684 342.251 270.534 331.942C254.709 311.929 213.885 347.45 209.794 311.615C205.445 273.532 209.335 231.99 209.625 193.657C210.189 118.771 256.094 50.6887 270.743 -21.7304C279.312 -64.0938 273.715 -111.527 273.715 -154.672V-299.986" stroke="black" stroke-miterlimit="10"/>
<path d="M284.885 988.252C278.644 950.838 242.87 929.728 219.08 903.147C209.553 892.507 201.451 881.28 198.93 867.078C196.602 854.005 198.27 839.287 198.27 825.972V751.538C198.27 739.746 197.722 728.809 202.288 717.734C208.465 702.743 220.191 690.58 231.104 678.877C249.015 659.67 275.769 638.932 282.928 612.535C287.462 595.819 284.877 576.112 284.877 558.839V382.237C284.877 369.566 289.846 342.251 281.696 331.942C265.871 311.929 225.048 347.45 220.956 311.615C216.607 273.532 220.497 231.99 220.787 193.657C221.351 118.771 267.256 50.6887 281.906 -21.7304C290.475 -64.0938 284.877 -111.527 284.877 -154.672V-299.986" stroke="black" stroke-miterlimit="10"/>
<path d="M296.048 988.252C289.806 950.838 254.032 929.728 230.242 903.147C220.715 892.507 212.613 881.28 210.092 867.078C207.765 854.005 209.432 839.287 209.432 825.972V751.538C209.432 739.746 208.884 728.809 213.451 717.734C219.628 702.743 231.354 690.58 242.266 678.877C260.177 659.67 286.931 638.932 294.091 612.535C298.625 595.819 296.04 576.112 296.04 558.839V382.237C296.04 369.566 301.009 342.251 292.858 331.942C277.033 311.929 236.21 347.45 232.119 311.615C227.77 273.532 231.66 231.99 231.949 193.657C232.513 118.771 278.418 50.6887 293.068 -21.7304C301.637 -64.0938 296.04 -111.527 296.04 -154.672V-299.986" stroke="black" stroke-miterlimit="10"/>
<path d="M307.218 988.252C300.976 950.838 265.203 929.728 241.412 903.147C231.885 892.507 223.783 881.28 221.262 867.078C218.935 854.005 220.602 839.287 220.602 825.972V751.538C220.602 739.746 220.054 728.809 224.621 717.734C230.798 702.743 242.524 690.58 253.436 678.877C271.347 659.67 298.101 638.932 305.261 612.535C309.795 595.819 307.21 576.112 307.21 558.839V382.237C307.21 369.566 312.179 342.251 304.029 331.942C288.203 311.929 247.38 347.45 243.289 311.615C238.94 273.532 242.83 231.99 243.12 193.657C243.684 118.771 289.589 50.6887 304.238 -21.7304C312.807 -64.0938 307.21 -111.527 307.21 -154.672V-299.986" stroke="black" stroke-miterlimit="10"/>
<path d="M318.38 988.252C312.138 950.838 276.365 929.728 252.575 903.147C243.047 892.507 234.945 881.28 232.425 867.078C230.097 854.005 231.764 839.287 231.764 825.972V751.538C231.764 739.746 231.217 728.809 235.783 717.734C241.96 702.743 253.686 690.58 264.598 678.877C282.51 659.67 309.263 638.932 316.423 612.535C320.957 595.819 318.372 576.112 318.372 558.839V382.237C318.372 369.566 323.341 342.251 315.191 331.942C299.366 311.929 258.542 347.45 254.451 311.615C250.102 273.532 253.992 231.99 254.282 193.657C254.846 118.771 300.751 50.6887 315.4 -21.7304C323.969 -64.0938 318.372 -111.527 318.372 -154.672V-299.986" stroke="black" stroke-miterlimit="10"/>
<path d="M329.542 988.252C323.301 950.838 287.527 929.728 263.737 903.147C254.21 892.507 246.108 881.28 243.587 867.078C241.259 854.005 242.927 839.287 242.927 825.972V751.538C242.927 739.746 242.379 728.809 246.945 717.734C253.122 702.743 264.848 690.58 275.761 678.877C293.672 659.67 320.426 638.932 327.585 612.535C332.119 595.819 329.534 576.112 329.534 558.839V382.237C329.534 369.566 334.503 342.251 326.353 331.942C310.528 311.929 269.705 347.45 265.613 311.615C261.264 273.532 265.154 231.99 265.444 193.657C266.008 118.771 311.913 50.6887 326.563 -21.7304C335.131 -64.0938 329.534 -111.527 329.534 -154.672V-299.986" stroke="black" stroke-miterlimit="10"/>
<path d="M340.713 988.252C334.471 950.838 298.697 929.728 274.907 903.147C265.38 892.507 257.278 881.28 254.757 867.078C252.43 854.005 254.097 839.287 254.097 825.972V751.538C254.097 739.746 253.549 728.809 258.115 717.734C264.293 702.743 276.018 690.58 286.931 678.877C304.842 659.67 331.596 638.932 338.756 612.535C343.29 595.819 340.704 576.112 340.704 558.839V382.237C340.704 369.566 345.673 342.251 337.523 331.942C321.698 311.929 280.875 347.45 276.784 311.615C272.435 273.532 276.324 231.99 276.614 193.657C277.178 118.771 323.083 50.6887 337.733 -21.7304C346.302 -64.0938 340.704 -111.527 340.704 -154.672V-299.986" stroke="black" stroke-miterlimit="10"/>
<path d="M351.875 988.252C345.633 950.838 309.859 929.728 286.069 903.147C276.542 892.507 268.44 881.28 265.919 867.078C263.592 854.005 265.259 839.287 265.259 825.972V751.538C265.259 739.746 264.711 728.809 269.278 717.734C275.455 702.743 287.181 690.58 298.093 678.877C316.004 659.67 342.758 638.932 349.918 612.535C354.452 595.819 351.867 576.112 351.867 558.839V382.237C351.867 369.566 356.836 342.251 348.686 331.942C332.86 311.929 292.037 347.45 287.946 311.615C283.597 273.532 287.487 231.99 287.777 193.657C288.34 118.771 334.246 50.6887 348.895 -21.7304C357.464 -64.0938 351.867 -111.527 351.867 -154.672V-299.986" stroke="black" stroke-miterlimit="10"/>
<path d="M363.037 988.252C356.795 950.838 321.022 929.728 297.232 903.147C287.704 892.507 279.602 881.28 277.082 867.078C274.754 854.005 276.421 839.287 276.421 825.972V751.538C276.421 739.746 275.874 728.809 280.44 717.734C286.617 702.743 298.343 690.58 309.255 678.877C327.167 659.67 353.92 638.932 361.08 612.535C365.614 595.819 363.029 576.112 363.029 558.839V382.237C363.029 369.566 367.998 342.251 359.848 331.942C344.023 311.929 303.199 347.45 299.108 311.615C294.759 273.532 298.649 231.99 298.939 193.657C299.503 118.771 345.408 50.6887 360.057 -21.7304C368.626 -64.0938 363.029 -111.527 363.029 -154.672V-299.986" stroke="black" stroke-miterlimit="10"/>
<path d="M374.207 988.252C367.966 950.838 332.192 929.728 308.402 903.147C298.874 892.507 290.773 881.28 288.252 867.078C285.924 854.005 287.591 839.287 287.591 825.972V751.538C287.591 739.746 287.044 728.809 291.61 717.734C297.787 702.743 309.513 690.58 320.426 678.877C338.337 659.67 365.091 638.932 372.25 612.535C376.784 595.819 374.199 576.112 374.199 558.839V382.237C374.199 369.566 379.168 342.251 371.018 331.942C355.193 311.929 314.369 347.45 310.278 311.615C305.929 273.532 309.819 231.99 310.109 193.657C310.673 118.771 356.578 50.6887 371.227 -21.7304C379.796 -64.0938 374.199 -111.527 374.199 -154.672V-299.986" stroke="black" stroke-miterlimit="10"/>
<path d="M385.369 988.252C379.128 950.838 343.354 929.728 319.564 903.147C310.037 892.507 301.935 881.28 299.414 867.078C297.086 854.005 298.754 839.287 298.754 825.972V751.538C298.754 739.746 298.206 728.809 302.772 717.734C308.949 702.743 320.675 690.58 331.588 678.877C349.499 659.67 376.253 638.932 383.412 612.535C387.946 595.819 385.369 576.112 385.369 558.839V382.237C385.369 369.566 390.338 342.251 382.188 331.942C366.363 311.929 325.54 347.45 321.448 311.615C317.1 273.532 320.989 231.99 321.279 193.657C321.843 118.771 367.748 50.6887 382.398 -21.7304C390.967 -64.0938 385.369 -111.527 385.369 -154.672V-299.986" stroke="black" stroke-miterlimit="10"/>
<path d="M396.532 988.252C390.29 950.838 354.516 929.728 330.726 903.147C321.199 892.507 313.097 881.28 310.576 867.078C308.249 854.005 309.916 839.287 309.916 825.972V751.538C309.916 739.746 309.368 728.809 313.935 717.734C320.112 702.743 331.838 690.58 342.75 678.877C360.661 659.67 387.415 638.932 394.575 612.535C399.109 595.819 396.524 576.112 396.524 558.839V382.237C396.524 369.566 401.493 342.251 393.342 331.942C377.517 311.929 336.694 347.45 332.603 311.615C328.254 273.532 332.144 231.99 332.433 193.657C332.997 118.771 378.902 50.6887 393.552 -21.7304C402.121 -64.0938 396.524 -111.527 396.524 -154.672V-299.986" stroke="black" stroke-miterlimit="10"/>
<path d="M407.694 988.252C401.452 950.838 365.679 929.728 341.888 903.147C332.361 892.507 324.259 881.28 321.738 867.078C319.411 854.005 321.078 839.287 321.078 825.972V751.538C321.078 739.746 320.53 728.809 325.097 717.734C331.274 702.743 343 690.58 353.912 678.877C371.823 659.67 398.577 638.932 405.737 612.535C410.271 595.819 407.686 576.112 407.686 558.839V382.237C407.686 369.566 412.655 342.251 404.505 331.942C388.679 311.929 347.856 347.45 343.765 311.615C339.416 273.532 343.306 231.99 343.596 193.657C344.159 118.771 390.065 50.6887 404.714 -21.7304C413.283 -64.0938 407.686 -111.527 407.686 -154.672V-299.986" stroke="black" stroke-miterlimit="10"/>
<path d="M418.864 988.252C412.623 950.838 376.849 929.728 353.059 903.147C343.531 892.507 335.429 881.28 332.909 867.078C330.581 854.005 332.248 839.287 332.248 825.972V751.538C332.248 739.746 331.701 728.809 336.267 717.734C342.444 702.743 354.17 690.58 365.083 678.877C382.994 659.67 409.748 638.932 416.907 612.535C421.441 595.819 418.864 576.112 418.864 558.839V382.237C418.864 369.566 423.833 342.251 415.683 331.942C399.858 311.929 359.034 347.45 354.943 311.615C350.594 273.532 354.484 231.99 354.774 193.657C355.338 118.771 401.243 50.6887 415.892 -21.7304C424.461 -64.0938 418.864 -111.527 418.864 -154.672V-299.986" stroke="black" stroke-miterlimit="10"/>
<path d="M430.026 988.252C423.785 950.838 388.011 929.728 364.221 903.147C354.693 892.507 346.592 881.28 344.071 867.078C341.743 854.005 343.41 839.287 343.41 825.972V751.538C343.41 739.746 342.863 728.809 347.429 717.734C353.606 702.743 365.332 690.58 376.245 678.877C394.156 659.67 420.91 638.932 428.069 612.535C432.603 595.819 430.018 576.112 430.018 558.839V382.237C430.018 369.566 434.987 342.251 426.837 331.942C411.012 311.929 370.188 347.45 366.097 311.615C361.748 273.532 365.638 231.99 365.928 193.657C366.492 118.771 412.397 50.6887 427.046 -21.7304C435.615 -64.0938 430.018 -111.527 430.018 -154.672V-299.986" stroke="black" stroke-miterlimit="10"/>
<path d="M441.188 988.252C434.649 951.281 399.825 930.099 376.188 903.735C365.67 892.008 356.022 878.999 354.718 862.798C353.775 851.079 354.718 838.876 354.718 827.117V753.158C354.718 739.875 354.009 727.092 360.017 714.784C366.194 702.122 376.18 691.314 385.587 681.021C403.884 661.008 429.06 641.398 438.289 615.042C444.49 597.326 441.406 575.773 441.285 557.163C441.027 518.499 441.035 479.851 441.035 441.188V382.092C441.035 369.494 445.932 342.485 437.774 332.208C422.263 312.679 383.066 345.87 377.3 312.51C374.054 293.73 377.195 271.508 377.195 252.406V195.342C377.195 121.907 420.225 53.0825 436.976 -17.3538C447.301 -60.765 441.043 -111.188 441.043 -155.647C441.043 -203.749 441.664 -251.884 441.18 -299.986" stroke="black" stroke-miterlimit="10"/>
<path d="M452.359 988.252C445.304 951.66 411.761 930.26 388.462 903.687C378.186 891.967 368.457 878.773 367.04 862.742C366.009 851.055 367.04 838.795 367.04 827.06V753.102C367.04 739.73 366.5 727.108 372.54 714.72C378.677 702.146 388.406 691.322 397.635 680.981C415.627 660.831 439.94 641.18 449.274 615.042C455.62 597.261 452.858 575.902 452.343 557.252C451.272 518.838 451.006 480.617 451.006 442.195V383.099C451.006 370.147 455.781 344.29 447.382 333.619C432.346 314.525 395.605 342.565 389.412 311.14C385.772 292.674 389.219 269.985 389.219 251.133V194.068C389.219 161.441 400.027 130.62 410.045 99.8547C422.625 61.2231 437.307 22.785 446.729 -16.7896C457.134 -60.4829 451.143 -110.616 451.143 -155.357C451.143 -203.524 453.559 -251.843 452.351 -299.986" stroke="black" stroke-miterlimit="10"/>
<path d="M463.521 988.252C456.265 952.087 424.171 930.405 401.444 903.614C391.466 891.846 381.874 878.499 380.417 862.653C379.337 850.99 380.417 838.691 380.417 826.971V753.013C380.417 722.288 390.435 703.928 410.319 680.916C427.836 660.645 451.159 640.923 460.372 615.042C466.702 597.253 464.117 576.249 463.014 557.655C460.759 519.611 459.857 482.237 459.857 444.13V385.034C459.857 371.565 464.439 347.055 456.12 335.682C442.123 316.564 408.298 338.237 402.258 308.641C398.505 290.264 402.016 267.479 402.016 248.691V191.626C402.016 159.515 412.478 128.709 421.812 98.2508C433.441 60.2962 446.81 22.5351 455.749 -16.1851C465.905 -60.1524 460.243 -109.85 460.243 -154.817C460.243 -203.169 465.067 -251.698 463.513 -299.986" stroke="black" stroke-miterlimit="10"/>
<path d="M474.683 988.252C467.515 952.554 437.001 930.543 415.063 903.517C405.423 891.645 396.177 878.193 394.728 862.532C393.648 850.869 394.728 838.57 394.728 826.851V752.892C394.728 722.587 404.416 703.952 423.567 680.836C440.456 660.452 462.659 640.624 471.566 615.042C477.743 597.294 475.223 576.765 473.362 558.356C469.553 520.74 467.757 484.736 467.757 446.894V387.798C467.757 373.637 472.017 350.722 464.117 338.334C451.731 318.917 421.2 332.829 415.788 305.143C412.172 286.629 415.522 264.109 415.522 245.225V188.16C415.522 156.702 425.218 126.179 433.683 96.0988C444.112 59.0308 455.967 22.1241 464.149 -15.5403C473.757 -59.7655 468.49 -108.932 468.49 -154.051C468.49 -202.766 476.278 -251.4 474.691 -300.002" stroke="black" stroke-miterlimit="10"/>
<path d="M485.853 988.252C479 953.062 450.2 930.663 429.237 903.396C410.343 878.83 409.86 856.407 409.86 826.689V752.731C409.86 722.893 419.009 703.976 437.299 680.731C453.422 660.242 474.409 640.302 482.841 615.034C488.745 597.35 486.208 577.418 483.405 559.299C480.643 541.422 476.237 523.795 474.941 505.7C473.628 487.363 474.788 468.753 474.788 450.376V391.28C474.788 376.289 478.525 355.155 471.438 341.494C461.161 321.682 434.335 326.373 429.881 300.782C426.612 281.962 429.607 259.975 429.607 240.864V183.8C429.607 153.099 438.241 123.108 445.61 93.4792C454.573 57.4591 464.785 21.6082 471.961 -14.8391C480.715 -59.3222 475.948 -107.835 475.948 -153.06C475.948 -202.347 487.166 -250.892 485.845 -299.986" stroke="black" stroke-miterlimit="10"/>
<path d="M497.015 988.252C490.661 953.594 463.698 930.768 443.878 903.259C426.064 878.531 425.677 855.81 425.677 826.504V752.545C425.677 723.231 434.125 704.016 451.432 680.61C466.662 660.017 486.336 639.947 494.181 615.026C499.713 597.431 497.096 578.175 493.198 560.452C489.445 543.405 483.655 526.817 481.722 509.391C479.708 491.28 481.102 472.662 481.102 454.462V395.367C481.102 379.504 484.073 360.088 478.202 345.08C470.254 324.761 447.873 319.345 444.474 295.672C441.72 276.482 444.225 255.131 444.225 235.738V178.673C444.225 113.992 468.506 49.3265 479.314 -14.1137C486.932 -58.8387 482.769 -106.618 482.769 -151.916C482.769 -177.353 484.114 -201.541 488.6 -226.624C492.965 -251.07 497.41 -275.072 497.007 -299.994" stroke="black" stroke-miterlimit="10"/>
<path d="M508.178 988.252C502.476 954.15 477.429 930.865 458.906 903.106C442.308 878.233 442.074 855.149 442.074 826.294V752.336C442.074 723.578 449.701 704.04 465.921 680.481C492.86 641.35 517.56 611.044 502.782 561.789C497.942 545.645 490.678 530.267 488.012 513.502C485.177 495.689 486.812 477.047 486.812 459.057V399.961C486.812 383.333 488.849 365.206 484.5 349.022C478.75 327.614 461.951 312.856 459.478 289.95C455.371 251.818 459.261 211.26 459.261 172.91C459.261 110.607 477.8 48.1659 486.272 -13.3642C492.465 -58.3148 489.059 -105.297 489.059 -150.626C489.059 -176.523 491.282 -200.59 496.975 -225.882C502.524 -250.53 508.21 -274.605 508.178 -299.994" stroke="black" stroke-miterlimit="10"/>
<path d="M519.34 988.252C514.395 954.723 491.338 930.946 474.24 902.937C458.971 877.927 458.922 854.44 458.922 826.069V752.11C458.922 723.941 465.655 704.057 480.683 680.336C504.723 642.373 530.486 609.448 512.205 563.256C506.197 548.079 497.402 534.063 493.923 517.935C490.162 500.493 492.055 481.794 492.055 464.054C492.055 427.905 496.089 389.007 490.436 353.261C486.699 329.669 476.503 307.795 474.804 283.76C467.781 184.307 483.164 85.9915 492.916 -12.5742C497.386 -57.7022 494.922 -103.878 494.922 -149.207C494.922 -175.628 498.143 -199.574 505.109 -225.068C511.899 -249.909 518.905 -274.073 519.34 -299.978" stroke="black" stroke-miterlimit="10"/>
<path d="M530.51 988.252C526.379 955.303 505.383 931.002 489.808 902.76C475.947 877.637 476.117 853.714 476.117 825.827V751.868C476.117 724.303 481.915 704.032 495.646 680.183C516.787 643.461 543.315 607.562 521.514 564.82C514.29 550.65 503.925 538.149 499.544 522.602C494.761 505.611 496.951 486.799 496.951 469.333C496.951 432.217 498.441 394.738 496.097 357.686C494.406 330.862 491.297 304.063 490.363 277.191C487.021 180.696 494.116 84.4762 499.335 -11.7924C501.783 -56.9848 500.478 -102.475 500.478 -147.724C500.478 -174.725 504.811 -198.551 513.082 -224.222C521.144 -249.248 529.536 -273.509 530.51 -299.986" stroke="black" stroke-miterlimit="10"/>
<path d="M541.673 988.252C538.387 955.883 519.485 931.034 505.504 902.582C493.118 877.371 493.504 852.997 493.504 825.577C493.504 775.589 487.174 725.649 510.723 680.03C529.045 644.525 555.903 605.434 530.728 566.456C522.255 553.334 510.328 542.453 504.973 527.43C499.11 510.971 501.606 491.99 501.606 474.814C501.606 437.319 500.889 399.743 501.574 362.256C502.138 331.564 506.116 301.137 506.068 270.404C505.923 176.61 505.271 82.7917 505.601 -10.9864C505.762 -56.0499 505.826 -101.113 505.826 -146.185C505.826 -173.806 511.351 -197.527 520.927 -223.351C530.277 -248.547 540.086 -272.912 541.664 -299.986" stroke="black" stroke-miterlimit="10"/>
<path d="M552.835 988.252C550.354 956.222 533.337 930.672 521.007 901.785C510.127 876.275 510.996 851.409 510.996 824.183C510.996 773.848 505.295 724.505 526.838 677.765C542.18 644.485 567.444 603.049 540.65 569.108C530.953 556.825 517.528 547.572 510.811 533.048C503.539 517.323 506.189 498.003 506.189 481.069C506.189 443.259 503.772 404.45 507.042 366.77C510.078 331.701 520.999 297.905 521.82 262.562C522.73 223.213 521.957 183.711 521.877 144.354C521.772 91.5126 514.065 39.1871 511.665 -13.5414C509.7 -56.7914 511.101 -100.34 511.101 -143.63C511.101 -172.323 517.496 -195.568 528.505 -221.9C539.192 -247.459 550.588 -272.09 552.843 -300.002" stroke="black" stroke-miterlimit="10"/>
<path d="M564.005 988.252C562.362 957.003 547.672 931.01 537.034 902.212C527.659 876.847 528.473 851.683 528.473 825.069C528.473 776.274 522.779 725.851 541.004 679.707C554.204 646.29 580.12 600.832 549.138 569.769C538.193 558.791 523.238 551.32 515.74 537.19C507.679 521.997 510.803 502.5 510.803 485.896C510.803 448.409 507.099 408.633 512.438 371.485C518.019 332.619 535.544 296.14 537.614 256.662C539.651 217.748 537.71 178.246 537.71 139.276C537.71 89.0059 523.721 40.3397 518.043 -9.37442C513.034 -53.2128 516.4 -98.9774 516.4 -143.066C516.4 -200.84 558.303 -243.848 564.005 -299.986" stroke="black" stroke-miterlimit="10"/>
<path d="M575.167 988.252C574.257 957.511 561.661 930.946 552.674 902.034C544.773 876.605 545.772 851.143 545.772 824.828C545.772 776.435 540.465 726.004 556.024 679.554C566.977 646.863 591.661 598.599 558.376 571.381C546.263 561.475 529.874 555.696 521.233 541.954C512.108 527.454 515.539 507.634 515.539 491.297C515.539 453.922 510.819 412.768 517.971 375.998C526.282 333.28 550.161 293.762 553.245 249.964C555.976 211.196 553.407 171.379 553.407 132.506C553.407 83.8556 532.87 38.7841 524.357 -8.57648C516.699 -51.1655 521.821 -98.3568 521.821 -141.542C521.821 -200.735 568.185 -242.752 575.159 -299.978" stroke="black" stroke-miterlimit="10"/>
<path d="M586.329 988.252C586.064 957.963 575.505 930.849 568.144 901.857C561.669 876.363 562.821 850.676 562.821 824.586C562.821 776.451 557.949 726.173 570.907 679.401C579.83 647.193 602.903 596.536 567.742 572.904C554.534 564.03 536.776 559.895 526.983 546.524C516.876 532.717 520.588 512.567 520.588 496.455C520.588 459.129 515.184 416.798 523.761 380.335C534.666 333.949 564.488 291.489 568.724 243.54C572.131 204.957 568.934 164.754 568.934 126.026C568.934 78.4151 542.099 37.4622 530.881 -7.80271C525.477 -29.605 527.514 -52.713 527.514 -75.0312V-140.1C527.514 -200.654 578.179 -241.736 586.337 -299.986" stroke="black" stroke-miterlimit="10"/>
<path d="M597.5 988.252C597.774 958.357 589.18 930.736 583.35 901.696C578.22 876.129 579.476 850.305 579.476 824.368C579.476 776.355 575.103 726.383 585.548 679.264C592.627 647.322 613.889 594.698 577.229 574.315C563.014 566.408 543.952 563.845 533.055 550.812C522.07 537.682 526.033 517.193 526.033 501.275C526.033 463.957 520.137 420.651 529.85 384.437C543.195 334.659 578.614 289.378 583.905 237.544C587.827 199.138 584.163 158.588 584.163 119.981C584.163 72.7892 551.425 36.4547 537.662 -7.03703C530.945 -28.2509 533.563 -51.6491 533.563 -73.6771V-138.745C533.563 -200.59 588.303 -240.777 597.5 -299.986" stroke="black" stroke-miterlimit="10"/>
<path d="M608.662 988.252C609.346 958.672 602.613 930.615 598.208 901.551C594.326 875.912 595.623 850.023 595.623 824.167C595.623 776.161 591.822 726.584 599.883 679.135C605.295 647.29 624.712 593.086 586.909 575.564C571.793 568.552 551.506 567.456 539.562 554.737C527.812 542.228 532.008 521.401 532.008 505.652C532.008 468.334 525.759 424.237 536.349 388.233C551.9 335.4 592.522 287.467 598.724 232.095C603.008 193.834 599.005 153.002 599.005 114.5C599.005 67.1311 560.88 35.7777 544.781 -6.2955C536.905 -26.8646 540.07 -50.7383 540.07 -72.4439V-137.512C540.07 -200.574 598.595 -239.866 608.654 -299.986" stroke="black" stroke-miterlimit="10"/>
<path d="M619.824 988.252C620.766 958.906 615.765 930.486 612.64 901.422C609.878 875.71 611.142 849.814 611.142 823.997C611.142 775.944 607.985 726.778 613.848 679.03C617.754 647.201 635.448 591.708 596.815 576.628C580.901 570.414 559.487 570.663 546.609 558.211C534.247 546.258 538.644 525.084 538.644 509.472C538.644 472.162 532.113 427.453 543.372 391.627C553.366 359.798 570.536 330.169 585.17 300.371C596.267 277.763 610.111 252.745 613.107 227.316C617.609 189.151 613.405 148.142 613.405 109.704C613.405 61.6342 570.528 35.4634 552.351 -5.58621C543.533 -25.5186 547.189 -49.9887 547.189 -71.3719V-136.44C547.189 -200.63 609.161 -239.004 619.824 -299.986" stroke="black" stroke-miterlimit="10"/>
<path d="M630.986 988.252C632.017 959.075 628.578 930.365 626.565 901.309C624.777 875.541 625.904 849.668 625.904 823.852C625.904 775.71 623.456 726.931 627.362 678.933C629.094 657.623 631.526 636.312 631.365 614.897C631.22 595.222 626.347 583.906 606.987 577.458C590.412 571.937 567.951 573.396 554.284 561.145C541.471 549.651 546.054 528.115 546.054 512.631C546.054 475.394 539.305 430.194 550.982 394.561C561.935 361.136 580.74 330.137 596.662 298.985C608.549 275.74 623.77 249.747 626.935 223.342C631.502 185.218 627.217 144.144 627.217 105.747C627.217 56.5322 580.313 35.5681 560.413 -4.90918C550.902 -24.2532 554.993 -49.4165 554.993 -70.4773V-135.546C554.993 -200.767 620.009 -238.174 630.986 -299.986" stroke="black" stroke-miterlimit="10"/>
<path d="M642.157 988.252C643.888 933.597 639.797 878.483 639.797 823.739C639.797 775.516 638.122 727.019 640.352 678.853C641.343 657.542 642.793 636.24 642.511 614.897C642.245 594.892 637.518 583.842 617.48 578.03C600.383 573.073 576.987 575.604 562.716 563.45C549.637 552.319 554.381 530.38 554.381 515.025C554.381 477.949 547.439 432.362 559.318 396.954C570.971 362.216 591.194 330.089 608.179 297.857C620.662 274.176 636.994 247.441 640.175 220.303C644.637 182.155 640.417 141.162 640.417 102.748C640.417 52.0347 590.332 36.1565 569.095 -4.26438C559.189 -23.1248 563.626 -49.0296 563.626 -69.8002V-134.869C563.626 -201.017 631.236 -237.384 642.165 -299.978" stroke="black" stroke-miterlimit="10"/>
<path d="M653.319 988.252C655.429 885.181 650.782 781.924 652.747 678.813C653.149 657.51 653.794 636.215 653.56 614.905C653.335 594.618 648.954 583.656 628.328 578.296C610.876 573.767 586.643 577.192 571.986 565.046C558.843 554.149 563.739 531.766 563.739 516.549C563.739 479.747 556.62 433.869 568.442 398.728C580.474 362.982 601.905 330 619.671 297.002C632.54 273.104 649.678 245.918 652.682 218.313C656.846 180.076 652.86 139.308 652.86 100.83C652.86 48.303 600.528 37.293 578.437 -3.68405C568.45 -22.214 573.162 -48.8684 573.162 -69.3731V-134.441C573.162 -201.396 642.865 -236.658 653.319 -299.978" stroke="black" stroke-miterlimit="10"/>
<path d="M664.481 988.252C664.537 884.407 664.441 780.57 664.481 676.725C664.481 655.302 664.602 633.878 664.489 612.455C664.384 593.401 660.422 583.584 640.981 578.651C623.142 574.121 598.563 577.837 583.116 566.214C569.554 556.002 574.249 532.999 574.249 517.806V458.283C574.249 438.496 572.469 418.475 578.743 399.461C589.913 365.601 610.208 334.401 627.354 303.362C641.867 277.102 661.34 247.304 664.239 216.709C667.896 178.109 664.875 137.06 664.481 98.2911C664.223 73.0552 655.203 58.781 635.859 42.3144C619.349 28.2577 596.348 14.9426 587.505 -5.78769C579.758 -23.9469 583.744 -48.3284 583.744 -67.8013V-133.297C583.744 -167.205 597.709 -189.088 617.384 -215.872C636.495 -241.889 659.584 -267.141 664.481 -300.002" stroke="black" stroke-miterlimit="10"/>
<path d="M675.651 988.252V676.725C675.651 655.302 675.756 633.878 675.651 612.455C675.554 593.401 671.608 583.576 652.151 578.643C634.312 574.121 609.717 577.845 594.27 566.222C580.708 556.01 585.419 532.999 585.419 517.806V458.283C585.419 438.504 583.639 418.483 589.897 399.477C601.059 365.609 621.37 334.393 638.532 303.362C653.045 277.102 672.526 247.312 675.418 216.717C679.058 178.117 676.046 137.076 675.659 98.3072C675.409 73.0633 666.406 58.789 647.037 42.3224C630.519 28.2819 607.494 14.9748 598.667 -5.76353C590.936 -23.9227 594.922 -48.3203 594.922 -67.7852V-133.281C594.922 -167.189 608.879 -189.064 628.562 -215.855C647.673 -241.865 670.779 -267.117 675.659 -299.986" stroke="black" stroke-miterlimit="10"/>
<path d="M686.813 988.252V676.725C686.813 655.302 686.918 633.878 686.813 612.455C686.717 593.401 682.77 583.576 663.313 578.643C645.474 574.121 620.879 577.845 605.432 566.222C591.87 556.01 596.581 532.999 596.581 517.806V458.283C596.581 438.504 594.802 418.483 601.059 399.477C612.221 365.609 632.532 334.393 649.694 303.362C664.207 277.102 683.688 247.312 686.58 216.717C690.22 178.117 687.208 137.076 686.821 98.3072C686.572 73.0633 677.568 58.789 658.199 42.3224C641.681 28.2819 618.656 14.9748 609.829 -5.76353C602.098 -23.9227 606.085 -48.3203 606.085 -67.7852V-133.281C606.085 -167.189 620.041 -189.064 639.724 -215.855C658.835 -241.865 681.941 -267.117 686.821 -299.986" stroke="black" stroke-miterlimit="10"/>
<path d="M697.976 988.252V676.725C697.976 655.302 698.08 633.878 697.976 612.455C697.879 593.401 693.933 583.576 674.475 578.643C656.637 574.121 632.041 577.845 616.595 566.222C603.032 556.01 607.744 532.999 607.744 517.806V458.283C607.744 438.504 605.964 418.483 612.221 399.477C623.384 365.609 643.695 334.393 660.857 303.362C675.369 277.102 694.851 247.312 697.742 216.717C701.382 178.117 698.37 137.076 697.984 98.3072C697.734 73.0633 688.73 58.789 669.361 42.3224C652.844 28.2819 629.818 14.9748 620.992 -5.76353C613.26 -23.9227 617.247 -48.3203 617.247 -67.7852V-133.281C617.247 -167.189 631.204 -189.064 650.886 -215.855C669.998 -241.865 693.103 -267.117 697.984 -299.986" stroke="black" stroke-miterlimit="10"/>
<path d="M709.146 988.252V676.725C709.146 655.302 709.25 633.878 709.146 612.455C709.049 593.401 705.103 583.576 685.645 578.643C667.807 574.121 643.211 577.845 627.765 566.222C614.203 556.01 618.914 532.999 618.914 517.806V458.283C618.914 438.504 617.134 418.483 623.392 399.477C634.554 365.609 654.865 334.393 672.027 303.362C686.539 277.102 706.021 247.312 708.912 216.717C712.552 178.117 709.54 137.076 709.154 98.3072C708.904 73.0633 699.9 58.789 680.531 42.3224C664.014 28.2819 640.989 14.9748 632.162 -5.76353C624.431 -23.9227 628.417 -48.3203 628.417 -67.7852V-133.281C628.417 -167.189 642.374 -189.064 662.057 -215.855C681.168 -241.865 704.273 -267.117 709.154 -299.986" stroke="black" stroke-miterlimit="10"/>
<path d="M720.308 988.252V676.725C720.308 655.302 720.413 633.878 720.308 612.455C720.211 593.401 716.265 583.576 696.808 578.643C678.969 574.121 654.374 577.845 638.927 566.222C625.365 556.01 630.076 532.999 630.076 517.806V458.283C630.076 438.504 628.296 418.483 634.554 399.477C645.716 365.609 666.027 334.393 683.189 303.362C697.702 277.102 717.183 247.312 720.074 216.717C723.715 178.117 720.703 137.076 720.316 98.3072C720.066 73.0633 711.063 58.789 691.694 42.3224C675.176 28.2819 652.151 14.9748 643.324 -5.76353C635.593 -23.9227 639.579 -48.3203 639.579 -67.7852V-133.281C639.579 -167.189 653.536 -189.064 673.219 -215.855C692.33 -241.865 715.436 -267.117 720.316 -299.986" stroke="black" stroke-miterlimit="10"/>
<path d="M731.47 988.252V676.725C731.47 655.302 731.575 633.878 731.47 612.455C731.374 593.401 727.427 583.576 707.97 578.643C690.131 574.121 665.536 577.845 650.089 566.222C636.535 556.01 641.238 532.999 641.238 517.806V458.283C641.238 438.504 639.459 418.483 645.716 399.477C656.878 365.609 677.189 334.393 694.351 303.362C708.864 277.102 728.345 247.312 731.237 216.717C734.877 178.117 731.865 137.076 731.478 98.3072C731.229 73.0633 722.225 58.789 702.856 42.3224C686.338 28.2819 663.313 14.9748 654.486 -5.76353C646.755 -23.9227 650.742 -48.3203 650.742 -67.7852V-133.281C650.742 -167.189 664.698 -189.064 684.381 -215.855C703.492 -241.865 726.598 -267.117 731.478 -299.986" stroke="black" stroke-miterlimit="10"/>
<path d="M742.64 988.252V676.725C742.64 655.302 742.745 633.878 742.64 612.455C742.544 593.401 738.597 583.576 719.14 578.643C701.301 574.121 676.706 577.845 661.259 566.222C647.697 556.01 652.408 532.999 652.408 517.806V458.283C652.408 438.504 650.629 418.483 656.886 399.477C668.048 365.609 688.359 334.393 705.522 303.362C720.034 277.102 739.516 247.312 742.407 216.717C746.047 178.117 743.035 137.076 742.648 98.3072C742.399 73.0633 733.395 58.789 714.026 42.3224C697.508 28.2819 674.483 14.9748 665.657 -5.76353C657.925 -23.9227 661.912 -48.3203 661.912 -67.7852V-133.281C661.912 -167.189 675.868 -189.064 695.551 -215.855C714.662 -241.865 737.768 -267.117 742.648 -299.986" stroke="black" stroke-miterlimit="10"/>
<path d="M753.802 988.252V676.725C753.802 655.302 753.907 633.878 753.802 612.455C753.706 593.401 749.76 583.576 730.302 578.643C712.464 574.121 687.868 577.845 672.421 566.222C658.859 556.01 663.571 532.999 663.571 517.806V458.283C663.571 438.504 661.791 418.483 668.048 399.477C679.211 365.609 699.522 334.393 716.684 303.362C731.196 277.102 750.678 247.312 753.569 216.717C757.209 178.117 754.197 137.076 753.81 98.3072C753.561 73.0633 744.557 58.789 725.188 42.3224C708.67 28.2819 685.645 14.9748 676.819 -5.76353C669.087 -23.9227 673.074 -48.3203 673.074 -67.7852V-133.281C673.074 -167.189 687.031 -189.064 706.713 -215.855C725.824 -241.865 748.93 -267.117 753.81 -299.986" stroke="black" stroke-miterlimit="10"/>
<path d="M764.965 988.252V676.725C764.965 655.302 765.069 633.878 764.965 612.455C764.868 593.401 760.922 583.576 741.465 578.643C723.626 574.121 699.03 577.845 683.584 566.222C670.022 556.01 674.733 532.999 674.733 517.806V458.283C674.733 438.504 672.953 418.483 679.211 399.477C690.373 365.609 710.684 334.393 727.846 303.362C742.358 277.102 761.84 247.312 764.731 216.717C768.371 178.117 765.359 137.076 764.973 98.3072C764.723 73.0633 755.719 58.789 736.351 42.3224C719.833 28.2819 696.808 14.9748 687.981 -5.76353C680.25 -23.9227 684.236 -48.3203 684.236 -67.7852V-133.281C684.236 -167.189 698.193 -189.064 717.876 -215.855C736.987 -241.865 760.092 -267.117 764.973 -299.986" stroke="black" stroke-miterlimit="10"/>
<path d="M776.127 988.252V676.725C776.127 655.302 776.232 633.878 776.127 612.455C776.03 593.401 772.084 583.576 752.627 578.643C734.788 574.121 710.193 577.845 694.746 566.222C681.184 556.01 685.895 532.999 685.895 517.806V458.283C685.895 438.504 684.115 418.483 690.373 399.477C701.535 365.609 721.846 334.393 739.008 303.362C753.521 277.102 773.002 247.312 775.894 216.717C779.534 178.117 776.522 137.076 776.135 98.3072C775.886 73.0633 766.882 58.789 747.513 42.3224C730.995 28.2819 707.97 14.9748 699.143 -5.76353C691.412 -23.9227 695.398 -48.3203 695.398 -67.7852V-133.281C695.398 -167.189 709.355 -189.064 729.038 -215.855C748.149 -241.865 771.255 -267.117 776.135 -299.986" stroke="black" stroke-miterlimit="10"/>
<path d="M787.297 988.252V676.725C787.297 655.302 787.402 633.878 787.297 612.455C787.2 593.401 783.254 583.576 763.797 578.643C745.958 574.121 721.363 577.845 705.916 566.222C692.362 556.01 697.065 532.999 697.065 517.806V458.283C697.065 438.504 695.285 418.483 701.543 399.477C712.705 365.609 733.016 334.393 750.178 303.362C764.691 277.102 784.172 247.312 787.064 216.717C790.704 178.117 787.692 137.076 787.305 98.3072C787.055 73.0633 778.052 58.789 758.683 42.3224C742.165 28.2819 719.14 14.9748 710.313 -5.76353C702.582 -23.9227 706.568 -48.3203 706.568 -67.7852V-133.281C706.568 -167.189 720.525 -189.064 740.208 -215.855C759.319 -241.865 782.425 -267.117 787.305 -299.986" stroke="black" stroke-miterlimit="10"/>
</g>
</g>
</svg>
